<svg width="649" height="21" viewBox="0 0 649 21" fill="none" xmlns="http://www.w3.org/2000/svg">
<path d="M0.554 16V0.879999H2.78V16H0.554ZM1.646 9.721V7.894H9.962V9.721H1.646ZM1.646 2.707V0.879999H10.529V2.707H1.646ZM17.1716 16.21C16.0796 16.21 15.1206 15.972 14.2946 15.496C13.4686 15.006 12.8246 14.341 12.3626 13.501C11.9006 12.647 11.6696 11.681 11.6696 10.603C11.6696 9.511 11.9006 8.552 12.3626 7.726C12.8386 6.9 13.4826 6.256 14.2946 5.794C15.1206 5.318 16.0796 5.08 17.1716 5.08C18.2776 5.08 19.2436 5.318 20.0696 5.794C20.8956 6.256 21.5326 6.9 21.9806 7.726C22.4426 8.552 22.6736 9.511 22.6736 10.603C22.6736 11.681 22.4426 12.647 21.9806 13.501C21.5326 14.341 20.8956 15.006 20.0696 15.496C19.2436 15.972 18.2776 16.21 17.1716 16.21ZM17.1716 14.425C17.8296 14.425 18.3966 14.264 18.8726 13.942C19.3626 13.62 19.7476 13.172 20.0276 12.598C20.3076 12.024 20.4476 11.352 20.4476 10.582C20.4476 9.434 20.1396 8.531 19.5236 7.873C18.9216 7.201 18.1376 6.865 17.1716 6.865C16.2196 6.865 15.4356 7.201 14.8196 7.873C14.2176 8.545 13.9166 9.448 13.9166 10.582C13.9166 11.352 14.0496 12.024 14.3156 12.598C14.5956 13.172 14.9806 13.62 15.4706 13.942C15.9746 14.264 16.5416 14.425 17.1716 14.425ZM29.3688 16.21C28.3468 16.21 27.4368 15.972 26.6388 15.496C25.8408 15.006 25.2108 14.341 24.7488 13.501C24.3008 12.661 24.0768 11.702 24.0768 10.624C24.0768 9.546 24.3008 8.594 24.7488 7.768C25.2108 6.928 25.8408 6.27 26.6388 5.794C27.4368 5.318 28.3398 5.08 29.3478 5.08C30.2018 5.08 30.9648 5.241 31.6368 5.563C32.3088 5.885 32.8618 6.333 33.2958 6.907C33.7298 7.481 34.0098 8.16 34.1358 8.944H32.0778C31.9378 8.314 31.6298 7.81 31.1538 7.432C30.6918 7.054 30.1038 6.865 29.3898 6.865C28.7738 6.865 28.2348 7.019 27.7728 7.327C27.3108 7.635 26.9538 8.069 26.7018 8.629C26.4498 9.189 26.3238 9.854 26.3238 10.624C26.3238 11.38 26.4498 12.045 26.7018 12.619C26.9538 13.193 27.3108 13.641 27.7728 13.963C28.2348 14.271 28.7808 14.425 29.4108 14.425C30.0968 14.425 30.6778 14.243 31.1538 13.879C31.6438 13.501 31.9588 12.997 32.0988 12.367H34.1568C34.0168 13.137 33.7228 13.809 33.2748 14.383C32.8408 14.957 32.2878 15.405 31.6158 15.727C30.9438 16.049 30.1948 16.21 29.3688 16.21ZM39.6001 16.21C38.8861 16.21 38.2561 16.063 37.7101 15.769C37.1641 15.461 36.7371 15.041 36.4291 14.509C36.1351 13.977 35.9881 13.368 35.9881 12.682V5.29H38.1721V12.178C38.1721 12.92 38.3541 13.473 38.7181 13.837C39.0821 14.201 39.6001 14.383 40.2721 14.383C40.8741 14.383 41.4061 14.243 41.8681 13.963C42.3441 13.683 42.7151 13.298 42.9811 12.808C43.2611 12.304 43.4011 11.723 43.4011 11.065L43.6741 13.627C43.3241 14.411 42.7851 15.041 42.0571 15.517C41.3431 15.979 40.5241 16.21 39.6001 16.21ZM43.4851 16V13.48H43.4011V5.29H45.5641V16H43.4851ZM52.4058 16.21C51.0058 16.21 49.8928 15.902 49.0668 15.286C48.2408 14.67 47.7718 13.802 47.6598 12.682H49.6758C49.7738 13.298 50.0538 13.774 50.5158 14.11C50.9918 14.432 51.6358 14.593 52.4478 14.593C53.1618 14.593 53.7078 14.467 54.0858 14.215C54.4638 13.963 54.6528 13.606 54.6528 13.144C54.6528 12.808 54.5408 12.528 54.3168 12.304C54.1068 12.066 53.6868 11.87 53.0568 11.716L51.3348 11.317C50.2568 11.051 49.4518 10.659 48.9198 10.141C48.4018 9.609 48.1428 8.958 48.1428 8.188C48.1428 7.222 48.4998 6.466 49.2138 5.92C49.9418 5.36 50.9358 5.08 52.1958 5.08C53.4418 5.08 54.4428 5.36 55.1988 5.92C55.9688 6.48 56.4028 7.264 56.5008 8.272H54.4848C54.4008 7.768 54.1558 7.383 53.7498 7.117C53.3578 6.837 52.8188 6.697 52.1328 6.697C51.4888 6.697 50.9918 6.816 50.6418 7.054C50.3058 7.278 50.1378 7.593 50.1378 7.999C50.1378 8.335 50.2638 8.615 50.5158 8.839C50.7818 9.063 51.2158 9.252 51.8178 9.406L53.5818 9.847C54.6038 10.099 55.3738 10.512 55.8918 11.086C56.4098 11.646 56.6688 12.325 56.6688 13.123C56.6688 14.089 56.2908 14.845 55.5348 15.391C54.7928 15.937 53.7498 16.21 52.4058 16.21ZM67.4977 16.21C66.4057 16.21 65.4467 15.972 64.6207 15.496C63.7947 15.006 63.1507 14.341 62.6887 13.501C62.2267 12.647 61.9957 11.681 61.9957 10.603C61.9957 9.511 62.2267 8.552 62.6887 7.726C63.1647 6.9 63.8087 6.256 64.6207 5.794C65.4467 5.318 66.4057 5.08 67.4977 5.08C68.6037 5.08 69.5697 5.318 70.3957 5.794C71.2217 6.256 71.8587 6.9 72.3067 7.726C72.7687 8.552 72.9997 9.511 72.9997 10.603C72.9997 11.681 72.7687 12.647 72.3067 13.501C71.8587 14.341 71.2217 15.006 70.3957 15.496C69.5697 15.972 68.6037 16.21 67.4977 16.21ZM67.4977 14.425C68.1557 14.425 68.7227 14.264 69.1987 13.942C69.6887 13.62 70.0737 13.172 70.3537 12.598C70.6337 12.024 70.7737 11.352 70.7737 10.582C70.7737 9.434 70.4657 8.531 69.8497 7.873C69.2477 7.201 68.4637 6.865 67.4977 6.865C66.5457 6.865 65.7617 7.201 65.1457 7.873C64.5437 8.545 64.2427 9.448 64.2427 10.582C64.2427 11.352 64.3757 12.024 64.6417 12.598C64.9217 13.172 65.3067 13.62 65.7967 13.942C66.3007 14.264 66.8677 14.425 67.4977 14.425ZM75.243 16V5.29H77.322V7.81H77.427V16H75.243ZM82.845 16V9.112C82.845 8.37 82.656 7.817 82.278 7.453C81.914 7.089 81.368 6.907 80.64 6.907C80.01 6.907 79.45 7.047 78.96 7.327C78.484 7.607 78.106 7.992 77.826 8.482C77.56 8.972 77.427 9.553 77.427 10.225L77.154 7.663C77.504 6.865 78.043 6.235 78.771 5.773C79.499 5.311 80.346 5.08 81.312 5.08C82.46 5.08 83.363 5.402 84.021 6.046C84.679 6.69 85.008 7.544 85.008 8.608V16H82.845ZM96.7409 16.21C95.6629 16.21 94.7109 15.972 93.8849 15.496C93.0729 15.02 92.4359 14.362 91.9739 13.522C91.5119 12.682 91.2809 11.716 91.2809 10.624C91.2809 9.518 91.5049 8.552 91.9529 7.726C92.4149 6.886 93.0589 6.235 93.8849 5.773C94.7109 5.311 95.6559 5.08 96.7199 5.08C97.7559 5.08 98.6519 5.304 99.4079 5.752C100.178 6.186 100.766 6.795 101.172 7.579C101.592 8.363 101.802 9.294 101.802 10.372C101.802 10.54 101.795 10.701 101.781 10.855C101.781 10.995 101.767 11.142 101.739 11.296H92.7509V9.658H100.206L99.6599 10.309C99.6599 9.161 99.4009 8.286 98.8829 7.684C98.3649 7.082 97.6439 6.781 96.7199 6.781C95.7259 6.781 94.9349 7.124 94.3469 7.81C93.7729 8.482 93.4859 9.42 93.4859 10.624C93.4859 11.842 93.7729 12.794 94.3469 13.48C94.9349 14.166 95.7469 14.509 96.7829 14.509C97.4129 14.509 97.9589 14.383 98.4209 14.131C98.8829 13.865 99.2259 13.48 99.4499 12.976H101.508C101.158 13.984 100.563 14.775 99.7229 15.349C98.8969 15.923 97.9029 16.21 96.7409 16.21ZM110.565 16L107.142 11.107L102.795 5.29H105.273L108.402 9.763L113.043 16H110.565ZM107.289 9.763L110.481 5.29H112.875L108.381 11.254L107.289 9.763ZM108.171 11.317L104.727 16H102.312L107.121 9.784L108.171 11.317ZM120.904 16.189C119.896 16.189 119.056 15.951 118.384 15.475C117.726 14.985 117.292 14.306 117.082 13.438L117.376 13.396V20.305H115.192V5.29H117.271V7.747L117.061 7.684C117.285 6.872 117.761 6.235 118.489 5.773C119.217 5.311 120.071 5.08 121.051 5.08C122.017 5.08 122.85 5.311 123.55 5.773C124.264 6.235 124.81 6.879 125.188 7.705C125.58 8.531 125.776 9.497 125.776 10.603C125.776 11.723 125.573 12.703 125.167 13.543C124.761 14.383 124.194 15.034 123.466 15.496C122.738 15.958 121.884 16.189 120.904 16.189ZM120.442 14.383C121.394 14.383 122.15 14.047 122.71 13.375C123.27 12.703 123.55 11.779 123.55 10.603C123.55 9.441 123.27 8.538 122.71 7.894C122.15 7.236 121.387 6.907 120.421 6.907C119.469 6.907 118.706 7.243 118.132 7.915C117.572 8.573 117.292 9.49 117.292 10.666C117.292 11.814 117.572 12.724 118.132 13.396C118.706 14.054 119.476 14.383 120.442 14.383ZM132.753 16.21C131.675 16.21 130.723 15.972 129.897 15.496C129.085 15.02 128.448 14.362 127.986 13.522C127.524 12.682 127.293 11.716 127.293 10.624C127.293 9.518 127.517 8.552 127.965 7.726C128.427 6.886 129.071 6.235 129.897 5.773C130.723 5.311 131.668 5.08 132.732 5.08C133.768 5.08 134.664 5.304 135.42 5.752C136.19 6.186 136.778 6.795 137.184 7.579C137.604 8.363 137.814 9.294 137.814 10.372C137.814 10.54 137.807 10.701 137.793 10.855C137.793 10.995 137.779 11.142 137.751 11.296H128.763V9.658H136.218L135.672 10.309C135.672 9.161 135.413 8.286 134.895 7.684C134.377 7.082 133.656 6.781 132.732 6.781C131.738 6.781 130.947 7.124 130.359 7.81C129.785 8.482 129.498 9.42 129.498 10.624C129.498 11.842 129.785 12.794 130.359 13.48C130.947 14.166 131.759 14.509 132.795 14.509C133.425 14.509 133.971 14.383 134.433 14.131C134.895 13.865 135.238 13.48 135.462 12.976H137.52C137.17 13.984 136.575 14.775 135.735 15.349C134.909 15.923 133.915 16.21 132.753 16.21ZM140.048 16V5.29H142.127V7.957H142.232V16H140.048ZM142.232 10.414L141.959 7.873C142.211 6.963 142.645 6.27 143.261 5.794C143.877 5.318 144.612 5.08 145.466 5.08C145.788 5.08 146.012 5.108 146.138 5.164V7.222C146.068 7.194 145.97 7.18 145.844 7.18C145.718 7.166 145.564 7.159 145.382 7.159C144.332 7.159 143.541 7.432 143.009 7.978C142.491 8.524 142.232 9.336 142.232 10.414ZM152.89 16.21C151.644 16.21 150.727 15.923 150.139 15.349C149.565 14.761 149.278 13.9 149.278 12.766V2.833L151.441 2.014V12.787C151.441 13.347 151.588 13.76 151.882 14.026C152.176 14.292 152.652 14.425 153.31 14.425C153.562 14.425 153.786 14.404 153.982 14.362C154.178 14.32 154.346 14.271 154.486 14.215V15.979C154.332 16.049 154.115 16.105 153.835 16.147C153.555 16.189 153.24 16.21 152.89 16.21ZM147.136 7.033V5.29H154.486V7.033H147.136ZM156.515 16V5.29H158.699V16H156.515ZM156.41 3.19V0.732999H158.825V3.19H156.41ZM165.609 16.21C164.209 16.21 163.096 15.902 162.27 15.286C161.444 14.67 160.975 13.802 160.863 12.682H162.879C162.977 13.298 163.257 13.774 163.719 14.11C164.195 14.432 164.839 14.593 165.651 14.593C166.365 14.593 166.911 14.467 167.289 14.215C167.667 13.963 167.856 13.606 167.856 13.144C167.856 12.808 167.744 12.528 167.52 12.304C167.31 12.066 166.89 11.87 166.26 11.716L164.538 11.317C163.46 11.051 162.655 10.659 162.123 10.141C161.605 9.609 161.346 8.958 161.346 8.188C161.346 7.222 161.703 6.466 162.417 5.92C163.145 5.36 164.139 5.08 165.399 5.08C166.645 5.08 167.646 5.36 168.402 5.92C169.172 6.48 169.606 7.264 169.704 8.272H167.688C167.604 7.768 167.359 7.383 166.953 7.117C166.561 6.837 166.022 6.697 165.336 6.697C164.692 6.697 164.195 6.816 163.845 7.054C163.509 7.278 163.341 7.593 163.341 7.999C163.341 8.335 163.467 8.615 163.719 8.839C163.985 9.063 164.419 9.252 165.021 9.406L166.785 9.847C167.807 10.099 168.577 10.512 169.095 11.086C169.613 11.646 169.872 12.325 169.872 13.123C169.872 14.089 169.494 14.845 168.738 15.391C167.996 15.937 166.953 16.21 165.609 16.21ZM176.885 16.21C175.807 16.21 174.855 15.972 174.029 15.496C173.217 15.02 172.58 14.362 172.118 13.522C171.656 12.682 171.425 11.716 171.425 10.624C171.425 9.518 171.649 8.552 172.097 7.726C172.559 6.886 173.203 6.235 174.029 5.773C174.855 5.311 175.8 5.08 176.864 5.08C177.9 5.08 178.796 5.304 179.552 5.752C180.322 6.186 180.91 6.795 181.316 7.579C181.736 8.363 181.946 9.294 181.946 10.372C181.946 10.54 181.939 10.701 181.925 10.855C181.925 10.995 181.911 11.142 181.883 11.296H172.895V9.658H180.35L179.804 10.309C179.804 9.161 179.545 8.286 179.027 7.684C178.509 7.082 177.788 6.781 176.864 6.781C175.87 6.781 175.079 7.124 174.491 7.81C173.917 8.482 173.63 9.42 173.63 10.624C173.63 11.842 173.917 12.794 174.491 13.48C175.079 14.166 175.891 14.509 176.927 14.509C177.557 14.509 178.103 14.383 178.565 14.131C179.027 13.865 179.37 13.48 179.594 12.976H181.652C181.302 13.984 180.707 14.775 179.867 15.349C179.041 15.923 178.047 16.21 176.885 16.21ZM194.959 16C194.889 15.734 194.84 15.44 194.812 15.118C194.798 14.796 194.791 14.404 194.791 13.942H194.686V8.839C194.686 8.153 194.511 7.642 194.161 7.306C193.825 6.956 193.286 6.781 192.544 6.781C191.83 6.781 191.256 6.921 190.822 7.201C190.402 7.481 190.157 7.88 190.087 8.398H188.008C188.106 7.39 188.561 6.585 189.373 5.983C190.185 5.381 191.27 5.08 192.628 5.08C194.028 5.08 195.078 5.409 195.778 6.067C196.478 6.711 196.828 7.663 196.828 8.923V13.942C196.828 14.264 196.849 14.593 196.891 14.929C196.933 15.265 196.996 15.622 197.08 16H194.959ZM191.263 16.21C190.171 16.21 189.303 15.944 188.659 15.412C188.015 14.866 187.693 14.131 187.693 13.207C187.693 12.255 188.029 11.506 188.701 10.96C189.387 10.4 190.367 10.022 191.641 9.826L195.169 9.259V10.792L191.977 11.296C191.263 11.408 190.724 11.597 190.36 11.863C190.01 12.129 189.835 12.514 189.835 13.018C189.835 13.508 189.996 13.879 190.318 14.131C190.654 14.369 191.137 14.488 191.767 14.488C192.607 14.488 193.3 14.285 193.846 13.879C194.406 13.473 194.686 12.962 194.686 12.346L194.959 13.9C194.707 14.642 194.259 15.216 193.615 15.622C192.971 16.014 192.187 16.21 191.263 16.21ZM199.787 16V5.29H201.866V7.81H201.971V16H199.787ZM207.389 16V9.112C207.389 8.37 207.2 7.817 206.822 7.453C206.458 7.089 205.912 6.907 205.184 6.907C204.554 6.907 203.994 7.047 203.504 7.327C203.028 7.607 202.65 7.992 202.37 8.482C202.104 8.972 201.971 9.553 201.971 10.225L201.698 7.663C202.048 6.865 202.587 6.235 203.315 5.773C204.043 5.311 204.89 5.08 205.856 5.08C207.004 5.08 207.907 5.402 208.565 6.046C209.223 6.69 209.552 7.544 209.552 8.608V16H207.389ZM220.25 16V13.543L220.46 13.606C220.236 14.404 219.774 15.041 219.074 15.517C218.374 15.979 217.534 16.21 216.554 16.21C215.588 16.21 214.741 15.979 214.013 15.517C213.299 15.055 212.739 14.411 212.333 13.585C211.941 12.759 211.745 11.793 211.745 10.687C211.745 9.567 211.948 8.587 212.354 7.747C212.76 6.907 213.327 6.256 214.055 5.794C214.783 5.332 215.637 5.101 216.617 5.101C217.639 5.101 218.479 5.346 219.137 5.836C219.809 6.312 220.25 6.984 220.46 7.852L220.166 7.894V0.879999H222.329V16H220.25ZM217.1 14.383C218.066 14.383 218.829 14.054 219.389 13.396C219.949 12.724 220.229 11.8 220.229 10.624C220.229 9.476 219.942 8.573 219.368 7.915C218.808 7.243 218.045 6.907 217.079 6.907C216.127 6.907 215.371 7.243 214.811 7.915C214.265 8.573 213.992 9.497 213.992 10.687C213.992 11.849 214.265 12.759 214.811 13.417C215.371 14.061 216.134 14.383 217.1 14.383ZM235.256 16.189C234.248 16.189 233.408 15.951 232.736 15.475C232.078 14.985 231.644 14.306 231.434 13.438L231.728 13.396V20.305H229.544V5.29H231.623V7.747L231.413 7.684C231.637 6.872 232.113 6.235 232.841 5.773C233.569 5.311 234.423 5.08 235.403 5.08C236.369 5.08 237.202 5.311 237.902 5.773C238.616 6.235 239.162 6.879 239.54 7.705C239.932 8.531 240.128 9.497 240.128 10.603C240.128 11.723 239.925 12.703 239.519 13.543C239.113 14.383 238.546 15.034 237.818 15.496C237.09 15.958 236.236 16.189 235.256 16.189ZM234.794 14.383C235.746 14.383 236.502 14.047 237.062 13.375C237.622 12.703 237.902 11.779 237.902 10.603C237.902 9.441 237.622 8.538 237.062 7.894C236.502 7.236 235.739 6.907 234.773 6.907C233.821 6.907 233.058 7.243 232.484 7.915C231.924 8.573 231.644 9.49 231.644 10.666C231.644 11.814 231.924 12.724 232.484 13.396C233.058 14.054 233.828 14.383 234.794 14.383ZM249.079 16C249.009 15.734 248.96 15.44 248.932 15.118C248.918 14.796 248.911 14.404 248.911 13.942H248.806V8.839C248.806 8.153 248.631 7.642 248.281 7.306C247.945 6.956 247.406 6.781 246.664 6.781C245.95 6.781 245.376 6.921 244.942 7.201C244.522 7.481 244.277 7.88 244.207 8.398H242.128C242.226 7.39 242.681 6.585 243.493 5.983C244.305 5.381 245.39 5.08 246.748 5.08C248.148 5.08 249.198 5.409 249.898 6.067C250.598 6.711 250.948 7.663 250.948 8.923V13.942C250.948 14.264 250.969 14.593 251.011 14.929C251.053 15.265 251.116 15.622 251.2 16H249.079ZM245.383 16.21C244.291 16.21 243.423 15.944 242.779 15.412C242.135 14.866 241.813 14.131 241.813 13.207C241.813 12.255 242.149 11.506 242.821 10.96C243.507 10.4 244.487 10.022 245.761 9.826L249.289 9.259V10.792L246.097 11.296C245.383 11.408 244.844 11.597 244.48 11.863C244.13 12.129 243.955 12.514 243.955 13.018C243.955 13.508 244.116 13.879 244.438 14.131C244.774 14.369 245.257 14.488 245.887 14.488C246.727 14.488 247.42 14.285 247.966 13.879C248.526 13.473 248.806 12.962 248.806 12.346L249.079 13.9C248.827 14.642 248.379 15.216 247.735 15.622C247.091 16.014 246.307 16.21 245.383 16.21ZM257.648 16.21C256.248 16.21 255.135 15.902 254.309 15.286C253.483 14.67 253.014 13.802 252.902 12.682H254.918C255.016 13.298 255.296 13.774 255.758 14.11C256.234 14.432 256.878 14.593 257.69 14.593C258.404 14.593 258.95 14.467 259.328 14.215C259.706 13.963 259.895 13.606 259.895 13.144C259.895 12.808 259.783 12.528 259.559 12.304C259.349 12.066 258.929 11.87 258.299 11.716L256.577 11.317C255.499 11.051 254.694 10.659 254.162 10.141C253.644 9.609 253.385 8.958 253.385 8.188C253.385 7.222 253.742 6.466 254.456 5.92C255.184 5.36 256.178 5.08 257.438 5.08C258.684 5.08 259.685 5.36 260.441 5.92C261.211 6.48 261.645 7.264 261.743 8.272H259.727C259.643 7.768 259.398 7.383 258.992 7.117C258.6 6.837 258.061 6.697 257.375 6.697C256.731 6.697 256.234 6.816 255.884 7.054C255.548 7.278 255.38 7.593 255.38 7.999C255.38 8.335 255.506 8.615 255.758 8.839C256.024 9.063 256.458 9.252 257.06 9.406L258.824 9.847C259.846 10.099 260.616 10.512 261.134 11.086C261.652 11.646 261.911 12.325 261.911 13.123C261.911 14.089 261.533 14.845 260.777 15.391C260.035 15.937 258.992 16.21 257.648 16.21ZM267.984 16.21C266.584 16.21 265.471 15.902 264.645 15.286C263.819 14.67 263.35 13.802 263.238 12.682H265.254C265.352 13.298 265.632 13.774 266.094 14.11C266.57 14.432 267.214 14.593 268.026 14.593C268.74 14.593 269.286 14.467 269.664 14.215C270.042 13.963 270.231 13.606 270.231 13.144C270.231 12.808 270.119 12.528 269.895 12.304C269.685 12.066 269.265 11.87 268.635 11.716L266.913 11.317C265.835 11.051 265.03 10.659 264.498 10.141C263.98 9.609 263.721 8.958 263.721 8.188C263.721 7.222 264.078 6.466 264.792 5.92C265.52 5.36 266.514 5.08 267.774 5.08C269.02 5.08 270.021 5.36 270.777 5.92C271.547 6.48 271.981 7.264 272.079 8.272H270.063C269.979 7.768 269.734 7.383 269.328 7.117C268.936 6.837 268.397 6.697 267.711 6.697C267.067 6.697 266.57 6.816 266.22 7.054C265.884 7.278 265.716 7.593 265.716 7.999C265.716 8.335 265.842 8.615 266.094 8.839C266.36 9.063 266.794 9.252 267.396 9.406L269.16 9.847C270.182 10.099 270.952 10.512 271.47 11.086C271.988 11.646 272.247 12.325 272.247 13.123C272.247 14.089 271.869 14.845 271.113 15.391C270.371 15.937 269.328 16.21 267.984 16.21ZM274.374 16V5.29H276.558V16H274.374ZM274.269 3.19V0.732999H276.684V3.19H274.269ZM284.245 16.21C283.153 16.21 282.194 15.972 281.368 15.496C280.542 15.006 279.898 14.341 279.436 13.501C278.974 12.647 278.743 11.681 278.743 10.603C278.743 9.511 278.974 8.552 279.436 7.726C279.912 6.9 280.556 6.256 281.368 5.794C282.194 5.318 283.153 5.08 284.245 5.08C285.351 5.08 286.317 5.318 287.143 5.794C287.969 6.256 288.606 6.9 289.054 7.726C289.516 8.552 289.747 9.511 289.747 10.603C289.747 11.681 289.516 12.647 289.054 13.501C288.606 14.341 287.969 15.006 287.143 15.496C286.317 15.972 285.351 16.21 284.245 16.21ZM284.245 14.425C284.903 14.425 285.47 14.264 285.946 13.942C286.436 13.62 286.821 13.172 287.101 12.598C287.381 12.024 287.521 11.352 287.521 10.582C287.521 9.434 287.213 8.531 286.597 7.873C285.995 7.201 285.211 6.865 284.245 6.865C283.293 6.865 282.509 7.201 281.893 7.873C281.291 8.545 280.99 9.448 280.99 10.582C280.99 11.352 281.123 12.024 281.389 12.598C281.669 13.172 282.054 13.62 282.544 13.942C283.048 14.264 283.615 14.425 284.245 14.425ZM291.99 16V5.29H294.069V7.81H294.174V16H291.99ZM299.592 16V9.112C299.592 8.37 299.403 7.817 299.025 7.453C298.661 7.089 298.115 6.907 297.387 6.907C296.757 6.907 296.197 7.047 295.707 7.327C295.231 7.607 294.853 7.992 294.573 8.482C294.307 8.972 294.174 9.553 294.174 10.225L293.901 7.663C294.251 6.865 294.79 6.235 295.518 5.773C296.246 5.311 297.093 5.08 298.059 5.08C299.207 5.08 300.11 5.402 300.768 6.046C301.426 6.69 301.755 7.544 301.755 8.608V16H299.592ZM309.729 16V4.051C309.729 2.959 310.037 2.126 310.653 1.552C311.269 0.964 312.193 0.67 313.425 0.67C313.705 0.67 313.936 0.683999 314.118 0.711999C314.3 0.74 314.461 0.781999 314.601 0.837999V2.518C314.503 2.49 314.37 2.462 314.202 2.434C314.048 2.406 313.873 2.392 313.677 2.392C313.061 2.392 312.613 2.546 312.333 2.854C312.053 3.148 311.913 3.568 311.913 4.114V16H309.729ZM307.671 7.033V5.29H314.37V7.033H307.671ZM320.708 16.21C319.616 16.21 318.657 15.972 317.831 15.496C317.005 15.006 316.361 14.341 315.899 13.501C315.437 12.647 315.206 11.681 315.206 10.603C315.206 9.511 315.437 8.552 315.899 7.726C316.375 6.9 317.019 6.256 317.831 5.794C318.657 5.318 319.616 5.08 320.708 5.08C321.814 5.08 322.78 5.318 323.606 5.794C324.432 6.256 325.069 6.9 325.517 7.726C325.979 8.552 326.21 9.511 326.21 10.603C326.21 11.681 325.979 12.647 325.517 13.501C325.069 14.341 324.432 15.006 323.606 15.496C322.78 15.972 321.814 16.21 320.708 16.21ZM320.708 14.425C321.366 14.425 321.933 14.264 322.409 13.942C322.899 13.62 323.284 13.172 323.564 12.598C323.844 12.024 323.984 11.352 323.984 10.582C323.984 9.434 323.676 8.531 323.06 7.873C322.458 7.201 321.674 6.865 320.708 6.865C319.756 6.865 318.972 7.201 318.356 7.873C317.754 8.545 317.453 9.448 317.453 10.582C317.453 11.352 317.586 12.024 317.852 12.598C318.132 13.172 318.517 13.62 319.007 13.942C319.511 14.264 320.078 14.425 320.708 14.425ZM328.453 16V5.29H330.532V7.957H330.637V16H328.453ZM330.637 10.414L330.364 7.873C330.616 6.963 331.05 6.27 331.666 5.794C332.282 5.318 333.017 5.08 333.871 5.08C334.193 5.08 334.417 5.108 334.543 5.164V7.222C334.473 7.194 334.375 7.18 334.249 7.18C334.123 7.166 333.969 7.159 333.787 7.159C332.737 7.159 331.946 7.432 331.414 7.978C330.896 8.524 330.637 9.336 330.637 10.414ZM344.499 16.21C343.099 16.21 341.986 15.902 341.16 15.286C340.334 14.67 339.865 13.802 339.753 12.682H341.769C341.867 13.298 342.147 13.774 342.609 14.11C343.085 14.432 343.729 14.593 344.541 14.593C345.255 14.593 345.801 14.467 346.179 14.215C346.557 13.963 346.746 13.606 346.746 13.144C346.746 12.808 346.634 12.528 346.41 12.304C346.2 12.066 345.78 11.87 345.15 11.716L343.428 11.317C342.35 11.051 341.545 10.659 341.013 10.141C340.495 9.609 340.236 8.958 340.236 8.188C340.236 7.222 340.593 6.466 341.307 5.92C342.035 5.36 343.029 5.08 344.289 5.08C345.535 5.08 346.536 5.36 347.292 5.92C348.062 6.48 348.496 7.264 348.594 8.272H346.578C346.494 7.768 346.249 7.383 345.843 7.117C345.451 6.837 344.912 6.697 344.226 6.697C343.582 6.697 343.085 6.816 342.735 7.054C342.399 7.278 342.231 7.593 342.231 7.999C342.231 8.335 342.357 8.615 342.609 8.839C342.875 9.063 343.309 9.252 343.911 9.406L345.675 9.847C346.697 10.099 347.467 10.512 347.985 11.086C348.503 11.646 348.762 12.325 348.762 13.123C348.762 14.089 348.384 14.845 347.628 15.391C346.886 15.937 345.843 16.21 344.499 16.21ZM355.817 16.21C354.725 16.21 353.766 15.972 352.94 15.496C352.114 15.006 351.47 14.341 351.008 13.501C350.546 12.647 350.315 11.681 350.315 10.603C350.315 9.511 350.546 8.552 351.008 7.726C351.484 6.9 352.128 6.256 352.94 5.794C353.766 5.318 354.725 5.08 355.817 5.08C356.923 5.08 357.889 5.318 358.715 5.794C359.541 6.256 360.178 6.9 360.626 7.726C361.088 8.552 361.319 9.511 361.319 10.603C361.319 11.681 361.088 12.647 360.626 13.501C360.178 14.341 359.541 15.006 358.715 15.496C357.889 15.972 356.923 16.21 355.817 16.21ZM355.817 14.425C356.475 14.425 357.042 14.264 357.518 13.942C358.008 13.62 358.393 13.172 358.673 12.598C358.953 12.024 359.093 11.352 359.093 10.582C359.093 9.434 358.785 8.531 358.169 7.873C357.567 7.201 356.783 6.865 355.817 6.865C354.865 6.865 354.081 7.201 353.465 7.873C352.863 8.545 352.562 9.448 352.562 10.582C352.562 11.352 352.695 12.024 352.961 12.598C353.241 13.172 353.626 13.62 354.116 13.942C354.62 14.264 355.187 14.425 355.817 14.425ZM363.562 16V0.879999H365.746V16H363.562ZM371.878 16L367.51 5.29H369.841L373.411 15.013H372.382L375.91 5.29H378.157L373.81 16H371.878ZM379.784 16V5.29H381.968V16H379.784ZM379.679 3.19V0.732999H382.094V3.19H379.679ZM385.034 16V5.29H387.113V7.81H387.218V16H385.034ZM392.636 16V9.112C392.636 8.37 392.447 7.817 392.069 7.453C391.705 7.089 391.159 6.907 390.431 6.907C389.801 6.907 389.241 7.047 388.751 7.327C388.275 7.607 387.897 7.992 387.617 8.482C387.351 8.972 387.218 9.553 387.218 10.225L386.945 7.663C387.295 6.865 387.834 6.235 388.562 5.773C389.29 5.311 390.137 5.08 391.103 5.08C392.251 5.08 393.154 5.402 393.812 6.046C394.47 6.69 394.799 7.544 394.799 8.608V16H392.636ZM402.243 20.515C400.899 20.515 399.786 20.207 398.904 19.591C398.036 18.989 397.511 18.184 397.329 17.176H399.387C399.527 17.638 399.835 18.002 400.311 18.268C400.801 18.534 401.452 18.667 402.264 18.667C403.314 18.667 404.098 18.408 404.616 17.89C405.134 17.372 405.393 16.602 405.393 15.58V13.27L405.582 13.312C405.372 14.124 404.917 14.768 404.217 15.244C403.517 15.706 402.677 15.937 401.697 15.937C400.759 15.937 399.933 15.713 399.219 15.265C398.505 14.817 397.952 14.194 397.56 13.396C397.168 12.584 396.972 11.639 396.972 10.561C396.972 9.469 397.175 8.51 397.581 7.684C397.987 6.858 398.554 6.221 399.282 5.773C400.024 5.325 400.885 5.101 401.865 5.101C402.873 5.101 403.706 5.346 404.364 5.836C405.036 6.312 405.463 6.991 405.645 7.873L405.477 7.894V5.29H407.556V15.559C407.556 17.099 407.08 18.31 406.128 19.192C405.19 20.074 403.895 20.515 402.243 20.515ZM402.348 14.173C403.286 14.173 404.035 13.844 404.595 13.186C405.169 12.528 405.456 11.625 405.456 10.477C405.456 9.357 405.169 8.475 404.595 7.831C404.035 7.187 403.279 6.865 402.327 6.865C401.375 6.865 400.619 7.194 400.059 7.852C399.499 8.496 399.219 9.392 399.219 10.54C399.219 11.66 399.499 12.549 400.059 13.207C400.633 13.851 401.396 14.173 402.348 14.173ZM418.634 16.21C417.234 16.21 416.121 15.902 415.295 15.286C414.469 14.67 414 13.802 413.888 12.682H415.904C416.002 13.298 416.282 13.774 416.744 14.11C417.22 14.432 417.864 14.593 418.676 14.593C419.39 14.593 419.936 14.467 420.314 14.215C420.692 13.963 420.881 13.606 420.881 13.144C420.881 12.808 420.769 12.528 420.545 12.304C420.335 12.066 419.915 11.87 419.285 11.716L417.563 11.317C416.485 11.051 415.68 10.659 415.148 10.141C414.63 9.609 414.371 8.958 414.371 8.188C414.371 7.222 414.728 6.466 415.442 5.92C416.17 5.36 417.164 5.08 418.424 5.08C419.67 5.08 420.671 5.36 421.427 5.92C422.197 6.48 422.631 7.264 422.729 8.272H420.713C420.629 7.768 420.384 7.383 419.978 7.117C419.586 6.837 419.047 6.697 418.361 6.697C417.717 6.697 417.22 6.816 416.87 7.054C416.534 7.278 416.366 7.593 416.366 7.999C416.366 8.335 416.492 8.615 416.744 8.839C417.01 9.063 417.444 9.252 418.046 9.406L419.81 9.847C420.832 10.099 421.602 10.512 422.12 11.086C422.638 11.646 422.897 12.325 422.897 13.123C422.897 14.089 422.519 14.845 421.763 15.391C421.021 15.937 419.978 16.21 418.634 16.21ZM428.51 16.21C427.796 16.21 427.166 16.063 426.62 15.769C426.074 15.461 425.647 15.041 425.339 14.509C425.045 13.977 424.898 13.368 424.898 12.682V5.29H427.082V12.178C427.082 12.92 427.264 13.473 427.628 13.837C427.992 14.201 428.51 14.383 429.182 14.383C429.784 14.383 430.316 14.243 430.778 13.963C431.254 13.683 431.625 13.298 431.891 12.808C432.171 12.304 432.311 11.723 432.311 11.065L432.584 13.627C432.234 14.411 431.695 15.041 430.967 15.517C430.253 15.979 429.434 16.21 428.51 16.21ZM432.395 16V13.48H432.311V5.29H434.474V16H432.395ZM443.246 16.189C442.238 16.189 441.398 15.951 440.726 15.475C440.068 14.985 439.634 14.306 439.424 13.438L439.718 13.396V20.305H437.534V5.29H439.613V7.747L439.403 7.684C439.627 6.872 440.103 6.235 440.831 5.773C441.559 5.311 442.413 5.08 443.393 5.08C444.359 5.08 445.192 5.311 445.892 5.773C446.606 6.235 447.152 6.879 447.53 7.705C447.922 8.531 448.118 9.497 448.118 10.603C448.118 11.723 447.915 12.703 447.509 13.543C447.103 14.383 446.536 15.034 445.808 15.496C445.08 15.958 444.226 16.189 443.246 16.189ZM442.784 14.383C443.736 14.383 444.492 14.047 445.052 13.375C445.612 12.703 445.892 11.779 445.892 10.603C445.892 9.441 445.612 8.538 445.052 7.894C444.492 7.236 443.729 6.907 442.763 6.907C441.811 6.907 441.048 7.243 440.474 7.915C439.914 8.573 439.634 9.49 439.634 10.666C439.634 11.814 439.914 12.724 440.474 13.396C441.048 14.054 441.818 14.383 442.784 14.383ZM456.125 16.189C455.117 16.189 454.277 15.951 453.605 15.475C452.947 14.985 452.513 14.306 452.303 13.438L452.597 13.396V20.305H450.413V5.29H452.492V7.747L452.282 7.684C452.506 6.872 452.982 6.235 453.71 5.773C454.438 5.311 455.292 5.08 456.272 5.08C457.238 5.08 458.071 5.311 458.771 5.773C459.485 6.235 460.031 6.879 460.409 7.705C460.801 8.531 460.997 9.497 460.997 10.603C460.997 11.723 460.794 12.703 460.388 13.543C459.982 14.383 459.415 15.034 458.687 15.496C457.959 15.958 457.105 16.189 456.125 16.189ZM455.663 14.383C456.615 14.383 457.371 14.047 457.931 13.375C458.491 12.703 458.771 11.779 458.771 10.603C458.771 9.441 458.491 8.538 457.931 7.894C457.371 7.236 456.608 6.907 455.642 6.907C454.69 6.907 453.927 7.243 453.353 7.915C452.793 8.573 452.513 9.49 452.513 10.666C452.513 11.814 452.793 12.724 453.353 13.396C453.927 14.054 454.697 14.383 455.663 14.383ZM463.292 16V0.879999H465.476V16H463.292ZM469.34 20.305L471.923 14.404L472.364 13.711L475.619 5.29H477.887L471.587 20.305H469.34ZM471.818 16L467.24 5.29H469.613L473.498 14.929L471.818 16ZM488.272 16.21C487.25 16.21 486.34 15.972 485.542 15.496C484.744 15.006 484.114 14.341 483.652 13.501C483.204 12.661 482.98 11.702 482.98 10.624C482.98 9.546 483.204 8.594 483.652 7.768C484.114 6.928 484.744 6.27 485.542 5.794C486.34 5.318 487.243 5.08 488.251 5.08C489.105 5.08 489.868 5.241 490.54 5.563C491.212 5.885 491.765 6.333 492.199 6.907C492.633 7.481 492.913 8.16 493.039 8.944H490.981C490.841 8.314 490.533 7.81 490.057 7.432C489.595 7.054 489.007 6.865 488.293 6.865C487.677 6.865 487.138 7.019 486.676 7.327C486.214 7.635 485.857 8.069 485.605 8.629C485.353 9.189 485.227 9.854 485.227 10.624C485.227 11.38 485.353 12.045 485.605 12.619C485.857 13.193 486.214 13.641 486.676 13.963C487.138 14.271 487.684 14.425 488.314 14.425C489 14.425 489.581 14.243 490.057 13.879C490.547 13.501 490.862 12.997 491.002 12.367H493.06C492.92 13.137 492.626 13.809 492.178 14.383C491.744 14.957 491.191 15.405 490.519 15.727C489.847 16.049 489.098 16.21 488.272 16.21ZM495.222 16V0.879999H497.406V16H495.222ZM502.824 16V9.112C502.824 8.37 502.635 7.817 502.257 7.453C501.893 7.089 501.347 6.907 500.619 6.907C499.989 6.907 499.429 7.047 498.939 7.327C498.463 7.607 498.085 7.992 497.805 8.482C497.539 8.972 497.406 9.553 497.406 10.225L497.133 7.663C497.483 6.865 498.022 6.235 498.75 5.773C499.478 5.311 500.325 5.08 501.291 5.08C502.439 5.08 503.342 5.402 504 6.046C504.658 6.69 504.987 7.544 504.987 8.608V16H502.824ZM514.471 16C514.401 15.734 514.352 15.44 514.324 15.118C514.31 14.796 514.303 14.404 514.303 13.942H514.198V8.839C514.198 8.153 514.023 7.642 513.673 7.306C513.337 6.956 512.798 6.781 512.056 6.781C511.342 6.781 510.768 6.921 510.334 7.201C509.914 7.481 509.669 7.88 509.599 8.398H507.52C507.618 7.39 508.073 6.585 508.885 5.983C509.697 5.381 510.782 5.08 512.14 5.08C513.54 5.08 514.59 5.409 515.29 6.067C515.99 6.711 516.34 7.663 516.34 8.923V13.942C516.34 14.264 516.361 14.593 516.403 14.929C516.445 15.265 516.508 15.622 516.592 16H514.471ZM510.775 16.21C509.683 16.21 508.815 15.944 508.171 15.412C507.527 14.866 507.205 14.131 507.205 13.207C507.205 12.255 507.541 11.506 508.213 10.96C508.899 10.4 509.879 10.022 511.153 9.826L514.681 9.259V10.792L511.489 11.296C510.775 11.408 510.236 11.597 509.872 11.863C509.522 12.129 509.347 12.514 509.347 13.018C509.347 13.508 509.508 13.879 509.83 14.131C510.166 14.369 510.649 14.488 511.279 14.488C512.119 14.488 512.812 14.285 513.358 13.879C513.918 13.473 514.198 12.962 514.198 12.346L514.471 13.9C514.219 14.642 513.771 15.216 513.127 15.622C512.483 16.014 511.699 16.21 510.775 16.21ZM519.155 16V5.29H521.339V16H519.155ZM519.05 3.19V0.732999H521.465V3.19H519.05ZM524.405 16V5.29H526.484V7.81H526.589V16H524.405ZM532.007 16V9.112C532.007 8.37 531.818 7.817 531.44 7.453C531.076 7.089 530.53 6.907 529.802 6.907C529.172 6.907 528.612 7.047 528.122 7.327C527.646 7.607 527.268 7.992 526.988 8.482C526.722 8.972 526.589 9.553 526.589 10.225L526.316 7.663C526.666 6.865 527.205 6.235 527.933 5.773C528.661 5.311 529.508 5.08 530.474 5.08C531.622 5.08 532.525 5.402 533.183 6.046C533.841 6.69 534.17 7.544 534.17 8.608V16H532.007ZM545.735 16.21C544.713 16.21 543.803 15.972 543.005 15.496C542.207 15.006 541.577 14.341 541.115 13.501C540.667 12.661 540.443 11.702 540.443 10.624C540.443 9.546 540.667 8.594 541.115 7.768C541.577 6.928 542.207 6.27 543.005 5.794C543.803 5.318 544.706 5.08 545.714 5.08C546.568 5.08 547.331 5.241 548.003 5.563C548.675 5.885 549.228 6.333 549.662 6.907C550.096 7.481 550.376 8.16 550.502 8.944H548.444C548.304 8.314 547.996 7.81 547.52 7.432C547.058 7.054 546.47 6.865 545.756 6.865C545.14 6.865 544.601 7.019 544.139 7.327C543.677 7.635 543.32 8.069 543.068 8.629C542.816 9.189 542.69 9.854 542.69 10.624C542.69 11.38 542.816 12.045 543.068 12.619C543.32 13.193 543.677 13.641 544.139 13.963C544.601 14.271 545.147 14.425 545.777 14.425C546.463 14.425 547.044 14.243 547.52 13.879C548.01 13.501 548.325 12.997 548.465 12.367H550.523C550.383 13.137 550.089 13.809 549.641 14.383C549.207 14.957 548.654 15.405 547.982 15.727C547.31 16.049 546.561 16.21 545.735 16.21ZM552.685 16V0.879999H554.869V16H552.685ZM560.287 16V9.112C560.287 8.37 560.098 7.817 559.72 7.453C559.356 7.089 558.81 6.907 558.082 6.907C557.452 6.907 556.892 7.047 556.402 7.327C555.926 7.607 555.548 7.992 555.268 8.482C555.002 8.972 554.869 9.553 554.869 10.225L554.596 7.663C554.946 6.865 555.485 6.235 556.213 5.773C556.941 5.311 557.788 5.08 558.754 5.08C559.902 5.08 560.805 5.402 561.463 6.046C562.121 6.69 562.45 7.544 562.45 8.608V16H560.287ZM571.934 16C571.864 15.734 571.815 15.44 571.787 15.118C571.773 14.796 571.766 14.404 571.766 13.942H571.661V8.839C571.661 8.153 571.486 7.642 571.136 7.306C570.8 6.956 570.261 6.781 569.519 6.781C568.805 6.781 568.231 6.921 567.797 7.201C567.377 7.481 567.132 7.88 567.062 8.398H564.983C565.081 7.39 565.536 6.585 566.348 5.983C567.16 5.381 568.245 5.08 569.603 5.08C571.003 5.08 572.053 5.409 572.753 6.067C573.453 6.711 573.803 7.663 573.803 8.923V13.942C573.803 14.264 573.824 14.593 573.866 14.929C573.908 15.265 573.971 15.622 574.055 16H571.934ZM568.238 16.21C567.146 16.21 566.278 15.944 565.634 15.412C564.99 14.866 564.668 14.131 564.668 13.207C564.668 12.255 565.004 11.506 565.676 10.96C566.362 10.4 567.342 10.022 568.616 9.826L572.144 9.259V10.792L568.952 11.296C568.238 11.408 567.699 11.597 567.335 11.863C566.985 12.129 566.81 12.514 566.81 13.018C566.81 13.508 566.971 13.879 567.293 14.131C567.629 14.369 568.112 14.488 568.742 14.488C569.582 14.488 570.275 14.285 570.821 13.879C571.381 13.473 571.661 12.962 571.661 12.346L571.934 13.9C571.682 14.642 571.234 15.216 570.59 15.622C569.946 16.014 569.162 16.21 568.238 16.21ZM576.762 16V0.879999H578.946V16H576.762ZM582.012 16V0.879999H584.196V16H582.012ZM591.882 16.21C590.804 16.21 589.852 15.972 589.026 15.496C588.214 15.02 587.577 14.362 587.115 13.522C586.653 12.682 586.422 11.716 586.422 10.624C586.422 9.518 586.646 8.552 587.094 7.726C587.556 6.886 588.2 6.235 589.026 5.773C589.852 5.311 590.797 5.08 591.861 5.08C592.897 5.08 593.793 5.304 594.549 5.752C595.319 6.186 595.907 6.795 596.313 7.579C596.733 8.363 596.943 9.294 596.943 10.372C596.943 10.54 596.936 10.701 596.922 10.855C596.922 10.995 596.908 11.142 596.88 11.296H587.892V9.658H595.347L594.801 10.309C594.801 9.161 594.542 8.286 594.024 7.684C593.506 7.082 592.785 6.781 591.861 6.781C590.867 6.781 590.076 7.124 589.488 7.81C588.914 8.482 588.627 9.42 588.627 10.624C588.627 11.842 588.914 12.794 589.488 13.48C590.076 14.166 590.888 14.509 591.924 14.509C592.554 14.509 593.1 14.383 593.562 14.131C594.024 13.865 594.367 13.48 594.591 12.976H596.649C596.299 13.984 595.704 14.775 594.864 15.349C594.038 15.923 593.044 16.21 591.882 16.21ZM599.177 16V5.29H601.256V7.81H601.361V16H599.177ZM606.779 16V9.112C606.779 8.37 606.59 7.817 606.212 7.453C605.848 7.089 605.302 6.907 604.574 6.907C603.944 6.907 603.384 7.047 602.894 7.327C602.418 7.607 602.04 7.992 601.76 8.482C601.494 8.972 601.361 9.553 601.361 10.225L601.088 7.663C601.438 6.865 601.977 6.235 602.705 5.773C603.433 5.311 604.28 5.08 605.246 5.08C606.394 5.08 607.297 5.402 607.955 6.046C608.613 6.69 608.942 7.544 608.942 8.608V16H606.779ZM616.385 20.515C615.041 20.515 613.928 20.207 613.046 19.591C612.178 18.989 611.653 18.184 611.471 17.176H613.529C613.669 17.638 613.977 18.002 614.453 18.268C614.943 18.534 615.594 18.667 616.406 18.667C617.456 18.667 618.24 18.408 618.758 17.89C619.276 17.372 619.535 16.602 619.535 15.58V13.27L619.724 13.312C619.514 14.124 619.059 14.768 618.359 15.244C617.659 15.706 616.819 15.937 615.839 15.937C614.901 15.937 614.075 15.713 613.361 15.265C612.647 14.817 612.094 14.194 611.702 13.396C611.31 12.584 611.114 11.639 611.114 10.561C611.114 9.469 611.317 8.51 611.723 7.684C612.129 6.858 612.696 6.221 613.424 5.773C614.166 5.325 615.027 5.101 616.007 5.101C617.015 5.101 617.848 5.346 618.506 5.836C619.178 6.312 619.605 6.991 619.787 7.873L619.619 7.894V5.29H621.698V15.559C621.698 17.099 621.222 18.31 620.27 19.192C619.332 20.074 618.037 20.515 616.385 20.515ZM616.49 14.173C617.428 14.173 618.177 13.844 618.737 13.186C619.311 12.528 619.598 11.625 619.598 10.477C619.598 9.357 619.311 8.475 618.737 7.831C618.177 7.187 617.421 6.865 616.469 6.865C615.517 6.865 614.761 7.194 614.201 7.852C613.641 8.496 613.361 9.392 613.361 10.54C613.361 11.66 613.641 12.549 614.201 13.207C614.775 13.851 615.538 14.173 616.49 14.173ZM629.39 16.21C628.312 16.21 627.36 15.972 626.534 15.496C625.722 15.02 625.085 14.362 624.623 13.522C624.161 12.682 623.93 11.716 623.93 10.624C623.93 9.518 624.154 8.552 624.602 7.726C625.064 6.886 625.708 6.235 626.534 5.773C627.36 5.311 628.305 5.08 629.369 5.08C630.405 5.08 631.301 5.304 632.057 5.752C632.827 6.186 633.415 6.795 633.821 7.579C634.241 8.363 634.451 9.294 634.451 10.372C634.451 10.54 634.444 10.701 634.43 10.855C634.43 10.995 634.416 11.142 634.388 11.296H625.4V9.658H632.855L632.309 10.309C632.309 9.161 632.05 8.286 631.532 7.684C631.014 7.082 630.293 6.781 629.369 6.781C628.375 6.781 627.584 7.124 626.996 7.81C626.422 8.482 626.135 9.42 626.135 10.624C626.135 11.842 626.422 12.794 626.996 13.48C627.584 14.166 628.396 14.509 629.432 14.509C630.062 14.509 630.608 14.383 631.07 14.131C631.532 13.865 631.875 13.48 632.099 12.976H634.157C633.807 13.984 633.212 14.775 632.372 15.349C631.546 15.923 630.552 16.21 629.39 16.21ZM640.59 16.21C639.19 16.21 638.077 15.902 637.251 15.286C636.425 14.67 635.956 13.802 635.844 12.682H637.86C637.958 13.298 638.238 13.774 638.7 14.11C639.176 14.432 639.82 14.593 640.632 14.593C641.346 14.593 641.892 14.467 642.27 14.215C642.648 13.963 642.837 13.606 642.837 13.144C642.837 12.808 642.725 12.528 642.501 12.304C642.291 12.066 641.871 11.87 641.241 11.716L639.519 11.317C638.441 11.051 637.636 10.659 637.104 10.141C636.586 9.609 636.327 8.958 636.327 8.188C636.327 7.222 636.684 6.466 637.398 5.92C638.126 5.36 639.12 5.08 640.38 5.08C641.626 5.08 642.627 5.36 643.383 5.92C644.153 6.48 644.587 7.264 644.685 8.272H642.669C642.585 7.768 642.34 7.383 641.934 7.117C641.542 6.837 641.003 6.697 640.317 6.697C639.673 6.697 639.176 6.816 638.826 7.054C638.49 7.278 638.322 7.593 638.322 7.999C638.322 8.335 638.448 8.615 638.7 8.839C638.966 9.063 639.4 9.252 640.002 9.406L641.766 9.847C642.788 10.099 643.558 10.512 644.076 11.086C644.594 11.646 644.853 12.325 644.853 13.123C644.853 14.089 644.475 14.845 643.719 15.391C642.977 15.937 641.934 16.21 640.59 16.21ZM646.364 16V13.396H648.947V16H646.364Z" fill="black"/>
</svg>
