<svg width="388" height="21" viewBox="0 0 388 21" fill="none" xmlns="http://www.w3.org/2000/svg">
<path d="M0.554 16V0.879999H3.998L9.038 15.454H7.904L12.902 0.879999H16.388V16H14.183V1.783H14.519L9.647 16H7.169L2.297 1.909H2.633V16H0.554ZM26.1182 16C26.0482 15.734 25.9992 15.44 25.9712 15.118C25.9572 14.796 25.9502 14.404 25.9502 13.942H25.8452V8.839C25.8452 8.153 25.6702 7.642 25.3202 7.306C24.9842 6.956 24.4452 6.781 23.7032 6.781C22.9892 6.781 22.4152 6.921 21.9812 7.201C21.5612 7.481 21.3162 7.88 21.2462 8.398H19.1672C19.2652 7.39 19.7202 6.585 20.5322 5.983C21.3442 5.381 22.4292 5.08 23.7872 5.08C25.1872 5.08 26.2372 5.409 26.9372 6.067C27.6372 6.711 27.9872 7.663 27.9872 8.923V13.942C27.9872 14.264 28.0082 14.593 28.0502 14.929C28.0922 15.265 28.1552 15.622 28.2392 16H26.1182ZM22.4222 16.21C21.3302 16.21 20.4622 15.944 19.8182 15.412C19.1742 14.866 18.8522 14.131 18.8522 13.207C18.8522 12.255 19.1882 11.506 19.8602 10.96C20.5462 10.4 21.5262 10.022 22.8002 9.826L26.3282 9.259V10.792L23.1362 11.296C22.4222 11.408 21.8832 11.597 21.5192 11.863C21.1692 12.129 20.9942 12.514 20.9942 13.018C20.9942 13.508 21.1552 13.879 21.4772 14.131C21.8132 14.369 22.2962 14.488 22.9262 14.488C23.7662 14.488 24.4592 14.285 25.0052 13.879C25.5652 13.473 25.8452 12.962 25.8452 12.346L26.1182 13.9C25.8662 14.642 25.4182 15.216 24.7742 15.622C24.1302 16.014 23.3462 16.21 22.4222 16.21ZM30.9461 16V0.606999H33.1301V16H30.9461ZM37.8971 16L32.6261 10.435L37.7291 5.29H40.4801L34.6841 10.918L34.7891 9.931L40.6901 16H37.8971ZM46.3532 16.21C45.2752 16.21 44.3232 15.972 43.4972 15.496C42.6852 15.02 42.0482 14.362 41.5862 13.522C41.1242 12.682 40.8932 11.716 40.8932 10.624C40.8932 9.518 41.1172 8.552 41.5652 7.726C42.0272 6.886 42.6712 6.235 43.4972 5.773C44.3232 5.311 45.2682 5.08 46.3322 5.08C47.3682 5.08 48.2642 5.304 49.0202 5.752C49.7902 6.186 50.3782 6.795 50.7842 7.579C51.2042 8.363 51.4142 9.294 51.4142 10.372C51.4142 10.54 51.4072 10.701 51.3932 10.855C51.3932 10.995 51.3792 11.142 51.3512 11.296H42.3632V9.658H49.8182L49.2722 10.309C49.2722 9.161 49.0132 8.286 48.4952 7.684C47.9772 7.082 47.2562 6.781 46.3322 6.781C45.3382 6.781 44.5472 7.124 43.9592 7.81C43.3852 8.482 43.0982 9.42 43.0982 10.624C43.0982 11.842 43.3852 12.794 43.9592 13.48C44.5472 14.166 45.3592 14.509 46.3952 14.509C47.0252 14.509 47.5712 14.383 48.0332 14.131C48.4952 13.865 48.8382 13.48 49.0622 12.976H51.1202C50.7702 13.984 50.1752 14.775 49.3352 15.349C48.5092 15.923 47.5152 16.21 46.3532 16.21ZM57.7908 16V5.29H59.9748V16H57.7908ZM57.6858 3.19V0.732999H60.1008V3.19H57.6858ZM67.5158 16.21C66.2698 16.21 65.3528 15.923 64.7648 15.349C64.1908 14.761 63.9038 13.9 63.9038 12.766V2.833L66.0668 2.014V12.787C66.0668 13.347 66.2138 13.76 66.5078 14.026C66.8018 14.292 67.2778 14.425 67.9358 14.425C68.1878 14.425 68.4118 14.404 68.6078 14.362C68.8038 14.32 68.9718 14.271 69.1118 14.215V15.979C68.9578 16.049 68.7408 16.105 68.4608 16.147C68.1808 16.189 67.8658 16.21 67.5158 16.21ZM61.7618 7.033V5.29H69.1118V7.033H61.7618ZM79.945 16.21C78.867 16.21 77.915 15.972 77.089 15.496C76.277 15.02 75.64 14.362 75.178 13.522C74.716 12.682 74.485 11.716 74.485 10.624C74.485 9.518 74.709 8.552 75.157 7.726C75.619 6.886 76.263 6.235 77.089 5.773C77.915 5.311 78.86 5.08 79.924 5.08C80.96 5.08 81.856 5.304 82.612 5.752C83.382 6.186 83.97 6.795 84.376 7.579C84.796 8.363 85.006 9.294 85.006 10.372C85.006 10.54 84.999 10.701 84.985 10.855C84.985 10.995 84.971 11.142 84.943 11.296H75.955V9.658H83.41L82.864 10.309C82.864 9.161 82.605 8.286 82.087 7.684C81.569 7.082 80.848 6.781 79.924 6.781C78.93 6.781 78.139 7.124 77.551 7.81C76.977 8.482 76.69 9.42 76.69 10.624C76.69 11.842 76.977 12.794 77.551 13.48C78.139 14.166 78.951 14.509 79.987 14.509C80.617 14.509 81.163 14.383 81.625 14.131C82.087 13.865 82.43 13.48 82.654 12.976H84.712C84.362 13.984 83.767 14.775 82.927 15.349C82.101 15.923 81.107 16.21 79.945 16.21ZM93.753 16C93.683 15.734 93.634 15.44 93.606 15.118C93.592 14.796 93.585 14.404 93.585 13.942H93.48V8.839C93.48 8.153 93.305 7.642 92.955 7.306C92.619 6.956 92.08 6.781 91.338 6.781C90.624 6.781 90.05 6.921 89.616 7.201C89.196 7.481 88.951 7.88 88.881 8.398H86.802C86.9 7.39 87.355 6.585 88.167 5.983C88.979 5.381 90.064 5.08 91.422 5.08C92.822 5.08 93.872 5.409 94.572 6.067C95.272 6.711 95.622 7.663 95.622 8.923V13.942C95.622 14.264 95.643 14.593 95.685 14.929C95.727 15.265 95.79 15.622 95.874 16H93.753ZM90.057 16.21C88.965 16.21 88.097 15.944 87.453 15.412C86.809 14.866 86.487 14.131 86.487 13.207C86.487 12.255 86.823 11.506 87.495 10.96C88.181 10.4 89.161 10.022 90.435 9.826L93.963 9.259V10.792L90.771 11.296C90.057 11.408 89.518 11.597 89.154 11.863C88.804 12.129 88.629 12.514 88.629 13.018C88.629 13.508 88.79 13.879 89.112 14.131C89.448 14.369 89.931 14.488 90.561 14.488C91.401 14.488 92.094 14.285 92.64 13.879C93.2 13.473 93.48 12.962 93.48 12.346L93.753 13.9C93.501 14.642 93.053 15.216 92.409 15.622C91.765 16.014 90.981 16.21 90.057 16.21ZM102.322 16.21C100.922 16.21 99.8088 15.902 98.9828 15.286C98.1568 14.67 97.6878 13.802 97.5758 12.682H99.5918C99.6898 13.298 99.9698 13.774 100.432 14.11C100.908 14.432 101.552 14.593 102.364 14.593C103.078 14.593 103.624 14.467 104.002 14.215C104.38 13.963 104.569 13.606 104.569 13.144C104.569 12.808 104.457 12.528 104.233 12.304C104.023 12.066 103.603 11.87 102.973 11.716L101.251 11.317C100.173 11.051 99.3678 10.659 98.8358 10.141C98.3178 9.609 98.0588 8.958 98.0588 8.188C98.0588 7.222 98.4158 6.466 99.1298 5.92C99.8578 5.36 100.852 5.08 102.112 5.08C103.358 5.08 104.359 5.36 105.115 5.92C105.885 6.48 106.319 7.264 106.417 8.272H104.401C104.317 7.768 104.072 7.383 103.666 7.117C103.274 6.837 102.735 6.697 102.049 6.697C101.405 6.697 100.908 6.816 100.558 7.054C100.222 7.278 100.054 7.593 100.054 7.999C100.054 8.335 100.18 8.615 100.432 8.839C100.698 9.063 101.132 9.252 101.734 9.406L103.498 9.847C104.52 10.099 105.29 10.512 105.808 11.086C106.326 11.646 106.585 12.325 106.585 13.123C106.585 14.089 106.207 14.845 105.451 15.391C104.709 15.937 103.666 16.21 102.322 16.21ZM109.325 20.305L111.908 14.404L112.349 13.711L115.604 5.29H117.872L111.572 20.305H109.325ZM111.803 16L107.225 5.29H109.598L113.483 14.929L111.803 16ZM124.666 16V4.051C124.666 2.959 124.974 2.126 125.59 1.552C126.206 0.964 127.13 0.67 128.362 0.67C128.642 0.67 128.873 0.683999 129.055 0.711999C129.237 0.74 129.398 0.781999 129.538 0.837999V2.518C129.44 2.49 129.307 2.462 129.139 2.434C128.985 2.406 128.81 2.392 128.614 2.392C127.998 2.392 127.55 2.546 127.27 2.854C126.99 3.148 126.85 3.568 126.85 4.114V16H124.666ZM122.608 7.033V5.29H129.307V7.033H122.608ZM135.645 16.21C134.553 16.21 133.594 15.972 132.768 15.496C131.942 15.006 131.298 14.341 130.836 13.501C130.374 12.647 130.143 11.681 130.143 10.603C130.143 9.511 130.374 8.552 130.836 7.726C131.312 6.9 131.956 6.256 132.768 5.794C133.594 5.318 134.553 5.08 135.645 5.08C136.751 5.08 137.717 5.318 138.543 5.794C139.369 6.256 140.006 6.9 140.454 7.726C140.916 8.552 141.147 9.511 141.147 10.603C141.147 11.681 140.916 12.647 140.454 13.501C140.006 14.341 139.369 15.006 138.543 15.496C137.717 15.972 136.751 16.21 135.645 16.21ZM135.645 14.425C136.303 14.425 136.87 14.264 137.346 13.942C137.836 13.62 138.221 13.172 138.501 12.598C138.781 12.024 138.921 11.352 138.921 10.582C138.921 9.434 138.613 8.531 137.997 7.873C137.395 7.201 136.611 6.865 135.645 6.865C134.693 6.865 133.909 7.201 133.293 7.873C132.691 8.545 132.39 9.448 132.39 10.582C132.39 11.352 132.523 12.024 132.789 12.598C133.069 13.172 133.454 13.62 133.944 13.942C134.448 14.264 135.015 14.425 135.645 14.425ZM143.39 16V5.29H145.469V7.957H145.574V16H143.39ZM145.574 10.414L145.301 7.873C145.553 6.963 145.987 6.27 146.603 5.794C147.219 5.318 147.954 5.08 148.808 5.08C149.13 5.08 149.354 5.108 149.48 5.164V7.222C149.41 7.194 149.312 7.18 149.186 7.18C149.06 7.166 148.906 7.159 148.724 7.159C147.674 7.159 146.883 7.432 146.351 7.978C145.833 8.524 145.574 9.336 145.574 10.414ZM161.284 16.189C160.276 16.189 159.436 15.951 158.764 15.475C158.092 14.985 157.651 14.306 157.441 13.438L157.651 13.396V16H155.572V0.879999H157.756V7.747L157.525 7.684C157.763 6.872 158.225 6.235 158.911 5.773C159.611 5.311 160.451 5.08 161.431 5.08C162.397 5.08 163.23 5.311 163.93 5.773C164.644 6.235 165.19 6.879 165.568 7.705C165.96 8.531 166.156 9.497 166.156 10.603C166.156 11.723 165.953 12.703 165.547 13.543C165.141 14.383 164.574 15.034 163.846 15.496C163.118 15.958 162.264 16.189 161.284 16.189ZM160.822 14.383C161.774 14.383 162.53 14.047 163.09 13.375C163.65 12.703 163.93 11.779 163.93 10.603C163.93 9.441 163.65 8.538 163.09 7.894C162.53 7.236 161.767 6.907 160.801 6.907C159.849 6.907 159.086 7.243 158.512 7.915C157.952 8.573 157.672 9.49 157.672 10.666C157.672 11.814 157.952 12.724 158.512 13.396C159.086 14.054 159.856 14.383 160.822 14.383ZM171.937 16.21C171.223 16.21 170.593 16.063 170.047 15.769C169.501 15.461 169.074 15.041 168.766 14.509C168.472 13.977 168.325 13.368 168.325 12.682V5.29H170.509V12.178C170.509 12.92 170.691 13.473 171.055 13.837C171.419 14.201 171.937 14.383 172.609 14.383C173.211 14.383 173.743 14.243 174.205 13.963C174.681 13.683 175.052 13.298 175.318 12.808C175.598 12.304 175.738 11.723 175.738 11.065L176.011 13.627C175.661 14.411 175.122 15.041 174.394 15.517C173.68 15.979 172.861 16.21 171.937 16.21ZM175.822 16V13.48H175.738V5.29H177.901V16H175.822ZM184.743 16.21C183.343 16.21 182.23 15.902 181.404 15.286C180.578 14.67 180.109 13.802 179.997 12.682H182.013C182.111 13.298 182.391 13.774 182.853 14.11C183.329 14.432 183.973 14.593 184.785 14.593C185.499 14.593 186.045 14.467 186.423 14.215C186.801 13.963 186.99 13.606 186.99 13.144C186.99 12.808 186.878 12.528 186.654 12.304C186.444 12.066 186.024 11.87 185.394 11.716L183.672 11.317C182.594 11.051 181.789 10.659 181.257 10.141C180.739 9.609 180.48 8.958 180.48 8.188C180.48 7.222 180.837 6.466 181.551 5.92C182.279 5.36 183.273 5.08 184.533 5.08C185.779 5.08 186.78 5.36 187.536 5.92C188.306 6.48 188.74 7.264 188.838 8.272H186.822C186.738 7.768 186.493 7.383 186.087 7.117C185.695 6.837 185.156 6.697 184.47 6.697C183.826 6.697 183.329 6.816 182.979 7.054C182.643 7.278 182.475 7.593 182.475 7.999C182.475 8.335 182.601 8.615 182.853 8.839C183.119 9.063 183.553 9.252 184.155 9.406L185.919 9.847C186.941 10.099 187.711 10.512 188.229 11.086C188.747 11.646 189.006 12.325 189.006 13.123C189.006 14.089 188.628 14.845 187.872 15.391C187.13 15.937 186.087 16.21 184.743 16.21ZM191.133 16V5.29H193.317V16H191.133ZM191.028 3.19V0.732999H193.443V3.19H191.028ZM196.383 16V5.29H198.462V7.81H198.567V16H196.383ZM203.985 16V9.112C203.985 8.37 203.796 7.817 203.418 7.453C203.054 7.089 202.508 6.907 201.78 6.907C201.15 6.907 200.59 7.047 200.1 7.327C199.624 7.607 199.246 7.992 198.966 8.482C198.7 8.972 198.567 9.553 198.567 10.225L198.294 7.663C198.644 6.865 199.183 6.235 199.911 5.773C200.639 5.311 201.486 5.08 202.452 5.08C203.6 5.08 204.503 5.402 205.161 6.046C205.819 6.69 206.148 7.544 206.148 8.608V16H203.985ZM213.738 16.21C212.66 16.21 211.708 15.972 210.882 15.496C210.07 15.02 209.433 14.362 208.971 13.522C208.509 12.682 208.278 11.716 208.278 10.624C208.278 9.518 208.502 8.552 208.95 7.726C209.412 6.886 210.056 6.235 210.882 5.773C211.708 5.311 212.653 5.08 213.717 5.08C214.753 5.08 215.649 5.304 216.405 5.752C217.175 6.186 217.763 6.795 218.169 7.579C218.589 8.363 218.799 9.294 218.799 10.372C218.799 10.54 218.792 10.701 218.778 10.855C218.778 10.995 218.764 11.142 218.736 11.296H209.748V9.658H217.203L216.657 10.309C216.657 9.161 216.398 8.286 215.88 7.684C215.362 7.082 214.641 6.781 213.717 6.781C212.723 6.781 211.932 7.124 211.344 7.81C210.77 8.482 210.483 9.42 210.483 10.624C210.483 11.842 210.77 12.794 211.344 13.48C211.932 14.166 212.744 14.509 213.78 14.509C214.41 14.509 214.956 14.383 215.418 14.131C215.88 13.865 216.223 13.48 216.447 12.976H218.505C218.155 13.984 217.56 14.775 216.72 15.349C215.894 15.923 214.9 16.21 213.738 16.21ZM224.938 16.21C223.538 16.21 222.425 15.902 221.599 15.286C220.773 14.67 220.304 13.802 220.192 12.682H222.208C222.306 13.298 222.586 13.774 223.048 14.11C223.524 14.432 224.168 14.593 224.98 14.593C225.694 14.593 226.24 14.467 226.618 14.215C226.996 13.963 227.185 13.606 227.185 13.144C227.185 12.808 227.073 12.528 226.849 12.304C226.639 12.066 226.219 11.87 225.589 11.716L223.867 11.317C222.789 11.051 221.984 10.659 221.452 10.141C220.934 9.609 220.675 8.958 220.675 8.188C220.675 7.222 221.032 6.466 221.746 5.92C222.474 5.36 223.468 5.08 224.728 5.08C225.974 5.08 226.975 5.36 227.731 5.92C228.501 6.48 228.935 7.264 229.033 8.272H227.017C226.933 7.768 226.688 7.383 226.282 7.117C225.89 6.837 225.351 6.697 224.665 6.697C224.021 6.697 223.524 6.816 223.174 7.054C222.838 7.278 222.67 7.593 222.67 7.999C222.67 8.335 222.796 8.615 223.048 8.839C223.314 9.063 223.748 9.252 224.35 9.406L226.114 9.847C227.136 10.099 227.906 10.512 228.424 11.086C228.942 11.646 229.201 12.325 229.201 13.123C229.201 14.089 228.823 14.845 228.067 15.391C227.325 15.937 226.282 16.21 224.938 16.21ZM235.274 16.21C233.874 16.21 232.761 15.902 231.935 15.286C231.109 14.67 230.64 13.802 230.528 12.682H232.544C232.642 13.298 232.922 13.774 233.384 14.11C233.86 14.432 234.504 14.593 235.316 14.593C236.03 14.593 236.576 14.467 236.954 14.215C237.332 13.963 237.521 13.606 237.521 13.144C237.521 12.808 237.409 12.528 237.185 12.304C236.975 12.066 236.555 11.87 235.925 11.716L234.203 11.317C233.125 11.051 232.32 10.659 231.788 10.141C231.27 9.609 231.011 8.958 231.011 8.188C231.011 7.222 231.368 6.466 232.082 5.92C232.81 5.36 233.804 5.08 235.064 5.08C236.31 5.08 237.311 5.36 238.067 5.92C238.837 6.48 239.271 7.264 239.369 8.272H237.353C237.269 7.768 237.024 7.383 236.618 7.117C236.226 6.837 235.687 6.697 235.001 6.697C234.357 6.697 233.86 6.816 233.51 7.054C233.174 7.278 233.006 7.593 233.006 7.999C233.006 8.335 233.132 8.615 233.384 8.839C233.65 9.063 234.084 9.252 234.686 9.406L236.45 9.847C237.472 10.099 238.242 10.512 238.76 11.086C239.278 11.646 239.537 12.325 239.537 13.123C239.537 14.089 239.159 14.845 238.403 15.391C237.661 15.937 236.618 16.21 235.274 16.21ZM246.55 16.21C245.472 16.21 244.52 15.972 243.694 15.496C242.882 15.02 242.245 14.362 241.783 13.522C241.321 12.682 241.09 11.716 241.09 10.624C241.09 9.518 241.314 8.552 241.762 7.726C242.224 6.886 242.868 6.235 243.694 5.773C244.52 5.311 245.465 5.08 246.529 5.08C247.565 5.08 248.461 5.304 249.217 5.752C249.987 6.186 250.575 6.795 250.981 7.579C251.401 8.363 251.611 9.294 251.611 10.372C251.611 10.54 251.604 10.701 251.59 10.855C251.59 10.995 251.576 11.142 251.548 11.296H242.56V9.658H250.015L249.469 10.309C249.469 9.161 249.21 8.286 248.692 7.684C248.174 7.082 247.453 6.781 246.529 6.781C245.535 6.781 244.744 7.124 244.156 7.81C243.582 8.482 243.295 9.42 243.295 10.624C243.295 11.842 243.582 12.794 244.156 13.48C244.744 14.166 245.556 14.509 246.592 14.509C247.222 14.509 247.768 14.383 248.23 14.131C248.692 13.865 249.035 13.48 249.259 12.976H251.317C250.967 13.984 250.372 14.775 249.532 15.349C248.706 15.923 247.712 16.21 246.55 16.21ZM257.751 16.21C256.351 16.21 255.238 15.902 254.412 15.286C253.586 14.67 253.117 13.802 253.005 12.682H255.021C255.119 13.298 255.399 13.774 255.861 14.11C256.337 14.432 256.981 14.593 257.793 14.593C258.507 14.593 259.053 14.467 259.431 14.215C259.809 13.963 259.998 13.606 259.998 13.144C259.998 12.808 259.886 12.528 259.662 12.304C259.452 12.066 259.032 11.87 258.402 11.716L256.68 11.317C255.602 11.051 254.797 10.659 254.265 10.141C253.747 9.609 253.488 8.958 253.488 8.188C253.488 7.222 253.845 6.466 254.559 5.92C255.287 5.36 256.281 5.08 257.541 5.08C258.787 5.08 259.788 5.36 260.544 5.92C261.314 6.48 261.748 7.264 261.846 8.272H259.83C259.746 7.768 259.501 7.383 259.095 7.117C258.703 6.837 258.164 6.697 257.478 6.697C256.834 6.697 256.337 6.816 255.987 7.054C255.651 7.278 255.483 7.593 255.483 7.999C255.483 8.335 255.609 8.615 255.861 8.839C256.127 9.063 256.561 9.252 257.163 9.406L258.927 9.847C259.949 10.099 260.719 10.512 261.237 11.086C261.755 11.646 262.014 12.325 262.014 13.123C262.014 14.089 261.636 14.845 260.88 15.391C260.138 15.937 259.095 16.21 257.751 16.21ZM272.737 16.21C271.491 16.21 270.574 15.923 269.986 15.349C269.412 14.761 269.125 13.9 269.125 12.766V2.833L271.288 2.014V12.787C271.288 13.347 271.435 13.76 271.729 14.026C272.023 14.292 272.499 14.425 273.157 14.425C273.409 14.425 273.633 14.404 273.829 14.362C274.025 14.32 274.193 14.271 274.333 14.215V15.979C274.179 16.049 273.962 16.105 273.682 16.147C273.402 16.189 273.087 16.21 272.737 16.21ZM266.983 7.033V5.29H274.333V7.033H266.983ZM280.779 16.21C279.687 16.21 278.728 15.972 277.902 15.496C277.076 15.006 276.432 14.341 275.97 13.501C275.508 12.647 275.277 11.681 275.277 10.603C275.277 9.511 275.508 8.552 275.97 7.726C276.446 6.9 277.09 6.256 277.902 5.794C278.728 5.318 279.687 5.08 280.779 5.08C281.885 5.08 282.851 5.318 283.677 5.794C284.503 6.256 285.14 6.9 285.588 7.726C286.05 8.552 286.281 9.511 286.281 10.603C286.281 11.681 286.05 12.647 285.588 13.501C285.14 14.341 284.503 15.006 283.677 15.496C282.851 15.972 281.885 16.21 280.779 16.21ZM280.779 14.425C281.437 14.425 282.004 14.264 282.48 13.942C282.97 13.62 283.355 13.172 283.635 12.598C283.915 12.024 284.055 11.352 284.055 10.582C284.055 9.434 283.747 8.531 283.131 7.873C282.529 7.201 281.745 6.865 280.779 6.865C279.827 6.865 279.043 7.201 278.427 7.873C277.825 8.545 277.524 9.448 277.524 10.582C277.524 11.352 277.657 12.024 277.923 12.598C278.203 13.172 278.588 13.62 279.078 13.942C279.582 14.264 280.149 14.425 280.779 14.425ZM292.667 16V5.29H294.746V7.957H294.851V16H292.667ZM294.851 10.414L294.578 7.873C294.83 6.963 295.264 6.27 295.88 5.794C296.496 5.318 297.231 5.08 298.085 5.08C298.407 5.08 298.631 5.108 298.757 5.164V7.222C298.687 7.194 298.589 7.18 298.463 7.18C298.337 7.166 298.183 7.159 298.001 7.159C296.951 7.159 296.16 7.432 295.628 7.978C295.11 8.524 294.851 9.336 294.851 10.414ZM305.018 16.21C303.94 16.21 302.988 15.972 302.162 15.496C301.35 15.02 300.713 14.362 300.251 13.522C299.789 12.682 299.558 11.716 299.558 10.624C299.558 9.518 299.782 8.552 300.23 7.726C300.692 6.886 301.336 6.235 302.162 5.773C302.988 5.311 303.933 5.08 304.997 5.08C306.033 5.08 306.929 5.304 307.685 5.752C308.455 6.186 309.043 6.795 309.449 7.579C309.869 8.363 310.079 9.294 310.079 10.372C310.079 10.54 310.072 10.701 310.058 10.855C310.058 10.995 310.044 11.142 310.016 11.296H301.028V9.658H308.483L307.937 10.309C307.937 9.161 307.678 8.286 307.16 7.684C306.642 7.082 305.921 6.781 304.997 6.781C304.003 6.781 303.212 7.124 302.624 7.81C302.05 8.482 301.763 9.42 301.763 10.624C301.763 11.842 302.05 12.794 302.624 13.48C303.212 14.166 304.024 14.509 305.06 14.509C305.69 14.509 306.236 14.383 306.698 14.131C307.16 13.865 307.503 13.48 307.727 12.976H309.785C309.435 13.984 308.84 14.775 308 15.349C307.174 15.923 306.18 16.21 305.018 16.21ZM318.826 16C318.756 15.734 318.707 15.44 318.679 15.118C318.665 14.796 318.658 14.404 318.658 13.942H318.553V8.839C318.553 8.153 318.378 7.642 318.028 7.306C317.692 6.956 317.153 6.781 316.411 6.781C315.697 6.781 315.123 6.921 314.689 7.201C314.269 7.481 314.024 7.88 313.954 8.398H311.875C311.973 7.39 312.428 6.585 313.24 5.983C314.052 5.381 315.137 5.08 316.495 5.08C317.895 5.08 318.945 5.409 319.645 6.067C320.345 6.711 320.695 7.663 320.695 8.923V13.942C320.695 14.264 320.716 14.593 320.758 14.929C320.8 15.265 320.863 15.622 320.947 16H318.826ZM315.13 16.21C314.038 16.21 313.17 15.944 312.526 15.412C311.882 14.866 311.56 14.131 311.56 13.207C311.56 12.255 311.896 11.506 312.568 10.96C313.254 10.4 314.234 10.022 315.508 9.826L319.036 9.259V10.792L315.844 11.296C315.13 11.408 314.591 11.597 314.227 11.863C313.877 12.129 313.702 12.514 313.702 13.018C313.702 13.508 313.863 13.879 314.185 14.131C314.521 14.369 315.004 14.488 315.634 14.488C316.474 14.488 317.167 14.285 317.713 13.879C318.273 13.473 318.553 12.962 318.553 12.346L318.826 13.9C318.574 14.642 318.126 15.216 317.482 15.622C316.838 16.014 316.054 16.21 315.13 16.21ZM328.024 16.21C327.002 16.21 326.092 15.972 325.294 15.496C324.496 15.006 323.866 14.341 323.404 13.501C322.956 12.661 322.732 11.702 322.732 10.624C322.732 9.546 322.956 8.594 323.404 7.768C323.866 6.928 324.496 6.27 325.294 5.794C326.092 5.318 326.995 5.08 328.003 5.08C328.857 5.08 329.62 5.241 330.292 5.563C330.964 5.885 331.517 6.333 331.951 6.907C332.385 7.481 332.665 8.16 332.791 8.944H330.733C330.593 8.314 330.285 7.81 329.809 7.432C329.347 7.054 328.759 6.865 328.045 6.865C327.429 6.865 326.89 7.019 326.428 7.327C325.966 7.635 325.609 8.069 325.357 8.629C325.105 9.189 324.979 9.854 324.979 10.624C324.979 11.38 325.105 12.045 325.357 12.619C325.609 13.193 325.966 13.641 326.428 13.963C326.89 14.271 327.436 14.425 328.066 14.425C328.752 14.425 329.333 14.243 329.809 13.879C330.299 13.501 330.614 12.997 330.754 12.367H332.812C332.672 13.137 332.378 13.809 331.93 14.383C331.496 14.957 330.943 15.405 330.271 15.727C329.599 16.049 328.85 16.21 328.024 16.21ZM334.974 16V0.879999H337.158V16H334.974ZM342.576 16V9.112C342.576 8.37 342.387 7.817 342.009 7.453C341.645 7.089 341.099 6.907 340.371 6.907C339.741 6.907 339.181 7.047 338.691 7.327C338.215 7.607 337.837 7.992 337.557 8.482C337.291 8.972 337.158 9.553 337.158 10.225L336.885 7.663C337.235 6.865 337.774 6.235 338.502 5.773C339.23 5.311 340.077 5.08 341.043 5.08C342.191 5.08 343.094 5.402 343.752 6.046C344.41 6.69 344.739 7.544 344.739 8.608V16H342.576ZM356.514 16.21C355.422 16.21 354.463 15.972 353.637 15.496C352.811 15.006 352.167 14.341 351.705 13.501C351.243 12.647 351.012 11.681 351.012 10.603C351.012 9.511 351.243 8.552 351.705 7.726C352.181 6.9 352.825 6.256 353.637 5.794C354.463 5.318 355.422 5.08 356.514 5.08C357.62 5.08 358.586 5.318 359.412 5.794C360.238 6.256 360.875 6.9 361.323 7.726C361.785 8.552 362.016 9.511 362.016 10.603C362.016 11.681 361.785 12.647 361.323 13.501C360.875 14.341 360.238 15.006 359.412 15.496C358.586 15.972 357.62 16.21 356.514 16.21ZM356.514 14.425C357.172 14.425 357.739 14.264 358.215 13.942C358.705 13.62 359.09 13.172 359.37 12.598C359.65 12.024 359.79 11.352 359.79 10.582C359.79 9.434 359.482 8.531 358.866 7.873C358.264 7.201 357.48 6.865 356.514 6.865C355.562 6.865 354.778 7.201 354.162 7.873C353.56 8.545 353.259 9.448 353.259 10.582C353.259 11.352 353.392 12.024 353.658 12.598C353.938 13.172 354.323 13.62 354.813 13.942C355.317 14.264 355.884 14.425 356.514 14.425ZM367.746 16.21C367.032 16.21 366.402 16.063 365.856 15.769C365.31 15.461 364.883 15.041 364.575 14.509C364.281 13.977 364.134 13.368 364.134 12.682V5.29H366.318V12.178C366.318 12.92 366.5 13.473 366.864 13.837C367.228 14.201 367.746 14.383 368.418 14.383C369.02 14.383 369.552 14.243 370.014 13.963C370.49 13.683 370.861 13.298 371.127 12.808C371.407 12.304 371.547 11.723 371.547 11.065L371.82 13.627C371.47 14.411 370.931 15.041 370.203 15.517C369.489 15.979 368.67 16.21 367.746 16.21ZM371.631 16V13.48H371.547V5.29H373.71V16H371.631ZM381.224 16.21C379.978 16.21 379.061 15.923 378.473 15.349C377.899 14.761 377.612 13.9 377.612 12.766V2.833L379.775 2.014V12.787C379.775 13.347 379.922 13.76 380.216 14.026C380.51 14.292 380.986 14.425 381.644 14.425C381.896 14.425 382.12 14.404 382.316 14.362C382.512 14.32 382.68 14.271 382.82 14.215V15.979C382.666 16.049 382.449 16.105 382.169 16.147C381.889 16.189 381.574 16.21 381.224 16.21ZM375.47 7.033V5.29H382.82V7.033H375.47ZM384.561 16V13.396H387.144V16H384.561Z" fill="black"/>
</svg>
