<svg width="53" height="12" viewBox="0 0 53 12" fill="none" xmlns="http://www.w3.org/2000/svg">
<path d="M9.57528 4.12926H8.02415C7.96449 3.79782 7.85346 3.50615 7.69105 3.25426C7.52865 3.00237 7.32978 2.78859 7.09446 2.61293C6.85914 2.43726 6.59564 2.30469 6.30398 2.2152C6.01563 2.12571 5.70904 2.08097 5.38423 2.08097C4.79759 2.08097 4.27225 2.22846 3.80824 2.52344C3.34754 2.81842 2.98295 3.25095 2.71449 3.82102C2.44934 4.3911 2.31676 5.08712 2.31676 5.90909C2.31676 6.73769 2.44934 7.43703 2.71449 8.0071C2.98295 8.57718 3.3492 9.00805 3.81321 9.29972C4.27723 9.59138 4.79924 9.73722 5.37926 9.73722C5.70076 9.73722 6.00568 9.69413 6.29403 9.60795C6.5857 9.51847 6.8492 9.38755 7.08452 9.2152C7.31984 9.04285 7.5187 8.83239 7.68111 8.58381C7.84683 8.33191 7.96117 8.04356 8.02415 7.71875L9.57528 7.72372C9.49242 8.22419 9.33168 8.6849 9.09304 9.10582C8.85772 9.52344 8.55445 9.88471 8.18324 10.1896C7.81534 10.4912 7.39441 10.7249 6.92045 10.8906C6.4465 11.0563 5.92945 11.1392 5.36932 11.1392C4.48769 11.1392 3.70218 10.9304 3.01278 10.5128C2.32339 10.0919 1.77983 9.49029 1.3821 8.7081C0.987689 7.9259 0.790483 6.9929 0.790483 5.90909C0.790483 4.82197 0.989347 3.88897 1.38707 3.11008C1.7848 2.32789 2.32836 1.72798 3.01776 1.31037C3.70715 0.889441 4.491 0.678977 5.36932 0.678977C5.90956 0.678977 6.41335 0.756865 6.88068 0.912642C7.35133 1.0651 7.77391 1.29048 8.14844 1.58878C8.52296 1.88376 8.83286 2.24503 9.07812 2.67258C9.32339 3.09683 9.48911 3.58239 9.57528 4.12926ZM14.5108 11.1541C13.7949 11.1541 13.1702 10.9901 12.6365 10.6619C12.1029 10.3338 11.6886 9.87476 11.3936 9.2848C11.0987 8.69484 10.9512 8.00544 10.9512 7.21662C10.9512 6.42448 11.0987 5.73177 11.3936 5.13849C11.6886 4.54522 12.1029 4.08452 12.6365 3.75639C13.1702 3.42827 13.7949 3.2642 14.5108 3.2642C15.2267 3.2642 15.8515 3.42827 16.3851 3.75639C16.9187 4.08452 17.333 4.54522 17.628 5.13849C17.923 5.73177 18.0705 6.42448 18.0705 7.21662C18.0705 8.00544 17.923 8.69484 17.628 9.2848C17.333 9.87476 16.9187 10.3338 16.3851 10.6619C15.8515 10.9901 15.2267 11.1541 14.5108 11.1541ZM14.5158 9.90625C14.9798 9.90625 15.3643 9.78362 15.6692 9.53835C15.9741 9.29309 16.1995 8.96662 16.3453 8.55895C16.4945 8.15128 16.5691 7.70218 16.5691 7.21165C16.5691 6.72443 16.4945 6.27699 16.3453 5.86932C16.1995 5.45833 15.9741 5.12855 15.6692 4.87997C15.3643 4.63139 14.9798 4.5071 14.5158 4.5071C14.0485 4.5071 13.6607 4.63139 13.3525 4.87997C13.0475 5.12855 12.8205 5.45833 12.6713 5.86932C12.5255 6.27699 12.4526 6.72443 12.4526 7.21165C12.4526 7.70218 12.5255 8.15128 12.6713 8.55895C12.8205 8.96662 13.0475 9.29309 13.3525 9.53835C13.6607 9.78362 14.0485 9.90625 14.5158 9.90625ZM21.2163 6.46591V11H19.7298V3.36364H21.1566V4.60653H21.2511C21.4267 4.20218 21.7018 3.87737 22.0763 3.6321C22.4542 3.38684 22.9298 3.2642 23.5032 3.2642C24.0236 3.2642 24.4793 3.37358 24.8704 3.59233C25.2615 3.80777 25.5647 4.12926 25.7802 4.55682C25.9956 4.98437 26.1033 5.51302 26.1033 6.14276V11H24.6168V6.32173C24.6168 5.76823 24.4727 5.3357 24.1843 5.02415C23.896 4.70928 23.4999 4.55185 22.9961 4.55185C22.6514 4.55185 22.3448 4.62642 22.0763 4.77557C21.8112 4.92472 21.6007 5.14347 21.445 5.43182C21.2925 5.71686 21.2163 6.06155 21.2163 6.46591ZM31.6616 3.36364V4.55682H27.4904V3.36364H31.6616ZM28.609 1.53409H30.0955V8.75781C30.0955 9.04616 30.1386 9.26326 30.2248 9.40909C30.311 9.55161 30.422 9.64938 30.5579 9.70241C30.6971 9.75213 30.8479 9.77699 31.0103 9.77699C31.1296 9.77699 31.234 9.7687 31.3235 9.75213C31.413 9.73556 31.4826 9.7223 31.5323 9.71236L31.8008 10.9403C31.7146 10.9735 31.592 11.0066 31.4329 11.0398C31.2738 11.0762 31.0749 11.0961 30.8363 11.0994C30.4452 11.1061 30.0806 11.0365 29.7425 10.8906C29.4045 10.7448 29.131 10.5194 28.9222 10.2145C28.7134 9.90956 28.609 9.52675 28.609 9.06605V1.53409ZM35.5282 11.169C35.0443 11.169 34.6068 11.0795 34.2157 10.9006C33.8246 10.7183 33.5147 10.4548 33.286 10.1101C33.0607 9.76539 32.948 9.3428 32.948 8.84233C32.948 8.41146 33.0308 8.05682 33.1966 7.77841C33.3623 7.5 33.586 7.27959 33.8677 7.11719C34.1494 6.95478 34.4643 6.83215 34.8123 6.74929C35.1603 6.66643 35.515 6.60346 35.8762 6.56037C36.3336 6.50734 36.7048 6.46425 36.9899 6.43111C37.2749 6.39465 37.4821 6.33665 37.6113 6.2571C37.7406 6.17756 37.8052 6.0483 37.8052 5.86932V5.83452C37.8052 5.40033 37.6826 5.06392 37.4373 4.82528C37.1954 4.58665 36.8341 4.46733 36.3535 4.46733C35.853 4.46733 35.4586 4.57836 35.1703 4.80043C34.8852 5.01918 34.688 5.26278 34.5787 5.53125L33.1816 5.21307C33.3474 4.74905 33.5893 4.37453 33.9075 4.08949C34.229 3.80114 34.5985 3.59233 35.0162 3.46307C35.4338 3.33049 35.8729 3.2642 36.3336 3.2642C36.6386 3.2642 36.9617 3.30066 37.3031 3.37358C37.6478 3.44318 37.9693 3.57244 38.2676 3.76136C38.5692 3.95028 38.8161 4.22041 39.0083 4.57173C39.2006 4.91974 39.2967 5.37216 39.2967 5.92898V11H37.845V9.95597H37.7853C37.6892 10.1482 37.545 10.3371 37.3528 10.5227C37.1606 10.7083 36.9136 10.8625 36.612 10.9851C36.3104 11.1077 35.9492 11.169 35.5282 11.169ZM35.8514 9.97585C36.2624 9.97585 36.6137 9.89465 36.9054 9.73224C37.2003 9.56984 37.4241 9.35772 37.5765 9.09588C37.7323 8.83073 37.8102 8.54735 37.8102 8.24574V7.26136C37.7572 7.31439 37.6544 7.36411 37.502 7.41051C37.3528 7.4536 37.1821 7.49171 36.9899 7.52486C36.7976 7.55469 36.6104 7.58286 36.4281 7.60938C36.2458 7.63258 36.0933 7.65246 35.9707 7.66903C35.6824 7.70549 35.4189 7.76681 35.1802 7.85298C34.9449 7.93916 34.756 8.06345 34.6135 8.22585C34.4743 8.38494 34.4047 8.59706 34.4047 8.86222C34.4047 9.23011 34.5405 9.50852 34.8123 9.69744C35.0841 9.88305 35.4305 9.97585 35.8514 9.97585ZM44.4933 11.1541C43.7541 11.1541 43.1178 10.9867 42.5842 10.652C42.0539 10.3139 41.6462 9.84825 41.3612 9.25497C41.0761 8.66169 40.9336 7.98224 40.9336 7.21662C40.9336 6.44105 41.0794 5.75663 41.3711 5.16335C41.6628 4.56676 42.0737 4.10109 42.604 3.76633C43.1344 3.43158 43.7591 3.2642 44.4783 3.2642C45.0584 3.2642 45.5754 3.37192 46.0295 3.58736C46.4835 3.79948 46.8498 4.09777 47.1282 4.48224C47.4099 4.86671 47.5773 5.31581 47.6303 5.82955H46.1836C46.104 5.47159 45.9218 5.16335 45.6367 4.90483C45.355 4.64631 44.9772 4.51705 44.5032 4.51705C44.0889 4.51705 43.726 4.62642 43.4144 4.84517C43.1062 5.06061 42.8659 5.36884 42.6935 5.76989C42.5212 6.16761 42.435 6.63826 42.435 7.18182C42.435 7.73864 42.5195 8.21922 42.6886 8.62358C42.8576 9.02794 43.0962 9.34115 43.4045 9.56321C43.716 9.78527 44.0823 9.89631 44.5032 9.89631C44.7849 9.89631 45.0401 9.84493 45.2688 9.74219C45.5008 9.63613 45.6947 9.48532 45.8505 9.28977C46.0096 9.09422 46.1206 8.8589 46.1836 8.58381H47.6303C47.5773 9.07765 47.4165 9.51847 47.1481 9.90625C46.8796 10.294 46.52 10.599 46.0692 10.821C45.6218 11.0431 45.0965 11.1541 44.4933 11.1541ZM52.7846 3.36364V4.55682H48.6135V3.36364H52.7846ZM49.7321 1.53409H51.2186V8.75781C51.2186 9.04616 51.2617 9.26326 51.3478 9.40909C51.434 9.55161 51.545 9.64938 51.6809 9.70241C51.8201 9.75213 51.9709 9.77699 52.1333 9.77699C52.2527 9.77699 52.3571 9.7687 52.4466 9.75213C52.536 9.73556 52.6056 9.7223 52.6554 9.71236L52.9238 10.9403C52.8377 10.9735 52.715 11.0066 52.5559 11.0398C52.3968 11.0762 52.198 11.0961 51.9593 11.0994C51.5682 11.1061 51.2037 11.0365 50.8656 10.8906C50.5275 10.7448 50.2541 10.5194 50.0453 10.2145C49.8365 9.90956 49.7321 9.52675 49.7321 9.06605V1.53409Z" fill="#324465"/>
</svg>
