<svg width="334" height="56" viewBox="0 0 334 56" fill="none" xmlns="http://www.w3.org/2000/svg">
<path d="M1.65128 29V7.18182H16.5447V11.4645H6.92472V15.9389H15.5966V20.2322H6.92472V29H1.65128ZM24.4096 7.18182V29H19.2001V7.18182H24.4096ZM35.364 29.3089C33.6452 29.3089 32.168 28.9574 30.9322 28.2543C29.7035 27.544 28.7553 26.5568 28.0877 25.2926C27.4272 24.0213 27.0969 22.5476 27.0969 20.8714C27.0969 19.1882 27.4272 17.7145 28.0877 16.4503C28.7553 15.179 29.7035 14.1918 30.9322 13.4886C32.168 12.7784 33.6452 12.4233 35.364 12.4233C37.0827 12.4233 38.5565 12.7784 39.7852 13.4886C41.021 14.1918 41.9691 15.179 42.6296 16.4503C43.2972 17.7145 43.631 19.1882 43.631 20.8714C43.631 22.5476 43.2972 24.0213 42.6296 25.2926C41.9691 26.5568 41.021 27.544 39.7852 28.2543C38.5565 28.9574 37.0827 29.3089 35.364 29.3089ZM35.396 25.3778C36.021 25.3778 36.5501 25.1861 36.9833 24.8026C37.4165 24.419 37.7468 23.8864 37.9741 23.2045C38.2085 22.5227 38.3256 21.7344 38.3256 20.8395C38.3256 19.9304 38.2085 19.1349 37.9741 18.4531C37.7468 17.7713 37.4165 17.2386 36.9833 16.8551C36.5501 16.4716 36.021 16.2798 35.396 16.2798C34.7496 16.2798 34.2028 16.4716 33.7553 16.8551C33.315 17.2386 32.9776 17.7713 32.7433 18.4531C32.516 19.1349 32.4023 19.9304 32.4023 20.8395C32.4023 21.7344 32.516 22.5227 32.7433 23.2045C32.9776 23.8864 33.315 24.419 33.7553 24.8026C34.2028 25.1861 34.7496 25.3778 35.396 25.3778ZM49.0057 29L44.7443 12.6364H49.9751L52.1804 23.1193H52.3189L54.6839 12.6364H59.7869L62.2159 23.0447H62.3544L64.4957 12.6364H69.7266L65.4545 29H59.8828L57.326 19.4652H57.1449L54.5881 29H49.0057Z" fill="#0084FF"/>
<path d="M83.6106 13.723C83.5396 12.9418 83.2235 12.3345 82.6625 11.9013C82.1085 11.4609 81.3166 11.2408 80.2868 11.2408C79.6049 11.2408 79.0368 11.3295 78.5822 11.5071C78.1277 11.6847 77.7868 11.9297 77.5595 12.2422C77.3322 12.5476 77.215 12.8991 77.2079 13.2969C77.1937 13.6236 77.2576 13.9112 77.3997 14.1598C77.5488 14.4084 77.7619 14.6286 78.0389 14.8203C78.323 15.005 78.6639 15.1683 79.0616 15.3104C79.4593 15.4524 79.9068 15.5767 80.4039 15.6832L82.2789 16.1094C83.3585 16.3438 84.3102 16.6562 85.1341 17.0469C85.965 17.4375 86.661 17.9027 87.2221 18.4425C87.7903 18.9822 88.22 19.6037 88.5112 20.3068C88.8024 21.0099 88.9515 21.7983 88.9586 22.6719C88.9515 24.0497 88.6035 25.2322 87.9146 26.2195C87.2257 27.2067 86.2349 27.9631 84.9423 28.4886C83.6568 29.0142 82.1049 29.277 80.2868 29.277C78.4615 29.277 76.8706 29.0036 75.514 28.4567C74.1575 27.9098 73.1028 27.0788 72.35 25.9638C71.5971 24.8487 71.21 23.4389 71.1887 21.7344H76.2385C76.2811 22.4375 76.4693 23.0234 76.8031 23.4922C77.1369 23.9609 77.595 24.3161 78.1774 24.5575C78.7669 24.799 79.4487 24.9197 80.2228 24.9197C80.9331 24.9197 81.5368 24.8239 82.0339 24.6321C82.5382 24.4403 82.9252 24.174 83.1951 23.8331C83.465 23.4922 83.6035 23.1016 83.6106 22.6612C83.6035 22.2493 83.4757 21.8977 83.2271 21.6065C82.9785 21.3082 82.595 21.0526 82.0765 20.8395C81.5652 20.6193 80.9118 20.4169 80.1163 20.2322L77.8365 19.6996C75.9473 19.2663 74.4593 18.5668 73.3727 17.6009C72.286 16.6278 71.7463 15.3139 71.7534 13.6591C71.7463 12.3097 72.1085 11.1271 72.84 10.1115C73.5716 9.09588 74.5836 8.30398 75.8762 7.7358C77.1689 7.16761 78.6426 6.88352 80.2974 6.88352C81.9877 6.88352 83.4544 7.17116 84.6973 7.74645C85.9473 8.31463 86.9167 9.11364 87.6056 10.1435C88.2946 11.1733 88.6461 12.3665 88.6603 13.723H83.6106ZM94.8074 35.1364C94.1824 35.1364 93.5929 35.0866 93.0389 34.9872C92.4849 34.8949 92.0091 34.7706 91.6113 34.6143L92.7619 30.8324C93.2733 31.0028 93.7349 31.1023 94.1468 31.1307C94.5659 31.1591 94.9245 31.0916 95.2228 30.9283C95.5282 30.772 95.7626 30.4915 95.926 30.0866L96.1284 29.5966L90.3116 12.6364H95.7662L98.7811 24.3125H98.9515L102.009 12.6364H107.496L101.327 30.5661C101.029 31.4609 100.606 32.2493 100.059 32.9311C99.5197 33.62 98.8201 34.1598 97.9608 34.5504C97.1085 34.9411 96.0574 35.1364 94.8074 35.1364ZM114.703 19.6676V29H109.493V12.6364H114.447V15.6406H114.628C114.99 14.6392 115.608 13.8544 116.482 13.2862C117.355 12.7109 118.396 12.4233 119.603 12.4233C120.754 12.4233 121.752 12.6825 122.597 13.201C123.449 13.7124 124.11 14.4297 124.578 15.353C125.054 16.2692 125.289 17.3416 125.281 18.5703V29H120.072V19.593C120.079 18.6839 119.848 17.9737 119.379 17.4624C118.918 16.951 118.275 16.6953 117.451 16.6953C116.904 16.6953 116.421 16.8161 116.002 17.0575C115.59 17.2919 115.271 17.6293 115.044 18.0696C114.823 18.5099 114.71 19.0426 114.703 19.6676ZM136.145 29.3089C134.419 29.3089 132.939 28.9538 131.703 28.2436C130.474 27.5334 129.529 26.5462 128.869 25.282C128.208 24.0107 127.878 22.5405 127.878 20.8714C127.878 19.1953 128.208 17.7251 128.869 16.4609C129.537 15.1896 130.485 14.1989 131.713 13.4886C132.949 12.7784 134.423 12.4233 136.135 12.4233C137.647 12.4233 138.965 12.6967 140.087 13.2436C141.216 13.7905 142.097 14.5646 142.729 15.5661C143.368 16.5604 143.706 17.7287 143.741 19.071H138.873C138.773 18.233 138.489 17.576 138.02 17.1001C137.559 16.6243 136.955 16.3864 136.209 16.3864C135.605 16.3864 135.076 16.5568 134.622 16.8977C134.167 17.2315 133.812 17.7287 133.556 18.3892C133.308 19.0426 133.184 19.8523 133.184 20.8182C133.184 21.7841 133.308 22.6009 133.556 23.2685C133.812 23.929 134.167 24.4297 134.622 24.7706C135.076 25.1044 135.605 25.2713 136.209 25.2713C136.692 25.2713 137.118 25.1683 137.488 24.9624C137.864 24.7564 138.173 24.4545 138.414 24.0568C138.656 23.652 138.809 23.1619 138.873 22.5866H143.741C143.691 23.9361 143.354 25.1151 142.729 26.1236C142.111 27.1321 141.241 27.9169 140.119 28.478C139.004 29.032 137.679 29.3089 136.145 29.3089Z" fill="white"/>
<path d="M149.337 29.3089C148.57 29.3089 147.913 29.0391 147.366 28.4993C146.826 27.9595 146.56 27.3061 146.567 26.5391C146.56 25.7862 146.826 25.1435 147.366 24.6108C147.913 24.071 148.57 23.8011 149.337 23.8011C150.061 23.8011 150.7 24.071 151.254 24.6108C151.816 25.1435 152.1 25.7862 152.107 26.5391C152.1 27.0504 151.965 27.5156 151.702 27.9347C151.446 28.3537 151.109 28.6875 150.69 28.9361C150.278 29.1847 149.827 29.3089 149.337 29.3089ZM149.337 18.0803C148.57 18.0803 147.913 17.8139 147.366 17.2812C146.826 16.7415 146.56 16.0845 146.567 15.3104C146.56 14.5575 146.826 13.9148 147.366 13.3821C147.913 12.8423 148.57 12.5724 149.337 12.5724C150.061 12.5724 150.7 12.8423 151.254 13.3821C151.816 13.9148 152.1 14.5575 152.107 15.3104C152.1 15.8217 151.965 16.2869 151.702 16.706C151.446 17.125 151.109 17.4588 150.69 17.7074C150.278 17.956 149.827 18.0803 149.337 18.0803Z" fill="black"/>
<path d="M4.61648 36.4545V51H1.10085V36.4545H4.61648ZM10.2965 44.7784V51H6.82351V40.0909H10.1261V42.0938H10.2468C10.4883 41.4261 10.9002 40.9029 11.4826 40.5241C12.065 40.1406 12.7586 39.9489 13.5636 39.9489C14.3306 39.9489 14.9959 40.1217 15.5593 40.4673C16.1275 40.8082 16.5678 41.2865 16.8803 41.902C17.1976 42.5128 17.3538 43.2277 17.3491 44.0469V51H13.8761V44.7287C13.8808 44.1226 13.7269 43.6491 13.4144 43.3082C13.1067 42.9673 12.6781 42.7969 12.1289 42.7969C11.7643 42.7969 11.4424 42.8774 11.163 43.0384C10.8884 43.1946 10.6753 43.4195 10.5238 43.7131C10.377 44.0066 10.3013 44.3617 10.2965 44.7784ZM25.657 40.0909V42.6477H18.7749V40.0909H25.657ZM20.2166 37.4773H23.6896V47.5696C23.6896 47.7827 23.7228 47.9555 23.7891 48.0881C23.8601 48.2159 23.9619 48.3082 24.0945 48.3651C24.227 48.4171 24.3857 48.4432 24.5703 48.4432C24.7029 48.4432 24.8426 48.4313 24.9893 48.4077C25.1409 48.3793 25.2545 48.3556 25.3303 48.3366L25.8558 50.8438C25.6901 50.8911 25.4557 50.9503 25.1527 51.0213C24.8544 51.0923 24.4969 51.1373 24.0803 51.1562C23.2659 51.1941 22.5675 51.0994 21.9851 50.8722C21.4074 50.6402 20.9647 50.2803 20.657 49.7926C20.3539 49.3049 20.2071 48.6918 20.2166 47.9531V37.4773ZM32.4112 51.206C31.2701 51.206 30.2853 50.9811 29.4567 50.5312C28.6328 50.0767 27.9983 49.4304 27.5533 48.5923C27.1129 47.7495 26.8928 46.7481 26.8928 45.5881C26.8928 44.4612 27.1153 43.4763 27.5604 42.6335C28.0054 41.786 28.6328 41.1278 29.4425 40.6591C30.2521 40.1856 31.2062 39.9489 32.3047 39.9489C33.0812 39.9489 33.7914 40.0696 34.4354 40.3111C35.0793 40.5526 35.6357 40.91 36.1044 41.3835C36.5732 41.857 36.9377 42.4418 37.1982 43.1378C37.4586 43.8291 37.5888 44.6222 37.5888 45.517V46.3835H28.1072V44.3665H34.3572C34.3525 43.9972 34.2649 43.6681 34.0945 43.3793C33.924 43.0904 33.6896 42.8655 33.3913 42.7045C33.0978 42.5388 32.7592 42.456 32.3757 42.456C31.9875 42.456 31.6394 42.5436 31.3317 42.7188C31.0239 42.8892 30.7801 43.1236 30.6001 43.4219C30.4202 43.7154 30.3255 44.0492 30.3161 44.4233V46.4759C30.3161 46.9209 30.4036 47.3116 30.5788 47.6477C30.754 47.9792 31.0026 48.2372 31.3246 48.4219C31.6465 48.6065 32.0301 48.6989 32.4751 48.6989C32.7829 48.6989 33.0623 48.6562 33.3132 48.571C33.5642 48.4858 33.7796 48.3603 33.9595 48.1946C34.1394 48.0289 34.2744 47.8253 34.3643 47.5838L37.5533 47.6761C37.4207 48.3911 37.1295 49.0137 36.6797 49.544C36.2346 50.0696 35.6499 50.4792 34.9254 50.7727C34.201 51.0616 33.3629 51.206 32.4112 51.206ZM42.8356 36.4545V51H39.3626V36.4545H42.8356ZM48.5192 36.4545V51H45.0462V36.4545H48.5192ZM50.7298 51V40.0909H54.2028V51H50.7298ZM52.4698 38.8196C51.9821 38.8196 51.5631 38.6586 51.2127 38.3366C50.8623 38.0099 50.6871 37.617 50.6871 37.1577C50.6871 36.7031 50.8623 36.3149 51.2127 35.9929C51.5631 35.6662 51.9821 35.5028 52.4698 35.5028C52.9622 35.5028 53.3813 35.6662 53.7269 35.9929C54.0773 36.3149 54.2525 36.7031 54.2525 37.1577C54.2525 37.617 54.0773 38.0099 53.7269 38.3366C53.3813 38.6586 52.9622 38.8196 52.4698 38.8196ZM61.4986 55.3182C60.4616 55.3182 59.5739 55.1738 58.8352 54.8849C58.0966 54.5961 57.5166 54.2008 57.0952 53.6989C56.6738 53.197 56.4205 52.6288 56.3352 51.9943L59.6236 51.8097C59.6851 52.0322 59.7988 52.2263 59.9645 52.392C60.1349 52.5578 60.3551 52.6856 60.625 52.7756C60.8996 52.8655 61.2216 52.9105 61.5909 52.9105C62.1733 52.9105 62.6539 52.7685 63.0327 52.4844C63.4162 52.205 63.608 51.715 63.608 51.0142V49.0966H63.4872C63.3499 49.4328 63.1416 49.7334 62.8622 49.9986C62.5829 50.2637 62.2348 50.4721 61.8182 50.6236C61.4063 50.7751 60.9328 50.8509 60.3977 50.8509C59.6023 50.8509 58.8731 50.6662 58.2102 50.2969C57.5521 49.9228 57.0241 49.3452 56.6264 48.5639C56.2334 47.7779 56.0369 46.767 56.0369 45.5312C56.0369 44.2576 56.2405 43.2088 56.6477 42.3849C57.0549 41.5563 57.5876 40.9432 58.2457 40.5455C58.9086 40.1477 59.6212 39.9489 60.3835 39.9489C60.9564 39.9489 61.4465 40.0483 61.8537 40.2472C62.2656 40.4413 62.6042 40.6922 62.8693 41C63.1345 41.3078 63.3357 41.6274 63.473 41.9588H63.5724V40.0909H67.0312V51.0426C67.0312 51.9659 66.7992 52.7448 66.3352 53.3793C65.8712 54.0137 65.2225 54.4943 64.3892 54.821C63.5559 55.1525 62.5923 55.3182 61.4986 55.3182ZM61.6051 48.3224C62.0265 48.3224 62.3864 48.2112 62.6847 47.9886C62.983 47.7661 63.2126 47.4465 63.3736 47.0298C63.5346 46.6132 63.6151 46.1136 63.6151 45.5312C63.6151 44.9394 63.5346 44.4304 63.3736 44.0043C63.2173 43.5734 62.9877 43.242 62.6847 43.0099C62.3864 42.7779 62.0265 42.6619 61.6051 42.6619C61.1742 42.6619 60.8097 42.7803 60.5114 43.017C60.2131 43.2538 59.9858 43.5876 59.8295 44.0185C59.678 44.4446 59.6023 44.9489 59.6023 45.5312C59.6023 46.1136 59.6804 46.6132 59.8366 47.0298C59.9929 47.4465 60.2178 47.7661 60.5114 47.9886C60.8097 48.2112 61.1742 48.3224 61.6051 48.3224ZM74.3448 51.206C73.2037 51.206 72.2189 50.9811 71.3903 50.5312C70.5664 50.0767 69.9319 49.4304 69.4869 48.5923C69.0465 47.7495 68.8263 46.7481 68.8263 45.5881C68.8263 44.4612 69.0489 43.4763 69.494 42.6335C69.939 41.786 70.5664 41.1278 71.3761 40.6591C72.1857 40.1856 73.1398 39.9489 74.2383 39.9489C75.0148 39.9489 75.725 40.0696 76.369 40.3111C77.0129 40.5526 77.5692 40.91 78.038 41.3835C78.5067 41.857 78.8713 42.4418 79.1317 43.1378C79.3922 43.8291 79.5224 44.6222 79.5224 45.517V46.3835H70.0408V44.3665H76.2908C76.2861 43.9972 76.1985 43.6681 76.0281 43.3793C75.8576 43.0904 75.6232 42.8655 75.3249 42.7045C75.0314 42.5388 74.6928 42.456 74.3093 42.456C73.921 42.456 73.573 42.5436 73.2653 42.7188C72.9575 42.8892 72.7137 43.1236 72.5337 43.4219C72.3538 43.7154 72.2591 44.0492 72.2496 44.4233V46.4759C72.2496 46.9209 72.3372 47.3116 72.5124 47.6477C72.6876 47.9792 72.9362 48.2372 73.2582 48.4219C73.5801 48.6065 73.9637 48.6989 74.4087 48.6989C74.7165 48.6989 74.9959 48.6562 75.2468 48.571C75.4978 48.4858 75.7132 48.3603 75.8931 48.1946C76.073 48.0289 76.208 47.8253 76.2979 47.5838L79.4869 47.6761C79.3543 48.3911 79.0631 49.0137 78.6133 49.544C78.1682 50.0696 77.5835 50.4792 76.859 50.7727C76.1346 51.0616 75.2965 51.206 74.3448 51.206ZM84.7692 44.7784V51H81.2962V40.0909H84.5987V42.0938H84.7195C84.9609 41.4261 85.3729 40.9029 85.9553 40.5241C86.5376 40.1406 87.2313 39.9489 88.0362 39.9489C88.8033 39.9489 89.4685 40.1217 90.032 40.4673C90.6001 40.8082 91.0405 41.2865 91.353 41.902C91.6702 42.5128 91.8265 43.2277 91.8217 44.0469V51H88.3487V44.7287C88.3535 44.1226 88.1996 43.6491 87.8871 43.3082C87.5793 42.9673 87.1508 42.7969 86.6016 42.7969C86.237 42.7969 85.915 42.8774 85.6357 43.0384C85.361 43.1946 85.148 43.4195 84.9964 43.7131C84.8497 44.0066 84.7739 44.3617 84.7692 44.7784ZM100.13 40.0909V42.6477H93.2475V40.0909H100.13ZM94.6893 37.4773H98.1623V47.5696C98.1623 47.7827 98.1954 47.9555 98.2617 48.0881C98.3327 48.2159 98.4345 48.3082 98.5671 48.3651C98.6997 48.4171 98.8583 48.4432 99.043 48.4432C99.1755 48.4432 99.3152 48.4313 99.462 48.4077C99.6135 48.3793 99.7272 48.3556 99.8029 48.3366L100.328 50.8438C100.163 50.8911 99.9284 50.9503 99.6254 51.0213C99.3271 51.0923 98.9696 51.1373 98.5529 51.1562C97.7385 51.1941 97.0401 51.0994 96.4577 50.8722C95.8801 50.6402 95.4374 50.2803 95.1296 49.7926C94.8266 49.3049 94.6798 48.6918 94.6893 47.9531V37.4773ZM114.061 40.8153C114.013 40.2945 113.803 39.8897 113.429 39.6009C113.059 39.3073 112.531 39.1605 111.845 39.1605C111.39 39.1605 111.011 39.2197 110.708 39.3381C110.405 39.4564 110.178 39.6198 110.027 39.8281C109.875 40.0317 109.797 40.2661 109.792 40.5312C109.783 40.7491 109.825 40.9408 109.92 41.1065C110.02 41.2723 110.162 41.419 110.346 41.5469C110.536 41.67 110.763 41.7789 111.028 41.8736C111.293 41.9683 111.592 42.0511 111.923 42.1222L113.173 42.4062C113.893 42.5625 114.527 42.7708 115.076 43.0312C115.63 43.2917 116.094 43.6018 116.468 43.9616C116.847 44.3215 117.134 44.7358 117.328 45.2045C117.522 45.6733 117.621 46.1989 117.626 46.7812C117.621 47.6998 117.389 48.4882 116.93 49.1463C116.471 49.8045 115.81 50.3087 114.949 50.6591C114.092 51.0095 113.057 51.1847 111.845 51.1847C110.628 51.1847 109.567 51.0024 108.663 50.6378C107.759 50.2732 107.056 49.7192 106.554 48.9759C106.052 48.2325 105.794 47.2926 105.779 46.1562H109.146C109.174 46.625 109.3 47.0156 109.522 47.3281C109.745 47.6406 110.05 47.8774 110.439 48.0384C110.832 48.1993 111.286 48.2798 111.802 48.2798C112.276 48.2798 112.678 48.2159 113.01 48.0881C113.346 47.9602 113.604 47.7827 113.784 47.5554C113.964 47.3281 114.056 47.0677 114.061 46.7741C114.056 46.4995 113.971 46.2652 113.805 46.071C113.639 45.8722 113.384 45.7017 113.038 45.5597C112.697 45.4129 112.261 45.2779 111.731 45.1548L110.211 44.7997C108.952 44.5109 107.96 44.0445 107.235 43.4006C106.511 42.7519 106.151 41.8759 106.156 40.7727C106.151 39.8731 106.393 39.0848 106.88 38.4077C107.368 37.7306 108.043 37.2027 108.904 36.8239C109.766 36.4451 110.749 36.2557 111.852 36.2557C112.979 36.2557 113.957 36.4474 114.785 36.831C115.618 37.2098 116.265 37.7424 116.724 38.429C117.183 39.1155 117.418 39.911 117.427 40.8153H114.061ZM126.44 46.2912V40.0909H129.906V51H126.596V48.9688H126.483C126.241 49.6364 125.829 50.1667 125.247 50.5597C124.669 50.9479 123.971 51.142 123.152 51.142C122.408 51.142 121.755 50.9716 121.191 50.6307C120.628 50.2898 120.19 49.8139 119.877 49.2031C119.565 48.5876 119.406 47.8679 119.402 47.044V40.0909H122.875V46.3622C122.879 46.9541 123.036 47.4205 123.343 47.7614C123.651 48.1023 124.07 48.2727 124.6 48.2727C124.946 48.2727 125.256 48.197 125.531 48.0455C125.81 47.8892 126.03 47.6643 126.191 47.3707C126.357 47.0724 126.44 46.7126 126.44 46.2912ZM132.116 55.0909V40.0909H135.554V41.9588H135.661C135.803 41.6274 136.004 41.3078 136.264 41C136.529 40.6922 136.866 40.4413 137.273 40.2472C137.685 40.0483 138.177 39.9489 138.75 39.9489C139.508 39.9489 140.215 40.1477 140.874 40.5455C141.536 40.9432 142.071 41.5563 142.479 42.3849C142.886 43.2135 143.089 44.2694 143.089 45.5526C143.089 46.7884 142.893 47.8229 142.5 48.6562C142.112 49.4896 141.586 50.1146 140.923 50.5312C140.265 50.9479 139.534 51.1562 138.729 51.1562C138.179 51.1562 137.704 51.0663 137.301 50.8864C136.899 50.7064 136.56 50.4697 136.286 50.1761C136.016 49.8826 135.807 49.5677 135.661 49.2315H135.589V55.0909H132.116ZM135.518 45.5455C135.518 46.1326 135.597 46.6439 135.753 47.0795C135.914 47.5152 136.143 47.8537 136.442 48.0952C136.745 48.3319 137.107 48.4503 137.528 48.4503C137.955 48.4503 138.317 48.3319 138.615 48.0952C138.913 47.8537 139.138 47.5152 139.29 47.0795C139.446 46.6439 139.524 46.1326 139.524 45.5455C139.524 44.9583 139.446 44.4493 139.29 44.0185C139.138 43.5876 138.913 43.2538 138.615 43.017C138.321 42.7803 137.959 42.6619 137.528 42.6619C137.102 42.6619 136.74 42.7779 136.442 43.0099C136.143 43.242 135.914 43.5734 135.753 44.0043C135.597 44.4351 135.518 44.9489 135.518 45.5455ZM144.909 55.0909V40.0909H148.347V41.9588H148.453C148.596 41.6274 148.797 41.3078 149.057 41C149.322 40.6922 149.658 40.4413 150.066 40.2472C150.478 40.0483 150.97 39.9489 151.543 39.9489C152.301 39.9489 153.008 40.1477 153.667 40.5455C154.329 40.9432 154.864 41.5563 155.272 42.3849C155.679 43.2135 155.882 44.2694 155.882 45.5526C155.882 46.7884 155.686 47.8229 155.293 48.6562C154.905 49.4896 154.379 50.1146 153.716 50.5312C153.058 50.9479 152.327 51.1562 151.522 51.1562C150.972 51.1562 150.497 51.0663 150.094 50.8864C149.692 50.7064 149.353 50.4697 149.078 50.1761C148.809 49.8826 148.6 49.5677 148.453 49.2315H148.382V55.0909H144.909ZM148.311 45.5455C148.311 46.1326 148.39 46.6439 148.546 47.0795C148.707 47.5152 148.936 47.8537 149.235 48.0952C149.538 48.3319 149.9 48.4503 150.321 48.4503C150.748 48.4503 151.11 48.3319 151.408 48.0952C151.706 47.8537 151.931 47.5152 152.083 47.0795C152.239 46.6439 152.317 46.1326 152.317 45.5455C152.317 44.9583 152.239 44.4493 152.083 44.0185C151.931 43.5876 151.706 43.2538 151.408 43.017C151.114 42.7803 150.752 42.6619 150.321 42.6619C149.895 42.6619 149.533 42.7779 149.235 43.0099C148.936 43.242 148.707 43.5734 148.546 44.0043C148.39 44.4351 148.311 44.9489 148.311 45.5455ZM161.175 36.4545V51H157.702V36.4545H161.175ZM165.51 55.0909C165.093 55.0909 164.7 55.0578 164.331 54.9915C163.961 54.9299 163.644 54.8471 163.379 54.7429L164.146 52.2216C164.487 52.3352 164.795 52.4015 165.069 52.4205C165.349 52.4394 165.588 52.3944 165.787 52.2855C165.99 52.1813 166.146 51.9943 166.255 51.7244L166.39 51.3977L162.512 40.0909H166.149L168.159 47.875H168.272L170.311 40.0909H173.968L169.856 52.044C169.657 52.6406 169.376 53.1662 169.011 53.6207C168.651 54.08 168.185 54.4399 167.612 54.7003C167.044 54.9607 166.343 55.0909 165.51 55.0909ZM192.8 41.7244H189.249C189.202 41.3598 189.105 41.0308 188.958 40.7372C188.811 40.4437 188.617 40.1927 188.375 39.9844C188.134 39.776 187.847 39.6174 187.516 39.5085C187.189 39.3949 186.827 39.3381 186.429 39.3381C185.724 39.3381 185.115 39.5109 184.604 39.8565C184.097 40.2022 183.707 40.7017 183.432 41.3551C183.162 42.0085 183.027 42.7992 183.027 43.7273C183.027 44.6932 183.165 45.5028 183.439 46.1562C183.719 46.8049 184.109 47.295 184.611 47.6264C185.118 47.9531 185.717 48.1165 186.408 48.1165C186.796 48.1165 187.149 48.0668 187.466 47.9673C187.788 47.8679 188.07 47.7235 188.311 47.5341C188.558 47.34 188.759 47.1056 188.915 46.831C189.076 46.5516 189.187 46.2367 189.249 45.8864L192.8 45.9077C192.739 46.5516 192.551 47.1861 192.239 47.8111C191.931 48.4361 191.507 49.0066 190.968 49.5227C190.428 50.0341 189.77 50.4413 188.993 50.7443C188.221 51.0473 187.336 51.1989 186.337 51.1989C185.021 51.1989 183.842 50.91 182.8 50.3324C181.763 49.75 180.944 48.9025 180.343 47.7898C179.741 46.6771 179.441 45.3229 179.441 43.7273C179.441 42.1269 179.746 40.7704 180.357 39.6577C180.968 38.545 181.794 37.6998 182.836 37.1222C183.877 36.5445 185.044 36.2557 186.337 36.2557C187.218 36.2557 188.032 36.3788 188.78 36.625C189.528 36.8665 190.186 37.2216 190.755 37.6903C191.323 38.1544 191.784 38.7249 192.14 39.402C192.495 40.0791 192.715 40.8532 192.8 41.7244ZM198.285 44.7784V51H194.812V36.4545H198.171V42.0938H198.292C198.538 41.4214 198.941 40.8958 199.499 40.517C200.063 40.1383 200.752 39.9489 201.566 39.9489C202.333 39.9489 203.001 40.1193 203.569 40.4602C204.137 40.7964 204.577 41.2723 204.89 41.8878C205.207 42.5033 205.363 43.223 205.359 44.0469V51H201.886V44.7287C201.89 44.1226 201.739 43.6491 201.431 43.3082C201.123 42.9673 200.69 42.7969 200.131 42.7969C199.767 42.7969 199.445 42.8774 199.165 43.0384C198.891 43.1946 198.675 43.4195 198.519 43.7131C198.368 44.0066 198.29 44.3617 198.285 44.7784ZM210.602 51.1847C209.906 51.1847 209.288 51.0687 208.748 50.8366C208.213 50.5999 207.789 50.2448 207.477 49.7713C207.169 49.2931 207.015 48.6941 207.015 47.9744C207.015 47.3684 207.122 46.857 207.335 46.4403C207.548 46.0237 207.842 45.6851 208.216 45.4247C208.59 45.1643 209.02 44.9678 209.508 44.8352C209.996 44.6979 210.517 44.6056 211.071 44.5582C211.691 44.5014 212.19 44.4422 212.569 44.3807C212.948 44.3144 213.223 44.2221 213.393 44.1037C213.568 43.9806 213.656 43.8078 213.656 43.5852V43.5497C213.656 43.1851 213.53 42.9034 213.279 42.7045C213.029 42.5057 212.69 42.4062 212.264 42.4062C211.805 42.4062 211.435 42.5057 211.156 42.7045C210.877 42.9034 210.699 43.178 210.623 43.5284L207.42 43.4148C207.515 42.7519 207.759 42.16 208.152 41.6392C208.549 41.1136 209.094 40.7017 209.785 40.4034C210.481 40.1004 211.317 39.9489 212.292 39.9489C212.988 39.9489 213.63 40.0317 214.217 40.1974C214.804 40.3584 215.315 40.5952 215.751 40.9077C216.187 41.2154 216.523 41.5942 216.76 42.044C217.001 42.4938 217.122 43.0076 217.122 43.5852V51H213.855V49.4801H213.77C213.575 49.8494 213.327 50.1619 213.024 50.4176C212.725 50.6733 212.373 50.8651 211.966 50.9929C211.563 51.1207 211.109 51.1847 210.602 51.1847ZM211.674 48.9119C212.048 48.9119 212.385 48.8362 212.683 48.6847C212.986 48.5331 213.227 48.3248 213.407 48.0597C213.587 47.7898 213.677 47.4773 213.677 47.1222V46.0852C213.578 46.1373 213.457 46.1847 213.315 46.2273C213.178 46.2699 213.026 46.3101 212.86 46.348C212.695 46.3859 212.524 46.419 212.349 46.4474C212.174 46.4759 212.006 46.5019 211.845 46.5256C211.518 46.5777 211.239 46.6581 211.007 46.767C210.779 46.8759 210.604 47.018 210.481 47.1932C210.363 47.3636 210.304 47.5672 210.304 47.804C210.304 48.1638 210.431 48.4384 210.687 48.6278C210.948 48.8172 211.277 48.9119 211.674 48.9119ZM219.245 51V40.0909H222.718V51H219.245ZM220.985 38.8196C220.498 38.8196 220.079 38.6586 219.728 38.3366C219.378 38.0099 219.203 37.617 219.203 37.1577C219.203 36.7031 219.378 36.3149 219.728 35.9929C220.079 35.6662 220.498 35.5028 220.985 35.5028C221.478 35.5028 221.897 35.6662 222.243 35.9929C222.593 36.3149 222.768 36.7031 222.768 37.1577C222.768 37.617 222.593 38.0099 222.243 38.3366C221.897 38.6586 221.478 38.8196 220.985 38.8196ZM228.402 44.7784V51H224.929V40.0909H228.232V42.0938H228.352C228.594 41.4261 229.006 40.9029 229.588 40.5241C230.17 40.1406 230.864 39.9489 231.669 39.9489C232.436 39.9489 233.101 40.1217 233.665 40.4673C234.233 40.8082 234.673 41.2865 234.986 41.902C235.303 42.5128 235.459 43.2277 235.455 44.0469V51H231.982V44.7287C231.986 44.1226 231.832 43.6491 231.52 43.3082C231.212 42.9673 230.784 42.7969 230.234 42.7969C229.87 42.7969 229.548 42.8774 229.268 43.0384C228.994 43.1946 228.781 43.4195 228.629 43.7131C228.482 44.0066 228.407 44.3617 228.402 44.7784ZM241.902 36.4545H246.255L249.949 45.4602H250.119L253.812 36.4545H258.166V51H254.743V42.0653H254.622L251.127 50.9077H248.94L245.446 42.0156H245.325V51H241.902V36.4545ZM263.434 51.1847C262.738 51.1847 262.12 51.0687 261.58 50.8366C261.045 50.5999 260.621 50.2448 260.309 49.7713C260.001 49.2931 259.847 48.6941 259.847 47.9744C259.847 47.3684 259.954 46.857 260.167 46.4403C260.38 46.0237 260.674 45.6851 261.048 45.4247C261.422 45.1643 261.853 44.9678 262.34 44.8352C262.828 44.6979 263.349 44.6056 263.903 44.5582C264.523 44.5014 265.022 44.4422 265.401 44.3807C265.78 44.3144 266.055 44.2221 266.225 44.1037C266.4 43.9806 266.488 43.8078 266.488 43.5852V43.5497C266.488 43.1851 266.362 42.9034 266.112 42.7045C265.861 42.5057 265.522 42.4062 265.096 42.4062C264.637 42.4062 264.267 42.5057 263.988 42.7045C263.709 42.9034 263.531 43.178 263.455 43.5284L260.252 43.4148C260.347 42.7519 260.591 42.16 260.984 41.6392C261.381 41.1136 261.926 40.7017 262.617 40.4034C263.313 40.1004 264.149 39.9489 265.124 39.9489C265.82 39.9489 266.462 40.0317 267.049 40.1974C267.636 40.3584 268.147 40.5952 268.583 40.9077C269.019 41.2154 269.355 41.5942 269.592 42.044C269.833 42.4938 269.954 43.0076 269.954 43.5852V51H266.687V49.4801H266.602C266.407 49.8494 266.159 50.1619 265.856 50.4176C265.558 50.6733 265.205 50.8651 264.798 50.9929C264.395 51.1207 263.941 51.1847 263.434 51.1847ZM264.506 48.9119C264.88 48.9119 265.217 48.8362 265.515 48.6847C265.818 48.5331 266.059 48.3248 266.239 48.0597C266.419 47.7898 266.509 47.4773 266.509 47.1222V46.0852C266.41 46.1373 266.289 46.1847 266.147 46.2273C266.01 46.2699 265.858 46.3101 265.692 46.348C265.527 46.3859 265.356 46.419 265.181 46.4474C265.006 46.4759 264.838 46.5019 264.677 46.5256C264.35 46.5777 264.071 46.6581 263.839 46.767C263.612 46.8759 263.436 47.018 263.313 47.1932C263.195 47.3636 263.136 47.5672 263.136 47.804C263.136 48.1638 263.263 48.4384 263.519 48.6278C263.78 48.8172 264.109 48.9119 264.506 48.9119ZM275.55 44.7784V51H272.077V40.0909H275.38V42.0938H275.501C275.742 41.4261 276.154 40.9029 276.737 40.5241C277.319 40.1406 278.013 39.9489 278.817 39.9489C279.585 39.9489 280.25 40.1217 280.813 40.4673C281.381 40.8082 281.822 41.2865 282.134 41.902C282.451 42.5128 282.608 43.2277 282.603 44.0469V51H279.13V44.7287C279.135 44.1226 278.981 43.6491 278.668 43.3082C278.361 42.9673 277.932 42.7969 277.383 42.7969C277.018 42.7969 276.696 42.8774 276.417 43.0384C276.142 43.1946 275.929 43.4195 275.778 43.7131C275.631 44.0066 275.555 44.3617 275.55 44.7784ZM287.828 51.1847C287.132 51.1847 286.515 51.0687 285.975 50.8366C285.44 50.5999 285.016 50.2448 284.703 49.7713C284.396 49.2931 284.242 48.6941 284.242 47.9744C284.242 47.3684 284.348 46.857 284.561 46.4403C284.775 46.0237 285.068 45.6851 285.442 45.4247C285.816 45.1643 286.247 44.9678 286.735 44.8352C287.222 44.6979 287.743 44.6056 288.297 44.5582C288.917 44.5014 289.417 44.4422 289.796 44.3807C290.175 44.3144 290.449 44.2221 290.62 44.1037C290.795 43.9806 290.882 43.8078 290.882 43.5852V43.5497C290.882 43.1851 290.757 42.9034 290.506 42.7045C290.255 42.5057 289.917 42.4062 289.49 42.4062C289.031 42.4062 288.662 42.5057 288.382 42.7045C288.103 42.9034 287.926 43.178 287.85 43.5284L284.647 43.4148C284.741 42.7519 284.985 42.16 285.378 41.6392C285.776 41.1136 286.32 40.7017 287.012 40.4034C287.708 40.1004 288.543 39.9489 289.519 39.9489C290.215 39.9489 290.856 40.0317 291.444 40.1974C292.031 40.3584 292.542 40.5952 292.978 40.9077C293.413 41.2154 293.749 41.5942 293.986 42.044C294.228 42.4938 294.348 43.0076 294.348 43.5852V51H291.081V49.4801H290.996C290.802 49.8494 290.553 50.1619 290.25 50.4176C289.952 50.6733 289.599 50.8651 289.192 50.9929C288.79 51.1207 288.335 51.1847 287.828 51.1847ZM288.901 48.9119C289.275 48.9119 289.611 48.8362 289.909 48.6847C290.212 48.5331 290.454 48.3248 290.634 48.0597C290.814 47.7898 290.904 47.4773 290.904 47.1222V46.0852C290.804 46.1373 290.684 46.1847 290.542 46.2273C290.404 46.2699 290.253 46.3101 290.087 46.348C289.921 46.3859 289.751 46.419 289.576 46.4474C289.4 46.4759 289.232 46.5019 289.071 46.5256C288.745 46.5777 288.465 46.6581 288.233 46.767C288.006 46.8759 287.831 47.018 287.708 47.1932C287.589 47.3636 287.53 47.5672 287.53 47.804C287.53 48.1638 287.658 48.4384 287.914 48.6278C288.174 48.8172 288.503 48.9119 288.901 48.9119ZM301.557 55.3182C300.52 55.3182 299.632 55.1738 298.894 54.8849C298.155 54.5961 297.575 54.2008 297.154 53.6989C296.732 53.197 296.479 52.6288 296.394 51.9943L299.682 51.8097C299.744 52.0322 299.857 52.2263 300.023 52.392C300.194 52.5578 300.414 52.6856 300.684 52.7756C300.958 52.8655 301.28 52.9105 301.65 52.9105C302.232 52.9105 302.712 52.7685 303.091 52.4844C303.475 52.205 303.667 51.715 303.667 51.0142V49.0966H303.546C303.408 49.4328 303.2 49.7334 302.921 49.9986C302.641 50.2637 302.293 50.4721 301.877 50.6236C301.465 50.7751 300.991 50.8509 300.456 50.8509C299.661 50.8509 298.932 50.6662 298.269 50.2969C297.611 49.9228 297.083 49.3452 296.685 48.5639C296.292 47.7779 296.096 46.767 296.096 45.5312C296.096 44.2576 296.299 43.2088 296.706 42.3849C297.114 41.5563 297.646 40.9432 298.304 40.5455C298.967 40.1477 299.68 39.9489 300.442 39.9489C301.015 39.9489 301.505 40.0483 301.912 40.2472C302.324 40.4413 302.663 40.6922 302.928 41C303.193 41.3078 303.394 41.6274 303.532 41.9588H303.631V40.0909H307.09V51.0426C307.09 51.9659 306.858 52.7448 306.394 53.3793C305.93 54.0137 305.281 54.4943 304.448 54.821C303.614 55.1525 302.651 55.3182 301.557 55.3182ZM301.664 48.3224C302.085 48.3224 302.445 48.2112 302.743 47.9886C303.042 47.7661 303.271 47.4465 303.432 47.0298C303.593 46.6132 303.674 46.1136 303.674 45.5312C303.674 44.9394 303.593 44.4304 303.432 44.0043C303.276 43.5734 303.046 43.242 302.743 43.0099C302.445 42.7779 302.085 42.6619 301.664 42.6619C301.233 42.6619 300.868 42.7803 300.57 43.017C300.272 43.2538 300.044 43.5876 299.888 44.0185C299.737 44.4446 299.661 44.9489 299.661 45.5312C299.661 46.1136 299.739 46.6132 299.895 47.0298C300.051 47.4465 300.276 47.7661 300.57 47.9886C300.868 48.2112 301.233 48.3224 301.664 48.3224ZM314.403 51.206C313.262 51.206 312.277 50.9811 311.449 50.5312C310.625 50.0767 309.991 49.4304 309.545 48.5923C309.105 47.7495 308.885 46.7481 308.885 45.5881C308.885 44.4612 309.107 43.4763 309.553 42.6335C309.998 41.786 310.625 41.1278 311.435 40.6591C312.244 40.1856 313.198 39.9489 314.297 39.9489C315.073 39.9489 315.784 40.0696 316.428 40.3111C317.071 40.5526 317.628 40.91 318.097 41.3835C318.565 41.857 318.93 42.4418 319.19 43.1378C319.451 43.8291 319.581 44.6222 319.581 45.517V46.3835H310.099V44.3665H316.349C316.345 43.9972 316.257 43.6681 316.087 43.3793C315.916 43.0904 315.682 42.8655 315.384 42.7045C315.09 42.5388 314.751 42.456 314.368 42.456C313.98 42.456 313.632 42.5436 313.324 42.7188C313.016 42.8892 312.772 43.1236 312.592 43.4219C312.412 43.7154 312.318 44.0492 312.308 44.4233V46.4759C312.308 46.9209 312.396 47.3116 312.571 47.6477C312.746 47.9792 312.995 48.2372 313.317 48.4219C313.639 48.6065 314.022 48.6989 314.467 48.6989C314.775 48.6989 315.054 48.6562 315.305 48.571C315.556 48.4858 315.772 48.3603 315.952 48.1946C316.132 48.0289 316.267 47.8253 316.357 47.5838L319.545 47.6761C319.413 48.3911 319.122 49.0137 318.672 49.544C318.227 50.0696 317.642 50.4792 316.918 50.7727C316.193 51.0616 315.355 51.206 314.403 51.206ZM321.355 51V40.0909H324.728V42.0795H324.842C325.041 41.3598 325.365 40.8248 325.815 40.4744C326.265 40.1193 326.788 39.9418 327.385 39.9418C327.546 39.9418 327.711 39.9536 327.882 39.9773C328.052 39.9962 328.211 40.027 328.358 40.0696V43.0881C328.192 43.0312 327.974 42.9863 327.704 42.9531C327.439 42.92 327.202 42.9034 326.994 42.9034C326.582 42.9034 326.21 42.9957 325.879 43.1804C325.552 43.3603 325.294 43.6136 325.105 43.9403C324.92 44.2623 324.828 44.6411 324.828 45.0767V51H321.355ZM330.476 51.206C329.964 51.206 329.527 51.026 329.162 50.6662C328.802 50.3063 328.625 49.8707 328.629 49.3594C328.625 48.8575 328.802 48.429 329.162 48.0739C329.527 47.714 329.964 47.5341 330.476 47.5341C330.959 47.5341 331.385 47.714 331.754 48.0739C332.128 48.429 332.318 48.8575 332.322 49.3594C332.318 49.7003 332.228 50.0104 332.053 50.2898C331.882 50.5691 331.657 50.7917 331.378 50.9574C331.103 51.1231 330.803 51.206 330.476 51.206Z" fill="black"/>
</svg>
