<svg width="231" height="17" viewBox="0 0 231 17" fill="none" xmlns="http://www.w3.org/2000/svg">
<path d="M0.554 16V0.879999H6.959C8.051 0.879999 8.982 1.062 9.752 1.426C10.522 1.79 11.11 2.308 11.516 2.98C11.936 3.652 12.146 4.45 12.146 5.374C12.146 6.312 11.936 7.124 11.516 7.81C11.11 8.482 10.515 9.007 9.731 9.385C8.961 9.763 8.037 9.952 6.959 9.952H2.255V8.104H6.854C7.848 8.104 8.604 7.866 9.122 7.39C9.654 6.914 9.92 6.249 9.92 5.395C9.92 4.527 9.661 3.862 9.143 3.4C8.625 2.938 7.862 2.707 6.854 2.707H2.78V16H0.554ZM14.4168 16V0.879999H16.6008V16H14.4168ZM22.0188 16V9.112C22.0188 8.37 21.8298 7.817 21.4518 7.453C21.0878 7.089 20.5418 6.907 19.8138 6.907C19.1838 6.907 18.6238 7.047 18.1338 7.327C17.6578 7.607 17.2798 7.992 16.9998 8.482C16.7338 8.972 16.6008 9.553 16.6008 10.225L16.3278 7.663C16.6778 6.865 17.2168 6.235 17.9448 5.773C18.6728 5.311 19.5198 5.08 20.4858 5.08C21.6338 5.08 22.5368 5.402 23.1948 6.046C23.8528 6.69 24.1818 7.544 24.1818 8.608V16H22.0188ZM31.8141 16.21C30.7221 16.21 29.7631 15.972 28.9371 15.496C28.1111 15.006 27.4671 14.341 27.0051 13.501C26.5431 12.647 26.3121 11.681 26.3121 10.603C26.3121 9.511 26.5431 8.552 27.0051 7.726C27.4811 6.9 28.1251 6.256 28.9371 5.794C29.7631 5.318 30.7221 5.08 31.8141 5.08C32.9201 5.08 33.8861 5.318 34.7121 5.794C35.5381 6.256 36.1751 6.9 36.6231 7.726C37.0851 8.552 37.3161 9.511 37.3161 10.603C37.3161 11.681 37.0851 12.647 36.6231 13.501C36.1751 14.341 35.5381 15.006 34.7121 15.496C33.8861 15.972 32.9201 16.21 31.8141 16.21ZM31.8141 14.425C32.4721 14.425 33.0391 14.264 33.5151 13.942C34.0051 13.62 34.3901 13.172 34.6701 12.598C34.9501 12.024 35.0901 11.352 35.0901 10.582C35.0901 9.434 34.7821 8.531 34.1661 7.873C33.5641 7.201 32.7801 6.865 31.8141 6.865C30.8621 6.865 30.0781 7.201 29.4621 7.873C28.8601 8.545 28.5591 9.448 28.5591 10.582C28.5591 11.352 28.6921 12.024 28.9581 12.598C29.2381 13.172 29.6231 13.62 30.1131 13.942C30.6171 14.264 31.1841 14.425 31.8141 14.425ZM39.5594 16V5.29H41.6384V7.81H41.7434V16H39.5594ZM47.1614 16V9.112C47.1614 8.37 46.9724 7.817 46.5944 7.453C46.2304 7.089 45.6844 6.907 44.9564 6.907C44.3264 6.907 43.7664 7.047 43.2764 7.327C42.8004 7.607 42.4224 7.992 42.1424 8.482C41.8764 8.972 41.7434 9.553 41.7434 10.225L41.4704 7.663C41.8204 6.865 42.3594 6.235 43.0874 5.773C43.8154 5.311 44.6624 5.08 45.6284 5.08C46.7764 5.08 47.6794 5.402 48.3374 6.046C48.9954 6.69 49.3244 7.544 49.3244 8.608V16H47.1614ZM56.9147 16.21C55.8367 16.21 54.8847 15.972 54.0587 15.496C53.2467 15.02 52.6097 14.362 52.1477 13.522C51.6857 12.682 51.4547 11.716 51.4547 10.624C51.4547 9.518 51.6787 8.552 52.1267 7.726C52.5887 6.886 53.2327 6.235 54.0587 5.773C54.8847 5.311 55.8297 5.08 56.8937 5.08C57.9297 5.08 58.8257 5.304 59.5817 5.752C60.3517 6.186 60.9397 6.795 61.3457 7.579C61.7657 8.363 61.9757 9.294 61.9757 10.372C61.9757 10.54 61.9687 10.701 61.9547 10.855C61.9547 10.995 61.9407 11.142 61.9127 11.296H52.9247V9.658H60.3797L59.8337 10.309C59.8337 9.161 59.5747 8.286 59.0567 7.684C58.5387 7.082 57.8177 6.781 56.8937 6.781C55.8997 6.781 55.1087 7.124 54.5207 7.81C53.9467 8.482 53.6597 9.42 53.6597 10.624C53.6597 11.842 53.9467 12.794 54.5207 13.48C55.1087 14.166 55.9207 14.509 56.9567 14.509C57.5867 14.509 58.1327 14.383 58.5947 14.131C59.0567 13.865 59.3997 13.48 59.6237 12.976H61.6817C61.3317 13.984 60.7367 14.775 59.8967 15.349C59.0707 15.923 58.0767 16.21 56.9147 16.21ZM63.7166 16V13.396H66.2996V16H63.7166ZM63.7166 8.398V5.794H66.2996V8.398H63.7166ZM76.6928 12.934V3.463H78.4568V12.934H76.6928ZM73.1228 9.07V7.348H82.0268V9.07H73.1228ZM89.555 16.21C87.707 16.21 86.279 15.566 85.271 14.278C84.277 12.976 83.78 11.114 83.78 8.692C83.78 7.012 84.018 5.577 84.494 4.387C84.984 3.183 85.67 2.266 86.552 1.636C87.448 0.992 88.505 0.67 89.723 0.67C91.067 0.67 92.173 1.048 93.041 1.804C93.923 2.56 94.455 3.596 94.637 4.912H92.348C92.236 4.128 91.942 3.533 91.466 3.127C91.004 2.707 90.416 2.497 89.702 2.497C88.526 2.497 87.644 3.001 87.056 4.009C86.468 5.017 86.174 6.536 86.174 8.566V9.931L85.628 9.742C85.768 9.084 86.048 8.51 86.468 8.02C86.888 7.53 87.406 7.152 88.022 6.886C88.652 6.606 89.338 6.466 90.08 6.466C91.046 6.466 91.886 6.669 92.6 7.075C93.328 7.481 93.888 8.055 94.28 8.797C94.686 9.525 94.889 10.372 94.889 11.338C94.889 12.318 94.665 13.179 94.217 13.921C93.783 14.649 93.167 15.216 92.369 15.622C91.571 16.014 90.633 16.21 89.555 16.21ZM89.534 14.383C90.402 14.383 91.109 14.117 91.655 13.585C92.215 13.039 92.495 12.29 92.495 11.338C92.495 10.358 92.222 9.602 91.676 9.07C91.13 8.524 90.402 8.251 89.492 8.251C88.596 8.251 87.847 8.51 87.245 9.028C86.643 9.546 86.342 10.267 86.342 11.191C86.342 11.835 86.482 12.395 86.762 12.871C87.042 13.347 87.42 13.718 87.896 13.984C88.386 14.25 88.932 14.383 89.534 14.383ZM101.931 16.21C100.895 16.21 99.9783 16.021 99.1803 15.643C98.3963 15.265 97.7593 14.719 97.2693 14.005C96.7933 13.277 96.4993 12.395 96.3873 11.359H98.6763C98.8163 12.353 99.1593 13.109 99.7053 13.627C100.251 14.131 100.979 14.383 101.889 14.383C102.729 14.383 103.401 14.152 103.905 13.69C104.409 13.228 104.661 12.591 104.661 11.779C104.661 10.953 104.416 10.281 103.926 9.763C103.436 9.245 102.736 8.986 101.826 8.986H100.125V7.201H101.763C102.575 7.201 103.205 6.984 103.653 6.55C104.101 6.116 104.325 5.542 104.325 4.828C104.325 4.1 104.108 3.533 103.674 3.127C103.24 2.707 102.617 2.497 101.805 2.497C101.049 2.497 100.398 2.721 99.8523 3.169C99.3203 3.617 98.9983 4.268 98.8863 5.122H96.5973C96.6953 4.212 96.9683 3.428 97.4163 2.77C97.8783 2.098 98.4873 1.58 99.2433 1.216C100.013 0.851999 100.888 0.67 101.868 0.67C102.834 0.67 103.674 0.831 104.388 1.153C105.116 1.475 105.676 1.937 106.068 2.539C106.474 3.141 106.677 3.848 106.677 4.66C106.677 5.36 106.516 5.983 106.194 6.529C105.872 7.075 105.445 7.502 104.913 7.81C104.395 8.104 103.814 8.251 103.17 8.251L103.086 7.81C103.898 7.81 104.598 7.992 105.186 8.356C105.788 8.706 106.25 9.189 106.572 9.805C106.894 10.407 107.055 11.1 107.055 11.884C107.055 12.752 106.831 13.515 106.383 14.173C105.949 14.817 105.347 15.321 104.577 15.685C103.807 16.035 102.925 16.21 101.931 16.21ZM114.232 16.21C113.28 16.21 112.44 16.028 111.712 15.664C110.998 15.3 110.424 14.775 109.99 14.089C109.556 13.403 109.283 12.563 109.171 11.569H111.46C111.586 12.549 111.894 13.263 112.384 13.711C112.874 14.159 113.511 14.383 114.295 14.383C114.883 14.383 115.38 14.264 115.786 14.026C116.206 13.788 116.542 13.424 116.794 12.934C117.06 12.444 117.256 11.821 117.382 11.065C117.508 10.295 117.571 9.378 117.571 8.314V6.949L118.18 6.991C118.04 7.649 117.76 8.23 117.34 8.734C116.92 9.224 116.395 9.602 115.765 9.868C115.149 10.134 114.463 10.267 113.707 10.267C112.769 10.267 111.943 10.064 111.229 9.658C110.515 9.252 109.955 8.692 109.549 7.978C109.143 7.25 108.94 6.424 108.94 5.5C108.94 4.52 109.164 3.673 109.612 2.959C110.06 2.231 110.683 1.671 111.481 1.279C112.293 0.872999 113.224 0.67 114.274 0.67C116.136 0.67 117.557 1.321 118.537 2.623C119.531 3.925 120.028 5.822 120.028 8.314C120.028 9.98 119.797 11.408 119.335 12.598C118.887 13.774 118.229 14.67 117.361 15.286C116.507 15.902 115.464 16.21 114.232 16.21ZM114.358 8.482C115.268 8.482 115.996 8.23 116.542 7.726C117.102 7.222 117.382 6.522 117.382 5.626C117.382 5.024 117.249 4.492 116.983 4.03C116.731 3.554 116.374 3.183 115.912 2.917C115.45 2.637 114.911 2.497 114.295 2.497C113.413 2.497 112.706 2.777 112.174 3.337C111.656 3.883 111.397 4.611 111.397 5.521C111.397 6.403 111.656 7.117 112.174 7.663C112.692 8.209 113.42 8.482 114.358 8.482ZM128.344 16.21C127.126 16.21 126.055 15.881 125.131 15.223C124.207 14.551 123.486 13.627 122.968 12.451C122.45 11.261 122.191 9.903 122.191 8.377C122.191 6.851 122.45 5.514 122.968 4.366C123.486 3.204 124.207 2.301 125.131 1.657C126.055 0.999 127.126 0.67 128.344 0.67C129.562 0.67 130.626 0.999 131.536 1.657C132.46 2.301 133.181 3.204 133.699 4.366C134.217 5.514 134.476 6.851 134.476 8.377C134.476 9.917 134.217 11.275 133.699 12.451C133.181 13.627 132.46 14.551 131.536 15.223C130.612 15.881 129.548 16.21 128.344 16.21ZM128.344 14.299C129.142 14.299 129.821 14.054 130.381 13.564C130.941 13.06 131.361 12.367 131.641 11.485C131.935 10.589 132.082 9.546 132.082 8.356C132.082 7.18 131.935 6.158 131.641 5.29C131.361 4.422 130.941 3.757 130.381 3.295C129.835 2.819 129.156 2.581 128.344 2.581C127.518 2.581 126.825 2.819 126.265 3.295C125.719 3.771 125.299 4.443 125.005 5.311C124.725 6.165 124.585 7.18 124.585 8.356C124.585 9.546 124.732 10.589 125.026 11.485C125.32 12.381 125.74 13.074 126.286 13.564C126.846 14.054 127.532 14.299 128.344 14.299ZM142.363 16.21C140.515 16.21 139.087 15.566 138.079 14.278C137.085 12.976 136.588 11.114 136.588 8.692C136.588 7.012 136.826 5.577 137.302 4.387C137.792 3.183 138.478 2.266 139.36 1.636C140.256 0.992 141.313 0.67 142.531 0.67C143.875 0.67 144.981 1.048 145.849 1.804C146.731 2.56 147.263 3.596 147.445 4.912H145.156C145.044 4.128 144.75 3.533 144.274 3.127C143.812 2.707 143.224 2.497 142.51 2.497C141.334 2.497 140.452 3.001 139.864 4.009C139.276 5.017 138.982 6.536 138.982 8.566V9.931L138.436 9.742C138.576 9.084 138.856 8.51 139.276 8.02C139.696 7.53 140.214 7.152 140.83 6.886C141.46 6.606 142.146 6.466 142.888 6.466C143.854 6.466 144.694 6.669 145.408 7.075C146.136 7.481 146.696 8.055 147.088 8.797C147.494 9.525 147.697 10.372 147.697 11.338C147.697 12.318 147.473 13.179 147.025 13.921C146.591 14.649 145.975 15.216 145.177 15.622C144.379 16.014 143.441 16.21 142.363 16.21ZM142.342 14.383C143.21 14.383 143.917 14.117 144.463 13.585C145.023 13.039 145.303 12.29 145.303 11.338C145.303 10.358 145.03 9.602 144.484 9.07C143.938 8.524 143.21 8.251 142.3 8.251C141.404 8.251 140.655 8.51 140.053 9.028C139.451 9.546 139.15 10.267 139.15 11.191C139.15 11.835 139.29 12.395 139.57 12.871C139.85 13.347 140.228 13.718 140.704 13.984C141.194 14.25 141.74 14.383 142.342 14.383ZM151.472 16C151.668 13.62 152.235 11.282 153.173 8.986C154.111 6.69 155.441 4.422 157.163 2.182L157.226 2.707H148.637V0.879999H159.158V2.497C158.094 4.037 157.198 5.549 156.47 7.033C155.742 8.503 155.168 9.973 154.748 11.443C154.342 12.913 154.076 14.432 153.95 16H151.472ZM165.505 16.21C164.413 16.21 163.461 16.021 162.649 15.643C161.851 15.265 161.228 14.747 160.78 14.089C160.346 13.417 160.129 12.661 160.129 11.821C160.129 11.065 160.29 10.386 160.612 9.784C160.948 9.182 161.403 8.706 161.977 8.356C162.565 7.992 163.216 7.81 163.93 7.81L164.077 8.251C163.363 8.251 162.74 8.104 162.208 7.81C161.676 7.502 161.256 7.082 160.948 6.55C160.654 6.004 160.507 5.395 160.507 4.723C160.507 3.925 160.717 3.225 161.137 2.623C161.557 2.007 162.138 1.531 162.88 1.195C163.636 0.844999 164.518 0.67 165.526 0.67C166.52 0.67 167.388 0.844999 168.13 1.195C168.872 1.531 169.453 2.007 169.873 2.623C170.293 3.225 170.503 3.925 170.503 4.723C170.503 5.395 170.349 5.997 170.041 6.529C169.747 7.061 169.334 7.481 168.802 7.789C168.27 8.097 167.64 8.251 166.912 8.251L167.08 7.81C167.808 7.81 168.459 7.992 169.033 8.356C169.607 8.706 170.055 9.182 170.377 9.784C170.713 10.386 170.881 11.072 170.881 11.842C170.881 12.682 170.657 13.431 170.209 14.089C169.775 14.747 169.152 15.265 168.34 15.643C167.542 16.021 166.597 16.21 165.505 16.21ZM165.505 14.383C166.429 14.383 167.157 14.138 167.689 13.648C168.235 13.144 168.508 12.472 168.508 11.632C168.508 10.806 168.235 10.155 167.689 9.679C167.157 9.203 166.429 8.965 165.505 8.965C164.581 8.965 163.846 9.203 163.3 9.679C162.768 10.155 162.502 10.806 162.502 11.632C162.502 12.472 162.768 13.144 163.3 13.648C163.846 14.138 164.581 14.383 165.505 14.383ZM165.505 7.222C166.317 7.222 166.954 7.012 167.416 6.592C167.892 6.172 168.13 5.605 168.13 4.891C168.13 4.163 167.885 3.582 167.395 3.148C166.919 2.714 166.289 2.497 165.505 2.497C164.707 2.497 164.07 2.714 163.594 3.148C163.118 3.582 162.88 4.163 162.88 4.891C162.88 5.605 163.118 6.172 163.594 6.592C164.07 7.012 164.707 7.222 165.505 7.222ZM178.032 16.21C177.08 16.21 176.24 16.028 175.512 15.664C174.798 15.3 174.224 14.775 173.79 14.089C173.356 13.403 173.083 12.563 172.971 11.569H175.26C175.386 12.549 175.694 13.263 176.184 13.711C176.674 14.159 177.311 14.383 178.095 14.383C178.683 14.383 179.18 14.264 179.586 14.026C180.006 13.788 180.342 13.424 180.594 12.934C180.86 12.444 181.056 11.821 181.182 11.065C181.308 10.295 181.371 9.378 181.371 8.314V6.949L181.98 6.991C181.84 7.649 181.56 8.23 181.14 8.734C180.72 9.224 180.195 9.602 179.565 9.868C178.949 10.134 178.263 10.267 177.507 10.267C176.569 10.267 175.743 10.064 175.029 9.658C174.315 9.252 173.755 8.692 173.349 7.978C172.943 7.25 172.74 6.424 172.74 5.5C172.74 4.52 172.964 3.673 173.412 2.959C173.86 2.231 174.483 1.671 175.281 1.279C176.093 0.872999 177.024 0.67 178.074 0.67C179.936 0.67 181.357 1.321 182.337 2.623C183.331 3.925 183.828 5.822 183.828 8.314C183.828 9.98 183.597 11.408 183.135 12.598C182.687 13.774 182.029 14.67 181.161 15.286C180.307 15.902 179.264 16.21 178.032 16.21ZM178.158 8.482C179.068 8.482 179.796 8.23 180.342 7.726C180.902 7.222 181.182 6.522 181.182 5.626C181.182 5.024 181.049 4.492 180.783 4.03C180.531 3.554 180.174 3.183 179.712 2.917C179.25 2.637 178.711 2.497 178.095 2.497C177.213 2.497 176.506 2.777 175.974 3.337C175.456 3.883 175.197 4.611 175.197 5.521C175.197 6.403 175.456 7.117 175.974 7.663C176.492 8.209 177.22 8.482 178.158 8.482ZM190.976 16.21C189.94 16.21 189.023 16.021 188.225 15.643C187.441 15.265 186.804 14.719 186.314 14.005C185.838 13.277 185.544 12.395 185.432 11.359H187.721C187.861 12.353 188.204 13.109 188.75 13.627C189.296 14.131 190.024 14.383 190.934 14.383C191.774 14.383 192.446 14.152 192.95 13.69C193.454 13.228 193.706 12.591 193.706 11.779C193.706 10.953 193.461 10.281 192.971 9.763C192.481 9.245 191.781 8.986 190.871 8.986H189.17V7.201H190.808C191.62 7.201 192.25 6.984 192.698 6.55C193.146 6.116 193.37 5.542 193.37 4.828C193.37 4.1 193.153 3.533 192.719 3.127C192.285 2.707 191.662 2.497 190.85 2.497C190.094 2.497 189.443 2.721 188.897 3.169C188.365 3.617 188.043 4.268 187.931 5.122H185.642C185.74 4.212 186.013 3.428 186.461 2.77C186.923 2.098 187.532 1.58 188.288 1.216C189.058 0.851999 189.933 0.67 190.913 0.67C191.879 0.67 192.719 0.831 193.433 1.153C194.161 1.475 194.721 1.937 195.113 2.539C195.519 3.141 195.722 3.848 195.722 4.66C195.722 5.36 195.561 5.983 195.239 6.529C194.917 7.075 194.49 7.502 193.958 7.81C193.44 8.104 192.859 8.251 192.215 8.251L192.131 7.81C192.943 7.81 193.643 7.992 194.231 8.356C194.833 8.706 195.295 9.189 195.617 9.805C195.939 10.407 196.1 11.1 196.1 11.884C196.1 12.752 195.876 13.515 195.428 14.173C194.994 14.817 194.392 15.321 193.622 15.685C192.852 16.035 191.97 16.21 190.976 16.21ZM203.277 16.21C202.325 16.21 201.485 16.028 200.757 15.664C200.043 15.3 199.469 14.775 199.035 14.089C198.601 13.403 198.328 12.563 198.216 11.569H200.505C200.631 12.549 200.939 13.263 201.429 13.711C201.919 14.159 202.556 14.383 203.34 14.383C203.928 14.383 204.425 14.264 204.831 14.026C205.251 13.788 205.587 13.424 205.839 12.934C206.105 12.444 206.301 11.821 206.427 11.065C206.553 10.295 206.616 9.378 206.616 8.314V6.949L207.225 6.991C207.085 7.649 206.805 8.23 206.385 8.734C205.965 9.224 205.44 9.602 204.81 9.868C204.194 10.134 203.508 10.267 202.752 10.267C201.814 10.267 200.988 10.064 200.274 9.658C199.56 9.252 199 8.692 198.594 7.978C198.188 7.25 197.985 6.424 197.985 5.5C197.985 4.52 198.209 3.673 198.657 2.959C199.105 2.231 199.728 1.671 200.526 1.279C201.338 0.872999 202.269 0.67 203.319 0.67C205.181 0.67 206.602 1.321 207.582 2.623C208.576 3.925 209.073 5.822 209.073 8.314C209.073 9.98 208.842 11.408 208.38 12.598C207.932 13.774 207.274 14.67 206.406 15.286C205.552 15.902 204.509 16.21 203.277 16.21ZM203.403 8.482C204.313 8.482 205.041 8.23 205.587 7.726C206.147 7.222 206.427 6.522 206.427 5.626C206.427 5.024 206.294 4.492 206.028 4.03C205.776 3.554 205.419 3.183 204.957 2.917C204.495 2.637 203.956 2.497 203.34 2.497C202.458 2.497 201.751 2.777 201.219 3.337C200.701 3.883 200.442 4.611 200.442 5.521C200.442 6.403 200.701 7.117 201.219 7.663C201.737 8.209 202.465 8.482 203.403 8.482ZM217.389 16.21C216.171 16.21 215.1 15.881 214.176 15.223C213.252 14.551 212.531 13.627 212.013 12.451C211.495 11.261 211.236 9.903 211.236 8.377C211.236 6.851 211.495 5.514 212.013 4.366C212.531 3.204 213.252 2.301 214.176 1.657C215.1 0.999 216.171 0.67 217.389 0.67C218.607 0.67 219.671 0.999 220.581 1.657C221.505 2.301 222.226 3.204 222.744 4.366C223.262 5.514 223.521 6.851 223.521 8.377C223.521 9.917 223.262 11.275 222.744 12.451C222.226 13.627 221.505 14.551 220.581 15.223C219.657 15.881 218.593 16.21 217.389 16.21ZM217.389 14.299C218.187 14.299 218.866 14.054 219.426 13.564C219.986 13.06 220.406 12.367 220.686 11.485C220.98 10.589 221.127 9.546 221.127 8.356C221.127 7.18 220.98 6.158 220.686 5.29C220.406 4.422 219.986 3.757 219.426 3.295C218.88 2.819 218.201 2.581 217.389 2.581C216.563 2.581 215.87 2.819 215.31 3.295C214.764 3.771 214.344 4.443 214.05 5.311C213.77 6.165 213.63 7.18 213.63 8.356C213.63 9.546 213.777 10.589 214.071 11.485C214.365 12.381 214.785 13.074 215.331 13.564C215.891 14.054 216.577 14.299 217.389 14.299ZM228.73 16V2.959L229.129 3.127C228.947 3.519 228.632 3.904 228.184 4.282C227.736 4.66 227.218 4.989 226.63 5.269C226.042 5.535 225.419 5.724 224.761 5.836V3.694C225.377 3.596 225.979 3.414 226.567 3.148C227.155 2.868 227.68 2.532 228.142 2.14C228.604 1.734 228.947 1.314 229.171 0.879999H230.893V16H228.73Z" fill="black"/>
</svg>
