<svg width="62" height="12" viewBox="0 0 62 12" fill="none" xmlns="http://www.w3.org/2000/svg">
<path d="M1.97869 11H0.348011L4.01207 0.818182H5.78693L9.45099 11H7.82031L4.94176 2.66761H4.86222L1.97869 11ZM2.25213 7.01278H7.5419V8.3054H2.25213V7.01278ZM10.9213 11V0.818182H12.4078V4.60156H12.4973C12.5835 4.44247 12.7078 4.25852 12.8702 4.04972C13.0326 3.84091 13.258 3.65862 13.5463 3.50284C13.8347 3.34375 14.2159 3.2642 14.6898 3.2642C15.3063 3.2642 15.8565 3.41998 16.3404 3.73153C16.8243 4.04309 17.2038 4.49219 17.4789 5.07884C17.7573 5.66548 17.8965 6.37145 17.8965 7.19673C17.8965 8.02202 17.7589 8.72964 17.4838 9.3196C17.2087 9.90625 16.8309 10.3587 16.3503 10.6768C15.8697 10.9917 15.3212 11.1491 14.7047 11.1491C14.2407 11.1491 13.8612 11.0713 13.5662 10.9155C13.2746 10.7597 13.0459 10.5774 12.8801 10.3686C12.7144 10.1598 12.5868 9.9742 12.4973 9.81179H12.373V11H10.9213ZM12.378 7.18182C12.378 7.71875 12.4559 8.18939 12.6117 8.59375C12.7675 8.99811 12.9928 9.31463 13.2878 9.54332C13.5828 9.7687 13.9441 9.88139 14.3716 9.88139C14.8158 9.88139 15.187 9.76373 15.4853 9.52841C15.7836 9.28977 16.0089 8.96662 16.1614 8.55895C16.3172 8.15128 16.3951 7.69223 16.3951 7.18182C16.3951 6.67803 16.3188 6.22562 16.1664 5.82457C16.0172 5.42353 15.7918 5.10701 15.4902 4.875C15.1919 4.64299 14.8191 4.52699 14.3716 4.52699C13.9408 4.52699 13.5762 4.63802 13.2779 4.86009C12.9829 5.08215 12.7592 5.39205 12.6067 5.78977C12.4542 6.1875 12.378 6.65151 12.378 7.18182ZM22.7823 11.1541C22.0664 11.1541 21.4416 10.9901 20.908 10.6619C20.3744 10.3338 19.9601 9.87476 19.6651 9.2848C19.3701 8.69484 19.2227 8.00544 19.2227 7.21662C19.2227 6.42448 19.3701 5.73177 19.6651 5.13849C19.9601 4.54522 20.3744 4.08452 20.908 3.75639C21.4416 3.42827 22.0664 3.2642 22.7823 3.2642C23.4982 3.2642 24.123 3.42827 24.6566 3.75639C25.1902 4.08452 25.6045 4.54522 25.8995 5.13849C26.1945 5.73177 26.342 6.42448 26.342 7.21662C26.342 8.00544 26.1945 8.69484 25.8995 9.2848C25.6045 9.87476 25.1902 10.3338 24.6566 10.6619C24.123 10.9901 23.4982 11.1541 22.7823 11.1541ZM22.7873 9.90625C23.2513 9.90625 23.6358 9.78362 23.9407 9.53835C24.2456 9.29309 24.471 8.96662 24.6168 8.55895C24.766 8.15128 24.8406 7.70218 24.8406 7.21165C24.8406 6.72443 24.766 6.27699 24.6168 5.86932C24.471 5.45833 24.2456 5.12855 23.9407 4.87997C23.6358 4.63139 23.2513 4.5071 22.7873 4.5071C22.32 4.5071 21.9322 4.63139 21.6239 4.87997C21.319 5.12855 21.092 5.45833 20.9428 5.86932C20.797 6.27699 20.7241 6.72443 20.7241 7.21165C20.7241 7.70218 20.797 8.15128 20.9428 8.55895C21.092 8.96662 21.319 9.29309 21.6239 9.53835C21.9322 9.78362 22.32 9.90625 22.7873 9.90625ZM32.8386 7.8331V3.36364H34.3301V11H32.8684V9.67756H32.7889C32.6132 10.0852 32.3315 10.425 31.9437 10.6967C31.5592 10.9652 31.0803 11.0994 30.5069 11.0994C30.0164 11.0994 29.5822 10.9917 29.2044 10.7763C28.8298 10.5575 28.5349 10.2344 28.3194 9.80682C28.1073 9.37926 28.0012 8.85062 28.0012 8.22088V3.36364H29.4877V8.0419C29.4877 8.56226 29.6319 8.97656 29.9203 9.2848C30.2086 9.59304 30.5832 9.74716 31.0439 9.74716C31.3223 9.74716 31.599 9.67756 31.8741 9.53835C32.1525 9.39915 32.3829 9.18868 32.5652 8.90696C32.7508 8.62524 32.8419 8.26728 32.8386 7.8331ZM39.892 3.36364V4.55682H35.7209V3.36364H39.892ZM36.8395 1.53409H38.326V8.75781C38.326 9.04616 38.3691 9.26326 38.4553 9.40909C38.5414 9.55161 38.6525 9.64938 38.7884 9.70241C38.9276 9.75213 39.0784 9.77699 39.2408 9.77699C39.3601 9.77699 39.4645 9.7687 39.554 9.75213C39.6435 9.73556 39.7131 9.7223 39.7628 9.71236L40.0312 10.9403C39.9451 10.9735 39.8224 11.0066 39.6634 11.0398C39.5043 11.0762 39.3054 11.0961 39.0668 11.0994C38.6757 11.1061 38.3111 11.0365 37.973 10.8906C37.6349 10.7448 37.3615 10.5194 37.1527 10.2145C36.9439 9.90956 36.8395 9.52675 36.8395 9.06605V1.53409ZM51.9084 0.818182H53.4496V7.51491C53.4496 8.22751 53.2822 8.8589 52.9474 9.40909C52.6127 9.95597 52.142 10.3868 51.5355 10.7017C50.929 11.0133 50.218 11.169 49.4027 11.169C48.5907 11.169 47.8814 11.0133 47.2749 10.7017C46.6683 10.3868 46.1977 9.95597 45.8629 9.40909C45.5282 8.8589 45.3608 8.22751 45.3608 7.51491V0.818182H46.897V7.39062C46.897 7.85133 46.9981 8.26065 47.2003 8.61861C47.4058 8.97656 47.6958 9.25829 48.0703 9.46378C48.4448 9.66596 48.889 9.76705 49.4027 9.76705C49.9197 9.76705 50.3655 9.66596 50.7401 9.46378C51.1179 9.25829 51.4063 8.97656 51.6051 8.61861C51.8073 8.26065 51.9084 7.85133 51.9084 7.39062V0.818182ZM61.286 5.22798L59.9387 5.46662C59.8824 5.29427 59.7929 5.13021 59.6703 4.97443C59.551 4.81865 59.3886 4.69105 59.1831 4.59162C58.9776 4.49219 58.7207 4.44247 58.4125 4.44247C57.9915 4.44247 57.6402 4.53693 57.3585 4.72585C57.0768 4.91146 56.9359 5.15175 56.9359 5.44673C56.9359 5.70194 57.0304 5.90743 57.2193 6.06321C57.4082 6.21899 57.7131 6.34659 58.1341 6.44602L59.3471 6.72443C60.0498 6.88684 60.5734 7.13707 60.9181 7.47514C61.2628 7.81321 61.4352 8.25237 61.4352 8.79261C61.4352 9.25 61.3026 9.65767 61.0375 10.0156C60.7756 10.3703 60.4094 10.6487 59.9387 10.8509C59.4714 11.053 58.9295 11.1541 58.313 11.1541C57.4579 11.1541 56.7602 10.9718 56.22 10.6072C55.6797 10.2393 55.3483 9.71733 55.2257 9.04119L56.6625 8.82244C56.752 9.19697 56.9359 9.48035 57.2143 9.67259C57.4927 9.86151 57.8556 9.95597 58.3031 9.95597C58.7903 9.95597 59.1797 9.85488 59.4714 9.6527C59.7631 9.44721 59.9089 9.19697 59.9089 8.90199C59.9089 8.66335 59.8194 8.46283 59.6404 8.30043C59.4648 8.13802 59.1947 8.01539 58.8301 7.93253L57.5375 7.64915C56.8249 7.48674 56.2979 7.22822 55.9565 6.87358C55.6184 6.51894 55.4494 6.06984 55.4494 5.52628C55.4494 5.07552 55.5753 4.68111 55.8272 4.34304C56.0791 4.00497 56.4271 3.74148 56.8713 3.55256C57.3154 3.36032 57.8242 3.2642 58.3975 3.2642C59.2228 3.2642 59.8725 3.44318 60.3464 3.80114C60.8204 4.15578 61.1336 4.63139 61.286 5.22798Z" fill="#324465"/>
</svg>
