<svg width="119" height="35" viewBox="0 0 119 35" fill="none" xmlns="http://www.w3.org/2000/svg">
<rect width="119" height="35" rx="13" fill="#0095FF"/>
<path d="M32.2719 16.5323C32.1827 16.2522 32.0626 16.0014 31.9118 15.7798C31.7641 15.5552 31.5871 15.3643 31.3809 15.2074C31.1747 15.0473 30.9393 14.9258 30.6746 14.8427C30.413 14.7596 30.1253 14.718 29.8113 14.718C29.2789 14.718 28.7988 14.855 28.371 15.1289C27.9432 15.4028 27.6047 15.8045 27.3554 16.3338C27.1092 16.8601 26.9861 17.5049 26.9861 18.2681C26.9861 19.0344 27.1107 19.6823 27.36 20.2116C27.6093 20.741 27.9509 21.1426 28.3848 21.4165C28.8188 21.6905 29.3128 21.8274 29.8667 21.8274C30.3807 21.8274 30.8285 21.7228 31.2101 21.5135C31.5948 21.3042 31.8918 21.0088 32.1011 20.6271C32.3135 20.2424 32.4197 19.79 32.4197 19.2699L32.789 19.3391H30.0837V18.1619H33.8V19.2376C33.8 20.0316 33.6307 20.721 33.2922 21.3058C32.9567 21.8874 32.492 22.3368 31.898 22.6538C31.3071 22.9708 30.63 23.1293 29.8667 23.1293C29.0112 23.1293 28.2602 22.9323 27.6139 22.5384C26.9707 22.1444 26.469 21.5858 26.1089 20.8626C25.7488 20.1362 25.5688 19.2745 25.5688 18.2773C25.5688 17.5233 25.6734 16.8462 25.8827 16.2461C26.092 15.646 26.3859 15.1366 26.7645 14.718C27.1461 14.2964 27.5939 13.9748 28.1079 13.7532C28.6249 13.5285 29.1897 13.4162 29.8021 13.4162C30.313 13.4162 30.7885 13.4916 31.2286 13.6424C31.6718 13.7932 32.0657 14.0071 32.4104 14.2841C32.7582 14.5611 33.046 14.8904 33.2737 15.272C33.5014 15.6506 33.6553 16.0707 33.7353 16.5323H32.2719ZM38.5561 23.1431C37.8575 23.1431 37.2558 22.9938 36.7511 22.6953C36.2494 22.3937 35.8616 21.9705 35.5877 21.4258C35.3169 20.878 35.1815 20.2363 35.1815 19.5007C35.1815 18.7744 35.3169 18.1342 35.5877 17.5803C35.8616 17.0263 36.2432 16.5939 36.7326 16.283C37.225 15.9722 37.8005 15.8168 38.4592 15.8168C38.8593 15.8168 39.247 15.8829 39.6225 16.0153C39.998 16.1476 40.335 16.3554 40.6335 16.6385C40.932 16.9216 41.1675 17.2894 41.3398 17.7418C41.5122 18.1912 41.5984 18.7375 41.5984 19.3807V19.87H35.9616V18.8359H40.2457C40.2457 18.4728 40.1719 18.1512 40.0241 17.8711C39.8764 17.5879 39.6687 17.3648 39.4009 17.2017C39.1362 17.0386 38.8254 16.957 38.4684 16.957C38.0806 16.957 37.7421 17.0524 37.4528 17.2433C37.1665 17.431 36.945 17.6772 36.788 17.9819C36.6341 18.2835 36.5572 18.6113 36.5572 18.9652V19.7731C36.5572 20.247 36.6403 20.6502 36.8065 20.9826C36.9757 21.315 37.2112 21.5689 37.5128 21.7443C37.8144 21.9167 38.1668 22.0028 38.57 22.0028C38.8316 22.0028 39.0701 21.9659 39.2855 21.892C39.5009 21.8151 39.6871 21.7012 39.8441 21.5504C40.0011 21.3996 40.1211 21.2134 40.2042 20.9918L41.5106 21.2273C41.406 21.612 41.2183 21.949 40.9474 22.2383C40.6797 22.5245 40.3427 22.7476 39.9364 22.9077C39.5333 23.0646 39.0731 23.1431 38.5561 23.1431ZM46.4399 15.9091V17.017H42.5667V15.9091H46.4399ZM43.6054 14.2102H44.9857V20.918C44.9857 21.1857 45.0257 21.3873 45.1057 21.5227C45.1857 21.6551 45.2888 21.7459 45.415 21.7951C45.5443 21.8413 45.6843 21.8643 45.8351 21.8643C45.9459 21.8643 46.0429 21.8567 46.126 21.8413C46.2091 21.8259 46.2737 21.8136 46.3199 21.8043L46.5692 22.9446C46.4891 22.9754 46.3753 23.0062 46.2275 23.0369C46.0798 23.0708 45.8951 23.0893 45.6736 23.0923C45.3104 23.0985 44.9719 23.0339 44.6579 22.8984C44.344 22.763 44.0901 22.5537 43.8962 22.2706C43.7023 21.9875 43.6054 21.632 43.6054 21.2042V14.2102ZM56.6746 16.0291C56.6254 15.5921 56.4223 15.2536 56.0652 15.0135C55.7082 14.7704 55.2589 14.6488 54.7172 14.6488C54.3295 14.6488 53.994 14.7103 53.7108 14.8335C53.4277 14.9535 53.2076 15.1197 53.0507 15.332C52.8968 15.5413 52.8199 15.7798 52.8199 16.0476C52.8199 16.2723 52.8722 16.4661 52.9768 16.6293C53.0845 16.7924 53.2246 16.9293 53.3969 17.0401C53.5723 17.1478 53.7601 17.2386 53.9601 17.3125C54.1602 17.3833 54.3525 17.4418 54.5372 17.4879L55.4605 17.728C55.7621 17.8018 56.0714 17.9019 56.3884 18.0281C56.7054 18.1542 56.9993 18.3204 57.2701 18.5266C57.541 18.7328 57.7595 18.9883 57.9257 19.293C58.095 19.5977 58.1796 19.9624 58.1796 20.3871C58.1796 20.9226 58.0411 21.3981 57.7641 21.8136C57.4902 22.229 57.0916 22.5568 56.5684 22.7969C56.0483 23.0369 55.4189 23.157 54.6803 23.157C53.9724 23.157 53.36 23.0446 52.8429 22.82C52.3259 22.5953 51.9212 22.2768 51.6288 21.8643C51.3364 21.4489 51.1749 20.9564 51.1441 20.3871H52.5752C52.6029 20.7287 52.7137 21.0134 52.9076 21.2411C53.1045 21.4658 53.3554 21.6335 53.6601 21.7443C53.9678 21.852 54.3048 21.9059 54.6711 21.9059C55.0742 21.9059 55.4328 21.8428 55.7467 21.7166C56.0637 21.5874 56.313 21.4089 56.4946 21.1811C56.6762 20.9503 56.767 20.681 56.767 20.3732C56.767 20.0932 56.6869 19.8639 56.5269 19.6854C56.3699 19.5069 56.156 19.3591 55.8852 19.2422C55.6174 19.1252 55.3143 19.0221 54.9758 18.9329L53.8586 18.6282C53.1015 18.422 52.5013 18.1188 52.0581 17.7188C51.618 17.3187 51.398 16.7893 51.398 16.1307C51.398 15.5859 51.5457 15.1104 51.8412 14.7042C52.1366 14.2979 52.5367 13.9825 53.0415 13.7578C53.5462 13.5301 54.1156 13.4162 54.7496 13.4162C55.3897 13.4162 55.9545 13.5285 56.4438 13.7532C56.9362 13.9779 57.324 14.2872 57.6072 14.6811C57.8903 15.072 58.038 15.5213 58.0503 16.0291H56.6746ZM63.0834 15.9091V17.017H59.2102V15.9091H63.0834ZM60.2489 14.2102H61.6293V20.918C61.6293 21.1857 61.6693 21.3873 61.7493 21.5227C61.8293 21.6551 61.9324 21.7459 62.0586 21.7951C62.1878 21.8413 62.3279 21.8643 62.4787 21.8643C62.5895 21.8643 62.6864 21.8567 62.7695 21.8413C62.8526 21.8259 62.9173 21.8136 62.9634 21.8043L63.2127 22.9446C63.1327 22.9754 63.0188 23.0062 62.8711 23.0369C62.7234 23.0708 62.5387 23.0893 62.3171 23.0923C61.9539 23.0985 61.6154 23.0339 61.3015 22.8984C60.9876 22.763 60.7337 22.5537 60.5398 22.2706C60.3459 21.9875 60.2489 21.632 60.2489 21.2042V14.2102ZM66.6739 23.157C66.2246 23.157 65.8183 23.0739 65.4552 22.9077C65.092 22.7384 64.8042 22.4937 64.5919 22.1737C64.3826 21.8536 64.278 21.4612 64.278 20.9964C64.278 20.5964 64.3549 20.267 64.5088 20.0085C64.6627 19.75 64.8704 19.5453 65.132 19.3945C65.3936 19.2437 65.686 19.1299 66.0091 19.0529C66.3323 18.976 66.6616 18.9175 66.9971 18.8775C67.4218 18.8282 67.7665 18.7882 68.0312 18.7575C68.2958 18.7236 68.4882 18.6697 68.6082 18.5959C68.7282 18.522 68.7883 18.402 68.7883 18.2358V18.2035C68.7883 17.8003 68.6744 17.4879 68.4466 17.2663C68.222 17.0447 67.8865 16.9339 67.4402 16.9339C66.9755 16.9339 66.6093 17.037 66.3415 17.2433C66.0768 17.4464 65.8937 17.6726 65.7922 17.9219L64.4949 17.6264C64.6488 17.1955 64.8735 16.8478 65.1689 16.5831C65.4675 16.3153 65.8106 16.1214 66.1984 16.0014C66.5862 15.8783 66.994 15.8168 67.4218 15.8168C67.7049 15.8168 68.005 15.8506 68.322 15.9183C68.6421 15.983 68.9406 16.103 69.2176 16.2784C69.4977 16.4538 69.7269 16.7047 69.9054 17.0309C70.0839 17.354 70.1732 17.7741 70.1732 18.2912V23H68.8252V22.0305H68.7698C68.6805 22.209 68.5467 22.3845 68.3682 22.5568C68.1897 22.7292 67.9604 22.8723 67.6803 22.9862C67.4002 23.1 67.0648 23.157 66.6739 23.157ZM66.974 22.049C67.3556 22.049 67.6818 21.9736 67.9527 21.8228C68.2266 21.672 68.4343 21.475 68.5759 21.2319C68.7205 20.9857 68.7929 20.7225 68.7929 20.4425V19.5284C68.7436 19.5777 68.6482 19.6238 68.5067 19.6669C68.3682 19.7069 68.2097 19.7423 68.0312 19.7731C67.8527 19.8008 67.6788 19.8269 67.5095 19.8516C67.3402 19.8731 67.1987 19.8916 67.0848 19.907C66.817 19.9408 66.5723 19.9978 66.3508 20.0778C66.1322 20.1578 65.9568 20.2732 65.8245 20.424C65.6952 20.5717 65.6306 20.7687 65.6306 21.0149C65.6306 21.3565 65.7568 21.6151 66.0091 21.7905C66.2615 21.9628 66.5831 22.049 66.974 22.049ZM72.0117 23V15.9091H73.3459V17.0355H73.4197C73.549 16.6539 73.7767 16.3538 74.103 16.1353C74.4323 15.9137 74.8047 15.8029 75.2202 15.8029C75.3063 15.8029 75.4079 15.806 75.5249 15.8121C75.6449 15.8183 75.7387 15.826 75.8065 15.8352V17.1555C75.7511 17.1402 75.6526 17.1232 75.511 17.1048C75.3694 17.0832 75.2279 17.0724 75.0863 17.0724C74.7601 17.0724 74.4692 17.1417 74.2138 17.2802C73.9614 17.4156 73.7614 17.6049 73.6136 17.848C73.4659 18.0881 73.392 18.362 73.392 18.6697V23H72.0117ZM80.7299 15.9091V17.017H76.8567V15.9091H80.7299ZM77.8954 14.2102H79.2757V20.918C79.2757 21.1857 79.3157 21.3873 79.3958 21.5227C79.4758 21.6551 79.5789 21.7459 79.7051 21.7951C79.8343 21.8413 79.9744 21.8643 80.1252 21.8643C80.236 21.8643 80.3329 21.8567 80.416 21.8413C80.4991 21.8259 80.5637 21.8136 80.6099 21.8043L80.8592 22.9446C80.7792 22.9754 80.6653 23.0062 80.5176 23.0369C80.3698 23.0708 80.1852 23.0893 79.9636 23.0923C79.6004 23.0985 79.2619 23.0339 78.948 22.8984C78.634 22.763 78.3801 22.5537 78.1863 22.2706C77.9924 21.9875 77.8954 21.632 77.8954 21.2042V14.2102ZM85.2368 23.1431C84.5381 23.1431 83.9365 22.9938 83.4317 22.6953C82.9301 22.3937 82.5423 21.9705 82.2684 21.4258C81.9975 20.878 81.8621 20.2363 81.8621 19.5007C81.8621 18.7744 81.9975 18.1342 82.2684 17.5803C82.5423 17.0263 82.9239 16.5939 83.4133 16.283C83.9057 15.9722 84.4812 15.8168 85.1398 15.8168C85.5399 15.8168 85.9277 15.8829 86.3032 16.0153C86.6786 16.1476 87.0156 16.3554 87.3142 16.6385C87.6127 16.9216 87.8482 17.2894 88.0205 17.7418C88.1929 18.1912 88.279 18.7375 88.279 19.3807V19.87H82.6423V18.8359H86.9264C86.9264 18.4728 86.8525 18.1512 86.7048 17.8711C86.5571 17.5879 86.3493 17.3648 86.0816 17.2017C85.8169 17.0386 85.5061 16.957 85.1491 16.957C84.7613 16.957 84.4227 17.0524 84.1334 17.2433C83.8472 17.431 83.6256 17.6772 83.4687 17.9819C83.3148 18.2835 83.2378 18.6113 83.2378 18.9652V19.7731C83.2378 20.247 83.3209 20.6502 83.4871 20.9826C83.6564 21.315 83.8918 21.5689 84.1934 21.7443C84.4951 21.9167 84.8474 22.0028 85.2506 22.0028C85.5122 22.0028 85.7507 21.9659 85.9662 21.892C86.1816 21.8151 86.3678 21.7012 86.5248 21.5504C86.6817 21.3996 86.8018 21.2134 86.8848 20.9918L88.1913 21.2273C88.0867 21.612 87.8989 21.949 87.6281 22.2383C87.3603 22.5245 87.0233 22.7476 86.6171 22.9077C86.2139 23.0646 85.7538 23.1431 85.2368 23.1431ZM92.465 23.1385C91.8926 23.1385 91.3817 22.9923 90.9323 22.6999C90.4861 22.4045 90.1352 21.9844 89.8798 21.4396C89.6274 20.8918 89.5012 20.2347 89.5012 19.4684C89.5012 18.7021 89.629 18.0465 89.8844 17.5018C90.1429 16.957 90.4969 16.54 90.9462 16.2507C91.3955 15.9614 91.9049 15.8168 92.4742 15.8168C92.9144 15.8168 93.2683 15.8906 93.536 16.0384C93.8069 16.183 94.0162 16.3523 94.1639 16.5462C94.3147 16.7401 94.4316 16.9109 94.5147 17.0586H94.5978V13.5455H95.9782V23H94.6301V21.8967H94.5147C94.4316 22.0475 94.3116 22.2198 94.1546 22.4137C94.0008 22.6076 93.7884 22.7769 93.5176 22.9215C93.2467 23.0662 92.8959 23.1385 92.465 23.1385ZM92.7697 21.9613C93.1667 21.9613 93.5022 21.8567 93.7761 21.6474C94.0531 21.435 94.2624 21.1411 94.4039 20.7656C94.5486 20.3902 94.6209 19.9531 94.6209 19.4545C94.6209 18.9621 94.5501 18.5312 94.4086 18.1619C94.267 17.7926 94.0592 17.5049 93.7853 17.2987C93.5114 17.0924 93.1729 16.9893 92.7697 16.9893C92.3542 16.9893 92.008 17.0971 91.731 17.3125C91.454 17.5279 91.2447 17.8219 91.1032 18.1942C90.9647 18.5666 90.8954 18.9867 90.8954 19.4545C90.8954 19.9285 90.9662 20.3548 91.1078 20.7333C91.2493 21.1119 91.4586 21.4119 91.7356 21.6335C92.0157 21.852 92.3604 21.9613 92.7697 21.9613Z" fill="black"/>
</svg>
