<svg width="146" height="40" viewBox="0 0 146 40" fill="none" xmlns="http://www.w3.org/2000/svg">
<rect width="146" height="40" rx="13" fill="#A6B0B8"/>
<path d="M37.1985 25V14.0909H38.8445V23.5831H43.7876V25H37.1985ZM49.0637 25.1651C48.2576 25.1651 47.5634 24.9929 46.981 24.6484C46.4022 24.3004 45.9547 23.8121 45.6387 23.1836C45.3262 22.5515 45.1699 21.8111 45.1699 20.9624C45.1699 20.1243 45.3262 19.3857 45.6387 18.7464C45.9547 18.1072 46.3951 17.6083 46.9597 17.2496C47.5279 16.891 48.1919 16.7116 48.9519 16.7116C49.4135 16.7116 49.861 16.788 50.2942 16.9407C50.7275 17.0934 51.1163 17.3331 51.4608 17.6598C51.8052 17.9865 52.0769 18.4109 52.2757 18.9329C52.4746 19.4513 52.574 20.0817 52.574 20.8239V21.3885H46.0701V20.1953H51.0133C51.0133 19.7763 50.9281 19.4052 50.7576 19.082C50.5872 18.7553 50.3475 18.4979 50.0385 18.3097C49.7331 18.1214 49.3745 18.0273 48.9625 18.0273C48.5151 18.0273 48.1245 18.1374 47.7907 18.3576C47.4604 18.5742 47.2047 18.8583 47.0236 19.2099C46.8461 19.5579 46.7573 19.9361 46.7573 20.3445V21.2766C46.7573 21.8235 46.8532 22.2887 47.0449 22.6722C47.2402 23.0558 47.5119 23.3487 47.8599 23.5511C48.2079 23.75 48.6145 23.8494 49.0797 23.8494C49.3816 23.8494 49.6568 23.8068 49.9054 23.7216C50.1539 23.6328 50.3688 23.5014 50.5499 23.3274C50.731 23.1534 50.8695 22.9386 50.9654 22.6829L52.4728 22.9545C52.3521 23.3984 52.1355 23.7873 51.823 24.1211C51.514 24.4513 51.1252 24.7088 50.6564 24.8935C50.1912 25.0746 49.6603 25.1651 49.0637 25.1651ZM56.7222 25.1811C56.2037 25.1811 55.735 25.0852 55.316 24.8935C54.8969 24.6982 54.5649 24.4158 54.3199 24.0465C54.0784 23.6772 53.9577 23.2244 53.9577 22.6882C53.9577 22.2266 54.0464 21.8466 54.224 21.5483C54.4015 21.25 54.6412 21.0138 54.9431 20.8398C55.2449 20.6658 55.5823 20.5344 55.9552 20.4457C56.328 20.3569 56.708 20.2894 57.0951 20.2433C57.5851 20.1864 57.9829 20.1403 58.2883 20.1048C58.5937 20.0657 58.8156 20.0036 58.9541 19.9183C59.0926 19.8331 59.1618 19.6946 59.1618 19.5028V19.4656C59.1618 19.0004 59.0305 18.6399 58.7677 18.3842C58.5084 18.1286 58.1214 18.0007 57.6064 18.0007C57.0702 18.0007 56.6476 18.1197 56.3387 18.3576C56.0333 18.592 55.822 18.853 55.7048 19.1406L54.208 18.7997C54.3856 18.3026 54.6448 17.9013 54.9857 17.5959C55.3302 17.2869 55.7261 17.0632 56.1736 16.9247C56.621 16.7827 57.0915 16.7116 57.5851 16.7116C57.9118 16.7116 58.2581 16.7507 58.6238 16.8288C58.9932 16.9034 59.3376 17.0419 59.6572 17.2443C59.9804 17.4467 60.2449 17.7362 60.4509 18.1126C60.6569 18.4854 60.7599 18.9702 60.7599 19.5668V25H59.2045V23.8814H59.1405C59.0376 24.0874 58.8831 24.2898 58.6771 24.4886C58.4711 24.6875 58.2066 24.8526 57.8834 24.984C57.5603 25.1154 57.1732 25.1811 56.7222 25.1811ZM57.0684 23.9027C57.5088 23.9027 57.8852 23.8157 58.1977 23.6417C58.5138 23.4677 58.7535 23.2404 58.9168 22.9599C59.0837 22.6758 59.1672 22.3722 59.1672 22.049V20.9943C59.1104 21.0511 59.0003 21.1044 58.8369 21.1541C58.6771 21.2003 58.4942 21.2411 58.2883 21.2766C58.0823 21.3086 57.8817 21.3388 57.6863 21.3672C57.491 21.392 57.3277 21.4134 57.1963 21.4311C56.8873 21.4702 56.605 21.5359 56.3493 21.6282C56.0972 21.7205 55.8948 21.8537 55.7421 22.0277C55.593 22.1982 55.5184 22.4254 55.5184 22.7095C55.5184 23.1037 55.664 23.402 55.9552 23.6044C56.2464 23.8033 56.6175 23.9027 57.0684 23.9027ZM62.8812 25V16.8182H64.4206V18.1179H64.5059C64.655 17.6776 64.9178 17.3313 65.2942 17.0792C65.6742 16.8235 66.1039 16.6957 66.5833 16.6957C66.6827 16.6957 66.7999 16.6992 66.9348 16.7063C67.0733 16.7134 67.1816 16.7223 67.2598 16.733V18.2564C67.1958 18.2386 67.0822 18.2191 66.9189 18.1978C66.7555 18.1729 66.5922 18.1605 66.4288 18.1605C66.0524 18.1605 65.7168 18.2404 65.4221 18.4002C65.1309 18.5565 64.9 18.7749 64.7296 19.0554C64.5591 19.3324 64.4739 19.6484 64.4739 20.0036V25H62.8812ZM70.2307 20.142V25H68.6381V16.8182H70.1668V18.1499H70.268C70.4562 17.7166 70.751 17.3686 71.1523 17.1058C71.5571 16.843 72.0667 16.7116 72.681 16.7116C73.2385 16.7116 73.7268 16.8288 74.1459 17.0632C74.5649 17.294 74.8898 17.6385 75.1206 18.0966C75.3515 18.5547 75.4669 19.1211 75.4669 19.7958V25H73.8742V19.9876C73.8742 19.3945 73.7197 18.9311 73.4108 18.5973C73.1018 18.2599 72.6775 18.0913 72.1377 18.0913C71.7684 18.0913 71.4399 18.1712 71.1523 18.331C70.8682 18.4908 70.6427 18.7251 70.4758 19.0341C70.3124 19.3395 70.2307 19.7088 70.2307 20.142ZM81.7005 14.0909H83.698L87.171 22.571H87.2988L90.7718 14.0909H92.7694V25H91.2033V17.1058H91.1021L87.8848 24.984H86.585L83.3677 17.1005H83.2665V25H81.7005V14.0909ZM98.4809 25.1651C97.7139 25.1651 97.0445 24.9893 96.4727 24.6378C95.901 24.2862 95.4571 23.7944 95.1411 23.1623C94.825 22.5302 94.667 21.7915 94.667 20.9464C94.667 20.0977 94.825 19.3555 95.1411 18.7198C95.4571 18.0842 95.901 17.5906 96.4727 17.239C97.0445 16.8874 97.7139 16.7116 98.4809 16.7116C99.248 16.7116 99.9173 16.8874 100.489 17.239C101.061 17.5906 101.505 18.0842 101.821 18.7198C102.137 19.3555 102.295 20.0977 102.295 20.9464C102.295 21.7915 102.137 22.5302 101.821 23.1623C101.505 23.7944 101.061 24.2862 100.489 24.6378C99.9173 24.9893 99.248 25.1651 98.4809 25.1651ZM98.4862 23.8281C98.9834 23.8281 99.3953 23.6967 99.722 23.4339C100.049 23.1712 100.29 22.8214 100.446 22.3846C100.606 21.9478 100.686 21.4666 100.686 20.9411C100.686 20.419 100.606 19.9396 100.446 19.5028C100.29 19.0625 100.049 18.7092 99.722 18.4428C99.3953 18.1765 98.9834 18.0433 98.4862 18.0433C97.9855 18.0433 97.57 18.1765 97.2398 18.4428C96.9131 18.7092 96.6698 19.0625 96.51 19.5028C96.3538 19.9396 96.2757 20.419 96.2757 20.9411C96.2757 21.4666 96.3538 21.9478 96.51 22.3846C96.6698 22.8214 96.9131 23.1712 97.2398 23.4339C97.57 23.6967 97.9855 23.8281 98.4862 23.8281ZM104.073 25V16.8182H105.612V18.1179H105.697C105.846 17.6776 106.109 17.3313 106.486 17.0792C106.866 16.8235 107.295 16.6957 107.775 16.6957C107.874 16.6957 107.991 16.6992 108.126 16.7063C108.265 16.7134 108.373 16.7223 108.451 16.733V18.2564C108.387 18.2386 108.274 18.2191 108.11 18.1978C107.947 18.1729 107.784 18.1605 107.62 18.1605C107.244 18.1605 106.908 18.2404 106.613 18.4002C106.322 18.5565 106.091 18.7749 105.921 19.0554C105.751 19.3324 105.665 19.6484 105.665 20.0036V25H104.073ZM113.063 25.1651C112.257 25.1651 111.562 24.9929 110.98 24.6484C110.401 24.3004 109.954 23.8121 109.638 23.1836C109.325 22.5515 109.169 21.8111 109.169 20.9624C109.169 20.1243 109.325 19.3857 109.638 18.7464C109.954 18.1072 110.394 17.6083 110.959 17.2496C111.527 16.891 112.191 16.7116 112.951 16.7116C113.413 16.7116 113.86 16.788 114.293 16.9407C114.726 17.0934 115.115 17.3331 115.46 17.6598C115.804 17.9865 116.076 18.4109 116.275 18.9329C116.474 19.4513 116.573 20.0817 116.573 20.8239V21.3885H110.069V20.1953H115.012C115.012 19.7763 114.927 19.4052 114.757 19.082C114.586 18.7553 114.347 18.4979 114.038 18.3097C113.732 18.1214 113.373 18.0273 112.962 18.0273C112.514 18.0273 112.123 18.1374 111.79 18.3576C111.459 18.5742 111.204 18.8583 111.023 19.2099C110.845 19.5579 110.756 19.9361 110.756 20.3445V21.2766C110.756 21.8235 110.852 22.2887 111.044 22.6722C111.239 23.0558 111.511 23.3487 111.859 23.5511C112.207 23.75 112.614 23.8494 113.079 23.8494C113.381 23.8494 113.656 23.8068 113.904 23.7216C114.153 23.6328 114.368 23.5014 114.549 23.3274C114.73 23.1534 114.869 22.9386 114.964 22.6829L116.472 22.9545C116.351 23.3984 116.134 23.7873 115.822 24.1211C115.513 24.4513 115.124 24.7088 114.655 24.8935C114.19 25.0746 113.659 25.1651 113.063 25.1651Z" fill="black"/>
</svg>
