<svg width="554" height="72" viewBox="0 0 554 72" fill="none" xmlns="http://www.w3.org/2000/svg">
<path d="M4.39702 29V7.18182H12.174C13.8643 7.18182 15.267 7.47301 16.3821 8.0554C17.5043 8.63778 18.3423 9.44389 18.8963 10.4737C19.4503 11.4964 19.7273 12.679 19.7273 14.0213C19.7273 15.3565 19.4467 16.532 18.8857 17.5476C18.3317 18.5561 17.4936 19.3409 16.3714 19.902C15.2564 20.4631 13.8537 20.7436 12.1634 20.7436H6.27202V17.9098H11.8651C12.9304 17.9098 13.7969 17.7571 14.4645 17.4517C15.1392 17.1463 15.6328 16.7024 15.9453 16.12C16.2578 15.5376 16.4141 14.8381 16.4141 14.0213C16.4141 13.1974 16.2543 12.4837 15.9347 11.88C15.6222 11.2763 15.1286 10.8146 14.4538 10.495C13.7862 10.1683 12.9091 10.005 11.8224 10.005H7.68892V29H4.39702ZM15.1676 19.1562L20.5582 29H16.8082L11.5241 19.1562H15.1676ZM30.3248 29.3303C28.7125 29.3303 27.324 28.9858 26.1593 28.2969C25.0016 27.6009 24.1067 26.6243 23.4746 25.3672C22.8496 24.103 22.5371 22.6222 22.5371 20.9247C22.5371 19.2486 22.8496 17.7713 23.4746 16.4929C24.1067 15.2145 24.9874 14.2166 26.1167 13.4993C27.253 12.782 28.5811 12.4233 30.101 12.4233C31.0243 12.4233 31.9192 12.576 32.7857 12.8814C33.6522 13.1868 34.4299 13.6662 35.1188 14.3196C35.8077 14.973 36.351 15.8217 36.7488 16.8658C37.1465 17.9027 37.3453 19.1634 37.3453 20.6477V21.777H24.3375V19.3906H34.2239C34.2239 18.5526 34.0534 17.8104 33.7125 17.1641C33.3716 16.5107 32.8922 15.9957 32.2743 15.6193C31.6635 15.2429 30.9462 15.0547 30.1223 15.0547C29.2275 15.0547 28.4462 15.2749 27.7786 15.7152C27.1181 16.1484 26.6067 16.7166 26.2445 17.4197C25.8894 18.1158 25.7118 18.8722 25.7118 19.6889V21.5533C25.7118 22.647 25.9036 23.5774 26.2871 24.3445C26.6777 25.1115 27.2211 25.6974 27.9171 26.1023C28.6131 26.5 29.4263 26.6989 30.3567 26.6989C30.9604 26.6989 31.5108 26.6136 32.008 26.4432C32.5051 26.2656 32.9348 26.0028 33.2971 25.6548C33.6593 25.3068 33.9363 24.8771 34.128 24.3658L37.1429 24.9091C36.9015 25.7969 36.4682 26.5746 35.8432 27.2422C35.2253 27.9027 34.4476 28.4176 33.5101 28.7869C32.5797 29.1491 31.5179 29.3303 30.3248 29.3303ZM45.6417 29.3622C44.6048 29.3622 43.6673 29.1705 42.8292 28.7869C41.9911 28.3963 41.3271 27.8317 40.837 27.093C40.354 26.3544 40.1126 25.4489 40.1126 24.3764C40.1126 23.4531 40.2901 22.6932 40.6452 22.0966C41.0004 21.5 41.4798 21.0277 42.0835 20.6797C42.6871 20.3317 43.3619 20.0689 44.1076 19.8913C44.8533 19.7138 45.6133 19.5788 46.3874 19.4865C47.3675 19.3729 48.163 19.2805 48.7738 19.2095C49.3846 19.1314 49.8285 19.0071 50.1055 18.8366C50.3825 18.6662 50.521 18.3892 50.521 18.0057V17.9311C50.521 17.0007 50.2582 16.2798 49.7326 15.7685C49.2141 15.2571 48.44 15.0014 47.4102 15.0014C46.3377 15.0014 45.4925 15.2393 44.8746 15.7152C44.2638 16.1839 43.8413 16.706 43.6069 17.2812L40.6133 16.5994C40.9684 15.6051 41.4869 14.8026 42.1687 14.1918C42.8576 13.5739 43.6495 13.1264 44.5444 12.8494C45.4393 12.5653 46.3803 12.4233 47.3675 12.4233C48.021 12.4233 48.7134 12.5014 49.445 12.6577C50.1836 12.8068 50.8725 13.0838 51.5117 13.4886C52.158 13.8935 52.6871 14.4723 53.0991 15.2251C53.511 15.9709 53.717 16.9403 53.717 18.1335V29H50.6062V26.7628H50.4783C50.2724 27.1747 49.9634 27.5795 49.5515 27.9773C49.1396 28.375 48.6104 28.7053 47.9641 28.968C47.3178 29.2308 46.5437 29.3622 45.6417 29.3622ZM46.3342 26.8054C47.2148 26.8054 47.9677 26.6314 48.5927 26.2834C49.2248 25.9354 49.7042 25.4808 50.0309 24.9197C50.3647 24.3516 50.5316 23.7443 50.5316 23.098V20.9886C50.418 21.1023 50.1978 21.2088 49.8711 21.3082C49.5515 21.4006 49.1857 21.4822 48.7738 21.5533C48.3619 21.6172 47.9606 21.6776 47.57 21.7344C47.1793 21.7841 46.8526 21.8267 46.5898 21.8622C45.9719 21.9403 45.4073 22.0717 44.896 22.2564C44.3917 22.4411 43.9869 22.7074 43.6815 23.0554C43.3832 23.3963 43.234 23.8509 43.234 24.419C43.234 25.2074 43.5252 25.804 44.1076 26.2088C44.69 26.6065 45.4322 26.8054 46.3342 26.8054ZM64.0854 29.3196C62.7644 29.3196 61.5854 28.9822 60.5485 28.3075C59.5186 27.6257 58.709 26.6562 58.1195 25.3991C57.5371 24.1349 57.2459 22.6186 57.2459 20.8501C57.2459 19.0817 57.5407 17.5689 58.1301 16.3118C58.7267 15.0547 59.5435 14.0923 60.5804 13.4247C61.6174 12.7571 62.7928 12.4233 64.1067 12.4233C65.1223 12.4233 65.9391 12.5938 66.557 12.9347C67.182 13.2685 67.665 13.6591 68.0059 14.1065C68.3539 14.554 68.6238 14.9482 68.8155 15.2891H69.0073V7.18182H72.1926V29H69.0819V26.4538H68.8155C68.6238 26.8018 68.3468 27.1996 67.9846 27.647C67.6294 28.0945 67.1394 28.4851 66.5144 28.8189C65.8894 29.1527 65.0797 29.3196 64.0854 29.3196ZM64.7885 26.603C65.7047 26.603 66.4789 26.3615 67.111 25.8786C67.7502 25.3885 68.2331 24.7102 68.5598 23.8438C68.8936 22.9773 69.0605 21.9687 69.0605 20.8182C69.0605 19.6818 68.8972 18.6875 68.5705 17.8352C68.2438 16.983 67.7644 16.3189 67.1323 15.843C66.5002 15.3672 65.7189 15.1293 64.7885 15.1293C63.8297 15.1293 63.0307 15.3778 62.3915 15.875C61.7523 16.3722 61.2694 17.0504 60.9426 17.9098C60.623 18.7692 60.4632 19.7386 60.4632 20.8182C60.4632 21.9119 60.6266 22.8956 60.9533 23.7692C61.28 24.6428 61.763 25.3352 62.4022 25.8466C63.0485 26.3509 63.8439 26.603 64.7885 26.603ZM78.7525 35.1364C78.2766 35.1364 77.8434 35.0973 77.4528 35.0192C77.0621 34.9482 76.771 34.87 76.5792 34.7848L77.3462 32.1747C77.9286 32.331 78.4471 32.3984 78.9016 32.3771C79.3562 32.3558 79.7575 32.1854 80.1055 31.8658C80.4606 31.5462 80.7731 31.0241 81.043 30.2997L81.4371 29.2131L75.4499 12.6364H78.859L83.0032 25.3352H83.1737L87.3178 12.6364H90.7376L83.994 31.1839C83.6815 32.0362 83.2837 32.7571 82.8008 33.3466C82.3178 33.9432 81.7425 34.3906 81.0749 34.6889C80.4073 34.9872 79.6332 35.1364 78.7525 35.1364Z" fill="#0095FF"/>
<path d="M109.309 12.6364V15.1932H100.371V12.6364H109.309ZM102.768 8.71591H105.953V24.1953C105.953 24.8132 106.046 25.2784 106.23 25.5909C106.415 25.8963 106.653 26.1058 106.944 26.2195C107.242 26.326 107.566 26.3793 107.914 26.3793C108.169 26.3793 108.393 26.3615 108.585 26.326C108.776 26.2905 108.926 26.2621 109.032 26.2408L109.607 28.8722C109.423 28.9432 109.16 29.0142 108.819 29.0852C108.478 29.1634 108.052 29.206 107.541 29.2131C106.703 29.2273 105.921 29.0781 105.197 28.7656C104.472 28.4531 103.887 27.9702 103.439 27.3168C102.992 26.6634 102.768 25.843 102.768 24.8558V8.71591ZM119.55 29.3303C118.016 29.3303 116.677 28.9787 115.533 28.2756C114.39 27.5724 113.502 26.5888 112.87 25.3246C112.238 24.0604 111.922 22.5831 111.922 20.8928C111.922 19.1953 112.238 17.7109 112.87 16.4396C113.502 15.1683 114.39 14.1811 115.533 13.478C116.677 12.7749 118.016 12.4233 119.55 12.4233C121.084 12.4233 122.423 12.7749 123.566 13.478C124.71 14.1811 125.597 15.1683 126.229 16.4396C126.862 17.7109 127.178 19.1953 127.178 20.8928C127.178 22.5831 126.862 24.0604 126.229 25.3246C125.597 26.5888 124.71 27.5724 123.566 28.2756C122.423 28.9787 121.084 29.3303 119.55 29.3303ZM119.56 26.6562C120.555 26.6562 121.379 26.3935 122.032 25.8679C122.685 25.3423 123.168 24.6428 123.481 23.7692C123.8 22.8956 123.96 21.9332 123.96 20.8821C123.96 19.8381 123.8 18.8793 123.481 18.0057C123.168 17.125 122.685 16.4183 122.032 15.8857C121.379 15.353 120.555 15.0866 119.56 15.0866C118.559 15.0866 117.728 15.353 117.067 15.8857C116.414 16.4183 115.928 17.125 115.608 18.0057C115.295 18.8793 115.139 19.8381 115.139 20.8821C115.139 21.9332 115.295 22.8956 115.608 23.7692C115.928 24.6428 116.414 25.3423 117.067 25.8679C117.728 26.3935 118.559 26.6562 119.56 26.6562ZM146.311 12.6364V15.1932H137.373V12.6364H146.311ZM139.77 8.71591H142.955V24.1953C142.955 24.8132 143.048 25.2784 143.232 25.5909C143.417 25.8963 143.655 26.1058 143.946 26.2195C144.244 26.326 144.567 26.3793 144.915 26.3793C145.171 26.3793 145.395 26.3615 145.587 26.326C145.778 26.2905 145.928 26.2621 146.034 26.2408L146.609 28.8722C146.425 28.9432 146.162 29.0142 145.821 29.0852C145.48 29.1634 145.054 29.206 144.543 29.2131C143.705 29.2273 142.923 29.0781 142.199 28.7656C141.474 28.4531 140.888 27.9702 140.441 27.3168C139.994 26.6634 139.77 25.843 139.77 24.8558V8.71591ZM149.835 29V12.6364H152.914V15.2358H153.084C153.382 14.3551 153.908 13.6626 154.661 13.1584C155.421 12.647 156.28 12.3913 157.239 12.3913C157.438 12.3913 157.672 12.3984 157.942 12.4126C158.219 12.4268 158.436 12.4446 158.592 12.4659V15.5128C158.464 15.4773 158.237 15.4382 157.91 15.3956C157.583 15.3459 157.257 15.321 156.93 15.321C156.177 15.321 155.506 15.4808 154.916 15.8004C154.334 16.1129 153.872 16.5497 153.531 17.1108C153.191 17.6648 153.02 18.2969 153.02 19.0071V29H149.835ZM165.964 29.3622C164.927 29.3622 163.99 29.1705 163.151 28.7869C162.313 28.3963 161.649 27.8317 161.159 27.093C160.676 26.3544 160.435 25.4489 160.435 24.3764C160.435 23.4531 160.612 22.6932 160.968 22.0966C161.323 21.5 161.802 21.0277 162.406 20.6797C163.009 20.3317 163.684 20.0689 164.43 19.8913C165.176 19.7138 165.936 19.5788 166.71 19.4865C167.69 19.3729 168.485 19.2805 169.096 19.2095C169.707 19.1314 170.151 19.0071 170.428 18.8366C170.705 18.6662 170.843 18.3892 170.843 18.0057V17.9311C170.843 17.0007 170.58 16.2798 170.055 15.7685C169.536 15.2571 168.762 15.0014 167.732 15.0014C166.66 15.0014 165.815 15.2393 165.197 15.7152C164.586 16.1839 164.164 16.706 163.929 17.2812L160.936 16.5994C161.291 15.6051 161.809 14.8026 162.491 14.1918C163.18 13.5739 163.972 13.1264 164.867 12.8494C165.762 12.5653 166.703 12.4233 167.69 12.4233C168.343 12.4233 169.036 12.5014 169.767 12.6577C170.506 12.8068 171.195 13.0838 171.834 13.4886C172.48 13.8935 173.009 14.4723 173.421 15.2251C173.833 15.9709 174.039 16.9403 174.039 18.1335V29H170.928V26.7628H170.801C170.595 27.1747 170.286 27.5795 169.874 27.9773C169.462 28.375 168.933 28.7053 168.286 28.968C167.64 29.2308 166.866 29.3622 165.964 29.3622ZM166.656 26.8054C167.537 26.8054 168.29 26.6314 168.915 26.2834C169.547 25.9354 170.026 25.4808 170.353 24.9197C170.687 24.3516 170.854 23.7443 170.854 23.098V20.9886C170.74 21.1023 170.52 21.2088 170.193 21.3082C169.874 21.4006 169.508 21.4822 169.096 21.5533C168.684 21.6172 168.283 21.6776 167.892 21.7344C167.502 21.7841 167.175 21.8267 166.912 21.8622C166.294 21.9403 165.73 22.0717 165.218 22.2564C164.714 22.4411 164.309 22.7074 164.004 23.0554C163.705 23.3963 163.556 23.8509 163.556 24.419C163.556 25.2074 163.847 25.804 164.43 26.2088C165.012 26.6065 165.754 26.8054 166.656 26.8054ZM181.467 19.2841V29H178.282V12.6364H181.339V15.2997H181.542C181.918 14.4332 182.508 13.7372 183.31 13.2116C184.12 12.6861 185.139 12.4233 186.368 12.4233C187.483 12.4233 188.46 12.6577 189.298 13.1264C190.136 13.5881 190.786 14.277 191.247 15.1932C191.709 16.1094 191.94 17.2422 191.94 18.5916V29H188.754V18.9751C188.754 17.7891 188.445 16.8622 187.827 16.1946C187.21 15.5199 186.361 15.1825 185.281 15.1825C184.543 15.1825 183.886 15.3423 183.31 15.6619C182.742 15.9815 182.291 16.4503 181.957 17.0682C181.631 17.679 181.467 18.4176 181.467 19.2841ZM208.474 16.6314L205.587 17.1428C205.466 16.7734 205.274 16.4219 205.011 16.0881C204.756 15.7543 204.408 15.4808 203.967 15.2678C203.527 15.0547 202.977 14.9482 202.316 14.9482C201.414 14.9482 200.661 15.1506 200.058 15.5554C199.454 15.9531 199.152 16.468 199.152 17.1001C199.152 17.647 199.354 18.0874 199.759 18.4212C200.164 18.755 200.817 19.0284 201.719 19.2415L204.319 19.8381C205.825 20.1861 206.947 20.7223 207.685 21.4467C208.424 22.1712 208.793 23.1122 208.793 24.2699C208.793 25.25 208.509 26.1236 207.941 26.8906C207.38 27.6506 206.595 28.2472 205.587 28.6804C204.585 29.1136 203.424 29.3303 202.103 29.3303C200.271 29.3303 198.776 28.9396 197.618 28.1584C196.46 27.37 195.75 26.2514 195.487 24.8026L198.566 24.3338C198.758 25.1364 199.152 25.7436 199.749 26.1555C200.345 26.5604 201.123 26.7628 202.082 26.7628C203.126 26.7628 203.96 26.5462 204.585 26.1129C205.21 25.6726 205.523 25.1364 205.523 24.5043C205.523 23.9929 205.331 23.5632 204.947 23.2152C204.571 22.8672 203.992 22.6044 203.211 22.4268L200.441 21.8196C198.914 21.4716 197.785 20.9176 197.053 20.1577C196.329 19.3977 195.967 18.4354 195.967 17.2706C195.967 16.3047 196.237 15.4595 196.776 14.7351C197.316 14.0107 198.062 13.446 199.013 13.0412C199.965 12.6293 201.055 12.4233 202.284 12.4233C204.053 12.4233 205.445 12.8068 206.46 13.5739C207.476 14.3338 208.147 15.353 208.474 16.6314ZM220.083 12.6364V15.1932H210.836V12.6364H220.083ZM213.372 29V10.7401C213.372 9.71733 213.595 8.86861 214.043 8.19389C214.49 7.51207 215.083 7.00426 215.822 6.67045C216.561 6.32954 217.363 6.15909 218.23 6.15909C218.869 6.15909 219.416 6.21236 219.87 6.31889C220.325 6.41832 220.662 6.51065 220.882 6.59588L220.137 9.17401C219.987 9.13139 219.796 9.08168 219.561 9.02486C219.327 8.96094 219.043 8.92898 218.709 8.92898C217.935 8.92898 217.381 9.12074 217.047 9.50426C216.72 9.88778 216.557 10.4418 216.557 11.1662V29H213.372ZM229.618 29.3303C228.084 29.3303 226.745 28.9787 225.602 28.2756C224.458 27.5724 223.57 26.5888 222.938 25.3246C222.306 24.0604 221.99 22.5831 221.99 20.8928C221.99 19.1953 222.306 17.7109 222.938 16.4396C223.57 15.1683 224.458 14.1811 225.602 13.478C226.745 12.7749 228.084 12.4233 229.618 12.4233C231.152 12.4233 232.491 12.7749 233.634 13.478C234.778 14.1811 235.666 15.1683 236.298 16.4396C236.93 17.7109 237.246 19.1953 237.246 20.8928C237.246 22.5831 236.93 24.0604 236.298 25.3246C235.666 26.5888 234.778 27.5724 233.634 28.2756C232.491 28.9787 231.152 29.3303 229.618 29.3303ZM229.629 26.6562C230.623 26.6562 231.447 26.3935 232.1 25.8679C232.754 25.3423 233.237 24.6428 233.549 23.7692C233.869 22.8956 234.029 21.9332 234.029 20.8821C234.029 19.8381 233.869 18.8793 233.549 18.0057C233.237 17.125 232.754 16.4183 232.1 15.8857C231.447 15.353 230.623 15.0866 229.629 15.0866C228.627 15.0866 227.796 15.353 227.136 15.8857C226.482 16.4183 225.996 17.125 225.676 18.0057C225.364 18.8793 225.208 19.8381 225.208 20.8821C225.208 21.9332 225.364 22.8956 225.676 23.7692C225.996 24.6428 226.482 25.3423 227.136 25.8679C227.796 26.3935 228.627 26.6562 229.629 26.6562ZM240.801 29V12.6364H243.88V15.2358H244.051C244.349 14.3551 244.875 13.6626 245.627 13.1584C246.387 12.647 247.247 12.3913 248.206 12.3913C248.404 12.3913 248.639 12.3984 248.909 12.4126C249.186 12.4268 249.402 12.4446 249.559 12.4659V15.5128C249.431 15.4773 249.203 15.4382 248.877 15.3956C248.55 15.3459 248.223 15.321 247.897 15.321C247.144 15.321 246.473 15.4808 245.883 15.8004C245.301 16.1129 244.839 16.5497 244.498 17.1108C244.157 17.6648 243.987 18.2969 243.987 19.0071V29H240.801ZM252.315 29V12.6364H255.373V15.2997H255.575C255.916 14.3977 256.474 13.6946 257.248 13.1903C258.022 12.679 258.949 12.4233 260.028 12.4233C261.122 12.4233 262.038 12.679 262.777 13.1903C263.523 13.7017 264.073 14.4048 264.428 15.2997H264.599C264.989 14.4261 265.611 13.7301 266.463 13.2116C267.315 12.6861 268.331 12.4233 269.51 12.4233C270.994 12.4233 272.205 12.8885 273.143 13.8189C274.087 14.7493 274.559 16.152 274.559 18.027V29H271.374V18.3253C271.374 17.2173 271.072 16.4148 270.469 15.9176C269.865 15.4205 269.144 15.1719 268.306 15.1719C267.269 15.1719 266.463 15.4915 265.888 16.1307C265.312 16.7628 265.025 17.576 265.025 18.5703V29H261.85V18.1229C261.85 17.2351 261.573 16.5213 261.019 15.9815C260.465 15.4418 259.744 15.1719 258.856 15.1719C258.253 15.1719 257.695 15.3317 257.184 15.6513C256.68 15.9638 256.271 16.4006 255.959 16.9616C255.653 17.5227 255.501 18.1726 255.501 18.9112V29H252.315ZM288.782 35.1364C288.306 35.1364 287.873 35.0973 287.482 35.0192C287.091 34.9482 286.8 34.87 286.608 34.7848L287.376 32.1747C287.958 32.331 288.476 32.3984 288.931 32.3771C289.385 32.3558 289.787 32.1854 290.135 31.8658C290.49 31.5462 290.802 31.0241 291.072 30.2997L291.466 29.2131L285.479 12.6364H288.888L293.032 25.3352H293.203L297.347 12.6364H300.767L294.023 31.1839C293.711 32.0362 293.313 32.7571 292.83 33.3466C292.347 33.9432 291.772 34.3906 291.104 34.6889C290.437 34.9872 289.662 35.1364 288.782 35.1364ZM310.097 29.3303C308.563 29.3303 307.224 28.9787 306.08 28.2756C304.937 27.5724 304.049 26.5888 303.417 25.3246C302.785 24.0604 302.469 22.5831 302.469 20.8928C302.469 19.1953 302.785 17.7109 303.417 16.4396C304.049 15.1683 304.937 14.1811 306.08 13.478C307.224 12.7749 308.563 12.4233 310.097 12.4233C311.631 12.4233 312.969 12.7749 314.113 13.478C315.256 14.1811 316.144 15.1683 316.776 16.4396C317.408 17.7109 317.724 19.1953 317.724 20.8928C317.724 22.5831 317.408 24.0604 316.776 25.3246C316.144 26.5888 315.256 27.5724 314.113 28.2756C312.969 28.9787 311.631 29.3303 310.097 29.3303ZM310.107 26.6562C311.102 26.6562 311.925 26.3935 312.579 25.8679C313.232 25.3423 313.715 24.6428 314.028 23.7692C314.347 22.8956 314.507 21.9332 314.507 20.8821C314.507 19.8381 314.347 18.8793 314.028 18.0057C313.715 17.125 313.232 16.4183 312.579 15.8857C311.925 15.353 311.102 15.0866 310.107 15.0866C309.106 15.0866 308.275 15.353 307.614 15.8857C306.961 16.4183 306.474 17.125 306.155 18.0057C305.842 18.8793 305.686 19.8381 305.686 20.8821C305.686 21.9332 305.842 22.8956 306.155 23.7692C306.474 24.6428 306.961 25.3423 307.614 25.8679C308.275 26.3935 309.106 26.6562 310.107 26.6562ZM331.646 22.2138V12.6364H334.842V29H331.71V26.1662H331.539C331.163 27.0398 330.559 27.7678 329.728 28.3501C328.904 28.9254 327.878 29.2131 326.649 29.2131C325.598 29.2131 324.668 28.9822 323.858 28.5206C323.056 28.0518 322.423 27.3594 321.962 26.4432C321.507 25.527 321.28 24.3942 321.28 23.0447V12.6364H324.465V22.6612C324.465 23.7763 324.774 24.6641 325.392 25.3246C326.01 25.9851 326.813 26.3153 327.8 26.3153C328.396 26.3153 328.99 26.1662 329.579 25.8679C330.176 25.5696 330.669 25.1186 331.06 24.5149C331.458 23.9112 331.653 23.1442 331.646 22.2138ZM339.122 29V12.6364H342.201V15.2358H342.371C342.669 14.3551 343.195 13.6626 343.948 13.1584C344.708 12.647 345.567 12.3913 346.526 12.3913C346.725 12.3913 346.959 12.3984 347.229 12.4126C347.506 12.4268 347.723 12.4446 347.879 12.4659V15.5128C347.751 15.4773 347.524 15.4382 347.197 15.3956C346.87 15.3459 346.544 15.321 346.217 15.321C345.464 15.321 344.793 15.4808 344.203 15.8004C343.621 16.1129 343.159 16.5497 342.819 17.1108C342.478 17.6648 342.307 18.2969 342.307 19.0071V29H339.122ZM370.837 16.6314L367.95 17.1428C367.829 16.7734 367.637 16.4219 367.375 16.0881C367.119 15.7543 366.771 15.4808 366.331 15.2678C365.89 15.0547 365.34 14.9482 364.679 14.9482C363.777 14.9482 363.025 15.1506 362.421 15.5554C361.817 15.9531 361.515 16.468 361.515 17.1001C361.515 17.647 361.718 18.0874 362.123 18.4212C362.527 18.755 363.181 19.0284 364.083 19.2415L366.682 19.8381C368.188 20.1861 369.31 20.7223 370.049 21.4467C370.787 22.1712 371.157 23.1122 371.157 24.2699C371.157 25.25 370.873 26.1236 370.304 26.8906C369.743 27.6506 368.958 28.2472 367.95 28.6804C366.949 29.1136 365.787 29.3303 364.466 29.3303C362.634 29.3303 361.139 28.9396 359.981 28.1584C358.824 27.37 358.113 26.2514 357.85 24.8026L360.929 24.3338C361.121 25.1364 361.515 25.7436 362.112 26.1555C362.708 26.5604 363.486 26.7628 364.445 26.7628C365.489 26.7628 366.324 26.5462 366.949 26.1129C367.574 25.6726 367.886 25.1364 367.886 24.5043C367.886 23.9929 367.694 23.5632 367.311 23.2152C366.934 22.8672 366.355 22.6044 365.574 22.4268L362.804 21.8196C361.277 21.4716 360.148 20.9176 359.417 20.1577C358.692 19.3977 358.33 18.4354 358.33 17.2706C358.33 16.3047 358.6 15.4595 359.14 14.7351C359.679 14.0107 360.425 13.446 361.377 13.0412C362.328 12.6293 363.419 12.4233 364.647 12.4233C366.416 12.4233 367.808 12.8068 368.824 13.5739C369.839 14.3338 370.51 15.353 370.837 16.6314ZM385.025 22.2138V12.6364H388.221V29H385.089V26.1662H384.918C384.542 27.0398 383.938 27.7678 383.107 28.3501C382.283 28.9254 381.257 29.2131 380.028 29.2131C378.977 29.2131 378.047 28.9822 377.237 28.5206C376.434 28.0518 375.802 27.3594 375.341 26.4432C374.886 25.527 374.659 24.3942 374.659 23.0447V12.6364H377.844V22.6612C377.844 23.7763 378.153 24.6641 378.771 25.3246C379.389 25.9851 380.192 26.3153 381.179 26.3153C381.775 26.3153 382.368 26.1662 382.958 25.8679C383.555 25.5696 384.048 25.1186 384.439 24.5149C384.836 23.9112 385.032 23.1442 385.025 22.2138ZM392.501 35.1364V12.6364H395.612V15.2891H395.878C396.063 14.9482 396.329 14.554 396.677 14.1065C397.025 13.6591 397.508 13.2685 398.126 12.9347C398.744 12.5938 399.56 12.4233 400.576 12.4233C401.897 12.4233 403.076 12.7571 404.113 13.4247C405.15 14.0923 405.963 15.0547 406.553 16.3118C407.149 17.5689 407.447 19.0817 407.447 20.8501C407.447 22.6186 407.153 24.1349 406.563 25.3991C405.974 26.6562 405.164 27.6257 404.134 28.3075C403.104 28.9822 401.929 29.3196 400.608 29.3196C399.614 29.3196 398.8 29.1527 398.168 28.8189C397.543 28.4851 397.053 28.0945 396.698 27.647C396.343 27.1996 396.07 26.8018 395.878 26.4538H395.686V35.1364H392.501ZM395.622 20.8182C395.622 21.9687 395.789 22.9773 396.123 23.8438C396.457 24.7102 396.94 25.3885 397.572 25.8786C398.204 26.3615 398.978 26.603 399.894 26.603C400.846 26.603 401.641 26.3509 402.281 25.8466C402.92 25.3352 403.403 24.6428 403.729 23.7692C404.063 22.8956 404.23 21.9119 404.23 20.8182C404.23 19.7386 404.067 18.7692 403.74 17.9098C403.42 17.0504 402.938 16.3722 402.291 15.875C401.652 15.3778 400.853 15.1293 399.894 15.1293C398.971 15.1293 398.19 15.3672 397.55 15.843C396.918 16.3189 396.439 16.983 396.112 17.8352C395.786 18.6875 395.622 19.6818 395.622 20.8182ZM411.016 35.1364V12.6364H414.127V15.2891H414.393C414.578 14.9482 414.844 14.554 415.192 14.1065C415.54 13.6591 416.023 13.2685 416.641 12.9347C417.259 12.5938 418.076 12.4233 419.092 12.4233C420.413 12.4233 421.592 12.7571 422.629 13.4247C423.665 14.0923 424.479 15.0547 425.068 16.3118C425.665 17.5689 425.963 19.0817 425.963 20.8501C425.963 22.6186 425.668 24.1349 425.079 25.3991C424.489 26.6562 423.68 27.6257 422.65 28.3075C421.62 28.9822 420.445 29.3196 419.124 29.3196C418.129 29.3196 417.316 29.1527 416.684 28.8189C416.059 28.4851 415.569 28.0945 415.214 27.647C414.859 27.1996 414.585 26.8018 414.393 26.4538H414.202V35.1364H411.016ZM414.138 20.8182C414.138 21.9687 414.305 22.9773 414.638 23.8438C414.972 24.7102 415.455 25.3885 416.087 25.8786C416.719 26.3615 417.494 26.603 418.41 26.603C419.362 26.603 420.157 26.3509 420.796 25.8466C421.435 25.3352 421.918 24.6428 422.245 23.7692C422.579 22.8956 422.746 21.9119 422.746 20.8182C422.746 19.7386 422.582 18.7692 422.256 17.9098C421.936 17.0504 421.453 16.3722 420.807 15.875C420.168 15.3778 419.369 15.1293 418.41 15.1293C417.487 15.1293 416.705 15.3672 416.066 15.843C415.434 16.3189 414.955 16.983 414.628 17.8352C414.301 18.6875 414.138 19.6818 414.138 20.8182ZM432.717 7.18182V29H429.532V7.18182H432.717ZM439.016 35.1364C438.54 35.1364 438.107 35.0973 437.716 35.0192C437.326 34.9482 437.035 34.87 436.843 34.7848L437.61 32.1747C438.192 32.331 438.711 32.3984 439.165 32.3771C439.62 32.3558 440.021 32.1854 440.369 31.8658C440.724 31.5462 441.037 31.0241 441.307 30.2997L441.701 29.2131L435.714 12.6364H439.123L443.267 25.3352H443.437L447.581 12.6364H451.001L444.258 31.1839C443.945 32.0362 443.547 32.7571 443.064 33.3466C442.581 33.9432 442.006 34.3906 441.339 34.6889C440.671 34.9872 439.897 35.1364 439.016 35.1364ZM468.827 29.3303C467.243 29.3303 465.88 28.9716 464.736 28.2543C463.6 27.5298 462.726 26.532 462.115 25.2607C461.505 23.9893 461.199 22.5334 461.199 20.8928C461.199 19.2308 461.512 17.7642 462.137 16.4929C462.762 15.2145 463.642 14.2166 464.779 13.4993C465.915 12.782 467.254 12.4233 468.795 12.4233C470.038 12.4233 471.146 12.6541 472.119 13.1158C473.092 13.5703 473.877 14.2095 474.473 15.0334C475.077 15.8572 475.436 16.8196 475.549 17.9205H472.449C472.279 17.1534 471.888 16.4929 471.277 15.9389C470.674 15.3849 469.864 15.108 468.848 15.108C467.961 15.108 467.183 15.3423 466.515 15.8111C465.855 16.2727 465.34 16.9332 464.971 17.7926C464.601 18.6449 464.417 19.6534 464.417 20.8182C464.417 22.0114 464.598 23.0412 464.96 23.9077C465.322 24.7741 465.833 25.4453 466.494 25.9212C467.162 26.397 467.946 26.6349 468.848 26.6349C469.452 26.6349 469.999 26.5249 470.489 26.3047C470.986 26.0774 471.402 25.7543 471.735 25.3352C472.076 24.9162 472.314 24.4119 472.449 23.8224H475.549C475.436 24.8807 475.091 25.8253 474.516 26.6562C473.941 27.4872 473.17 28.1406 472.204 28.6165C471.245 29.0923 470.12 29.3303 468.827 29.3303ZM482.141 19.2841V29H478.956V7.18182H482.099V15.2997H482.301C482.684 14.419 483.27 13.7195 484.059 13.201C484.847 12.6825 485.877 12.4233 487.148 12.4233C488.27 12.4233 489.251 12.6541 490.089 13.1158C490.934 13.5774 491.587 14.2663 492.049 15.1825C492.518 16.0916 492.752 17.228 492.752 18.5916V29H489.567V18.9751C489.567 17.7749 489.258 16.8445 488.64 16.1839C488.022 15.5163 487.162 15.1825 486.062 15.1825C485.309 15.1825 484.634 15.3423 484.037 15.6619C483.448 15.9815 482.983 16.4503 482.642 17.0682C482.308 17.679 482.141 18.4176 482.141 19.2841ZM501.765 29.3622C500.728 29.3622 499.79 29.1705 498.952 28.7869C498.114 28.3963 497.45 27.8317 496.96 27.093C496.477 26.3544 496.236 25.4489 496.236 24.3764C496.236 23.4531 496.413 22.6932 496.768 22.0966C497.123 21.5 497.603 21.0277 498.206 20.6797C498.81 20.3317 499.485 20.0689 500.231 19.8913C500.976 19.7138 501.736 19.5788 502.51 19.4865C503.491 19.3729 504.286 19.2805 504.897 19.2095C505.508 19.1314 505.952 19.0071 506.229 18.8366C506.506 18.6662 506.644 18.3892 506.644 18.0057V17.9311C506.644 17.0007 506.381 16.2798 505.856 15.7685C505.337 15.2571 504.563 15.0014 503.533 15.0014C502.461 15.0014 501.616 15.2393 500.998 15.7152C500.387 16.1839 499.964 16.706 499.73 17.2812L496.736 16.5994C497.091 15.6051 497.61 14.8026 498.292 14.1918C498.981 13.5739 499.773 13.1264 500.667 12.8494C501.562 12.5653 502.503 12.4233 503.491 12.4233C504.144 12.4233 504.836 12.5014 505.568 12.6577C506.307 12.8068 506.996 13.0838 507.635 13.4886C508.281 13.8935 508.81 14.4723 509.222 15.2251C509.634 15.9709 509.84 16.9403 509.84 18.1335V29H506.729V26.7628H506.601C506.395 27.1747 506.086 27.5795 505.675 27.9773C505.263 28.375 504.733 28.7053 504.087 28.968C503.441 29.2308 502.667 29.3622 501.765 29.3622ZM502.457 26.8054C503.338 26.8054 504.091 26.6314 504.716 26.2834C505.348 25.9354 505.827 25.4808 506.154 24.9197C506.488 24.3516 506.655 23.7443 506.655 23.098V20.9886C506.541 21.1023 506.321 21.2088 505.994 21.3082C505.675 21.4006 505.309 21.4822 504.897 21.5533C504.485 21.6172 504.084 21.6776 503.693 21.7344C503.302 21.7841 502.976 21.8267 502.713 21.8622C502.095 21.9403 501.53 22.0717 501.019 22.2564C500.515 22.4411 500.11 22.7074 499.805 23.0554C499.506 23.3963 499.357 23.8509 499.357 24.419C499.357 25.2074 499.648 25.804 500.231 26.2088C500.813 26.6065 501.555 26.8054 502.457 26.8054ZM514.083 29V12.6364H517.268V29H514.083ZM515.691 10.1115C515.137 10.1115 514.662 9.92685 514.264 9.55753C513.873 9.18111 513.678 8.73366 513.678 8.2152C513.678 7.68963 513.873 7.24219 514.264 6.87287C514.662 6.49645 515.137 6.30824 515.691 6.30824C516.245 6.30824 516.718 6.49645 517.108 6.87287C517.506 7.24219 517.705 7.68963 517.705 8.2152C517.705 8.73366 517.506 9.18111 517.108 9.55753C516.718 9.92685 516.245 10.1115 515.691 10.1115ZM524.739 19.2841V29H521.553V12.6364H524.611V15.2997H524.813C525.19 14.4332 525.779 13.7372 526.582 13.2116C527.392 12.6861 528.411 12.4233 529.639 12.4233C530.754 12.4233 531.731 12.6577 532.569 13.1264C533.407 13.5881 534.057 14.277 534.519 15.1932C534.98 16.1094 535.211 17.2422 535.211 18.5916V29H532.026V18.9751C532.026 17.7891 531.717 16.8622 531.099 16.1946C530.481 15.5199 529.632 15.1825 528.553 15.1825C527.814 15.1825 527.157 15.3423 526.582 15.6619C526.014 15.9815 525.563 16.4503 525.229 17.0682C524.902 17.679 524.739 18.4176 524.739 19.2841ZM542.967 22.7251V22.5227C542.981 21.2017 543.112 20.1506 543.361 19.3693C543.617 18.5881 543.979 17.956 544.448 17.473C544.916 16.9901 545.481 16.5497 546.142 16.152C546.568 15.8821 546.951 15.5803 547.292 15.2464C547.633 14.9126 547.903 14.5291 548.102 14.0959C548.301 13.6626 548.4 13.1832 548.4 12.6577C548.4 12.0256 548.251 11.4787 547.953 11.017C547.654 10.5554 547.257 10.2003 546.759 9.9517C546.269 9.69602 545.722 9.56818 545.119 9.56818C544.572 9.56818 544.05 9.68182 543.553 9.90909C543.056 10.1364 542.644 10.4915 542.317 10.9744C541.99 11.4503 541.802 12.0646 541.752 12.8175H538.514C538.563 11.5391 538.887 10.4595 539.483 9.57883C540.08 8.69105 540.868 8.01989 541.848 7.56534C542.835 7.11079 543.926 6.88352 545.119 6.88352C546.426 6.88352 547.569 7.12855 548.549 7.61861C549.529 8.10156 550.289 8.77983 550.829 9.65341C551.376 10.5199 551.649 11.532 551.649 12.6896C551.649 13.4851 551.525 14.2024 551.276 14.8416C551.028 15.4737 550.673 16.0384 550.211 16.5355C549.757 17.0327 549.21 17.473 548.57 17.8565C547.967 18.233 547.477 18.6236 547.1 19.0284C546.731 19.4332 546.461 19.9126 546.291 20.4666C546.12 21.0206 546.028 21.706 546.014 22.5227V22.7251H542.967ZM544.575 29.2024C543.993 29.2024 543.492 28.9964 543.073 28.5845C542.654 28.1655 542.445 27.6612 542.445 27.0717C542.445 26.4893 542.654 25.9922 543.073 25.5803C543.492 25.1612 543.993 24.9517 544.575 24.9517C545.151 24.9517 545.648 25.1612 546.067 25.5803C546.493 25.9922 546.706 26.4893 546.706 27.0717C546.706 27.4624 546.607 27.821 546.408 28.1477C546.216 28.4673 545.96 28.723 545.641 28.9148C545.321 29.1065 544.966 29.2024 544.575 29.2024Z" fill="black"/>
<path d="M3.41974 67.6847V40.5078H10.419V43.0327H6.46662V65.1598H10.419V67.6847H3.41974ZM13.7349 65V43.1818H27.4139V46.0156H17.0268V52.6634H26.7001V55.4865H17.0268V62.1662H27.5417V65H13.7349ZM34.0696 48.6364L37.6811 55.0071L41.3246 48.6364H44.8082L39.7053 56.8182L44.8509 65H41.3672L37.6811 58.8849L34.0057 65H30.5114L35.6037 56.8182L30.5753 48.6364H34.0696ZM48.0788 71.1364V48.6364H51.1896V51.2891H51.456C51.6406 50.9482 51.907 50.554 52.255 50.1065C52.603 49.6591 53.0859 49.2685 53.7038 48.9347C54.3217 48.5938 55.1385 48.4233 56.1541 48.4233C57.4751 48.4233 58.6541 48.7571 59.6911 49.4247C60.728 50.0923 61.5412 51.0547 62.1307 52.3118C62.7273 53.5689 63.0256 55.0817 63.0256 56.8501C63.0256 58.6186 62.7308 60.1349 62.1413 61.3991C61.5518 62.6562 60.7422 63.6257 59.7124 64.3075C58.6825 64.9822 57.5071 65.3196 56.1861 65.3196C55.1918 65.3196 54.3786 65.1527 53.7464 64.8189C53.1214 64.4851 52.6314 64.0945 52.2763 63.647C51.9212 63.1996 51.6477 62.8018 51.456 62.4538H51.2642V71.1364H48.0788ZM51.2003 56.8182C51.2003 57.9687 51.3672 58.9773 51.701 59.8438C52.0348 60.7102 52.5178 61.3885 53.1499 61.8786C53.782 62.3615 54.5561 62.603 55.4723 62.603C56.424 62.603 57.2195 62.3509 57.8587 61.8466C58.4979 61.3352 58.9808 60.6428 59.3075 59.7692C59.6413 58.8956 59.8082 57.9119 59.8082 56.8182C59.8082 55.7386 59.6449 54.7692 59.3182 53.9098C58.9986 53.0504 58.5156 52.3722 57.8693 51.875C57.2301 51.3778 56.4311 51.1293 55.4723 51.1293C54.549 51.1293 53.7678 51.3672 53.1286 51.843C52.4964 52.3189 52.017 52.983 51.6903 53.8352C51.3636 54.6875 51.2003 55.6818 51.2003 56.8182ZM69.7798 43.1818V65H66.5945V43.1818H69.7798ZM80.9579 65.3303C79.4238 65.3303 78.085 64.9787 76.9416 64.2756C75.7981 63.5724 74.9103 62.5888 74.2782 61.3246C73.6461 60.0604 73.3301 58.5831 73.3301 56.8928C73.3301 55.1953 73.6461 53.7109 74.2782 52.4396C74.9103 51.1683 75.7981 50.1811 76.9416 49.478C78.085 48.7749 79.4238 48.4233 80.9579 48.4233C82.492 48.4233 83.8308 48.7749 84.9743 49.478C86.1177 50.1811 87.0055 51.1683 87.6376 52.4396C88.2697 53.7109 88.5858 55.1953 88.5858 56.8928C88.5858 58.5831 88.2697 60.0604 87.6376 61.3246C87.0055 62.5888 86.1177 63.5724 84.9743 64.2756C83.8308 64.9787 82.492 65.3303 80.9579 65.3303ZM80.9686 62.6562C81.9629 62.6562 82.7868 62.3935 83.4402 61.8679C84.0936 61.3423 84.5765 60.6428 84.889 59.7692C85.2086 58.8956 85.3684 57.9332 85.3684 56.8821C85.3684 55.8381 85.2086 54.8793 84.889 54.0057C84.5765 53.125 84.0936 52.4183 83.4402 51.8857C82.7868 51.353 81.9629 51.0866 80.9686 51.0866C79.9672 51.0866 79.1362 51.353 78.4757 51.8857C77.8223 52.4183 77.3358 53.125 77.0162 54.0057C76.7037 54.8793 76.5474 55.8381 76.5474 56.8821C76.5474 57.9332 76.7037 58.8956 77.0162 59.7692C77.3358 60.6428 77.8223 61.3423 78.4757 61.8679C79.1362 62.3935 79.9672 62.6562 80.9686 62.6562ZM92.1413 65V48.6364H95.2202V51.2358H95.3906C95.6889 50.3551 96.2145 49.6626 96.9673 49.1584C97.7273 48.647 98.5866 48.3913 99.5455 48.3913C99.7443 48.3913 99.9787 48.3984 100.249 48.4126C100.526 48.4268 100.742 48.4446 100.898 48.4659V51.5128C100.771 51.4773 100.543 51.4382 100.217 51.3956C99.8899 51.3459 99.5632 51.321 99.2365 51.321C98.4837 51.321 97.8125 51.4808 97.223 51.8004C96.6406 52.1129 96.179 52.5497 95.8381 53.1108C95.4972 53.6648 95.3267 54.2969 95.3267 55.0071V65H92.1413ZM110.122 65.3303C108.509 65.3303 107.121 64.9858 105.956 64.2969C104.798 63.6009 103.904 62.6243 103.271 61.3672C102.646 60.103 102.334 58.6222 102.334 56.9247C102.334 55.2486 102.646 53.7713 103.271 52.4929C103.904 51.2145 104.784 50.2166 105.914 49.4993C107.05 48.782 108.378 48.4233 109.898 48.4233C110.821 48.4233 111.716 48.576 112.583 48.8814C113.449 49.1868 114.227 49.6662 114.916 50.3196C115.605 50.973 116.148 51.8217 116.546 52.8658C116.943 53.9027 117.142 55.1634 117.142 56.6477V57.777H104.134V55.3906H114.021C114.021 54.5526 113.85 53.8104 113.509 53.1641C113.169 52.5107 112.689 51.9957 112.071 51.6193C111.46 51.2429 110.743 51.0547 109.919 51.0547C109.024 51.0547 108.243 51.2749 107.575 51.7152C106.915 52.1484 106.404 52.7166 106.041 53.4197C105.686 54.1158 105.509 54.8722 105.509 55.6889V57.5533C105.509 58.647 105.7 59.5774 106.084 60.3445C106.475 61.1115 107.018 61.6974 107.714 62.1023C108.41 62.5 109.223 62.6989 110.154 62.6989C110.757 62.6989 111.308 62.6136 111.805 62.4432C112.302 62.2656 112.732 62.0028 113.094 61.6548C113.456 61.3068 113.733 60.8771 113.925 60.3658L116.94 60.9091C116.698 61.7969 116.265 62.5746 115.64 63.2422C115.022 63.9027 114.244 64.4176 113.307 64.7869C112.377 65.1491 111.315 65.3303 110.122 65.3303ZM147.824 54.0909C147.824 56.4205 147.398 58.4233 146.546 60.0994C145.693 61.7685 144.525 63.054 143.041 63.956C141.563 64.8509 139.884 65.2983 138.002 65.2983C136.112 65.2983 134.426 64.8509 132.941 63.956C131.464 63.054 130.299 61.7649 129.447 60.0888C128.595 58.4126 128.169 56.4134 128.169 54.0909C128.169 51.7614 128.595 49.7621 129.447 48.093C130.299 46.4169 131.464 45.1314 132.941 44.2365C134.426 43.3345 136.112 42.8835 138.002 42.8835C139.884 42.8835 141.563 43.3345 143.041 44.2365C144.525 45.1314 145.693 46.4169 146.546 48.093C147.398 49.7621 147.824 51.7614 147.824 54.0909ZM144.564 54.0909C144.564 52.3153 144.276 50.8203 143.701 49.6058C143.133 48.3842 142.352 47.4609 141.357 46.8359C140.37 46.2038 139.252 45.8878 138.002 45.8878C136.744 45.8878 135.622 46.2038 134.635 46.8359C133.648 47.4609 132.867 48.3842 132.291 49.6058C131.723 50.8203 131.439 52.3153 131.439 54.0909C131.439 55.8665 131.723 57.3651 132.291 58.5866C132.867 59.8011 133.648 60.7244 134.635 61.3565C135.622 61.9815 136.744 62.294 138.002 62.294C139.252 62.294 140.37 61.9815 141.357 61.3565C142.352 60.7244 143.133 59.8011 143.701 58.5866C144.276 57.3651 144.564 55.8665 144.564 54.0909ZM162.038 58.2138V48.6364H165.234V65H162.102V62.1662H161.932C161.555 63.0398 160.952 63.7678 160.121 64.3501C159.297 64.9254 158.271 65.2131 157.042 65.2131C155.991 65.2131 155.06 64.9822 154.251 64.5206C153.448 64.0518 152.816 63.3594 152.354 62.4432C151.9 61.527 151.673 60.3942 151.673 59.0447V48.6364H154.858V58.6612C154.858 59.7763 155.167 60.6641 155.785 61.3246C156.403 61.9851 157.205 62.3153 158.192 62.3153C158.789 62.3153 159.382 62.1662 159.972 61.8679C160.568 61.5696 161.062 61.1186 161.452 60.5149C161.85 59.9112 162.045 59.1442 162.038 58.2138ZM169.514 65V48.6364H172.593V51.2358H172.764C173.062 50.3551 173.588 49.6626 174.34 49.1584C175.1 48.647 175.96 48.3913 176.919 48.3913C177.117 48.3913 177.352 48.3984 177.622 48.4126C177.899 48.4268 178.115 48.4446 178.271 48.4659V51.5128C178.144 51.4773 177.916 51.4382 177.59 51.3956C177.263 51.3459 176.936 51.321 176.61 51.321C175.857 51.321 175.186 51.4808 174.596 51.8004C174.014 52.1129 173.552 52.5497 173.211 53.1108C172.87 53.6648 172.7 54.2969 172.7 55.0071V65H169.514ZM201.123 48.9134C201.009 47.9048 200.541 47.1236 199.717 46.5696C198.893 46.0085 197.856 45.728 196.606 45.728C195.711 45.728 194.937 45.87 194.284 46.1541C193.63 46.4311 193.122 46.8146 192.76 47.3047C192.405 47.7876 192.227 48.3381 192.227 48.956C192.227 49.4744 192.348 49.9219 192.59 50.2983C192.838 50.6747 193.161 50.9908 193.559 51.2464C193.964 51.495 194.397 51.7045 194.859 51.875C195.32 52.0384 195.764 52.1733 196.191 52.2798L198.321 52.8338C199.017 53.0043 199.731 53.2351 200.463 53.5263C201.194 53.8175 201.872 54.201 202.497 54.6768C203.122 55.1527 203.627 55.7422 204.01 56.4453C204.401 57.1484 204.596 57.9901 204.596 58.9702C204.596 60.206 204.276 61.3033 203.637 62.2621C203.005 63.2209 202.085 63.9773 200.878 64.5312C199.678 65.0852 198.225 65.3622 196.521 65.3622C194.887 65.3622 193.474 65.103 192.281 64.5845C191.088 64.0661 190.154 63.331 189.479 62.3793C188.804 61.4205 188.431 60.2841 188.36 58.9702H191.663C191.727 59.7585 191.982 60.4155 192.43 60.9411C192.884 61.4595 193.463 61.8466 194.166 62.1023C194.877 62.3509 195.654 62.4751 196.499 62.4751C197.43 62.4751 198.257 62.3295 198.982 62.0384C199.713 61.7401 200.289 61.3281 200.708 60.8026C201.127 60.2699 201.336 59.6484 201.336 58.9382C201.336 58.2919 201.151 57.7628 200.782 57.3509C200.42 56.9389 199.926 56.598 199.301 56.3281C198.683 56.0582 197.984 55.8203 197.203 55.6143L194.624 54.9112C192.877 54.4354 191.492 53.7358 190.47 52.8125C189.454 51.8892 188.946 50.6676 188.946 49.1477C188.946 47.8906 189.287 46.7933 189.969 45.8558C190.651 44.9183 191.574 44.1903 192.739 43.6719C193.904 43.1463 195.218 42.8835 196.681 42.8835C198.158 42.8835 199.461 43.1428 200.59 43.6612C201.727 44.1797 202.622 44.8935 203.275 45.8026C203.928 46.7045 204.269 47.7415 204.298 48.9134H201.123ZM215.167 65.3303C213.633 65.3303 212.294 64.9787 211.151 64.2756C210.007 63.5724 209.119 62.5888 208.487 61.3246C207.855 60.0604 207.539 58.5831 207.539 56.8928C207.539 55.1953 207.855 53.7109 208.487 52.4396C209.119 51.1683 210.007 50.1811 211.151 49.478C212.294 48.7749 213.633 48.4233 215.167 48.4233C216.701 48.4233 218.04 48.7749 219.183 49.478C220.327 50.1811 221.214 51.1683 221.847 52.4396C222.479 53.7109 222.795 55.1953 222.795 56.8928C222.795 58.5831 222.479 60.0604 221.847 61.3246C221.214 62.5888 220.327 63.5724 219.183 64.2756C218.04 64.9787 216.701 65.3303 215.167 65.3303ZM215.178 62.6562C216.172 62.6562 216.996 62.3935 217.649 61.8679C218.303 61.3423 218.786 60.6428 219.098 59.7692C219.418 58.8956 219.577 57.9332 219.577 56.8821C219.577 55.8381 219.418 54.8793 219.098 54.0057C218.786 53.125 218.303 52.4183 217.649 51.8857C216.996 51.353 216.172 51.0866 215.178 51.0866C214.176 51.0866 213.345 51.353 212.685 51.8857C212.031 52.4183 211.545 53.125 211.225 54.0057C210.913 54.8793 210.756 55.8381 210.756 56.8821C210.756 57.9332 210.913 58.8956 211.225 59.7692C211.545 60.6428 212.031 61.3423 212.685 61.8679C213.345 62.3935 214.176 62.6562 215.178 62.6562ZM229.536 43.1818V65H226.35V43.1818H229.536ZM244.187 58.2138V48.6364H247.383V65H244.251V62.1662H244.08C243.704 63.0398 243.1 63.7678 242.269 64.3501C241.445 64.9254 240.419 65.2131 239.19 65.2131C238.139 65.2131 237.209 64.9822 236.399 64.5206C235.597 64.0518 234.964 63.3594 234.503 62.4432C234.048 61.527 233.821 60.3942 233.821 59.0447V48.6364H237.006V58.6612C237.006 59.7763 237.315 60.6641 237.933 61.3246C238.551 61.9851 239.354 62.3153 240.341 62.3153C240.938 62.3153 241.531 62.1662 242.12 61.8679C242.717 61.5696 243.21 61.1186 243.601 60.5149C243.999 59.9112 244.194 59.1442 244.187 58.2138ZM259.301 48.6364V51.1932H250.363V48.6364H259.301ZM252.76 44.7159H255.945V60.1953C255.945 60.8132 256.038 61.2784 256.222 61.5909C256.407 61.8963 256.645 62.1058 256.936 62.2195C257.235 62.326 257.558 62.3793 257.906 62.3793C258.161 62.3793 258.385 62.3615 258.577 62.326C258.769 62.2905 258.918 62.2621 259.024 62.2408L259.6 64.8722C259.415 64.9432 259.152 65.0142 258.811 65.0852C258.47 65.1634 258.044 65.206 257.533 65.2131C256.695 65.2273 255.914 65.0781 255.189 64.7656C254.465 64.4531 253.879 63.9702 253.431 63.3168C252.984 62.6634 252.76 61.843 252.76 60.8558V44.7159ZM262.825 65V48.6364H266.01V65H262.825ZM264.434 46.1115C263.88 46.1115 263.404 45.9268 263.006 45.5575C262.615 45.1811 262.42 44.7337 262.42 44.2152C262.42 43.6896 262.615 43.2422 263.006 42.8729C263.404 42.4964 263.88 42.3082 264.434 42.3082C264.988 42.3082 265.46 42.4964 265.85 42.8729C266.248 43.2422 266.447 43.6896 266.447 44.2152C266.447 44.7337 266.248 45.1811 265.85 45.5575C265.46 45.9268 264.988 46.1115 264.434 46.1115ZM277.188 65.3303C275.654 65.3303 274.316 64.9787 273.172 64.2756C272.029 63.5724 271.141 62.5888 270.509 61.3246C269.877 60.0604 269.561 58.5831 269.561 56.8928C269.561 55.1953 269.877 53.7109 270.509 52.4396C271.141 51.1683 272.029 50.1811 273.172 49.478C274.316 48.7749 275.654 48.4233 277.188 48.4233C278.722 48.4233 280.061 48.7749 281.205 49.478C282.348 50.1811 283.236 51.1683 283.868 52.4396C284.5 53.7109 284.816 55.1953 284.816 56.8928C284.816 58.5831 284.5 60.0604 283.868 61.3246C283.236 62.5888 282.348 63.5724 281.205 64.2756C280.061 64.9787 278.722 65.3303 277.188 65.3303ZM277.199 62.6562C278.193 62.6562 279.017 62.3935 279.671 61.8679C280.324 61.3423 280.807 60.6428 281.119 59.7692C281.439 58.8956 281.599 57.9332 281.599 56.8821C281.599 55.8381 281.439 54.8793 281.119 54.0057C280.807 53.125 280.324 52.4183 279.671 51.8857C279.017 51.353 278.193 51.0866 277.199 51.0866C276.198 51.0866 275.367 51.353 274.706 51.8857C274.053 52.4183 273.566 53.125 273.247 54.0057C272.934 54.8793 272.778 55.8381 272.778 56.8821C272.778 57.9332 272.934 58.8956 273.247 59.7692C273.566 60.6428 274.053 61.3423 274.706 61.8679C275.367 62.3935 276.198 62.6562 277.199 62.6562ZM291.557 55.2841V65H288.372V48.6364H291.429V51.2997H291.632C292.008 50.4332 292.598 49.7372 293.4 49.2116C294.21 48.6861 295.229 48.4233 296.458 48.4233C297.573 48.4233 298.549 48.6577 299.387 49.1264C300.225 49.5881 300.875 50.277 301.337 51.1932C301.799 52.1094 302.029 53.2422 302.029 54.5916V65H298.844V54.9751C298.844 53.7891 298.535 52.8622 297.917 52.1946C297.299 51.5199 296.451 51.1825 295.371 51.1825C294.632 51.1825 293.975 51.3423 293.4 51.6619C292.832 51.9815 292.381 52.4503 292.047 53.0682C291.721 53.679 291.557 54.4176 291.557 55.2841ZM318.564 52.6314L315.676 53.1428C315.556 52.7734 315.364 52.4219 315.101 52.0881C314.846 51.7543 314.498 51.4808 314.057 51.2678C313.617 51.0547 313.066 50.9482 312.406 50.9482C311.504 50.9482 310.751 51.1506 310.147 51.5554C309.544 51.9531 309.242 52.468 309.242 53.1001C309.242 53.647 309.444 54.0874 309.849 54.4212C310.254 54.755 310.907 55.0284 311.809 55.2415L314.409 55.8381C315.914 56.1861 317.037 56.7223 317.775 57.4467C318.514 58.1712 318.883 59.1122 318.883 60.2699C318.883 61.25 318.599 62.1236 318.031 62.8906C317.47 63.6506 316.685 64.2472 315.676 64.6804C314.675 65.1136 313.514 65.3303 312.193 65.3303C310.36 65.3303 308.865 64.9396 307.708 64.1584C306.55 63.37 305.84 62.2514 305.577 60.8026L308.656 60.3338C308.848 61.1364 309.242 61.7436 309.838 62.1555C310.435 62.5604 311.213 62.7628 312.172 62.7628C313.216 62.7628 314.05 62.5462 314.675 62.1129C315.3 61.6726 315.613 61.1364 315.613 60.5043C315.613 59.9929 315.421 59.5632 315.037 59.2152C314.661 58.8672 314.082 58.6044 313.301 58.4268L310.531 57.8196C309.004 57.4716 307.875 56.9176 307.143 56.1577C306.419 55.3977 306.056 54.4354 306.056 53.2706C306.056 52.3047 306.326 51.4595 306.866 50.7351C307.406 50.0107 308.152 49.446 309.103 49.0412C310.055 48.6293 311.145 48.4233 312.374 48.4233C314.142 48.4233 315.534 48.8068 316.55 49.5739C317.566 50.3338 318.237 51.353 318.564 52.6314ZM328.16 42.3615V69.5384H321.16V67.0135H325.113V44.8864H321.16V42.3615H328.16Z" fill="black"/>
</svg>
