<svg width="1283" height="761" viewBox="0 0 1283 761" fill="none" xmlns="http://www.w3.org/2000/svg">
<ellipse cx="114.5" cy="62" rx="9.5" ry="10" fill="#0095FF"/>
<ellipse cx="556.5" cy="10" rx="9.5" ry="10" fill="#737373" fill-opacity="0.5"/>
<ellipse cx="669.5" cy="159" rx="9.5" ry="10" fill="white"/>
<ellipse cx="352.5" cy="683" rx="9.5" ry="10" fill="#737373" fill-opacity="0.5"/>
<ellipse cx="725.5" cy="751" rx="9.5" ry="10" fill="white"/>
<circle cx="580" cy="607" r="5" fill="#0095FF"/>
<circle cx="954" cy="490" r="5" fill="white"/>
<circle cx="1219" cy="85" r="5" fill="#737373" fill-opacity="0.5"/>
<circle cx="863" cy="59" r="5" fill="#0095FF"/>
<circle cx="1278" cy="600" r="5" fill="#0095FF"/>
<circle cx="167" cy="756" r="5" fill="#0095FF"/>
<circle cx="404" cy="554" r="5" fill="white"/>
<circle cx="552" cy="186" r="5" fill="#324465"/>
<circle cx="329" cy="57" r="5" fill="#737373" fill-opacity="0.5"/>
<ellipse cx="9.5" cy="701" rx="9.5" ry="10" fill="#324465"/>
<ellipse cx="1209.5" cy="361" rx="9.5" ry="10" fill="#0095FF"/>
<ellipse cx="1073.5" cy="44" rx="9.5" ry="10" fill="#324465"/>
<ellipse cx="944.5" cy="660" rx="9.5" ry="10" fill="#D9D9D9"/>
</svg>
