<svg width="357" height="21" viewBox="0 0 357 21" fill="none" xmlns="http://www.w3.org/2000/svg">
<path d="M0.554 16V0.879999H2.78V16H0.554ZM1.646 16V14.173H11.054V16H1.646ZM1.646 9.091V7.264H10.298V9.091H1.646ZM1.646 2.707V0.879999H10.865V2.707H1.646ZM13.8426 16V5.29H15.9216V7.81H16.0266V16H13.8426ZM21.0666 16V9.007C21.0666 8.279 20.8986 7.747 20.5626 7.411C20.2266 7.075 19.7436 6.907 19.1136 6.907C18.5256 6.907 17.9936 7.047 17.5176 7.327C17.0556 7.593 16.6916 7.971 16.4256 8.461C16.1596 8.937 16.0266 9.504 16.0266 10.162L15.7536 7.663C16.1036 6.865 16.6286 6.235 17.3286 5.773C18.0426 5.311 18.8406 5.08 19.7226 5.08C20.7866 5.08 21.6336 5.388 22.2636 6.004C22.9076 6.62 23.2296 7.432 23.2296 8.44V16H21.0666ZM28.2906 16V9.007C28.2906 8.279 28.1156 7.747 27.7656 7.411C27.4296 7.075 26.9466 6.907 26.3166 6.907C25.7426 6.907 25.2176 7.047 24.7416 7.327C24.2796 7.593 23.9086 7.971 23.6286 8.461C23.3626 8.937 23.2296 9.504 23.2296 10.162L22.7886 7.663C23.1526 6.865 23.6986 6.235 24.4266 5.773C25.1686 5.311 25.9946 5.08 26.9046 5.08C27.9826 5.08 28.8436 5.395 29.4876 6.025C30.1316 6.641 30.4536 7.467 30.4536 8.503V16H28.2906ZM39.8995 16C39.8295 15.734 39.7805 15.44 39.7525 15.118C39.7385 14.796 39.7315 14.404 39.7315 13.942H39.6265V8.839C39.6265 8.153 39.4515 7.642 39.1015 7.306C38.7655 6.956 38.2265 6.781 37.4845 6.781C36.7705 6.781 36.1965 6.921 35.7625 7.201C35.3425 7.481 35.0975 7.88 35.0275 8.398H32.9485C33.0465 7.39 33.5015 6.585 34.3135 5.983C35.1255 5.381 36.2105 5.08 37.5685 5.08C38.9685 5.08 40.0185 5.409 40.7185 6.067C41.4185 6.711 41.7685 7.663 41.7685 8.923V13.942C41.7685 14.264 41.7895 14.593 41.8315 14.929C41.8735 15.265 41.9365 15.622 42.0205 16H39.8995ZM36.2035 16.21C35.1115 16.21 34.2435 15.944 33.5995 15.412C32.9555 14.866 32.6335 14.131 32.6335 13.207C32.6335 12.255 32.9695 11.506 33.6415 10.96C34.3275 10.4 35.3075 10.022 36.5815 9.826L40.1095 9.259V10.792L36.9175 11.296C36.2035 11.408 35.6645 11.597 35.3005 11.863C34.9505 12.129 34.7755 12.514 34.7755 13.018C34.7755 13.508 34.9365 13.879 35.2585 14.131C35.5945 14.369 36.0775 14.488 36.7075 14.488C37.5475 14.488 38.2405 14.285 38.7865 13.879C39.3465 13.473 39.6265 12.962 39.6265 12.346L39.8995 13.9C39.6475 14.642 39.1995 15.216 38.5555 15.622C37.9115 16.014 37.1275 16.21 36.2035 16.21ZM44.5838 16V5.29H46.7678V16H44.5838ZM44.4788 3.19V0.732999H46.8938V3.19H44.4788ZM49.8338 16V0.879999H52.0178V16H49.8338ZM55.0418 16V13.396H57.6248V16H55.0418ZM55.0418 8.398V5.794H57.6248V8.398H55.0418ZM64.784 16V5.29H66.863V7.957H66.968V16H64.784ZM66.968 10.414L66.695 7.873C66.947 6.963 67.381 6.27 67.997 5.794C68.613 5.318 69.348 5.08 70.202 5.08C70.524 5.08 70.748 5.108 70.874 5.164V7.222C70.804 7.194 70.706 7.18 70.58 7.18C70.454 7.166 70.3 7.159 70.118 7.159C69.068 7.159 68.277 7.432 67.745 7.978C67.227 8.524 66.968 9.336 66.968 10.414ZM79.1309 16C79.0609 15.734 79.0119 15.44 78.9839 15.118C78.9699 14.796 78.9629 14.404 78.9629 13.942H78.8579V8.839C78.8579 8.153 78.6829 7.642 78.3329 7.306C77.9969 6.956 77.4579 6.781 76.7159 6.781C76.0019 6.781 75.4279 6.921 74.9939 7.201C74.5739 7.481 74.3289 7.88 74.2589 8.398H72.1799C72.2779 7.39 72.7329 6.585 73.5449 5.983C74.3569 5.381 75.4419 5.08 76.7999 5.08C78.1999 5.08 79.2499 5.409 79.9499 6.067C80.6499 6.711 80.9999 7.663 80.9999 8.923V13.942C80.9999 14.264 81.0209 14.593 81.0629 14.929C81.1049 15.265 81.1679 15.622 81.2519 16H79.1309ZM75.4349 16.21C74.3429 16.21 73.4749 15.944 72.8309 15.412C72.1869 14.866 71.8649 14.131 71.8649 13.207C71.8649 12.255 72.2009 11.506 72.8729 10.96C73.5589 10.4 74.5389 10.022 75.8129 9.826L79.3409 9.259V10.792L76.1489 11.296C75.4349 11.408 74.8959 11.597 74.5319 11.863C74.1819 12.129 74.0069 12.514 74.0069 13.018C74.0069 13.508 74.1679 13.879 74.4899 14.131C74.8259 14.369 75.3089 14.488 75.9389 14.488C76.7789 14.488 77.4719 14.285 78.0179 13.879C78.5779 13.473 78.8579 12.962 78.8579 12.346L79.1309 13.9C78.8789 14.642 78.4309 15.216 77.7869 15.622C77.1429 16.014 76.3589 16.21 75.4349 16.21ZM83.9588 16V5.29H86.0378V7.81H86.1428V16H83.9588ZM91.1828 16V9.007C91.1828 8.279 91.0148 7.747 90.6788 7.411C90.3428 7.075 89.8598 6.907 89.2298 6.907C88.6418 6.907 88.1098 7.047 87.6338 7.327C87.1718 7.593 86.8078 7.971 86.5418 8.461C86.2758 8.937 86.1428 9.504 86.1428 10.162L85.8698 7.663C86.2198 6.865 86.7448 6.235 87.4448 5.773C88.1588 5.311 88.9568 5.08 89.8388 5.08C90.9028 5.08 91.7498 5.388 92.3798 6.004C93.0238 6.62 93.3458 7.432 93.3458 8.44V16H91.1828ZM98.4068 16V9.007C98.4068 8.279 98.2318 7.747 97.8818 7.411C97.5458 7.075 97.0628 6.907 96.4328 6.907C95.8588 6.907 95.3338 7.047 94.8578 7.327C94.3958 7.593 94.0248 7.971 93.7448 8.461C93.4788 8.937 93.3458 9.504 93.3458 10.162L92.9048 7.663C93.2688 6.865 93.8148 6.235 94.5428 5.773C95.2848 5.311 96.1108 5.08 97.0208 5.08C98.0988 5.08 98.9598 5.395 99.6038 6.025C100.248 6.641 100.57 7.467 100.57 8.503V16H98.4068ZM103.503 16V5.29H105.582V7.81H105.687V16H103.503ZM110.727 16V9.007C110.727 8.279 110.559 7.747 110.223 7.411C109.887 7.075 109.404 6.907 108.774 6.907C108.186 6.907 107.654 7.047 107.178 7.327C106.716 7.593 106.352 7.971 106.086 8.461C105.82 8.937 105.687 9.504 105.687 10.162L105.414 7.663C105.764 6.865 106.289 6.235 106.989 5.773C107.703 5.311 108.501 5.08 109.383 5.08C110.447 5.08 111.294 5.388 111.924 6.004C112.568 6.62 112.89 7.432 112.89 8.44V16H110.727ZM117.951 16V9.007C117.951 8.279 117.776 7.747 117.426 7.411C117.09 7.075 116.607 6.907 115.977 6.907C115.403 6.907 114.878 7.047 114.402 7.327C113.94 7.593 113.569 7.971 113.289 8.461C113.023 8.937 112.89 9.504 112.89 10.162L112.449 7.663C112.813 6.865 113.359 6.235 114.087 5.773C114.829 5.311 115.655 5.08 116.565 5.08C117.643 5.08 118.504 5.395 119.148 6.025C119.792 6.641 120.114 7.467 120.114 8.503V16H117.951ZM129.56 16C129.49 15.734 129.441 15.44 129.413 15.118C129.399 14.796 129.392 14.404 129.392 13.942H129.287V8.839C129.287 8.153 129.112 7.642 128.762 7.306C128.426 6.956 127.887 6.781 127.145 6.781C126.431 6.781 125.857 6.921 125.423 7.201C125.003 7.481 124.758 7.88 124.688 8.398H122.609C122.707 7.39 123.162 6.585 123.974 5.983C124.786 5.381 125.871 5.08 127.229 5.08C128.629 5.08 129.679 5.409 130.379 6.067C131.079 6.711 131.429 7.663 131.429 8.923V13.942C131.429 14.264 131.45 14.593 131.492 14.929C131.534 15.265 131.597 15.622 131.681 16H129.56ZM125.864 16.21C124.772 16.21 123.904 15.944 123.26 15.412C122.616 14.866 122.294 14.131 122.294 13.207C122.294 12.255 122.63 11.506 123.302 10.96C123.988 10.4 124.968 10.022 126.242 9.826L129.77 9.259V10.792L126.578 11.296C125.864 11.408 125.325 11.597 124.961 11.863C124.611 12.129 124.436 12.514 124.436 13.018C124.436 13.508 124.597 13.879 124.919 14.131C125.255 14.369 125.738 14.488 126.368 14.488C127.208 14.488 127.901 14.285 128.447 13.879C129.007 13.473 129.287 12.962 129.287 12.346L129.56 13.9C129.308 14.642 128.86 15.216 128.216 15.622C127.572 16.014 126.788 16.21 125.864 16.21ZM138.799 20.515C137.455 20.515 136.342 20.207 135.46 19.591C134.592 18.989 134.067 18.184 133.885 17.176H135.943C136.083 17.638 136.391 18.002 136.867 18.268C137.357 18.534 138.008 18.667 138.82 18.667C139.87 18.667 140.654 18.408 141.172 17.89C141.69 17.372 141.949 16.602 141.949 15.58V13.27L142.138 13.312C141.928 14.124 141.473 14.768 140.773 15.244C140.073 15.706 139.233 15.937 138.253 15.937C137.315 15.937 136.489 15.713 135.775 15.265C135.061 14.817 134.508 14.194 134.116 13.396C133.724 12.584 133.528 11.639 133.528 10.561C133.528 9.469 133.731 8.51 134.137 7.684C134.543 6.858 135.11 6.221 135.838 5.773C136.58 5.325 137.441 5.101 138.421 5.101C139.429 5.101 140.262 5.346 140.92 5.836C141.592 6.312 142.019 6.991 142.201 7.873L142.033 7.894V5.29H144.112V15.559C144.112 17.099 143.636 18.31 142.684 19.192C141.746 20.074 140.451 20.515 138.799 20.515ZM138.904 14.173C139.842 14.173 140.591 13.844 141.151 13.186C141.725 12.528 142.012 11.625 142.012 10.477C142.012 9.357 141.725 8.475 141.151 7.831C140.591 7.187 139.835 6.865 138.883 6.865C137.931 6.865 137.175 7.194 136.615 7.852C136.055 8.496 135.775 9.392 135.775 10.54C135.775 11.66 136.055 12.549 136.615 13.207C137.189 13.851 137.952 14.173 138.904 14.173ZM154.912 16V13.543L155.122 13.606C154.898 14.404 154.436 15.041 153.736 15.517C153.036 15.979 152.196 16.21 151.216 16.21C150.25 16.21 149.403 15.979 148.675 15.517C147.961 15.055 147.401 14.411 146.995 13.585C146.603 12.759 146.407 11.793 146.407 10.687C146.407 9.567 146.61 8.587 147.016 7.747C147.422 6.907 147.989 6.256 148.717 5.794C149.445 5.332 150.299 5.101 151.279 5.101C152.301 5.101 153.141 5.346 153.799 5.836C154.471 6.312 154.912 6.984 155.122 7.852L154.828 7.894V0.879999H156.991V16H154.912ZM151.762 14.383C152.728 14.383 153.491 14.054 154.051 13.396C154.611 12.724 154.891 11.8 154.891 10.624C154.891 9.476 154.604 8.573 154.03 7.915C153.47 7.243 152.707 6.907 151.741 6.907C150.789 6.907 150.033 7.243 149.473 7.915C148.927 8.573 148.654 9.497 148.654 10.687C148.654 11.849 148.927 12.759 149.473 13.417C150.033 14.061 150.796 14.383 151.762 14.383ZM166.699 16C166.629 15.734 166.58 15.44 166.552 15.118C166.538 14.796 166.531 14.404 166.531 13.942H166.426V8.839C166.426 8.153 166.251 7.642 165.901 7.306C165.565 6.956 165.026 6.781 164.284 6.781C163.57 6.781 162.996 6.921 162.562 7.201C162.142 7.481 161.897 7.88 161.827 8.398H159.748C159.846 7.39 160.301 6.585 161.113 5.983C161.925 5.381 163.01 5.08 164.368 5.08C165.768 5.08 166.818 5.409 167.518 6.067C168.218 6.711 168.568 7.663 168.568 8.923V13.942C168.568 14.264 168.589 14.593 168.631 14.929C168.673 15.265 168.736 15.622 168.82 16H166.699ZM163.003 16.21C161.911 16.21 161.043 15.944 160.399 15.412C159.755 14.866 159.433 14.131 159.433 13.207C159.433 12.255 159.769 11.506 160.441 10.96C161.127 10.4 162.107 10.022 163.381 9.826L166.909 9.259V10.792L163.717 11.296C163.003 11.408 162.464 11.597 162.1 11.863C161.75 12.129 161.575 12.514 161.575 13.018C161.575 13.508 161.736 13.879 162.058 14.131C162.394 14.369 162.877 14.488 163.507 14.488C164.347 14.488 165.04 14.285 165.586 13.879C166.146 13.473 166.426 12.962 166.426 12.346L166.699 13.9C166.447 14.642 165.999 15.216 165.355 15.622C164.711 16.014 163.927 16.21 163.003 16.21ZM171.527 16V0.879999H173.711V16H171.527ZM183.413 16C183.343 15.734 183.294 15.44 183.266 15.118C183.252 14.796 183.245 14.404 183.245 13.942H183.14V8.839C183.14 8.153 182.965 7.642 182.615 7.306C182.279 6.956 181.74 6.781 180.998 6.781C180.284 6.781 179.71 6.921 179.276 7.201C178.856 7.481 178.611 7.88 178.541 8.398H176.462C176.56 7.39 177.015 6.585 177.827 5.983C178.639 5.381 179.724 5.08 181.082 5.08C182.482 5.08 183.532 5.409 184.232 6.067C184.932 6.711 185.282 7.663 185.282 8.923V13.942C185.282 14.264 185.303 14.593 185.345 14.929C185.387 15.265 185.45 15.622 185.534 16H183.413ZM179.717 16.21C178.625 16.21 177.757 15.944 177.113 15.412C176.469 14.866 176.147 14.131 176.147 13.207C176.147 12.255 176.483 11.506 177.155 10.96C177.841 10.4 178.821 10.022 180.095 9.826L183.623 9.259V10.792L180.431 11.296C179.717 11.408 179.178 11.597 178.814 11.863C178.464 12.129 178.289 12.514 178.289 13.018C178.289 13.508 178.45 13.879 178.772 14.131C179.108 14.369 179.591 14.488 180.221 14.488C181.061 14.488 181.754 14.285 182.3 13.879C182.86 13.473 183.14 12.962 183.14 12.346L183.413 13.9C183.161 14.642 182.713 15.216 182.069 15.622C181.425 16.014 180.641 16.21 179.717 16.21ZM192.653 20.515C191.309 20.515 190.196 20.207 189.314 19.591C188.446 18.989 187.921 18.184 187.739 17.176H189.797C189.937 17.638 190.245 18.002 190.721 18.268C191.211 18.534 191.862 18.667 192.674 18.667C193.724 18.667 194.508 18.408 195.026 17.89C195.544 17.372 195.803 16.602 195.803 15.58V13.27L195.992 13.312C195.782 14.124 195.327 14.768 194.627 15.244C193.927 15.706 193.087 15.937 192.107 15.937C191.169 15.937 190.343 15.713 189.629 15.265C188.915 14.817 188.362 14.194 187.97 13.396C187.578 12.584 187.382 11.639 187.382 10.561C187.382 9.469 187.585 8.51 187.991 7.684C188.397 6.858 188.964 6.221 189.692 5.773C190.434 5.325 191.295 5.101 192.275 5.101C193.283 5.101 194.116 5.346 194.774 5.836C195.446 6.312 195.873 6.991 196.055 7.873L195.887 7.894V5.29H197.966V15.559C197.966 17.099 197.49 18.31 196.538 19.192C195.6 20.074 194.305 20.515 192.653 20.515ZM192.758 14.173C193.696 14.173 194.445 13.844 195.005 13.186C195.579 12.528 195.866 11.625 195.866 10.477C195.866 9.357 195.579 8.475 195.005 7.831C194.445 7.187 193.689 6.865 192.737 6.865C191.785 6.865 191.029 7.194 190.469 7.852C189.909 8.496 189.629 9.392 189.629 10.54C189.629 11.66 189.909 12.549 190.469 13.207C191.043 13.851 191.806 14.173 192.758 14.173ZM207.674 16C207.604 15.734 207.555 15.44 207.527 15.118C207.513 14.796 207.506 14.404 207.506 13.942H207.401V8.839C207.401 8.153 207.226 7.642 206.876 7.306C206.54 6.956 206.001 6.781 205.259 6.781C204.545 6.781 203.971 6.921 203.537 7.201C203.117 7.481 202.872 7.88 202.802 8.398H200.723C200.821 7.39 201.276 6.585 202.088 5.983C202.9 5.381 203.985 5.08 205.343 5.08C206.743 5.08 207.793 5.409 208.493 6.067C209.193 6.711 209.543 7.663 209.543 8.923V13.942C209.543 14.264 209.564 14.593 209.606 14.929C209.648 15.265 209.711 15.622 209.795 16H207.674ZM203.978 16.21C202.886 16.21 202.018 15.944 201.374 15.412C200.73 14.866 200.408 14.131 200.408 13.207C200.408 12.255 200.744 11.506 201.416 10.96C202.102 10.4 203.082 10.022 204.356 9.826L207.884 9.259V10.792L204.692 11.296C203.978 11.408 203.439 11.597 203.075 11.863C202.725 12.129 202.55 12.514 202.55 13.018C202.55 13.508 202.711 13.879 203.033 14.131C203.369 14.369 203.852 14.488 204.482 14.488C205.322 14.488 206.015 14.285 206.561 13.879C207.121 13.473 207.401 12.962 207.401 12.346L207.674 13.9C207.422 14.642 206.974 15.216 206.33 15.622C205.686 16.014 204.902 16.21 203.978 16.21ZM217.164 16.21C216.072 16.21 215.12 16.021 214.308 15.643C213.51 15.265 212.887 14.747 212.439 14.089C212.005 13.417 211.788 12.661 211.788 11.821C211.788 11.065 211.949 10.386 212.271 9.784C212.607 9.182 213.062 8.706 213.636 8.356C214.224 7.992 214.875 7.81 215.589 7.81L215.736 8.251C215.022 8.251 214.399 8.104 213.867 7.81C213.335 7.502 212.915 7.082 212.607 6.55C212.313 6.004 212.166 5.395 212.166 4.723C212.166 3.925 212.376 3.225 212.796 2.623C213.216 2.007 213.797 1.531 214.539 1.195C215.295 0.844999 216.177 0.67 217.185 0.67C218.179 0.67 219.047 0.844999 219.789 1.195C220.531 1.531 221.112 2.007 221.532 2.623C221.952 3.225 222.162 3.925 222.162 4.723C222.162 5.395 222.008 5.997 221.7 6.529C221.406 7.061 220.993 7.481 220.461 7.789C219.929 8.097 219.299 8.251 218.571 8.251L218.739 7.81C219.467 7.81 220.118 7.992 220.692 8.356C221.266 8.706 221.714 9.182 222.036 9.784C222.372 10.386 222.54 11.072 222.54 11.842C222.54 12.682 222.316 13.431 221.868 14.089C221.434 14.747 220.811 15.265 219.999 15.643C219.201 16.021 218.256 16.21 217.164 16.21ZM217.164 14.383C218.088 14.383 218.816 14.138 219.348 13.648C219.894 13.144 220.167 12.472 220.167 11.632C220.167 10.806 219.894 10.155 219.348 9.679C218.816 9.203 218.088 8.965 217.164 8.965C216.24 8.965 215.505 9.203 214.959 9.679C214.427 10.155 214.161 10.806 214.161 11.632C214.161 12.472 214.427 13.144 214.959 13.648C215.505 14.138 216.24 14.383 217.164 14.383ZM217.164 7.222C217.976 7.222 218.613 7.012 219.075 6.592C219.551 6.172 219.789 5.605 219.789 4.891C219.789 4.163 219.544 3.582 219.054 3.148C218.578 2.714 217.948 2.497 217.164 2.497C216.366 2.497 215.729 2.714 215.253 3.148C214.777 3.582 214.539 4.163 214.539 4.891C214.539 5.605 214.777 6.172 215.253 6.592C215.729 7.012 216.366 7.222 217.164 7.222ZM230.596 16.21C229.378 16.21 228.307 15.881 227.383 15.223C226.459 14.551 225.738 13.627 225.22 12.451C224.702 11.261 224.443 9.903 224.443 8.377C224.443 6.851 224.702 5.514 225.22 4.366C225.738 3.204 226.459 2.301 227.383 1.657C228.307 0.999 229.378 0.67 230.596 0.67C231.814 0.67 232.878 0.999 233.788 1.657C234.712 2.301 235.433 3.204 235.951 4.366C236.469 5.514 236.728 6.851 236.728 8.377C236.728 9.917 236.469 11.275 235.951 12.451C235.433 13.627 234.712 14.551 233.788 15.223C232.864 15.881 231.8 16.21 230.596 16.21ZM230.596 14.299C231.394 14.299 232.073 14.054 232.633 13.564C233.193 13.06 233.613 12.367 233.893 11.485C234.187 10.589 234.334 9.546 234.334 8.356C234.334 7.18 234.187 6.158 233.893 5.29C233.613 4.422 233.193 3.757 232.633 3.295C232.087 2.819 231.408 2.581 230.596 2.581C229.77 2.581 229.077 2.819 228.517 3.295C227.971 3.771 227.551 4.443 227.257 5.311C226.977 6.165 226.837 7.18 226.837 8.356C226.837 9.546 226.984 10.589 227.278 11.485C227.572 12.381 227.992 13.074 228.538 13.564C229.098 14.054 229.784 14.299 230.596 14.299ZM246.659 16.21C245.021 16.21 243.593 15.923 242.375 15.349C241.157 14.761 240.212 13.942 239.54 12.892C238.868 11.828 238.532 10.575 238.532 9.133C238.532 7.943 238.742 6.837 239.162 5.815C239.596 4.779 240.212 3.876 241.01 3.106C241.808 2.336 242.76 1.741 243.866 1.321C244.986 0.886999 246.232 0.67 247.604 0.67C249.032 0.67 250.285 0.929 251.363 1.447C252.441 1.965 253.281 2.693 253.883 3.631C254.485 4.555 254.786 5.626 254.786 6.844C254.786 7.642 254.66 8.405 254.408 9.133C254.17 9.847 253.834 10.484 253.4 11.044C252.966 11.59 252.469 12.024 251.909 12.346C251.349 12.654 250.761 12.808 250.145 12.808C249.655 12.808 249.242 12.703 248.906 12.493C248.57 12.283 248.346 11.982 248.234 11.59C248.122 11.184 248.15 10.708 248.318 10.162L248.381 10.813C248.031 11.443 247.583 11.933 247.037 12.283C246.505 12.633 245.917 12.808 245.273 12.808C244.349 12.808 243.593 12.479 243.005 11.821C242.431 11.163 242.144 10.295 242.144 9.217C242.144 8.503 242.256 7.831 242.48 7.201C242.718 6.571 243.033 6.018 243.425 5.542C243.831 5.066 244.293 4.695 244.811 4.429C245.329 4.149 245.882 4.009 246.47 4.009C247.338 4.009 248.01 4.247 248.486 4.723C248.976 5.199 249.2 5.822 249.158 6.592L248.927 6.571L249.473 4.492H251.489L250.124 9.784C249.984 10.316 249.956 10.708 250.04 10.96C250.138 11.212 250.341 11.338 250.649 11.338C250.985 11.338 251.3 11.219 251.594 10.981C251.888 10.743 252.154 10.428 252.392 10.036C252.63 9.63 252.819 9.168 252.959 8.65C253.099 8.132 253.169 7.586 253.169 7.012C253.169 6.018 252.938 5.164 252.476 4.45C252.014 3.722 251.356 3.162 250.502 2.77C249.662 2.378 248.682 2.182 247.562 2.182C246.414 2.182 245.378 2.357 244.454 2.707C243.544 3.057 242.767 3.547 242.123 4.177C241.493 4.807 241.01 5.542 240.674 6.382C240.338 7.222 240.17 8.125 240.17 9.091C240.17 10.239 240.422 11.233 240.926 12.073C241.444 12.913 242.179 13.564 243.131 14.026C244.097 14.474 245.252 14.698 246.596 14.698C247.338 14.698 248.08 14.621 248.822 14.467C249.578 14.299 250.292 14.061 250.964 13.753L251.552 15.118C250.922 15.454 250.18 15.72 249.326 15.916C248.472 16.112 247.583 16.21 246.659 16.21ZM246.071 11.128C246.407 11.128 246.722 11.044 247.016 10.876C247.31 10.694 247.569 10.456 247.793 10.162C248.017 9.854 248.192 9.504 248.318 9.112C248.458 8.706 248.528 8.286 248.528 7.852C248.528 7.194 248.36 6.669 248.024 6.277C247.702 5.885 247.261 5.689 246.701 5.689C246.365 5.689 246.043 5.773 245.735 5.941C245.441 6.095 245.175 6.319 244.937 6.613C244.713 6.907 244.538 7.257 244.412 7.663C244.286 8.055 244.223 8.475 244.223 8.923C244.223 9.609 244.391 10.148 244.727 10.54C245.077 10.932 245.525 11.128 246.071 11.128ZM261.477 20.515C260.133 20.515 259.02 20.207 258.138 19.591C257.27 18.989 256.745 18.184 256.563 17.176H258.621C258.761 17.638 259.069 18.002 259.545 18.268C260.035 18.534 260.686 18.667 261.498 18.667C262.548 18.667 263.332 18.408 263.85 17.89C264.368 17.372 264.627 16.602 264.627 15.58V13.27L264.816 13.312C264.606 14.124 264.151 14.768 263.451 15.244C262.751 15.706 261.911 15.937 260.931 15.937C259.993 15.937 259.167 15.713 258.453 15.265C257.739 14.817 257.186 14.194 256.794 13.396C256.402 12.584 256.206 11.639 256.206 10.561C256.206 9.469 256.409 8.51 256.815 7.684C257.221 6.858 257.788 6.221 258.516 5.773C259.258 5.325 260.119 5.101 261.099 5.101C262.107 5.101 262.94 5.346 263.598 5.836C264.27 6.312 264.697 6.991 264.879 7.873L264.711 7.894V5.29H266.79V15.559C266.79 17.099 266.314 18.31 265.362 19.192C264.424 20.074 263.129 20.515 261.477 20.515ZM261.582 14.173C262.52 14.173 263.269 13.844 263.829 13.186C264.403 12.528 264.69 11.625 264.69 10.477C264.69 9.357 264.403 8.475 263.829 7.831C263.269 7.187 262.513 6.865 261.561 6.865C260.609 6.865 259.853 7.194 259.293 7.852C258.733 8.496 258.453 9.392 258.453 10.54C258.453 11.66 258.733 12.549 259.293 13.207C259.867 13.851 260.63 14.173 261.582 14.173ZM269.862 16V5.29H271.941V7.81H272.046V16H269.862ZM277.086 16V9.007C277.086 8.279 276.918 7.747 276.582 7.411C276.246 7.075 275.763 6.907 275.133 6.907C274.545 6.907 274.013 7.047 273.537 7.327C273.075 7.593 272.711 7.971 272.445 8.461C272.179 8.937 272.046 9.504 272.046 10.162L271.773 7.663C272.123 6.865 272.648 6.235 273.348 5.773C274.062 5.311 274.86 5.08 275.742 5.08C276.806 5.08 277.653 5.388 278.283 6.004C278.927 6.62 279.249 7.432 279.249 8.44V16H277.086ZM284.31 16V9.007C284.31 8.279 284.135 7.747 283.785 7.411C283.449 7.075 282.966 6.907 282.336 6.907C281.762 6.907 281.237 7.047 280.761 7.327C280.299 7.593 279.928 7.971 279.648 8.461C279.382 8.937 279.249 9.504 279.249 10.162L278.808 7.663C279.172 6.865 279.718 6.235 280.446 5.773C281.188 5.311 282.014 5.08 282.924 5.08C284.002 5.08 284.863 5.395 285.507 6.025C286.151 6.641 286.473 7.467 286.473 8.503V16H284.31ZM295.919 16C295.849 15.734 295.8 15.44 295.772 15.118C295.758 14.796 295.751 14.404 295.751 13.942H295.646V8.839C295.646 8.153 295.471 7.642 295.121 7.306C294.785 6.956 294.246 6.781 293.504 6.781C292.79 6.781 292.216 6.921 291.782 7.201C291.362 7.481 291.117 7.88 291.047 8.398H288.968C289.066 7.39 289.521 6.585 290.333 5.983C291.145 5.381 292.23 5.08 293.588 5.08C294.988 5.08 296.038 5.409 296.738 6.067C297.438 6.711 297.788 7.663 297.788 8.923V13.942C297.788 14.264 297.809 14.593 297.851 14.929C297.893 15.265 297.956 15.622 298.04 16H295.919ZM292.223 16.21C291.131 16.21 290.263 15.944 289.619 15.412C288.975 14.866 288.653 14.131 288.653 13.207C288.653 12.255 288.989 11.506 289.661 10.96C290.347 10.4 291.327 10.022 292.601 9.826L296.129 9.259V10.792L292.937 11.296C292.223 11.408 291.684 11.597 291.32 11.863C290.97 12.129 290.795 12.514 290.795 13.018C290.795 13.508 290.956 13.879 291.278 14.131C291.614 14.369 292.097 14.488 292.727 14.488C293.567 14.488 294.26 14.285 294.806 13.879C295.366 13.473 295.646 12.962 295.646 12.346L295.919 13.9C295.667 14.642 295.219 15.216 294.575 15.622C293.931 16.014 293.147 16.21 292.223 16.21ZM300.603 16V5.29H302.787V16H300.603ZM300.498 3.19V0.732999H302.913V3.19H300.498ZM305.853 16V0.879999H308.037V16H305.853ZM311.061 16V13.396H313.644V16H311.061ZM320.149 16.21C319.127 16.21 318.217 15.972 317.419 15.496C316.621 15.006 315.991 14.341 315.529 13.501C315.081 12.661 314.857 11.702 314.857 10.624C314.857 9.546 315.081 8.594 315.529 7.768C315.991 6.928 316.621 6.27 317.419 5.794C318.217 5.318 319.12 5.08 320.128 5.08C320.982 5.08 321.745 5.241 322.417 5.563C323.089 5.885 323.642 6.333 324.076 6.907C324.51 7.481 324.79 8.16 324.916 8.944H322.858C322.718 8.314 322.41 7.81 321.934 7.432C321.472 7.054 320.884 6.865 320.17 6.865C319.554 6.865 319.015 7.019 318.553 7.327C318.091 7.635 317.734 8.069 317.482 8.629C317.23 9.189 317.104 9.854 317.104 10.624C317.104 11.38 317.23 12.045 317.482 12.619C317.734 13.193 318.091 13.641 318.553 13.963C319.015 14.271 319.561 14.425 320.191 14.425C320.877 14.425 321.458 14.243 321.934 13.879C322.424 13.501 322.739 12.997 322.879 12.367H324.937C324.797 13.137 324.503 13.809 324.055 14.383C323.621 14.957 323.068 15.405 322.396 15.727C321.724 16.049 320.975 16.21 320.149 16.21ZM331.72 16.21C330.628 16.21 329.669 15.972 328.843 15.496C328.017 15.006 327.373 14.341 326.911 13.501C326.449 12.647 326.218 11.681 326.218 10.603C326.218 9.511 326.449 8.552 326.911 7.726C327.387 6.9 328.031 6.256 328.843 5.794C329.669 5.318 330.628 5.08 331.72 5.08C332.826 5.08 333.792 5.318 334.618 5.794C335.444 6.256 336.081 6.9 336.529 7.726C336.991 8.552 337.222 9.511 337.222 10.603C337.222 11.681 336.991 12.647 336.529 13.501C336.081 14.341 335.444 15.006 334.618 15.496C333.792 15.972 332.826 16.21 331.72 16.21ZM331.72 14.425C332.378 14.425 332.945 14.264 333.421 13.942C333.911 13.62 334.296 13.172 334.576 12.598C334.856 12.024 334.996 11.352 334.996 10.582C334.996 9.434 334.688 8.531 334.072 7.873C333.47 7.201 332.686 6.865 331.72 6.865C330.768 6.865 329.984 7.201 329.368 7.873C328.766 8.545 328.465 9.448 328.465 10.582C328.465 11.352 328.598 12.024 328.864 12.598C329.144 13.172 329.529 13.62 330.019 13.942C330.523 14.264 331.09 14.425 331.72 14.425ZM339.466 16V5.29H341.545V7.81H341.65V16H339.466ZM346.69 16V9.007C346.69 8.279 346.522 7.747 346.186 7.411C345.85 7.075 345.367 6.907 344.737 6.907C344.149 6.907 343.617 7.047 343.141 7.327C342.679 7.593 342.315 7.971 342.049 8.461C341.783 8.937 341.65 9.504 341.65 10.162L341.377 7.663C341.727 6.865 342.252 6.235 342.952 5.773C343.666 5.311 344.464 5.08 345.346 5.08C346.41 5.08 347.257 5.388 347.887 6.004C348.531 6.62 348.853 7.432 348.853 8.44V16H346.69ZM353.914 16V9.007C353.914 8.279 353.739 7.747 353.389 7.411C353.053 7.075 352.57 6.907 351.94 6.907C351.366 6.907 350.841 7.047 350.365 7.327C349.903 7.593 349.532 7.971 349.252 8.461C348.986 8.937 348.853 9.504 348.853 10.162L348.412 7.663C348.776 6.865 349.322 6.235 350.05 5.773C350.792 5.311 351.618 5.08 352.528 5.08C353.606 5.08 354.467 5.395 355.111 6.025C355.755 6.641 356.077 7.467 356.077 8.503V16H353.914Z" fill="black"/>
</svg>
