<svg width="38" height="12" viewBox="0 0 38 12" fill="none" xmlns="http://www.w3.org/2000/svg">
<path d="M0.118608 11V0.818182H1.65483V5.2429H6.73082V0.818182H8.27202V11H6.73082V6.56037H1.65483V11H0.118608ZM13.6065 11.1541C12.8906 11.1541 12.2659 10.9901 11.7322 10.6619C11.1986 10.3338 10.7843 9.87476 10.4893 9.2848C10.1944 8.69484 10.0469 8.00544 10.0469 7.21662C10.0469 6.42448 10.1944 5.73177 10.4893 5.13849C10.7843 4.54522 11.1986 4.08452 11.7322 3.75639C12.2659 3.42827 12.8906 3.2642 13.6065 3.2642C14.3224 3.2642 14.9472 3.42827 15.4808 3.75639C16.0144 4.08452 16.4287 4.54522 16.7237 5.13849C17.0187 5.73177 17.1662 6.42448 17.1662 7.21662C17.1662 8.00544 17.0187 8.69484 16.7237 9.2848C16.4287 9.87476 16.0144 10.3338 15.4808 10.6619C14.9472 10.9901 14.3224 11.1541 13.6065 11.1541ZM13.6115 9.90625C14.0755 9.90625 14.46 9.78362 14.7649 9.53835C15.0698 9.29309 15.2952 8.96662 15.4411 8.55895C15.5902 8.15128 15.6648 7.70218 15.6648 7.21165C15.6648 6.72443 15.5902 6.27699 15.4411 5.86932C15.2952 5.45833 15.0698 5.12855 14.7649 4.87997C14.46 4.63139 14.0755 4.5071 13.6115 4.5071C13.1442 4.5071 12.7564 4.63139 12.4482 4.87997C12.1432 5.12855 11.9162 5.45833 11.767 5.86932C11.6212 6.27699 11.5483 6.72443 11.5483 7.21165C11.5483 7.70218 11.6212 8.15128 11.767 8.55895C11.9162 8.96662 12.1432 9.29309 12.4482 9.53835C12.7564 9.78362 13.1442 9.90625 13.6115 9.90625ZM18.8255 11V3.36364H20.2523V4.60653H20.3468C20.5059 4.18561 20.766 3.85748 21.1273 3.62216C21.4886 3.38352 21.9211 3.2642 22.4249 3.2642C22.9353 3.2642 23.3629 3.38352 23.7076 3.62216C24.0556 3.8608 24.3124 4.18892 24.4782 4.60653H24.5577C24.74 4.19886 25.03 3.87405 25.4277 3.6321C25.8255 3.38684 26.2994 3.2642 26.8496 3.2642C27.5423 3.2642 28.1074 3.4813 28.5449 3.91548C28.9857 4.34967 29.2061 5.00426 29.2061 5.87926V11H27.7196V6.01847C27.7196 5.50142 27.5788 5.12689 27.2971 4.89489C27.0153 4.66288 26.6789 4.54688 26.2878 4.54688C25.8039 4.54688 25.4277 4.69602 25.1593 4.99432C24.8908 5.2893 24.7566 5.6688 24.7566 6.13281V11H23.275V5.92401C23.275 5.50971 23.1458 5.17661 22.8873 4.92472C22.6287 4.67282 22.2923 4.54688 21.878 4.54688C21.5963 4.54688 21.3361 4.62145 21.0975 4.7706C20.8622 4.91643 20.6716 5.12026 20.5257 5.3821C20.3832 5.64394 20.312 5.94721 20.312 6.2919V11H18.8255ZM34.4897 11.1541C33.7373 11.1541 33.0894 10.9934 32.5458 10.6719C32.0056 10.3471 31.5879 9.89134 31.293 9.30469C31.0013 8.71473 30.8555 8.02367 30.8555 7.23153C30.8555 6.44934 31.0013 5.75994 31.293 5.16335C31.5879 4.56676 31.9989 4.10109 32.5259 3.76633C33.0562 3.43158 33.676 3.2642 34.3853 3.2642C34.8162 3.2642 35.2338 3.33546 35.6381 3.47798C36.0425 3.6205 36.4054 3.84422 36.7269 4.14915C37.0484 4.45407 37.302 4.85014 37.4876 5.33736C37.6732 5.82126 37.766 6.40956 37.766 7.10227V7.62926H31.6957V6.51562H36.3093C36.3093 6.12453 36.2298 5.77817 36.0707 5.47656C35.9116 5.17164 35.6879 4.93134 35.3995 4.75568C35.1145 4.58002 34.7797 4.49219 34.3952 4.49219C33.9776 4.49219 33.613 4.59493 33.3015 4.80043C32.9933 5.0026 32.7546 5.26776 32.5856 5.59588C32.4199 5.92069 32.337 6.27367 32.337 6.65483V7.52486C32.337 8.03527 32.4265 8.46946 32.6055 8.82741C32.7878 9.18537 33.0413 9.45881 33.3661 9.64773C33.6909 9.83333 34.0704 9.92614 34.5046 9.92614C34.7863 9.92614 35.0432 9.88636 35.2752 9.80682C35.5072 9.72396 35.7077 9.60133 35.8768 9.43892C36.0458 9.27652 36.1751 9.07599 36.2646 8.83736L37.6715 9.09091C37.5588 9.50521 37.3567 9.86813 37.065 10.1797C36.7766 10.4879 36.4137 10.7282 35.9762 10.9006C35.542 11.0696 35.0465 11.1541 34.4897 11.1541Z" fill="#324465"/>
</svg>
