<svg width="58" height="12" viewBox="0 0 58 12" fill="none" xmlns="http://www.w3.org/2000/svg">
<path d="M6.67188 3.4929C6.61884 3.02225 6.40009 2.65767 6.01562 2.39915C5.63116 2.13731 5.14725 2.00639 4.56392 2.00639C4.14631 2.00639 3.78504 2.07268 3.48011 2.20526C3.17519 2.33452 2.93821 2.51349 2.76918 2.74219C2.60346 2.96757 2.5206 3.22443 2.5206 3.51278C2.5206 3.75473 2.57694 3.96354 2.68963 4.1392C2.80563 4.31487 2.95644 4.46236 3.14205 4.58168C3.33097 4.69768 3.53314 4.79545 3.74858 4.875C3.96402 4.95123 4.17116 5.0142 4.37003 5.06392L5.36435 5.32244C5.68916 5.40199 6.02225 5.50971 6.36364 5.6456C6.70502 5.78149 7.02154 5.96046 7.31321 6.18253C7.60488 6.40459 7.8402 6.67969 8.01918 7.00781C8.20147 7.33594 8.29261 7.72869 8.29261 8.18608C8.29261 8.76278 8.14347 9.27486 7.84517 9.7223C7.55019 10.1697 7.12098 10.5227 6.55753 10.7812C5.9974 11.0398 5.3196 11.169 4.52415 11.169C3.76184 11.169 3.10227 11.0481 2.54545 10.8061C1.98864 10.5642 1.55279 10.2211 1.23793 9.77699C0.923059 9.32955 0.749053 8.79924 0.715909 8.18608H2.2571C2.28693 8.55398 2.40625 8.86056 2.61506 9.10582C2.82718 9.34777 3.0973 9.52841 3.42543 9.64773C3.75687 9.76373 4.11979 9.82173 4.5142 9.82173C4.94839 9.82173 5.33452 9.75379 5.67259 9.6179C6.01397 9.47869 6.28243 9.28646 6.47798 9.04119C6.67353 8.79261 6.77131 8.5026 6.77131 8.17116C6.77131 7.86955 6.68513 7.62263 6.51278 7.4304C6.34375 7.23816 6.1134 7.07907 5.82173 6.95312C5.53338 6.82718 5.20691 6.71615 4.84233 6.62003L3.6392 6.2919C2.82386 6.06984 2.17756 5.74337 1.70028 5.3125C1.22633 4.88163 0.989347 4.31155 0.989347 3.60227C0.989347 3.01562 1.14844 2.50355 1.46662 2.06605C1.7848 1.62855 2.21567 1.28883 2.75923 1.04688C3.30279 0.80161 3.91596 0.678977 4.59872 0.678977C5.28812 0.678977 5.89631 0.799952 6.4233 1.0419C6.9536 1.28385 7.37121 1.61695 7.67614 2.04119C7.98106 2.46212 8.14015 2.94602 8.15341 3.4929H6.67188ZM13.3002 11.1541C12.5479 11.1541 11.8999 10.9934 11.3564 10.6719C10.8161 10.3471 10.3985 9.89134 10.1035 9.30469C9.81185 8.71473 9.66602 8.02367 9.66602 7.23153C9.66602 6.44934 9.81185 5.75994 10.1035 5.16335C10.3985 4.56676 10.8095 4.10109 11.3365 3.76633C11.8668 3.43158 12.4866 3.2642 13.1958 3.2642C13.6267 3.2642 14.0443 3.33546 14.4487 3.47798C14.853 3.6205 15.216 3.84422 15.5375 4.14915C15.859 4.45407 16.1125 4.85014 16.2981 5.33736C16.4837 5.82126 16.5765 6.40956 16.5765 7.10227V7.62926H10.5062V6.51562H15.1199C15.1199 6.12453 15.0403 5.77817 14.8812 5.47656C14.7221 5.17164 14.4984 4.93134 14.21 4.75568C13.925 4.58002 13.5903 4.49219 13.2058 4.49219C12.7882 4.49219 12.4236 4.59493 12.112 4.80043C11.8038 5.0026 11.5652 5.26776 11.3961 5.59588C11.2304 5.92069 11.1475 6.27367 11.1475 6.65483V7.52486C11.1475 8.03527 11.237 8.46946 11.416 8.82741C11.5983 9.18537 11.8519 9.45881 12.1767 9.64773C12.5015 9.83333 12.881 9.92614 13.3152 9.92614C13.5969 9.92614 13.8538 9.88636 14.0858 9.80682C14.3178 9.72396 14.5183 9.60133 14.6873 9.43892C14.8564 9.27652 14.9856 9.07599 15.0751 8.83736L16.4821 9.09091C16.3694 9.50521 16.1672 9.86813 15.8755 10.1797C15.5872 10.4879 15.2243 10.7282 14.7868 10.9006C14.3526 11.0696 13.8571 11.1541 13.3002 11.1541ZM18.2259 11V3.36364H19.6626V4.5767H19.7422C19.8814 4.16572 20.1267 3.84257 20.478 3.60724C20.8326 3.36861 21.2337 3.24929 21.6811 3.24929C21.7739 3.24929 21.8833 3.2526 22.0092 3.25923C22.1385 3.26586 22.2396 3.27415 22.3125 3.28409V4.70597C22.2528 4.68939 22.1468 4.67116 21.9943 4.65128C21.8419 4.62808 21.6894 4.61648 21.5369 4.61648C21.1856 4.61648 20.8724 4.69105 20.5973 4.8402C20.3255 4.98603 20.1101 5.18987 19.951 5.4517C19.7919 5.71023 19.7124 6.00521 19.7124 6.33665V11H18.2259ZM30.364 3.36364L27.5948 11H26.0039L23.2298 3.36364H24.8256L26.7596 9.24006H26.8391L28.7681 3.36364H30.364ZM31.761 11V3.36364H33.2475V11H31.761ZM32.5117 2.18537C32.2532 2.18537 32.0311 2.09919 31.8455 1.92685C31.6632 1.75118 31.5721 1.54238 31.5721 1.30043C31.5721 1.05516 31.6632 0.846354 31.8455 0.674005C32.0311 0.498342 32.2532 0.410511 32.5117 0.410511C32.7702 0.410511 32.9906 0.498342 33.1729 0.674005C33.3585 0.846354 33.4513 1.05516 33.4513 1.30043C33.4513 1.54238 33.3585 1.75118 33.1729 1.92685C32.9906 2.09919 32.7702 2.18537 32.5117 2.18537ZM38.464 11.1541C37.7248 11.1541 37.0885 10.9867 36.5549 10.652C36.0246 10.3139 35.6169 9.84825 35.3319 9.25497C35.0468 8.66169 34.9043 7.98224 34.9043 7.21662C34.9043 6.44105 35.0501 5.75663 35.3418 5.16335C35.6335 4.56676 36.0444 4.10109 36.5748 3.76633C37.1051 3.43158 37.7298 3.2642 38.449 3.2642C39.0291 3.2642 39.5461 3.37192 40.0002 3.58736C40.4542 3.79948 40.8205 4.09777 41.0989 4.48224C41.3806 4.86671 41.548 5.31581 41.601 5.82955H40.1543C40.0748 5.47159 39.8925 5.16335 39.6074 4.90483C39.3257 4.64631 38.9479 4.51705 38.4739 4.51705C38.0596 4.51705 37.6967 4.62642 37.3851 4.84517C37.0769 5.06061 36.8366 5.36884 36.6642 5.76989C36.4919 6.16761 36.4057 6.63826 36.4057 7.18182C36.4057 7.73864 36.4902 8.21922 36.6593 8.62358C36.8283 9.02794 37.0669 9.34115 37.3752 9.56321C37.6867 9.78527 38.053 9.89631 38.4739 9.89631C38.7556 9.89631 39.0108 9.84493 39.2395 9.74219C39.4715 9.63613 39.6654 9.48532 39.8212 9.28977C39.9803 9.09422 40.0913 8.8589 40.1543 8.58381H41.601C41.548 9.07765 41.3873 9.51847 41.1188 9.90625C40.8503 10.294 40.4907 10.599 40.04 10.821C39.5925 11.0431 39.0672 11.1541 38.464 11.1541ZM46.4819 11.1541C45.7295 11.1541 45.0816 10.9934 44.538 10.6719C43.9978 10.3471 43.5801 9.89134 43.2852 9.30469C42.9935 8.71473 42.8477 8.02367 42.8477 7.23153C42.8477 6.44934 42.9935 5.75994 43.2852 5.16335C43.5801 4.56676 43.9911 4.10109 44.5181 3.76633C45.0484 3.43158 45.6682 3.2642 46.3775 3.2642C46.8084 3.2642 47.226 3.33546 47.6303 3.47798C48.0347 3.6205 48.3976 3.84422 48.7191 4.14915C49.0406 4.45407 49.2942 4.85014 49.4798 5.33736C49.6654 5.82126 49.7582 6.40956 49.7582 7.10227V7.62926H43.6879V6.51562H48.3015C48.3015 6.12453 48.2219 5.77817 48.0629 5.47656C47.9038 5.17164 47.68 4.93134 47.3917 4.75568C47.1067 4.58002 46.7719 4.49219 46.3874 4.49219C45.9698 4.49219 45.6052 4.59493 45.2937 4.80043C44.9854 5.0026 44.7468 5.26776 44.5778 5.59588C44.4121 5.92069 44.3292 6.27367 44.3292 6.65483V7.52486C44.3292 8.03527 44.4187 8.46946 44.5977 8.82741C44.7799 9.18537 45.0335 9.45881 45.3583 9.64773C45.6831 9.83333 46.0626 9.92614 46.4968 9.92614C46.7785 9.92614 47.0354 9.88636 47.2674 9.80682C47.4994 9.72396 47.6999 9.60133 47.869 9.43892C48.038 9.27652 48.1673 9.07599 48.2567 8.83736L49.6637 9.09091C49.551 9.50521 49.3488 9.86813 49.0572 10.1797C48.7688 10.4879 48.4059 10.7282 47.9684 10.9006C47.5342 11.0696 47.0387 11.1541 46.4819 11.1541ZM57.1298 5.22798L55.7825 5.46662C55.7261 5.29427 55.6367 5.13021 55.514 4.97443C55.3947 4.81865 55.2323 4.69105 55.0268 4.59162C54.8213 4.49219 54.5645 4.44247 54.2562 4.44247C53.8353 4.44247 53.484 4.53693 53.2022 4.72585C52.9205 4.91146 52.7797 5.15175 52.7797 5.44673C52.7797 5.70194 52.8741 5.90743 53.063 6.06321C53.252 6.21899 53.5569 6.34659 53.9778 6.44602L55.1909 6.72443C55.8935 6.88684 56.4172 7.13707 56.7619 7.47514C57.1066 7.81321 57.2789 8.25237 57.2789 8.79261C57.2789 9.25 57.1464 9.65767 56.8812 10.0156C56.6194 10.3703 56.2531 10.6487 55.7825 10.8509C55.3152 11.053 54.7733 11.1541 54.1568 11.1541C53.3017 11.1541 52.604 10.9718 52.0637 10.6072C51.5235 10.2393 51.1921 9.71733 51.0694 9.04119L52.5062 8.82244C52.5957 9.19697 52.7797 9.48035 53.0581 9.67259C53.3365 9.86151 53.6994 9.95597 54.1468 9.95597C54.6341 9.95597 55.0235 9.85488 55.3152 9.6527C55.6068 9.44721 55.7527 9.19697 55.7527 8.90199C55.7527 8.66335 55.6632 8.46283 55.4842 8.30043C55.3085 8.13802 55.0384 8.01539 54.6738 7.93253L53.3812 7.64915C52.6686 7.48674 52.1416 7.22822 51.8002 6.87358C51.4622 6.51894 51.2931 6.06984 51.2931 5.52628C51.2931 5.07552 51.4191 4.68111 51.671 4.34304C51.9229 4.00497 52.2709 3.74148 52.715 3.55256C53.1592 3.36032 53.6679 3.2642 54.2413 3.2642C55.0666 3.2642 55.7162 3.44318 56.1902 3.80114C56.6641 4.15578 56.9773 4.63139 57.1298 5.22798Z" fill="#324465"/>
</svg>
