<svg width="929" height="116" viewBox="0 0 929 116" fill="none" xmlns="http://www.w3.org/2000/svg">
<path d="M46.9869 21L52.6779 5.88H54.6099L49.1709 21H46.9869ZM58.6839 21L53.2449 5.88H55.2819L60.9939 21H58.6839ZM49.8639 14.973H57.9699V16.821H49.8639V14.973ZM66.6784 21.21C65.4324 21.21 64.5154 20.923 63.9274 20.349C63.3534 19.761 63.0664 18.9 63.0664 17.766V7.833L65.2294 7.014V17.787C65.2294 18.347 65.3764 18.76 65.6704 19.026C65.9644 19.292 66.4404 19.425 67.0984 19.425C67.3504 19.425 67.5744 19.404 67.7704 19.362C67.9664 19.32 68.1344 19.271 68.2744 19.215V20.979C68.1204 21.049 67.9034 21.105 67.6234 21.147C67.3434 21.189 67.0284 21.21 66.6784 21.21ZM60.9244 12.033V10.29H68.2744V12.033H60.9244ZM74.5086 21V5.88H76.7346V21H74.5086ZM75.6006 14.721V12.894H83.9166V14.721H75.6006ZM75.6006 7.707V5.88H84.4836V7.707H75.6006ZM87.0384 21V5.88H89.2224V21H87.0384ZM96.9504 21.21C95.8584 21.21 94.8994 20.972 94.0734 20.496C93.2474 20.006 92.6034 19.341 92.1414 18.501C91.6794 17.647 91.4484 16.681 91.4484 15.603C91.4484 14.511 91.6794 13.552 92.1414 12.726C92.6174 11.9 93.2614 11.256 94.0734 10.794C94.8994 10.318 95.8584 10.08 96.9504 10.08C98.0564 10.08 99.0224 10.318 99.8484 10.794C100.674 11.256 101.311 11.9 101.759 12.726C102.221 13.552 102.452 14.511 102.452 15.603C102.452 16.681 102.221 17.647 101.759 18.501C101.311 19.341 100.674 20.006 99.8484 20.496C99.0224 20.972 98.0564 21.21 96.9504 21.21ZM96.9504 19.425C97.6084 19.425 98.1754 19.264 98.6514 18.942C99.1414 18.62 99.5264 18.172 99.8064 17.598C100.086 17.024 100.226 16.352 100.226 15.582C100.226 14.434 99.9184 13.531 99.3024 12.873C98.7004 12.201 97.9164 11.865 96.9504 11.865C95.9984 11.865 95.2144 12.201 94.5984 12.873C93.9964 13.545 93.6954 14.448 93.6954 15.582C93.6954 16.352 93.8284 17.024 94.0944 17.598C94.3744 18.172 94.7594 18.62 95.2494 18.942C95.7534 19.264 96.3204 19.425 96.9504 19.425ZM106.675 21L103.399 10.29H105.646L107.872 18.9H107.557L110.266 10.29H112.156L114.865 18.9H114.571L116.776 10.29H118.918L115.642 21H113.731L111.022 12.537H111.337L108.586 21H106.675ZM126.112 21.189C124.292 21.189 122.836 20.755 121.744 19.887C120.652 19.019 120.015 17.78 119.833 16.17H121.996C122.122 17.22 122.542 18.018 123.256 18.564C123.97 19.11 124.936 19.383 126.154 19.383C127.176 19.383 127.946 19.194 128.464 18.816C128.996 18.438 129.262 17.899 129.262 17.199C129.262 16.569 129.087 16.072 128.737 15.708C128.387 15.33 127.834 15.022 127.078 14.784L124.453 13.944C123.109 13.51 122.122 12.964 121.492 12.306C120.862 11.648 120.547 10.815 120.547 9.807C120.547 8.953 120.757 8.218 121.177 7.602C121.611 6.986 122.213 6.51 122.983 6.174C123.767 5.824 124.677 5.649 125.713 5.649C127.309 5.649 128.583 6.055 129.535 6.867C130.501 7.665 131.054 8.778 131.194 10.206H129.031C128.863 9.254 128.499 8.561 127.939 8.127C127.379 7.679 126.609 7.455 125.629 7.455C124.705 7.455 123.984 7.637 123.466 8.001C122.948 8.365 122.689 8.876 122.689 9.534C122.689 10.066 122.857 10.514 123.193 10.878C123.543 11.228 124.117 11.529 124.915 11.781L127.666 12.663C128.94 13.069 129.878 13.622 130.48 14.322C131.096 15.022 131.404 15.904 131.404 16.968C131.404 18.312 130.942 19.355 130.018 20.097C129.094 20.825 127.792 21.189 126.112 21.189ZM134.492 25.305L137.075 19.404L137.516 18.711L140.771 10.29H143.039L136.739 25.305H134.492ZM136.97 21L132.392 10.29H134.765L138.65 19.929L136.97 21ZM144.829 21V10.29H146.908V12.81H147.013V21H144.829ZM152.431 21V14.112C152.431 13.37 152.242 12.817 151.864 12.453C151.5 12.089 150.954 11.907 150.226 11.907C149.596 11.907 149.036 12.047 148.546 12.327C148.07 12.607 147.692 12.992 147.412 13.482C147.146 13.972 147.013 14.553 147.013 15.225L146.74 12.663C147.09 11.865 147.629 11.235 148.357 10.773C149.085 10.311 149.932 10.08 150.898 10.08C152.046 10.08 152.949 10.402 153.607 11.046C154.265 11.69 154.594 12.544 154.594 13.608V21H152.431ZM162.017 21.21C160.995 21.21 160.085 20.972 159.287 20.496C158.489 20.006 157.859 19.341 157.397 18.501C156.949 17.661 156.725 16.702 156.725 15.624C156.725 14.546 156.949 13.594 157.397 12.768C157.859 11.928 158.489 11.27 159.287 10.794C160.085 10.318 160.988 10.08 161.996 10.08C162.85 10.08 163.613 10.241 164.285 10.563C164.957 10.885 165.51 11.333 165.944 11.907C166.378 12.481 166.658 13.16 166.784 13.944H164.726C164.586 13.314 164.278 12.81 163.802 12.432C163.34 12.054 162.752 11.865 162.038 11.865C161.422 11.865 160.883 12.019 160.421 12.327C159.959 12.635 159.602 13.069 159.35 13.629C159.098 14.189 158.972 14.854 158.972 15.624C158.972 16.38 159.098 17.045 159.35 17.619C159.602 18.193 159.959 18.641 160.421 18.963C160.883 19.271 161.429 19.425 162.059 19.425C162.745 19.425 163.326 19.243 163.802 18.879C164.292 18.501 164.607 17.997 164.747 17.367H166.805C166.665 18.137 166.371 18.809 165.923 19.383C165.489 19.957 164.936 20.405 164.264 20.727C163.592 21.049 162.843 21.21 162.017 21.21ZM168.249 24.192V23.1C168.739 22.932 169.075 22.673 169.257 22.323C169.453 21.987 169.551 21.497 169.551 20.853L170.412 21H168.228V18.417H170.811V20.37C170.811 21.336 170.608 22.148 170.202 22.806C169.81 23.464 169.159 23.926 168.249 24.192ZM180.175 21L176.899 10.29H179.146L181.372 18.9H181.057L183.766 10.29H185.656L188.365 18.9H188.071L190.276 10.29H192.418L189.142 21H187.231L184.522 12.537H184.837L182.086 21H180.175ZM198.812 21.21C197.734 21.21 196.782 20.972 195.956 20.496C195.144 20.02 194.507 19.362 194.045 18.522C193.583 17.682 193.352 16.716 193.352 15.624C193.352 14.518 193.576 13.552 194.024 12.726C194.486 11.886 195.13 11.235 195.956 10.773C196.782 10.311 197.727 10.08 198.791 10.08C199.827 10.08 200.723 10.304 201.479 10.752C202.249 11.186 202.837 11.795 203.243 12.579C203.663 13.363 203.873 14.294 203.873 15.372C203.873 15.54 203.866 15.701 203.852 15.855C203.852 15.995 203.838 16.142 203.81 16.296H194.822V14.658H202.277L201.731 15.309C201.731 14.161 201.472 13.286 200.954 12.684C200.436 12.082 199.715 11.781 198.791 11.781C197.797 11.781 197.006 12.124 196.418 12.81C195.844 13.482 195.557 14.42 195.557 15.624C195.557 16.842 195.844 17.794 196.418 18.48C197.006 19.166 197.818 19.509 198.854 19.509C199.484 19.509 200.03 19.383 200.492 19.131C200.954 18.865 201.297 18.48 201.521 17.976H203.579C203.229 18.984 202.634 19.775 201.794 20.349C200.968 20.923 199.974 21.21 198.812 21.21ZM215.961 21.189C214.953 21.189 214.113 20.951 213.441 20.475C212.783 19.985 212.349 19.306 212.139 18.438L212.433 18.396V25.305H210.249V10.29H212.328V12.747L212.118 12.684C212.342 11.872 212.818 11.235 213.546 10.773C214.274 10.311 215.128 10.08 216.108 10.08C217.074 10.08 217.907 10.311 218.607 10.773C219.321 11.235 219.867 11.879 220.245 12.705C220.637 13.531 220.833 14.497 220.833 15.603C220.833 16.723 220.63 17.703 220.224 18.543C219.818 19.383 219.251 20.034 218.523 20.496C217.795 20.958 216.941 21.189 215.961 21.189ZM215.499 19.383C216.451 19.383 217.207 19.047 217.767 18.375C218.327 17.703 218.607 16.779 218.607 15.603C218.607 14.441 218.327 13.538 217.767 12.894C217.207 12.236 216.444 11.907 215.478 11.907C214.526 11.907 213.763 12.243 213.189 12.915C212.629 13.573 212.349 14.49 212.349 15.666C212.349 16.814 212.629 17.724 213.189 18.396C213.763 19.054 214.533 19.383 215.499 19.383ZM223.128 21V10.29H225.207V12.957H225.312V21H223.128ZM225.312 15.414L225.039 12.873C225.291 11.963 225.725 11.27 226.341 10.794C226.957 10.318 227.692 10.08 228.546 10.08C228.868 10.08 229.092 10.108 229.218 10.164V12.222C229.148 12.194 229.05 12.18 228.924 12.18C228.798 12.166 228.644 12.159 228.462 12.159C227.412 12.159 226.621 12.432 226.089 12.978C225.571 13.524 225.312 14.336 225.312 15.414ZM235.768 21.21C234.676 21.21 233.717 20.972 232.891 20.496C232.065 20.006 231.421 19.341 230.959 18.501C230.497 17.647 230.266 16.681 230.266 15.603C230.266 14.511 230.497 13.552 230.959 12.726C231.435 11.9 232.079 11.256 232.891 10.794C233.717 10.318 234.676 10.08 235.768 10.08C236.874 10.08 237.84 10.318 238.666 10.794C239.492 11.256 240.129 11.9 240.577 12.726C241.039 13.552 241.27 14.511 241.27 15.603C241.27 16.681 241.039 17.647 240.577 18.501C240.129 19.341 239.492 20.006 238.666 20.496C237.84 20.972 236.874 21.21 235.768 21.21ZM235.768 19.425C236.426 19.425 236.993 19.264 237.469 18.942C237.959 18.62 238.344 18.172 238.624 17.598C238.904 17.024 239.044 16.352 239.044 15.582C239.044 14.434 238.736 13.531 238.12 12.873C237.518 12.201 236.734 11.865 235.768 11.865C234.816 11.865 234.032 12.201 233.416 12.873C232.814 13.545 232.513 14.448 232.513 15.582C232.513 16.352 232.646 17.024 232.912 17.598C233.192 18.172 233.577 18.62 234.067 18.942C234.571 19.264 235.138 19.425 235.768 19.425ZM246.292 21L241.924 10.29H244.255L247.825 20.013H246.796L250.324 10.29H252.571L248.224 21H246.292ZM254.198 21V10.29H256.382V21H254.198ZM254.093 8.19V5.733H256.508V8.19H254.093ZM267.114 21V18.543L267.324 18.606C267.1 19.404 266.638 20.041 265.938 20.517C265.238 20.979 264.398 21.21 263.418 21.21C262.452 21.21 261.605 20.979 260.877 20.517C260.163 20.055 259.603 19.411 259.197 18.585C258.805 17.759 258.609 16.793 258.609 15.687C258.609 14.567 258.812 13.587 259.218 12.747C259.624 11.907 260.191 11.256 260.919 10.794C261.647 10.332 262.501 10.101 263.481 10.101C264.503 10.101 265.343 10.346 266.001 10.836C266.673 11.312 267.114 11.984 267.324 12.852L267.03 12.894V5.88H269.193V21H267.114ZM263.964 19.383C264.93 19.383 265.693 19.054 266.253 18.396C266.813 17.724 267.093 16.8 267.093 15.624C267.093 14.476 266.806 13.573 266.232 12.915C265.672 12.243 264.909 11.907 263.943 11.907C262.991 11.907 262.235 12.243 261.675 12.915C261.129 13.573 260.856 14.497 260.856 15.687C260.856 16.849 261.129 17.759 261.675 18.417C262.235 19.061 262.998 19.383 263.964 19.383ZM276.885 21.21C275.807 21.21 274.855 20.972 274.029 20.496C273.217 20.02 272.58 19.362 272.118 18.522C271.656 17.682 271.425 16.716 271.425 15.624C271.425 14.518 271.649 13.552 272.097 12.726C272.559 11.886 273.203 11.235 274.029 10.773C274.855 10.311 275.8 10.08 276.864 10.08C277.9 10.08 278.796 10.304 279.552 10.752C280.322 11.186 280.91 11.795 281.316 12.579C281.736 13.363 281.946 14.294 281.946 15.372C281.946 15.54 281.939 15.701 281.925 15.855C281.925 15.995 281.911 16.142 281.883 16.296H272.895V14.658H280.35L279.804 15.309C279.804 14.161 279.545 13.286 279.027 12.684C278.509 12.082 277.788 11.781 276.864 11.781C275.87 11.781 275.079 12.124 274.491 12.81C273.917 13.482 273.63 14.42 273.63 15.624C273.63 16.842 273.917 17.794 274.491 18.48C275.079 19.166 275.891 19.509 276.927 19.509C277.557 19.509 278.103 19.383 278.565 19.131C279.027 18.865 279.37 18.48 279.594 17.976H281.652C281.302 18.984 280.707 19.775 279.867 20.349C279.041 20.923 278.047 21.21 276.885 21.21ZM292.88 21.21C291.634 21.21 290.717 20.923 290.129 20.349C289.555 19.761 289.268 18.9 289.268 17.766V7.833L291.431 7.014V17.787C291.431 18.347 291.578 18.76 291.872 19.026C292.166 19.292 292.642 19.425 293.3 19.425C293.552 19.425 293.776 19.404 293.972 19.362C294.168 19.32 294.336 19.271 294.476 19.215V20.979C294.322 21.049 294.105 21.105 293.825 21.147C293.545 21.189 293.23 21.21 292.88 21.21ZM287.126 12.033V10.29H294.476V12.033H287.126ZM303.121 21C303.051 20.734 303.002 20.44 302.974 20.118C302.96 19.796 302.953 19.404 302.953 18.942H302.848V13.839C302.848 13.153 302.673 12.642 302.323 12.306C301.987 11.956 301.448 11.781 300.706 11.781C299.992 11.781 299.418 11.921 298.984 12.201C298.564 12.481 298.319 12.88 298.249 13.398H296.17C296.268 12.39 296.723 11.585 297.535 10.983C298.347 10.381 299.432 10.08 300.79 10.08C302.19 10.08 303.24 10.409 303.94 11.067C304.64 11.711 304.99 12.663 304.99 13.923V18.942C304.99 19.264 305.011 19.593 305.053 19.929C305.095 20.265 305.158 20.622 305.242 21H303.121ZM299.425 21.21C298.333 21.21 297.465 20.944 296.821 20.412C296.177 19.866 295.855 19.131 295.855 18.207C295.855 17.255 296.191 16.506 296.863 15.96C297.549 15.4 298.529 15.022 299.803 14.826L303.331 14.259V15.792L300.139 16.296C299.425 16.408 298.886 16.597 298.522 16.863C298.172 17.129 297.997 17.514 297.997 18.018C297.997 18.508 298.158 18.879 298.48 19.131C298.816 19.369 299.299 19.488 299.929 19.488C300.769 19.488 301.462 19.285 302.008 18.879C302.568 18.473 302.848 17.962 302.848 17.346L303.121 18.9C302.869 19.642 302.421 20.216 301.777 20.622C301.133 21.014 300.349 21.21 299.425 21.21ZM307.805 21V10.29H309.989V21H307.805ZM307.7 8.19V5.733H310.115V8.19H307.7ZM313.055 21V5.88H315.239V21H313.055ZM322.967 21.21C321.875 21.21 320.916 20.972 320.09 20.496C319.264 20.006 318.62 19.341 318.158 18.501C317.696 17.647 317.465 16.681 317.465 15.603C317.465 14.511 317.696 13.552 318.158 12.726C318.634 11.9 319.278 11.256 320.09 10.794C320.916 10.318 321.875 10.08 322.967 10.08C324.073 10.08 325.039 10.318 325.865 10.794C326.691 11.256 327.328 11.9 327.776 12.726C328.238 13.552 328.469 14.511 328.469 15.603C328.469 16.681 328.238 17.647 327.776 18.501C327.328 19.341 326.691 20.006 325.865 20.496C325.039 20.972 324.073 21.21 322.967 21.21ZM322.967 19.425C323.625 19.425 324.192 19.264 324.668 18.942C325.158 18.62 325.543 18.172 325.823 17.598C326.103 17.024 326.243 16.352 326.243 15.582C326.243 14.434 325.935 13.531 325.319 12.873C324.717 12.201 323.933 11.865 322.967 11.865C322.015 11.865 321.231 12.201 320.615 12.873C320.013 13.545 319.712 14.448 319.712 15.582C319.712 16.352 319.845 17.024 320.111 17.598C320.391 18.172 320.776 18.62 321.266 18.942C321.77 19.264 322.337 19.425 322.967 19.425ZM330.712 21V10.29H332.791V12.957H332.896V21H330.712ZM332.896 15.414L332.623 12.873C332.875 11.963 333.309 11.27 333.925 10.794C334.541 10.318 335.276 10.08 336.13 10.08C336.452 10.08 336.676 10.108 336.802 10.164V12.222C336.732 12.194 336.634 12.18 336.508 12.18C336.382 12.166 336.228 12.159 336.046 12.159C334.996 12.159 334.205 12.432 333.673 12.978C333.155 13.524 332.896 14.336 332.896 15.414ZM343.064 21.21C341.986 21.21 341.034 20.972 340.208 20.496C339.396 20.02 338.759 19.362 338.297 18.522C337.835 17.682 337.604 16.716 337.604 15.624C337.604 14.518 337.828 13.552 338.276 12.726C338.738 11.886 339.382 11.235 340.208 10.773C341.034 10.311 341.979 10.08 343.043 10.08C344.079 10.08 344.975 10.304 345.731 10.752C346.501 11.186 347.089 11.795 347.495 12.579C347.915 13.363 348.125 14.294 348.125 15.372C348.125 15.54 348.118 15.701 348.104 15.855C348.104 15.995 348.09 16.142 348.062 16.296H339.074V14.658H346.529L345.983 15.309C345.983 14.161 345.724 13.286 345.206 12.684C344.688 12.082 343.967 11.781 343.043 11.781C342.049 11.781 341.258 12.124 340.67 12.81C340.096 13.482 339.809 14.42 339.809 15.624C339.809 16.842 340.096 17.794 340.67 18.48C341.258 19.166 342.07 19.509 343.106 19.509C343.736 19.509 344.282 19.383 344.744 19.131C345.206 18.865 345.549 18.48 345.773 17.976H347.831C347.481 18.984 346.886 19.775 346.046 20.349C345.22 20.923 344.226 21.21 343.064 21.21ZM358.148 21V18.543L358.358 18.606C358.134 19.404 357.672 20.041 356.972 20.517C356.272 20.979 355.432 21.21 354.452 21.21C353.486 21.21 352.639 20.979 351.911 20.517C351.197 20.055 350.637 19.411 350.231 18.585C349.839 17.759 349.643 16.793 349.643 15.687C349.643 14.567 349.846 13.587 350.252 12.747C350.658 11.907 351.225 11.256 351.953 10.794C352.681 10.332 353.535 10.101 354.515 10.101C355.537 10.101 356.377 10.346 357.035 10.836C357.707 11.312 358.148 11.984 358.358 12.852L358.064 12.894V5.88H360.227V21H358.148ZM354.998 19.383C355.964 19.383 356.727 19.054 357.287 18.396C357.847 17.724 358.127 16.8 358.127 15.624C358.127 14.476 357.84 13.573 357.266 12.915C356.706 12.243 355.943 11.907 354.977 11.907C354.025 11.907 353.269 12.243 352.709 12.915C352.163 13.573 351.89 14.497 351.89 15.687C351.89 16.849 352.163 17.759 352.709 18.417C353.269 19.061 354.032 19.383 354.998 19.383ZM371.306 21.21C369.906 21.21 368.793 20.902 367.967 20.286C367.141 19.67 366.672 18.802 366.56 17.682H368.576C368.674 18.298 368.954 18.774 369.416 19.11C369.892 19.432 370.536 19.593 371.348 19.593C372.062 19.593 372.608 19.467 372.986 19.215C373.364 18.963 373.553 18.606 373.553 18.144C373.553 17.808 373.441 17.528 373.217 17.304C373.007 17.066 372.587 16.87 371.957 16.716L370.235 16.317C369.157 16.051 368.352 15.659 367.82 15.141C367.302 14.609 367.043 13.958 367.043 13.188C367.043 12.222 367.4 11.466 368.114 10.92C368.842 10.36 369.836 10.08 371.096 10.08C372.342 10.08 373.343 10.36 374.099 10.92C374.869 11.48 375.303 12.264 375.401 13.272H373.385C373.301 12.768 373.056 12.383 372.65 12.117C372.258 11.837 371.719 11.697 371.033 11.697C370.389 11.697 369.892 11.816 369.542 12.054C369.206 12.278 369.038 12.593 369.038 12.999C369.038 13.335 369.164 13.615 369.416 13.839C369.682 14.063 370.116 14.252 370.718 14.406L372.482 14.847C373.504 15.099 374.274 15.512 374.792 16.086C375.31 16.646 375.569 17.325 375.569 18.123C375.569 19.089 375.191 19.845 374.435 20.391C373.693 20.937 372.65 21.21 371.306 21.21ZM382.624 21.21C381.532 21.21 380.573 20.972 379.747 20.496C378.921 20.006 378.277 19.341 377.815 18.501C377.353 17.647 377.122 16.681 377.122 15.603C377.122 14.511 377.353 13.552 377.815 12.726C378.291 11.9 378.935 11.256 379.747 10.794C380.573 10.318 381.532 10.08 382.624 10.08C383.73 10.08 384.696 10.318 385.522 10.794C386.348 11.256 386.985 11.9 387.433 12.726C387.895 13.552 388.126 14.511 388.126 15.603C388.126 16.681 387.895 17.647 387.433 18.501C386.985 19.341 386.348 20.006 385.522 20.496C384.696 20.972 383.73 21.21 382.624 21.21ZM382.624 19.425C383.282 19.425 383.849 19.264 384.325 18.942C384.815 18.62 385.2 18.172 385.48 17.598C385.76 17.024 385.9 16.352 385.9 15.582C385.9 14.434 385.592 13.531 384.976 12.873C384.374 12.201 383.59 11.865 382.624 11.865C381.672 11.865 380.888 12.201 380.272 12.873C379.67 13.545 379.369 14.448 379.369 15.582C379.369 16.352 379.502 17.024 379.768 17.598C380.048 18.172 380.433 18.62 380.923 18.942C381.427 19.264 381.994 19.425 382.624 19.425ZM390.369 21V5.88H392.553V21H390.369ZM399.105 21.21C398.391 21.21 397.761 21.063 397.215 20.769C396.669 20.461 396.242 20.041 395.934 19.509C395.64 18.977 395.493 18.368 395.493 17.682V10.29H397.677V17.178C397.677 17.92 397.859 18.473 398.223 18.837C398.587 19.201 399.105 19.383 399.777 19.383C400.379 19.383 400.911 19.243 401.373 18.963C401.849 18.683 402.22 18.298 402.486 17.808C402.766 17.304 402.906 16.723 402.906 16.065L403.179 18.627C402.829 19.411 402.29 20.041 401.562 20.517C400.848 20.979 400.029 21.21 399.105 21.21ZM402.99 21V18.48H402.906V10.29H405.069V21H402.99ZM412.584 21.21C411.338 21.21 410.421 20.923 409.833 20.349C409.259 19.761 408.972 18.9 408.972 17.766V7.833L411.135 7.014V17.787C411.135 18.347 411.282 18.76 411.576 19.026C411.87 19.292 412.346 19.425 413.004 19.425C413.256 19.425 413.48 19.404 413.676 19.362C413.872 19.32 414.04 19.271 414.18 19.215V20.979C414.026 21.049 413.809 21.105 413.529 21.147C413.249 21.189 412.934 21.21 412.584 21.21ZM406.83 12.033V10.29H414.18V12.033H406.83ZM416.209 21V10.29H418.393V21H416.209ZM416.104 8.19V5.733H418.519V8.19H416.104ZM426.08 21.21C424.988 21.21 424.029 20.972 423.203 20.496C422.377 20.006 421.733 19.341 421.271 18.501C420.809 17.647 420.578 16.681 420.578 15.603C420.578 14.511 420.809 13.552 421.271 12.726C421.747 11.9 422.391 11.256 423.203 10.794C424.029 10.318 424.988 10.08 426.08 10.08C427.186 10.08 428.152 10.318 428.978 10.794C429.804 11.256 430.441 11.9 430.889 12.726C431.351 13.552 431.582 14.511 431.582 15.603C431.582 16.681 431.351 17.647 430.889 18.501C430.441 19.341 429.804 20.006 428.978 20.496C428.152 20.972 427.186 21.21 426.08 21.21ZM426.08 19.425C426.738 19.425 427.305 19.264 427.781 18.942C428.271 18.62 428.656 18.172 428.936 17.598C429.216 17.024 429.356 16.352 429.356 15.582C429.356 14.434 429.048 13.531 428.432 12.873C427.83 12.201 427.046 11.865 426.08 11.865C425.128 11.865 424.344 12.201 423.728 12.873C423.126 13.545 422.825 14.448 422.825 15.582C422.825 16.352 422.958 17.024 423.224 17.598C423.504 18.172 423.889 18.62 424.379 18.942C424.883 19.264 425.45 19.425 426.08 19.425ZM433.825 21V10.29H435.904V12.81H436.009V21H433.825ZM441.427 21V14.112C441.427 13.37 441.238 12.817 440.86 12.453C440.496 12.089 439.95 11.907 439.222 11.907C438.592 11.907 438.032 12.047 437.542 12.327C437.066 12.607 436.688 12.992 436.408 13.482C436.142 13.972 436.009 14.553 436.009 15.225L435.736 12.663C436.086 11.865 436.625 11.235 437.353 10.773C438.081 10.311 438.928 10.08 439.894 10.08C441.042 10.08 441.945 10.402 442.603 11.046C443.261 11.69 443.59 12.544 443.59 13.608V21H441.427ZM450.384 21.21C448.984 21.21 447.871 20.902 447.045 20.286C446.219 19.67 445.75 18.802 445.638 17.682H447.654C447.752 18.298 448.032 18.774 448.494 19.11C448.97 19.432 449.614 19.593 450.426 19.593C451.14 19.593 451.686 19.467 452.064 19.215C452.442 18.963 452.631 18.606 452.631 18.144C452.631 17.808 452.519 17.528 452.295 17.304C452.085 17.066 451.665 16.87 451.035 16.716L449.313 16.317C448.235 16.051 447.43 15.659 446.898 15.141C446.38 14.609 446.121 13.958 446.121 13.188C446.121 12.222 446.478 11.466 447.192 10.92C447.92 10.36 448.914 10.08 450.174 10.08C451.42 10.08 452.421 10.36 453.177 10.92C453.947 11.48 454.381 12.264 454.479 13.272H452.463C452.379 12.768 452.134 12.383 451.728 12.117C451.336 11.837 450.797 11.697 450.111 11.697C449.467 11.697 448.97 11.816 448.62 12.054C448.284 12.278 448.116 12.593 448.116 12.999C448.116 13.335 448.242 13.615 448.494 13.839C448.76 14.063 449.194 14.252 449.796 14.406L451.56 14.847C452.582 15.099 453.352 15.512 453.87 16.086C454.388 16.646 454.647 17.325 454.647 18.123C454.647 19.089 454.269 19.845 453.513 20.391C452.771 20.937 451.728 21.21 450.384 21.21ZM465.371 21.21C464.125 21.21 463.208 20.923 462.62 20.349C462.046 19.761 461.759 18.9 461.759 17.766V7.833L463.922 7.014V17.787C463.922 18.347 464.069 18.76 464.363 19.026C464.657 19.292 465.133 19.425 465.791 19.425C466.043 19.425 466.267 19.404 466.463 19.362C466.659 19.32 466.827 19.271 466.967 19.215V20.979C466.813 21.049 466.596 21.105 466.316 21.147C466.036 21.189 465.721 21.21 465.371 21.21ZM459.617 12.033V10.29H466.967V12.033H459.617ZM473.412 21.21C472.32 21.21 471.361 20.972 470.535 20.496C469.709 20.006 469.065 19.341 468.603 18.501C468.141 17.647 467.91 16.681 467.91 15.603C467.91 14.511 468.141 13.552 468.603 12.726C469.079 11.9 469.723 11.256 470.535 10.794C471.361 10.318 472.32 10.08 473.412 10.08C474.518 10.08 475.484 10.318 476.31 10.794C477.136 11.256 477.773 11.9 478.221 12.726C478.683 13.552 478.914 14.511 478.914 15.603C478.914 16.681 478.683 17.647 478.221 18.501C477.773 19.341 477.136 20.006 476.31 20.496C475.484 20.972 474.518 21.21 473.412 21.21ZM473.412 19.425C474.07 19.425 474.637 19.264 475.113 18.942C475.603 18.62 475.988 18.172 476.268 17.598C476.548 17.024 476.688 16.352 476.688 15.582C476.688 14.434 476.38 13.531 475.764 12.873C475.162 12.201 474.378 11.865 473.412 11.865C472.46 11.865 471.676 12.201 471.06 12.873C470.458 13.545 470.157 14.448 470.157 15.582C470.157 16.352 470.29 17.024 470.556 17.598C470.836 18.172 471.221 18.62 471.711 18.942C472.215 19.264 472.782 19.425 473.412 19.425ZM489.962 21.21C488.87 21.21 487.911 20.972 487.085 20.496C486.259 20.006 485.615 19.341 485.153 18.501C484.691 17.647 484.46 16.681 484.46 15.603C484.46 14.511 484.691 13.552 485.153 12.726C485.629 11.9 486.273 11.256 487.085 10.794C487.911 10.318 488.87 10.08 489.962 10.08C491.068 10.08 492.034 10.318 492.86 10.794C493.686 11.256 494.323 11.9 494.771 12.726C495.233 13.552 495.464 14.511 495.464 15.603C495.464 16.681 495.233 17.647 494.771 18.501C494.323 19.341 493.686 20.006 492.86 20.496C492.034 20.972 491.068 21.21 489.962 21.21ZM489.962 19.425C490.62 19.425 491.187 19.264 491.663 18.942C492.153 18.62 492.538 18.172 492.818 17.598C493.098 17.024 493.238 16.352 493.238 15.582C493.238 14.434 492.93 13.531 492.314 12.873C491.712 12.201 490.928 11.865 489.962 11.865C489.01 11.865 488.226 12.201 487.61 12.873C487.008 13.545 486.707 14.448 486.707 15.582C486.707 16.352 486.84 17.024 487.106 17.598C487.386 18.172 487.771 18.62 488.261 18.942C488.765 19.264 489.332 19.425 489.962 19.425ZM503.419 21.189C502.411 21.189 501.571 20.951 500.899 20.475C500.241 19.985 499.807 19.306 499.597 18.438L499.891 18.396V25.305H497.707V10.29H499.786V12.747L499.576 12.684C499.8 11.872 500.276 11.235 501.004 10.773C501.732 10.311 502.586 10.08 503.566 10.08C504.532 10.08 505.365 10.311 506.065 10.773C506.779 11.235 507.325 11.879 507.703 12.705C508.095 13.531 508.291 14.497 508.291 15.603C508.291 16.723 508.088 17.703 507.682 18.543C507.276 19.383 506.709 20.034 505.981 20.496C505.253 20.958 504.399 21.189 503.419 21.189ZM502.957 19.383C503.909 19.383 504.665 19.047 505.225 18.375C505.785 17.703 506.065 16.779 506.065 15.603C506.065 14.441 505.785 13.538 505.225 12.894C504.665 12.236 503.902 11.907 502.936 11.907C501.984 11.907 501.221 12.243 500.647 12.915C500.087 13.573 499.807 14.49 499.807 15.666C499.807 16.814 500.087 17.724 500.647 18.396C501.221 19.054 501.991 19.383 502.957 19.383ZM515 21.21C513.754 21.21 512.837 20.923 512.249 20.349C511.675 19.761 511.388 18.9 511.388 17.766V7.833L513.551 7.014V17.787C513.551 18.347 513.698 18.76 513.992 19.026C514.286 19.292 514.762 19.425 515.42 19.425C515.672 19.425 515.896 19.404 516.092 19.362C516.288 19.32 516.456 19.271 516.596 19.215V20.979C516.442 21.049 516.225 21.105 515.945 21.147C515.665 21.189 515.35 21.21 515 21.21ZM509.246 12.033V10.29H516.596V12.033H509.246ZM518.625 21V10.29H520.809V21H518.625ZM518.52 8.19V5.733H520.935V8.19H518.52ZM523.875 21V10.29H525.954V12.81H526.059V21H523.875ZM531.099 21V14.007C531.099 13.279 530.931 12.747 530.595 12.411C530.259 12.075 529.776 11.907 529.146 11.907C528.558 11.907 528.026 12.047 527.55 12.327C527.088 12.593 526.724 12.971 526.458 13.461C526.192 13.937 526.059 14.504 526.059 15.162L525.786 12.663C526.136 11.865 526.661 11.235 527.361 10.773C528.075 10.311 528.873 10.08 529.755 10.08C530.819 10.08 531.666 10.388 532.296 11.004C532.94 11.62 533.262 12.432 533.262 13.44V21H531.099ZM538.323 21V14.007C538.323 13.279 538.148 12.747 537.798 12.411C537.462 12.075 536.979 11.907 536.349 11.907C535.775 11.907 535.25 12.047 534.774 12.327C534.312 12.593 533.941 12.971 533.661 13.461C533.395 13.937 533.262 14.504 533.262 15.162L532.821 12.663C533.185 11.865 533.731 11.235 534.459 10.773C535.201 10.311 536.027 10.08 536.937 10.08C538.015 10.08 538.876 10.395 539.52 11.025C540.164 11.641 540.486 12.467 540.486 13.503V21H538.323ZM543.378 21V10.29H545.562V21H543.378ZM543.273 8.19V5.733H545.688V8.19H543.273ZM547.859 21V19.467L554.18 11.151L554.81 12.033H548.048V10.29H556.301V11.823L550.001 20.097L549.392 19.257H556.469V21H547.859ZM563.071 21.21C561.993 21.21 561.041 20.972 560.215 20.496C559.403 20.02 558.766 19.362 558.304 18.522C557.842 17.682 557.611 16.716 557.611 15.624C557.611 14.518 557.835 13.552 558.283 12.726C558.745 11.886 559.389 11.235 560.215 10.773C561.041 10.311 561.986 10.08 563.05 10.08C564.086 10.08 564.982 10.304 565.738 10.752C566.508 11.186 567.096 11.795 567.502 12.579C567.922 13.363 568.132 14.294 568.132 15.372C568.132 15.54 568.125 15.701 568.111 15.855C568.111 15.995 568.097 16.142 568.069 16.296H559.081V14.658H566.536L565.99 15.309C565.99 14.161 565.731 13.286 565.213 12.684C564.695 12.082 563.974 11.781 563.05 11.781C562.056 11.781 561.265 12.124 560.677 12.81C560.103 13.482 559.816 14.42 559.816 15.624C559.816 16.842 560.103 17.794 560.677 18.48C561.265 19.166 562.077 19.509 563.113 19.509C563.743 19.509 564.289 19.383 564.751 19.131C565.213 18.865 565.556 18.48 565.78 17.976H567.838C567.488 18.984 566.893 19.775 566.053 20.349C565.227 20.923 564.233 21.21 563.071 21.21ZM578.373 21.21C576.973 21.21 575.86 20.902 575.034 20.286C574.208 19.67 573.739 18.802 573.627 17.682H575.643C575.741 18.298 576.021 18.774 576.483 19.11C576.959 19.432 577.603 19.593 578.415 19.593C579.129 19.593 579.675 19.467 580.053 19.215C580.431 18.963 580.62 18.606 580.62 18.144C580.62 17.808 580.508 17.528 580.284 17.304C580.074 17.066 579.654 16.87 579.024 16.716L577.302 16.317C576.224 16.051 575.419 15.659 574.887 15.141C574.369 14.609 574.11 13.958 574.11 13.188C574.11 12.222 574.467 11.466 575.181 10.92C575.909 10.36 576.903 10.08 578.163 10.08C579.409 10.08 580.41 10.36 581.166 10.92C581.936 11.48 582.37 12.264 582.468 13.272H580.452C580.368 12.768 580.123 12.383 579.717 12.117C579.325 11.837 578.786 11.697 578.1 11.697C577.456 11.697 576.959 11.816 576.609 12.054C576.273 12.278 576.105 12.593 576.105 12.999C576.105 13.335 576.231 13.615 576.483 13.839C576.749 14.063 577.183 14.252 577.785 14.406L579.549 14.847C580.571 15.099 581.341 15.512 581.859 16.086C582.377 16.646 582.636 17.325 582.636 18.123C582.636 19.089 582.258 19.845 581.502 20.391C580.76 20.937 579.717 21.21 578.373 21.21ZM588.249 21.21C587.535 21.21 586.905 21.063 586.359 20.769C585.813 20.461 585.386 20.041 585.078 19.509C584.784 18.977 584.637 18.368 584.637 17.682V10.29H586.821V17.178C586.821 17.92 587.003 18.473 587.367 18.837C587.731 19.201 588.249 19.383 588.921 19.383C589.523 19.383 590.055 19.243 590.517 18.963C590.993 18.683 591.364 18.298 591.63 17.808C591.91 17.304 592.05 16.723 592.05 16.065L592.323 18.627C591.973 19.411 591.434 20.041 590.706 20.517C589.992 20.979 589.173 21.21 588.249 21.21ZM592.134 21V18.48H592.05V10.29H594.213V21H592.134ZM602.985 21.189C601.977 21.189 601.137 20.951 600.465 20.475C599.807 19.985 599.373 19.306 599.163 18.438L599.457 18.396V25.305H597.273V10.29H599.352V12.747L599.142 12.684C599.366 11.872 599.842 11.235 600.57 10.773C601.298 10.311 602.152 10.08 603.132 10.08C604.098 10.08 604.931 10.311 605.631 10.773C606.345 11.235 606.891 11.879 607.269 12.705C607.661 13.531 607.857 14.497 607.857 15.603C607.857 16.723 607.654 17.703 607.248 18.543C606.842 19.383 606.275 20.034 605.547 20.496C604.819 20.958 603.965 21.189 602.985 21.189ZM602.523 19.383C603.475 19.383 604.231 19.047 604.791 18.375C605.351 17.703 605.631 16.779 605.631 15.603C605.631 14.441 605.351 13.538 604.791 12.894C604.231 12.236 603.468 11.907 602.502 11.907C601.55 11.907 600.787 12.243 600.213 12.915C599.653 13.573 599.373 14.49 599.373 15.666C599.373 16.814 599.653 17.724 600.213 18.396C600.787 19.054 601.557 19.383 602.523 19.383ZM615.864 21.189C614.856 21.189 614.016 20.951 613.344 20.475C612.686 19.985 612.252 19.306 612.042 18.438L612.336 18.396V25.305H610.152V10.29H612.231V12.747L612.021 12.684C612.245 11.872 612.721 11.235 613.449 10.773C614.177 10.311 615.031 10.08 616.011 10.08C616.977 10.08 617.81 10.311 618.51 10.773C619.224 11.235 619.77 11.879 620.148 12.705C620.54 13.531 620.736 14.497 620.736 15.603C620.736 16.723 620.533 17.703 620.127 18.543C619.721 19.383 619.154 20.034 618.426 20.496C617.698 20.958 616.844 21.189 615.864 21.189ZM615.402 19.383C616.354 19.383 617.11 19.047 617.67 18.375C618.23 17.703 618.51 16.779 618.51 15.603C618.51 14.441 618.23 13.538 617.67 12.894C617.11 12.236 616.347 11.907 615.381 11.907C614.429 11.907 613.666 12.243 613.092 12.915C612.532 13.573 612.252 14.49 612.252 15.666C612.252 16.814 612.532 17.724 613.092 18.396C613.666 19.054 614.436 19.383 615.402 19.383ZM623.031 21V5.88H625.215V21H623.031ZM629.079 25.305L631.662 19.404L632.103 18.711L635.358 10.29H637.626L631.326 25.305H629.079ZM631.557 21L626.979 10.29H629.352L633.237 19.929L631.557 21ZM648.011 21.21C646.989 21.21 646.079 20.972 645.281 20.496C644.483 20.006 643.853 19.341 643.391 18.501C642.943 17.661 642.719 16.702 642.719 15.624C642.719 14.546 642.943 13.594 643.391 12.768C643.853 11.928 644.483 11.27 645.281 10.794C646.079 10.318 646.982 10.08 647.99 10.08C648.844 10.08 649.607 10.241 650.279 10.563C650.951 10.885 651.504 11.333 651.938 11.907C652.372 12.481 652.652 13.16 652.778 13.944H650.72C650.58 13.314 650.272 12.81 649.796 12.432C649.334 12.054 648.746 11.865 648.032 11.865C647.416 11.865 646.877 12.019 646.415 12.327C645.953 12.635 645.596 13.069 645.344 13.629C645.092 14.189 644.966 14.854 644.966 15.624C644.966 16.38 645.092 17.045 645.344 17.619C645.596 18.193 645.953 18.641 646.415 18.963C646.877 19.271 647.423 19.425 648.053 19.425C648.739 19.425 649.32 19.243 649.796 18.879C650.286 18.501 650.601 17.997 650.741 17.367H652.799C652.659 18.137 652.365 18.809 651.917 19.383C651.483 19.957 650.93 20.405 650.258 20.727C649.586 21.049 648.837 21.21 648.011 21.21ZM654.961 21V5.88H657.145V21H654.961ZM662.563 21V14.112C662.563 13.37 662.374 12.817 661.996 12.453C661.632 12.089 661.086 11.907 660.358 11.907C659.728 11.907 659.168 12.047 658.678 12.327C658.202 12.607 657.824 12.992 657.544 13.482C657.278 13.972 657.145 14.553 657.145 15.225L656.872 12.663C657.222 11.865 657.761 11.235 658.489 10.773C659.217 10.311 660.064 10.08 661.03 10.08C662.178 10.08 663.081 10.402 663.739 11.046C664.397 11.69 664.726 12.544 664.726 13.608V21H662.563ZM674.21 21C674.14 20.734 674.091 20.44 674.063 20.118C674.049 19.796 674.042 19.404 674.042 18.942H673.937V13.839C673.937 13.153 673.762 12.642 673.412 12.306C673.076 11.956 672.537 11.781 671.795 11.781C671.081 11.781 670.507 11.921 670.073 12.201C669.653 12.481 669.408 12.88 669.338 13.398H667.259C667.357 12.39 667.812 11.585 668.624 10.983C669.436 10.381 670.521 10.08 671.879 10.08C673.279 10.08 674.329 10.409 675.029 11.067C675.729 11.711 676.079 12.663 676.079 13.923V18.942C676.079 19.264 676.1 19.593 676.142 19.929C676.184 20.265 676.247 20.622 676.331 21H674.21ZM670.514 21.21C669.422 21.21 668.554 20.944 667.91 20.412C667.266 19.866 666.944 19.131 666.944 18.207C666.944 17.255 667.28 16.506 667.952 15.96C668.638 15.4 669.618 15.022 670.892 14.826L674.42 14.259V15.792L671.228 16.296C670.514 16.408 669.975 16.597 669.611 16.863C669.261 17.129 669.086 17.514 669.086 18.018C669.086 18.508 669.247 18.879 669.569 19.131C669.905 19.369 670.388 19.488 671.018 19.488C671.858 19.488 672.551 19.285 673.097 18.879C673.657 18.473 673.937 17.962 673.937 17.346L674.21 18.9C673.958 19.642 673.51 20.216 672.866 20.622C672.222 21.014 671.438 21.21 670.514 21.21ZM678.894 21V10.29H681.078V21H678.894ZM678.789 8.19V5.733H681.204V8.19H678.789ZM684.144 21V10.29H686.223V12.81H686.328V21H684.144ZM691.746 21V14.112C691.746 13.37 691.557 12.817 691.179 12.453C690.815 12.089 690.269 11.907 689.541 11.907C688.911 11.907 688.351 12.047 687.861 12.327C687.385 12.607 687.007 12.992 686.727 13.482C686.461 13.972 686.328 14.553 686.328 15.225L686.055 12.663C686.405 11.865 686.944 11.235 687.672 10.773C688.4 10.311 689.247 10.08 690.213 10.08C691.361 10.08 692.264 10.402 692.922 11.046C693.58 11.69 693.909 12.544 693.909 13.608V21H691.746ZM705.642 21.21C704.564 21.21 703.612 20.972 702.786 20.496C701.974 20.02 701.337 19.362 700.875 18.522C700.413 17.682 700.182 16.716 700.182 15.624C700.182 14.518 700.406 13.552 700.854 12.726C701.316 11.886 701.96 11.235 702.786 10.773C703.612 10.311 704.557 10.08 705.621 10.08C706.657 10.08 707.553 10.304 708.309 10.752C709.079 11.186 709.667 11.795 710.073 12.579C710.493 13.363 710.703 14.294 710.703 15.372C710.703 15.54 710.696 15.701 710.682 15.855C710.682 15.995 710.668 16.142 710.64 16.296H701.652V14.658H709.107L708.561 15.309C708.561 14.161 708.302 13.286 707.784 12.684C707.266 12.082 706.545 11.781 705.621 11.781C704.627 11.781 703.836 12.124 703.248 12.81C702.674 13.482 702.387 14.42 702.387 15.624C702.387 16.842 702.674 17.794 703.248 18.48C703.836 19.166 704.648 19.509 705.684 19.509C706.314 19.509 706.86 19.383 707.322 19.131C707.784 18.865 708.127 18.48 708.351 17.976H710.409C710.059 18.984 709.464 19.775 708.624 20.349C707.798 20.923 706.804 21.21 705.642 21.21ZM713.654 21V9.051C713.654 7.959 713.962 7.126 714.578 6.552C715.194 5.964 716.118 5.67 717.35 5.67C717.63 5.67 717.861 5.684 718.043 5.712C718.225 5.74 718.386 5.782 718.526 5.838V7.581C718.428 7.553 718.295 7.525 718.127 7.497C717.973 7.469 717.798 7.455 717.602 7.455C716.986 7.455 716.538 7.609 716.258 7.917C715.978 8.211 715.838 8.631 715.838 9.177V21H713.654ZM720.479 21V9.051C720.479 7.959 720.78 7.126 721.382 6.552C721.998 5.964 722.922 5.67 724.154 5.67C724.448 5.67 724.679 5.684 724.847 5.712C725.029 5.74 725.197 5.782 725.351 5.838V7.581C725.253 7.553 725.12 7.525 724.952 7.497C724.784 7.469 724.602 7.455 724.406 7.455C723.804 7.455 723.356 7.609 723.062 7.917C722.782 8.211 722.642 8.631 722.642 9.177V21H720.479ZM727.304 21V10.29H729.467V21H727.304ZM711.596 12.033V10.29H728.186V12.033H711.596ZM727.22 8.274V5.88H729.551V8.274H727.22ZM736.912 21.21C735.89 21.21 734.98 20.972 734.182 20.496C733.384 20.006 732.754 19.341 732.292 18.501C731.844 17.661 731.62 16.702 731.62 15.624C731.62 14.546 731.844 13.594 732.292 12.768C732.754 11.928 733.384 11.27 734.182 10.794C734.98 10.318 735.883 10.08 736.891 10.08C737.745 10.08 738.508 10.241 739.18 10.563C739.852 10.885 740.405 11.333 740.839 11.907C741.273 12.481 741.553 13.16 741.679 13.944H739.621C739.481 13.314 739.173 12.81 738.697 12.432C738.235 12.054 737.647 11.865 736.933 11.865C736.317 11.865 735.778 12.019 735.316 12.327C734.854 12.635 734.497 13.069 734.245 13.629C733.993 14.189 733.867 14.854 733.867 15.624C733.867 16.38 733.993 17.045 734.245 17.619C734.497 18.193 734.854 18.641 735.316 18.963C735.778 19.271 736.324 19.425 736.954 19.425C737.64 19.425 738.221 19.243 738.697 18.879C739.187 18.501 739.502 17.997 739.642 17.367H741.7C741.56 18.137 741.266 18.809 740.818 19.383C740.384 19.957 739.831 20.405 739.159 20.727C738.487 21.049 737.738 21.21 736.912 21.21ZM743.74 21V10.29H745.924V21H743.74ZM743.635 8.19V5.733H746.05V8.19H743.635ZM753.569 21.21C752.491 21.21 751.539 20.972 750.713 20.496C749.901 20.02 749.264 19.362 748.802 18.522C748.34 17.682 748.109 16.716 748.109 15.624C748.109 14.518 748.333 13.552 748.781 12.726C749.243 11.886 749.887 11.235 750.713 10.773C751.539 10.311 752.484 10.08 753.548 10.08C754.584 10.08 755.48 10.304 756.236 10.752C757.006 11.186 757.594 11.795 758 12.579C758.42 13.363 758.63 14.294 758.63 15.372C758.63 15.54 758.623 15.701 758.609 15.855C758.609 15.995 758.595 16.142 758.567 16.296H749.579V14.658H757.034L756.488 15.309C756.488 14.161 756.229 13.286 755.711 12.684C755.193 12.082 754.472 11.781 753.548 11.781C752.554 11.781 751.763 12.124 751.175 12.81C750.601 13.482 750.314 14.42 750.314 15.624C750.314 16.842 750.601 17.794 751.175 18.48C751.763 19.166 752.575 19.509 753.611 19.509C754.241 19.509 754.787 19.383 755.249 19.131C755.711 18.865 756.054 18.48 756.278 17.976H758.336C757.986 18.984 757.391 19.775 756.551 20.349C755.725 20.923 754.731 21.21 753.569 21.21ZM760.864 21V10.29H762.943V12.81H763.048V21H760.864ZM768.466 21V14.112C768.466 13.37 768.277 12.817 767.899 12.453C767.535 12.089 766.989 11.907 766.261 11.907C765.631 11.907 765.071 12.047 764.581 12.327C764.105 12.607 763.727 12.992 763.447 13.482C763.181 13.972 763.048 14.553 763.048 15.225L762.775 12.663C763.125 11.865 763.664 11.235 764.392 10.773C765.12 10.311 765.967 10.08 766.933 10.08C768.081 10.08 768.984 10.402 769.642 11.046C770.3 11.69 770.629 12.544 770.629 13.608V21H768.466ZM778.051 21.21C777.029 21.21 776.119 20.972 775.321 20.496C774.523 20.006 773.893 19.341 773.431 18.501C772.983 17.661 772.759 16.702 772.759 15.624C772.759 14.546 772.983 13.594 773.431 12.768C773.893 11.928 774.523 11.27 775.321 10.794C776.119 10.318 777.022 10.08 778.03 10.08C778.884 10.08 779.647 10.241 780.319 10.563C780.991 10.885 781.544 11.333 781.978 11.907C782.412 12.481 782.692 13.16 782.818 13.944H780.76C780.62 13.314 780.312 12.81 779.836 12.432C779.374 12.054 778.786 11.865 778.072 11.865C777.456 11.865 776.917 12.019 776.455 12.327C775.993 12.635 775.636 13.069 775.384 13.629C775.132 14.189 775.006 14.854 775.006 15.624C775.006 16.38 775.132 17.045 775.384 17.619C775.636 18.193 775.993 18.641 776.455 18.963C776.917 19.271 777.463 19.425 778.093 19.425C778.779 19.425 779.36 19.243 779.836 18.879C780.326 18.501 780.641 17.997 780.781 17.367H782.839C782.699 18.137 782.405 18.809 781.957 19.383C781.523 19.957 780.97 20.405 780.298 20.727C779.626 21.049 778.877 21.21 778.051 21.21ZM785.512 25.305L788.095 19.404L788.536 18.711L791.791 10.29H794.059L787.759 25.305H785.512ZM787.99 21L783.412 10.29H785.785L789.67 19.929L787.99 21ZM793.963 24.192V23.1C794.453 22.932 794.789 22.673 794.971 22.323C795.167 21.987 795.265 21.497 795.265 20.853L796.126 21H793.942V18.417H796.525V20.37C796.525 21.336 796.322 22.148 795.916 22.806C795.524 23.464 794.873 23.926 793.963 24.192ZM803.684 21V10.29H805.868V21H803.684ZM803.579 8.19V5.733H805.994V8.19H803.579ZM808.934 21V10.29H811.013V12.81H811.118V21H808.934ZM816.158 21V14.007C816.158 13.279 815.99 12.747 815.654 12.411C815.318 12.075 814.835 11.907 814.205 11.907C813.617 11.907 813.085 12.047 812.609 12.327C812.147 12.593 811.783 12.971 811.517 13.461C811.251 13.937 811.118 14.504 811.118 15.162L810.845 12.663C811.195 11.865 811.72 11.235 812.42 10.773C813.134 10.311 813.932 10.08 814.814 10.08C815.878 10.08 816.725 10.388 817.355 11.004C817.999 11.62 818.321 12.432 818.321 13.44V21H816.158ZM823.382 21V14.007C823.382 13.279 823.207 12.747 822.857 12.411C822.521 12.075 822.038 11.907 821.408 11.907C820.834 11.907 820.309 12.047 819.833 12.327C819.371 12.593 819 12.971 818.72 13.461C818.454 13.937 818.321 14.504 818.321 15.162L817.88 12.663C818.244 11.865 818.79 11.235 819.518 10.773C820.26 10.311 821.086 10.08 821.996 10.08C823.074 10.08 823.935 10.395 824.579 11.025C825.223 11.641 825.545 12.467 825.545 13.503V21H823.382ZM834.19 21.189C833.182 21.189 832.342 20.951 831.67 20.475C831.012 19.985 830.578 19.306 830.368 18.438L830.662 18.396V25.305H828.478V10.29H830.557V12.747L830.347 12.684C830.571 11.872 831.047 11.235 831.775 10.773C832.503 10.311 833.357 10.08 834.337 10.08C835.303 10.08 836.136 10.311 836.836 10.773C837.55 11.235 838.096 11.879 838.474 12.705C838.866 13.531 839.062 14.497 839.062 15.603C839.062 16.723 838.859 17.703 838.453 18.543C838.047 19.383 837.48 20.034 836.752 20.496C836.024 20.958 835.17 21.189 834.19 21.189ZM833.728 19.383C834.68 19.383 835.436 19.047 835.996 18.375C836.556 17.703 836.836 16.779 836.836 15.603C836.836 14.441 836.556 13.538 835.996 12.894C835.436 12.236 834.673 11.907 833.707 11.907C832.755 11.907 831.992 12.243 831.418 12.915C830.858 13.573 830.578 14.49 830.578 15.666C830.578 16.814 830.858 17.724 831.418 18.396C831.992 19.054 832.762 19.383 833.728 19.383ZM841.357 21V10.29H843.436V12.957H843.541V21H841.357ZM843.541 15.414L843.268 12.873C843.52 11.963 843.954 11.27 844.57 10.794C845.186 10.318 845.921 10.08 846.775 10.08C847.097 10.08 847.321 10.108 847.447 10.164V12.222C847.377 12.194 847.279 12.18 847.153 12.18C847.027 12.166 846.873 12.159 846.691 12.159C845.641 12.159 844.85 12.432 844.318 12.978C843.8 13.524 843.541 14.336 843.541 15.414ZM853.996 21.21C852.904 21.21 851.945 20.972 851.119 20.496C850.293 20.006 849.649 19.341 849.187 18.501C848.725 17.647 848.494 16.681 848.494 15.603C848.494 14.511 848.725 13.552 849.187 12.726C849.663 11.9 850.307 11.256 851.119 10.794C851.945 10.318 852.904 10.08 853.996 10.08C855.102 10.08 856.068 10.318 856.894 10.794C857.72 11.256 858.357 11.9 858.805 12.726C859.267 13.552 859.498 14.511 859.498 15.603C859.498 16.681 859.267 17.647 858.805 18.501C858.357 19.341 857.72 20.006 856.894 20.496C856.068 20.972 855.102 21.21 853.996 21.21ZM853.996 19.425C854.654 19.425 855.221 19.264 855.697 18.942C856.187 18.62 856.572 18.172 856.852 17.598C857.132 17.024 857.272 16.352 857.272 15.582C857.272 14.434 856.964 13.531 856.348 12.873C855.746 12.201 854.962 11.865 853.996 11.865C853.044 11.865 852.26 12.201 851.644 12.873C851.042 13.545 850.741 14.448 850.741 15.582C850.741 16.352 850.874 17.024 851.14 17.598C851.42 18.172 851.805 18.62 852.295 18.942C852.799 19.264 853.366 19.425 853.996 19.425ZM864.52 21L860.152 10.29H862.483L866.053 20.013H865.024L868.552 10.29H870.799L866.452 21H864.52ZM876.923 21.21C875.845 21.21 874.893 20.972 874.067 20.496C873.255 20.02 872.618 19.362 872.156 18.522C871.694 17.682 871.463 16.716 871.463 15.624C871.463 14.518 871.687 13.552 872.135 12.726C872.597 11.886 873.241 11.235 874.067 10.773C874.893 10.311 875.838 10.08 876.902 10.08C877.938 10.08 878.834 10.304 879.59 10.752C880.36 11.186 880.948 11.795 881.354 12.579C881.774 13.363 881.984 14.294 881.984 15.372C881.984 15.54 881.977 15.701 881.963 15.855C881.963 15.995 881.949 16.142 881.921 16.296H872.933V14.658H880.388L879.842 15.309C879.842 14.161 879.583 13.286 879.065 12.684C878.547 12.082 877.826 11.781 876.902 11.781C875.908 11.781 875.117 12.124 874.529 12.81C873.955 13.482 873.668 14.42 873.668 15.624C873.668 16.842 873.955 17.794 874.529 18.48C875.117 19.166 875.929 19.509 876.965 19.509C877.595 19.509 878.141 19.383 878.603 19.131C879.065 18.865 879.408 18.48 879.632 17.976H881.69C881.34 18.984 880.745 19.775 879.905 20.349C879.079 20.923 878.085 21.21 876.923 21.21ZM213.481 47.21C212.459 47.21 211.549 46.972 210.751 46.496C209.953 46.006 209.323 45.341 208.861 44.501C208.413 43.661 208.189 42.702 208.189 41.624C208.189 40.546 208.413 39.594 208.861 38.768C209.323 37.928 209.953 37.27 210.751 36.794C211.549 36.318 212.452 36.08 213.46 36.08C214.314 36.08 215.077 36.241 215.749 36.563C216.421 36.885 216.974 37.333 217.408 37.907C217.842 38.481 218.122 39.16 218.248 39.944H216.19C216.05 39.314 215.742 38.81 215.266 38.432C214.804 38.054 214.216 37.865 213.502 37.865C212.886 37.865 212.347 38.019 211.885 38.327C211.423 38.635 211.066 39.069 210.814 39.629C210.562 40.189 210.436 40.854 210.436 41.624C210.436 42.38 210.562 43.045 210.814 43.619C211.066 44.193 211.423 44.641 211.885 44.963C212.347 45.271 212.893 45.425 213.523 45.425C214.209 45.425 214.79 45.243 215.266 44.879C215.756 44.501 216.071 43.997 216.211 43.367H218.269C218.129 44.137 217.835 44.809 217.387 45.383C216.953 45.957 216.4 46.405 215.728 46.727C215.056 47.049 214.307 47.21 213.481 47.21ZM225.052 47.21C223.96 47.21 223.001 46.972 222.175 46.496C221.349 46.006 220.705 45.341 220.243 44.501C219.781 43.647 219.55 42.681 219.55 41.603C219.55 40.511 219.781 39.552 220.243 38.726C220.719 37.9 221.363 37.256 222.175 36.794C223.001 36.318 223.96 36.08 225.052 36.08C226.158 36.08 227.124 36.318 227.95 36.794C228.776 37.256 229.413 37.9 229.861 38.726C230.323 39.552 230.554 40.511 230.554 41.603C230.554 42.681 230.323 43.647 229.861 44.501C229.413 45.341 228.776 46.006 227.95 46.496C227.124 46.972 226.158 47.21 225.052 47.21ZM225.052 45.425C225.71 45.425 226.277 45.264 226.753 44.942C227.243 44.62 227.628 44.172 227.908 43.598C228.188 43.024 228.328 42.352 228.328 41.582C228.328 40.434 228.02 39.531 227.404 38.873C226.802 38.201 226.018 37.865 225.052 37.865C224.1 37.865 223.316 38.201 222.7 38.873C222.098 39.545 221.797 40.448 221.797 41.582C221.797 42.352 221.93 43.024 222.196 43.598C222.476 44.172 222.861 44.62 223.351 44.942C223.855 45.264 224.422 45.425 225.052 45.425ZM236.682 47.21C235.282 47.21 234.169 46.902 233.343 46.286C232.517 45.67 232.048 44.802 231.936 43.682H233.952C234.05 44.298 234.33 44.774 234.792 45.11C235.268 45.432 235.912 45.593 236.724 45.593C237.438 45.593 237.984 45.467 238.362 45.215C238.74 44.963 238.929 44.606 238.929 44.144C238.929 43.808 238.817 43.528 238.593 43.304C238.383 43.066 237.963 42.87 237.333 42.716L235.611 42.317C234.533 42.051 233.728 41.659 233.196 41.141C232.678 40.609 232.419 39.958 232.419 39.188C232.419 38.222 232.776 37.466 233.49 36.92C234.218 36.36 235.212 36.08 236.472 36.08C237.718 36.08 238.719 36.36 239.475 36.92C240.245 37.48 240.679 38.264 240.777 39.272H238.761C238.677 38.768 238.432 38.383 238.026 38.117C237.634 37.837 237.095 37.697 236.409 37.697C235.765 37.697 235.268 37.816 234.918 38.054C234.582 38.278 234.414 38.593 234.414 38.999C234.414 39.335 234.54 39.615 234.792 39.839C235.058 40.063 235.492 40.252 236.094 40.406L237.858 40.847C238.88 41.099 239.65 41.512 240.168 42.086C240.686 42.646 240.945 43.325 240.945 44.123C240.945 45.089 240.567 45.845 239.811 46.391C239.069 46.937 238.026 47.21 236.682 47.21ZM247.506 47.21C246.26 47.21 245.343 46.923 244.755 46.349C244.181 45.761 243.894 44.9 243.894 43.766V33.833L246.057 33.014V43.787C246.057 44.347 246.204 44.76 246.498 45.026C246.792 45.292 247.268 45.425 247.926 45.425C248.178 45.425 248.402 45.404 248.598 45.362C248.794 45.32 248.962 45.271 249.102 45.215V46.979C248.948 47.049 248.731 47.105 248.451 47.147C248.171 47.189 247.856 47.21 247.506 47.21ZM241.752 38.033V36.29H249.102V38.033H241.752ZM255.315 47V36.29H257.394V38.81H257.499V47H255.315ZM262.539 47V40.007C262.539 39.279 262.371 38.747 262.035 38.411C261.699 38.075 261.216 37.907 260.586 37.907C259.998 37.907 259.466 38.047 258.99 38.327C258.528 38.593 258.164 38.971 257.898 39.461C257.632 39.937 257.499 40.504 257.499 41.162L257.226 38.663C257.576 37.865 258.101 37.235 258.801 36.773C259.515 36.311 260.313 36.08 261.195 36.08C262.259 36.08 263.106 36.388 263.736 37.004C264.38 37.62 264.702 38.432 264.702 39.44V47H262.539ZM269.763 47V40.007C269.763 39.279 269.588 38.747 269.238 38.411C268.902 38.075 268.419 37.907 267.789 37.907C267.215 37.907 266.69 38.047 266.214 38.327C265.752 38.593 265.381 38.971 265.101 39.461C264.835 39.937 264.702 40.504 264.702 41.162L264.261 38.663C264.625 37.865 265.171 37.235 265.899 36.773C266.641 36.311 267.467 36.08 268.377 36.08C269.455 36.08 270.316 36.395 270.96 37.025C271.604 37.641 271.926 38.467 271.926 39.503V47H269.763ZM281.372 47C281.302 46.734 281.253 46.44 281.225 46.118C281.211 45.796 281.204 45.404 281.204 44.942H281.099V39.839C281.099 39.153 280.924 38.642 280.574 38.306C280.238 37.956 279.699 37.781 278.957 37.781C278.243 37.781 277.669 37.921 277.235 38.201C276.815 38.481 276.57 38.88 276.5 39.398H274.421C274.519 38.39 274.974 37.585 275.786 36.983C276.598 36.381 277.683 36.08 279.041 36.08C280.441 36.08 281.491 36.409 282.191 37.067C282.891 37.711 283.241 38.663 283.241 39.923V44.942C283.241 45.264 283.262 45.593 283.304 45.929C283.346 46.265 283.409 46.622 283.493 47H281.372ZM277.676 47.21C276.584 47.21 275.716 46.944 275.072 46.412C274.428 45.866 274.106 45.131 274.106 44.207C274.106 43.255 274.442 42.506 275.114 41.96C275.8 41.4 276.78 41.022 278.054 40.826L281.582 40.259V41.792L278.39 42.296C277.676 42.408 277.137 42.597 276.773 42.863C276.423 43.129 276.248 43.514 276.248 44.018C276.248 44.508 276.409 44.879 276.731 45.131C277.067 45.369 277.55 45.488 278.18 45.488C279.02 45.488 279.713 45.285 280.259 44.879C280.819 44.473 281.099 43.962 281.099 43.346L281.372 44.9C281.12 45.642 280.672 46.216 280.028 46.622C279.384 47.014 278.6 47.21 277.676 47.21ZM286.2 47V36.29H288.279V38.81H288.384V47H286.2ZM293.802 47V40.112C293.802 39.37 293.613 38.817 293.235 38.453C292.871 38.089 292.325 37.907 291.597 37.907C290.967 37.907 290.407 38.047 289.917 38.327C289.441 38.607 289.063 38.992 288.783 39.482C288.517 39.972 288.384 40.553 288.384 41.225L288.111 38.663C288.461 37.865 289 37.235 289.728 36.773C290.456 36.311 291.303 36.08 292.269 36.08C293.417 36.08 294.32 36.402 294.978 37.046C295.636 37.69 295.965 38.544 295.965 39.608V47H293.802ZM305.448 47C305.378 46.734 305.329 46.44 305.301 46.118C305.287 45.796 305.28 45.404 305.28 44.942H305.175V39.839C305.175 39.153 305 38.642 304.65 38.306C304.314 37.956 303.775 37.781 303.033 37.781C302.319 37.781 301.745 37.921 301.311 38.201C300.891 38.481 300.646 38.88 300.576 39.398H298.497C298.595 38.39 299.05 37.585 299.862 36.983C300.674 36.381 301.759 36.08 303.117 36.08C304.517 36.08 305.567 36.409 306.267 37.067C306.967 37.711 307.317 38.663 307.317 39.923V44.942C307.317 45.264 307.338 45.593 307.38 45.929C307.422 46.265 307.485 46.622 307.569 47H305.448ZM301.752 47.21C300.66 47.21 299.792 46.944 299.148 46.412C298.504 45.866 298.182 45.131 298.182 44.207C298.182 43.255 298.518 42.506 299.19 41.96C299.876 41.4 300.856 41.022 302.13 40.826L305.658 40.259V41.792L302.466 42.296C301.752 42.408 301.213 42.597 300.849 42.863C300.499 43.129 300.324 43.514 300.324 44.018C300.324 44.508 300.485 44.879 300.807 45.131C301.143 45.369 301.626 45.488 302.256 45.488C303.096 45.488 303.789 45.285 304.335 44.879C304.895 44.473 305.175 43.962 305.175 43.346L305.448 44.9C305.196 45.642 304.748 46.216 304.104 46.622C303.46 47.014 302.676 47.21 301.752 47.21ZM314.688 51.515C313.344 51.515 312.231 51.207 311.349 50.591C310.481 49.989 309.956 49.184 309.774 48.176H311.832C311.972 48.638 312.28 49.002 312.756 49.268C313.246 49.534 313.897 49.667 314.709 49.667C315.759 49.667 316.543 49.408 317.061 48.89C317.579 48.372 317.838 47.602 317.838 46.58V44.27L318.027 44.312C317.817 45.124 317.362 45.768 316.662 46.244C315.962 46.706 315.122 46.937 314.142 46.937C313.204 46.937 312.378 46.713 311.664 46.265C310.95 45.817 310.397 45.194 310.005 44.396C309.613 43.584 309.417 42.639 309.417 41.561C309.417 40.469 309.62 39.51 310.026 38.684C310.432 37.858 310.999 37.221 311.727 36.773C312.469 36.325 313.33 36.101 314.31 36.101C315.318 36.101 316.151 36.346 316.809 36.836C317.481 37.312 317.908 37.991 318.09 38.873L317.922 38.894V36.29H320.001V46.559C320.001 48.099 319.525 49.31 318.573 50.192C317.635 51.074 316.34 51.515 314.688 51.515ZM314.793 45.173C315.731 45.173 316.48 44.844 317.04 44.186C317.614 43.528 317.901 42.625 317.901 41.477C317.901 40.357 317.614 39.475 317.04 38.831C316.48 38.187 315.724 37.865 314.772 37.865C313.82 37.865 313.064 38.194 312.504 38.852C311.944 39.496 311.664 40.392 311.664 41.54C311.664 42.66 311.944 43.549 312.504 44.207C313.078 44.851 313.841 45.173 314.793 45.173ZM327.693 47.21C326.615 47.21 325.663 46.972 324.837 46.496C324.025 46.02 323.388 45.362 322.926 44.522C322.464 43.682 322.233 42.716 322.233 41.624C322.233 40.518 322.457 39.552 322.905 38.726C323.367 37.886 324.011 37.235 324.837 36.773C325.663 36.311 326.608 36.08 327.672 36.08C328.708 36.08 329.604 36.304 330.36 36.752C331.13 37.186 331.718 37.795 332.124 38.579C332.544 39.363 332.754 40.294 332.754 41.372C332.754 41.54 332.747 41.701 332.733 41.855C332.733 41.995 332.719 42.142 332.691 42.296H323.703V40.658H331.158L330.612 41.309C330.612 40.161 330.353 39.286 329.835 38.684C329.317 38.082 328.596 37.781 327.672 37.781C326.678 37.781 325.887 38.124 325.299 38.81C324.725 39.482 324.438 40.42 324.438 41.624C324.438 42.842 324.725 43.794 325.299 44.48C325.887 45.166 326.699 45.509 327.735 45.509C328.365 45.509 328.911 45.383 329.373 45.131C329.835 44.865 330.178 44.48 330.402 43.976H332.46C332.11 44.984 331.515 45.775 330.675 46.349C329.849 46.923 328.855 47.21 327.693 47.21ZM334.988 47V36.29H337.067V38.81H337.172V47H334.988ZM342.212 47V40.007C342.212 39.279 342.044 38.747 341.708 38.411C341.372 38.075 340.889 37.907 340.259 37.907C339.671 37.907 339.139 38.047 338.663 38.327C338.201 38.593 337.837 38.971 337.571 39.461C337.305 39.937 337.172 40.504 337.172 41.162L336.899 38.663C337.249 37.865 337.774 37.235 338.474 36.773C339.188 36.311 339.986 36.08 340.868 36.08C341.932 36.08 342.779 36.388 343.409 37.004C344.053 37.62 344.375 38.432 344.375 39.44V47H342.212ZM349.436 47V40.007C349.436 39.279 349.261 38.747 348.911 38.411C348.575 38.075 348.092 37.907 347.462 37.907C346.888 37.907 346.363 38.047 345.887 38.327C345.425 38.593 345.054 38.971 344.774 39.461C344.508 39.937 344.375 40.504 344.375 41.162L343.934 38.663C344.298 37.865 344.844 37.235 345.572 36.773C346.314 36.311 347.14 36.08 348.05 36.08C349.128 36.08 349.989 36.395 350.633 37.025C351.277 37.641 351.599 38.467 351.599 39.503V47H349.436ZM359.152 47.21C358.074 47.21 357.122 46.972 356.296 46.496C355.484 46.02 354.847 45.362 354.385 44.522C353.923 43.682 353.692 42.716 353.692 41.624C353.692 40.518 353.916 39.552 354.364 38.726C354.826 37.886 355.47 37.235 356.296 36.773C357.122 36.311 358.067 36.08 359.131 36.08C360.167 36.08 361.063 36.304 361.819 36.752C362.589 37.186 363.177 37.795 363.583 38.579C364.003 39.363 364.213 40.294 364.213 41.372C364.213 41.54 364.206 41.701 364.192 41.855C364.192 41.995 364.178 42.142 364.15 42.296H355.162V40.658H362.617L362.071 41.309C362.071 40.161 361.812 39.286 361.294 38.684C360.776 38.082 360.055 37.781 359.131 37.781C358.137 37.781 357.346 38.124 356.758 38.81C356.184 39.482 355.897 40.42 355.897 41.624C355.897 42.842 356.184 43.794 356.758 44.48C357.346 45.166 358.158 45.509 359.194 45.509C359.824 45.509 360.37 45.383 360.832 45.131C361.294 44.865 361.637 44.48 361.861 43.976H363.919C363.569 44.984 362.974 45.775 362.134 46.349C361.308 46.923 360.314 47.21 359.152 47.21ZM366.447 47V36.29H368.526V38.81H368.631V47H366.447ZM374.049 47V40.112C374.049 39.37 373.86 38.817 373.482 38.453C373.118 38.089 372.572 37.907 371.844 37.907C371.214 37.907 370.654 38.047 370.164 38.327C369.688 38.607 369.31 38.992 369.03 39.482C368.764 39.972 368.631 40.553 368.631 41.225L368.358 38.663C368.708 37.865 369.247 37.235 369.975 36.773C370.703 36.311 371.55 36.08 372.516 36.08C373.664 36.08 374.567 36.402 375.225 37.046C375.883 37.69 376.212 38.544 376.212 39.608V47H374.049ZM383.391 47.21C382.145 47.21 381.228 46.923 380.64 46.349C380.066 45.761 379.779 44.9 379.779 43.766V33.833L381.942 33.014V43.787C381.942 44.347 382.089 44.76 382.383 45.026C382.677 45.292 383.153 45.425 383.811 45.425C384.063 45.425 384.287 45.404 384.483 45.362C384.679 45.32 384.847 45.271 384.987 45.215V46.979C384.833 47.049 384.616 47.105 384.336 47.147C384.056 47.189 383.741 47.21 383.391 47.21ZM377.637 38.033V36.29H384.987V38.033H377.637ZM386.749 50.192V49.1C387.239 48.932 387.575 48.673 387.757 48.323C387.953 47.987 388.051 47.497 388.051 46.853L388.912 47H386.728V44.417H389.311V46.37C389.311 47.336 389.108 48.148 388.702 48.806C388.31 49.464 387.659 49.926 386.749 50.192ZM403.107 47C403.037 46.734 402.988 46.44 402.96 46.118C402.946 45.796 402.939 45.404 402.939 44.942H402.834V39.839C402.834 39.153 402.659 38.642 402.309 38.306C401.973 37.956 401.434 37.781 400.692 37.781C399.978 37.781 399.404 37.921 398.97 38.201C398.55 38.481 398.305 38.88 398.235 39.398H396.156C396.254 38.39 396.709 37.585 397.521 36.983C398.333 36.381 399.418 36.08 400.776 36.08C402.176 36.08 403.226 36.409 403.926 37.067C404.626 37.711 404.976 38.663 404.976 39.923V44.942C404.976 45.264 404.997 45.593 405.039 45.929C405.081 46.265 405.144 46.622 405.228 47H403.107ZM399.411 47.21C398.319 47.21 397.451 46.944 396.807 46.412C396.163 45.866 395.841 45.131 395.841 44.207C395.841 43.255 396.177 42.506 396.849 41.96C397.535 41.4 398.515 41.022 399.789 40.826L403.317 40.259V41.792L400.125 42.296C399.411 42.408 398.872 42.597 398.508 42.863C398.158 43.129 397.983 43.514 397.983 44.018C397.983 44.508 398.144 44.879 398.466 45.131C398.802 45.369 399.285 45.488 399.915 45.488C400.755 45.488 401.448 45.285 401.994 44.879C402.554 44.473 402.834 43.962 402.834 43.346L403.107 44.9C402.855 45.642 402.407 46.216 401.763 46.622C401.119 47.014 400.335 47.21 399.411 47.21ZM407.934 47V36.29H410.013V38.81H410.118V47H407.934ZM415.536 47V40.112C415.536 39.37 415.347 38.817 414.969 38.453C414.605 38.089 414.059 37.907 413.331 37.907C412.701 37.907 412.141 38.047 411.651 38.327C411.175 38.607 410.797 38.992 410.517 39.482C410.251 39.972 410.118 40.553 410.118 41.225L409.845 38.663C410.195 37.865 410.734 37.235 411.462 36.773C412.19 36.311 413.037 36.08 414.003 36.08C415.151 36.08 416.054 36.402 416.712 37.046C417.37 37.69 417.699 38.544 417.699 39.608V47H415.536ZM428.398 47V44.543L428.608 44.606C428.384 45.404 427.922 46.041 427.222 46.517C426.522 46.979 425.682 47.21 424.702 47.21C423.736 47.21 422.889 46.979 422.161 46.517C421.447 46.055 420.887 45.411 420.481 44.585C420.089 43.759 419.893 42.793 419.893 41.687C419.893 40.567 420.096 39.587 420.502 38.747C420.908 37.907 421.475 37.256 422.203 36.794C422.931 36.332 423.785 36.101 424.765 36.101C425.787 36.101 426.627 36.346 427.285 36.836C427.957 37.312 428.398 37.984 428.608 38.852L428.314 38.894V31.88H430.477V47H428.398ZM425.248 45.383C426.214 45.383 426.977 45.054 427.537 44.396C428.097 43.724 428.377 42.8 428.377 41.624C428.377 40.476 428.09 39.573 427.516 38.915C426.956 38.243 426.193 37.907 425.227 37.907C424.275 37.907 423.519 38.243 422.959 38.915C422.413 39.573 422.14 40.497 422.14 41.687C422.14 42.849 422.413 43.759 422.959 44.417C423.519 45.061 424.282 45.383 425.248 45.383ZM442.311 47.21C441.233 47.21 440.281 46.972 439.455 46.496C438.643 46.02 438.006 45.362 437.544 44.522C437.082 43.682 436.851 42.716 436.851 41.624C436.851 40.518 437.075 39.552 437.523 38.726C437.985 37.886 438.629 37.235 439.455 36.773C440.281 36.311 441.226 36.08 442.29 36.08C443.326 36.08 444.222 36.304 444.978 36.752C445.748 37.186 446.336 37.795 446.742 38.579C447.162 39.363 447.372 40.294 447.372 41.372C447.372 41.54 447.365 41.701 447.351 41.855C447.351 41.995 447.337 42.142 447.309 42.296H438.321V40.658H445.776L445.23 41.309C445.23 40.161 444.971 39.286 444.453 38.684C443.935 38.082 443.214 37.781 442.29 37.781C441.296 37.781 440.505 38.124 439.917 38.81C439.343 39.482 439.056 40.42 439.056 41.624C439.056 42.842 439.343 43.794 439.917 44.48C440.505 45.166 441.317 45.509 442.353 45.509C442.983 45.509 443.529 45.383 443.991 45.131C444.453 44.865 444.796 44.48 445.02 43.976H447.078C446.728 44.984 446.133 45.775 445.293 46.349C444.467 46.923 443.473 47.21 442.311 47.21ZM449.606 47V36.29H451.685V38.81H451.79V47H449.606ZM457.208 47V40.112C457.208 39.37 457.019 38.817 456.641 38.453C456.277 38.089 455.731 37.907 455.003 37.907C454.373 37.907 453.813 38.047 453.323 38.327C452.847 38.607 452.469 38.992 452.189 39.482C451.923 39.972 451.79 40.553 451.79 41.225L451.517 38.663C451.867 37.865 452.406 37.235 453.134 36.773C453.862 36.311 454.709 36.08 455.675 36.08C456.823 36.08 457.726 36.402 458.384 37.046C459.042 37.69 459.371 38.544 459.371 39.608V47H457.208ZM468.855 47C468.785 46.734 468.736 46.44 468.708 46.118C468.694 45.796 468.687 45.404 468.687 44.942H468.582V39.839C468.582 39.153 468.407 38.642 468.057 38.306C467.721 37.956 467.182 37.781 466.44 37.781C465.726 37.781 465.152 37.921 464.718 38.201C464.298 38.481 464.053 38.88 463.983 39.398H461.904C462.002 38.39 462.457 37.585 463.269 36.983C464.081 36.381 465.166 36.08 466.524 36.08C467.924 36.08 468.974 36.409 469.674 37.067C470.374 37.711 470.724 38.663 470.724 39.923V44.942C470.724 45.264 470.745 45.593 470.787 45.929C470.829 46.265 470.892 46.622 470.976 47H468.855ZM465.159 47.21C464.067 47.21 463.199 46.944 462.555 46.412C461.911 45.866 461.589 45.131 461.589 44.207C461.589 43.255 461.925 42.506 462.597 41.96C463.283 41.4 464.263 41.022 465.537 40.826L469.065 40.259V41.792L465.873 42.296C465.159 42.408 464.62 42.597 464.256 42.863C463.906 43.129 463.731 43.514 463.731 44.018C463.731 44.508 463.892 44.879 464.214 45.131C464.55 45.369 465.033 45.488 465.663 45.488C466.503 45.488 467.196 45.285 467.742 44.879C468.302 44.473 468.582 43.962 468.582 43.346L468.855 44.9C468.603 45.642 468.155 46.216 467.511 46.622C466.867 47.014 466.083 47.21 465.159 47.21ZM479.394 47.189C478.386 47.189 477.546 46.951 476.874 46.475C476.202 45.985 475.761 45.306 475.551 44.438L475.761 44.396V47H473.682V31.88H475.866V38.747L475.635 38.684C475.873 37.872 476.335 37.235 477.021 36.773C477.721 36.311 478.561 36.08 479.541 36.08C480.507 36.08 481.34 36.311 482.04 36.773C482.754 37.235 483.3 37.879 483.678 38.705C484.07 39.531 484.266 40.497 484.266 41.603C484.266 42.723 484.063 43.703 483.657 44.543C483.251 45.383 482.684 46.034 481.956 46.496C481.228 46.958 480.374 47.189 479.394 47.189ZM478.932 45.383C479.884 45.383 480.64 45.047 481.2 44.375C481.76 43.703 482.04 42.779 482.04 41.603C482.04 40.441 481.76 39.538 481.2 38.894C480.64 38.236 479.877 37.907 478.911 37.907C477.959 37.907 477.196 38.243 476.622 38.915C476.062 39.573 475.782 40.49 475.782 41.666C475.782 42.814 476.062 43.724 476.622 44.396C477.196 45.054 477.966 45.383 478.932 45.383ZM486.561 47V31.88H488.745V47H486.561ZM496.431 47.21C495.353 47.21 494.401 46.972 493.575 46.496C492.763 46.02 492.126 45.362 491.664 44.522C491.202 43.682 490.971 42.716 490.971 41.624C490.971 40.518 491.195 39.552 491.643 38.726C492.105 37.886 492.749 37.235 493.575 36.773C494.401 36.311 495.346 36.08 496.41 36.08C497.446 36.08 498.342 36.304 499.098 36.752C499.868 37.186 500.456 37.795 500.862 38.579C501.282 39.363 501.492 40.294 501.492 41.372C501.492 41.54 501.485 41.701 501.471 41.855C501.471 41.995 501.457 42.142 501.429 42.296H492.441V40.658H499.896L499.35 41.309C499.35 40.161 499.091 39.286 498.573 38.684C498.055 38.082 497.334 37.781 496.41 37.781C495.416 37.781 494.625 38.124 494.037 38.81C493.463 39.482 493.176 40.42 493.176 41.624C493.176 42.842 493.463 43.794 494.037 44.48C494.625 45.166 495.437 45.509 496.473 45.509C497.103 45.509 497.649 45.383 498.111 45.131C498.573 44.865 498.916 44.48 499.14 43.976H501.198C500.848 44.984 500.253 45.775 499.413 46.349C498.587 46.923 497.593 47.21 496.431 47.21ZM515.597 47V44.543L515.807 44.606C515.583 45.404 515.121 46.041 514.421 46.517C513.721 46.979 512.881 47.21 511.901 47.21C510.935 47.21 510.088 46.979 509.36 46.517C508.646 46.055 508.086 45.411 507.68 44.585C507.288 43.759 507.092 42.793 507.092 41.687C507.092 40.567 507.295 39.587 507.701 38.747C508.107 37.907 508.674 37.256 509.402 36.794C510.13 36.332 510.984 36.101 511.964 36.101C512.986 36.101 513.826 36.346 514.484 36.836C515.156 37.312 515.597 37.984 515.807 38.852L515.513 38.894V31.88H517.676V47H515.597ZM512.447 45.383C513.413 45.383 514.176 45.054 514.736 44.396C515.296 43.724 515.576 42.8 515.576 41.624C515.576 40.476 515.289 39.573 514.715 38.915C514.155 38.243 513.392 37.907 512.426 37.907C511.474 37.907 510.718 38.243 510.158 38.915C509.612 39.573 509.339 40.497 509.339 41.687C509.339 42.849 509.612 43.759 510.158 44.417C510.718 45.061 511.481 45.383 512.447 45.383ZM527.384 47C527.314 46.734 527.265 46.44 527.237 46.118C527.223 45.796 527.216 45.404 527.216 44.942H527.111V39.839C527.111 39.153 526.936 38.642 526.586 38.306C526.25 37.956 525.711 37.781 524.969 37.781C524.255 37.781 523.681 37.921 523.247 38.201C522.827 38.481 522.582 38.88 522.512 39.398H520.433C520.531 38.39 520.986 37.585 521.798 36.983C522.61 36.381 523.695 36.08 525.053 36.08C526.453 36.08 527.503 36.409 528.203 37.067C528.903 37.711 529.253 38.663 529.253 39.923V44.942C529.253 45.264 529.274 45.593 529.316 45.929C529.358 46.265 529.421 46.622 529.505 47H527.384ZM523.688 47.21C522.596 47.21 521.728 46.944 521.084 46.412C520.44 45.866 520.118 45.131 520.118 44.207C520.118 43.255 520.454 42.506 521.126 41.96C521.812 41.4 522.792 41.022 524.066 40.826L527.594 40.259V41.792L524.402 42.296C523.688 42.408 523.149 42.597 522.785 42.863C522.435 43.129 522.26 43.514 522.26 44.018C522.26 44.508 522.421 44.879 522.743 45.131C523.079 45.369 523.562 45.488 524.192 45.488C525.032 45.488 525.725 45.285 526.271 44.879C526.831 44.473 527.111 43.962 527.111 43.346L527.384 44.9C527.132 45.642 526.684 46.216 526.04 46.622C525.396 47.014 524.612 47.21 523.688 47.21ZM536.338 47.21C535.092 47.21 534.175 46.923 533.587 46.349C533.013 45.761 532.726 44.9 532.726 43.766V33.833L534.889 33.014V43.787C534.889 44.347 535.036 44.76 535.33 45.026C535.624 45.292 536.1 45.425 536.758 45.425C537.01 45.425 537.234 45.404 537.43 45.362C537.626 45.32 537.794 45.271 537.934 45.215V46.979C537.78 47.049 537.563 47.105 537.283 47.147C537.003 47.189 536.688 47.21 536.338 47.21ZM530.584 38.033V36.29H537.934V38.033H530.584ZM546.579 47C546.509 46.734 546.46 46.44 546.432 46.118C546.418 45.796 546.411 45.404 546.411 44.942H546.306V39.839C546.306 39.153 546.131 38.642 545.781 38.306C545.445 37.956 544.906 37.781 544.164 37.781C543.45 37.781 542.876 37.921 542.442 38.201C542.022 38.481 541.777 38.88 541.707 39.398H539.628C539.726 38.39 540.181 37.585 540.993 36.983C541.805 36.381 542.89 36.08 544.248 36.08C545.648 36.08 546.698 36.409 547.398 37.067C548.098 37.711 548.448 38.663 548.448 39.923V44.942C548.448 45.264 548.469 45.593 548.511 45.929C548.553 46.265 548.616 46.622 548.7 47H546.579ZM542.883 47.21C541.791 47.21 540.923 46.944 540.279 46.412C539.635 45.866 539.313 45.131 539.313 44.207C539.313 43.255 539.649 42.506 540.321 41.96C541.007 41.4 541.987 41.022 543.261 40.826L546.789 40.259V41.792L543.597 42.296C542.883 42.408 542.344 42.597 541.98 42.863C541.63 43.129 541.455 43.514 541.455 44.018C541.455 44.508 541.616 44.879 541.938 45.131C542.274 45.369 542.757 45.488 543.387 45.488C544.227 45.488 544.92 45.285 545.466 44.879C546.026 44.473 546.306 43.962 546.306 43.346L546.579 44.9C546.327 45.642 545.879 46.216 545.235 46.622C544.591 47.014 543.807 47.21 542.883 47.21ZM550.443 42.233V40.343H557.856V42.233H550.443ZM568.138 47V44.543L568.348 44.606C568.124 45.404 567.662 46.041 566.962 46.517C566.262 46.979 565.422 47.21 564.442 47.21C563.476 47.21 562.629 46.979 561.901 46.517C561.187 46.055 560.627 45.411 560.221 44.585C559.829 43.759 559.633 42.793 559.633 41.687C559.633 40.567 559.836 39.587 560.242 38.747C560.648 37.907 561.215 37.256 561.943 36.794C562.671 36.332 563.525 36.101 564.505 36.101C565.527 36.101 566.367 36.346 567.025 36.836C567.697 37.312 568.138 37.984 568.348 38.852L568.054 38.894V31.88H570.217V47H568.138ZM564.988 45.383C565.954 45.383 566.717 45.054 567.277 44.396C567.837 43.724 568.117 42.8 568.117 41.624C568.117 40.476 567.83 39.573 567.256 38.915C566.696 38.243 565.933 37.907 564.967 37.907C564.015 37.907 563.259 38.243 562.699 38.915C562.153 39.573 561.88 40.497 561.88 41.687C561.88 42.849 562.153 43.759 562.699 44.417C563.259 45.061 564.022 45.383 564.988 45.383ZM573.289 47V36.29H575.368V38.957H575.473V47H573.289ZM575.473 41.414L575.2 38.873C575.452 37.963 575.886 37.27 576.502 36.794C577.118 36.318 577.853 36.08 578.707 36.08C579.029 36.08 579.253 36.108 579.379 36.164V38.222C579.309 38.194 579.211 38.18 579.085 38.18C578.959 38.166 578.805 38.159 578.623 38.159C577.573 38.159 576.782 38.432 576.25 38.978C575.732 39.524 575.473 40.336 575.473 41.414ZM581.143 47V36.29H583.327V47H581.143ZM581.038 34.19V31.733H583.453V34.19H581.038ZM589.295 47L584.927 36.29H587.258L590.828 46.013H589.799L593.327 36.29H595.574L591.227 47H589.295ZM601.698 47.21C600.62 47.21 599.668 46.972 598.842 46.496C598.03 46.02 597.393 45.362 596.931 44.522C596.469 43.682 596.238 42.716 596.238 41.624C596.238 40.518 596.462 39.552 596.91 38.726C597.372 37.886 598.016 37.235 598.842 36.773C599.668 36.311 600.613 36.08 601.677 36.08C602.713 36.08 603.609 36.304 604.365 36.752C605.135 37.186 605.723 37.795 606.129 38.579C606.549 39.363 606.759 40.294 606.759 41.372C606.759 41.54 606.752 41.701 606.738 41.855C606.738 41.995 606.724 42.142 606.696 42.296H597.708V40.658H605.163L604.617 41.309C604.617 40.161 604.358 39.286 603.84 38.684C603.322 38.082 602.601 37.781 601.677 37.781C600.683 37.781 599.892 38.124 599.304 38.81C598.73 39.482 598.443 40.42 598.443 41.624C598.443 42.842 598.73 43.794 599.304 44.48C599.892 45.166 600.704 45.509 601.74 45.509C602.37 45.509 602.916 45.383 603.378 45.131C603.84 44.865 604.183 44.48 604.407 43.976H606.465C606.115 44.984 605.52 45.775 604.68 46.349C603.854 46.923 602.86 47.21 601.698 47.21ZM608.993 47V36.29H611.072V38.81H611.177V47H608.993ZM616.595 47V40.112C616.595 39.37 616.406 38.817 616.028 38.453C615.664 38.089 615.118 37.907 614.39 37.907C613.76 37.907 613.2 38.047 612.71 38.327C612.234 38.607 611.856 38.992 611.576 39.482C611.31 39.972 611.177 40.553 611.177 41.225L610.904 38.663C611.254 37.865 611.793 37.235 612.521 36.773C613.249 36.311 614.096 36.08 615.062 36.08C616.21 36.08 617.113 36.402 617.771 37.046C618.429 37.69 618.758 38.544 618.758 39.608V47H616.595ZM633.599 47V44.543L633.809 44.606C633.585 45.404 633.123 46.041 632.423 46.517C631.723 46.979 630.883 47.21 629.903 47.21C628.937 47.21 628.09 46.979 627.362 46.517C626.648 46.055 626.088 45.411 625.682 44.585C625.29 43.759 625.094 42.793 625.094 41.687C625.094 40.567 625.297 39.587 625.703 38.747C626.109 37.907 626.676 37.256 627.404 36.794C628.132 36.332 628.986 36.101 629.966 36.101C630.988 36.101 631.828 36.346 632.486 36.836C633.158 37.312 633.599 37.984 633.809 38.852L633.515 38.894V31.88H635.678V47H633.599ZM630.449 45.383C631.415 45.383 632.178 45.054 632.738 44.396C633.298 43.724 633.578 42.8 633.578 41.624C633.578 40.476 633.291 39.573 632.717 38.915C632.157 38.243 631.394 37.907 630.428 37.907C629.476 37.907 628.72 38.243 628.16 38.915C627.614 39.573 627.341 40.497 627.341 41.687C627.341 42.849 627.614 43.759 628.16 44.417C628.72 45.061 629.483 45.383 630.449 45.383ZM643.37 47.21C642.292 47.21 641.34 46.972 640.514 46.496C639.702 46.02 639.065 45.362 638.603 44.522C638.141 43.682 637.91 42.716 637.91 41.624C637.91 40.518 638.134 39.552 638.582 38.726C639.044 37.886 639.688 37.235 640.514 36.773C641.34 36.311 642.285 36.08 643.349 36.08C644.385 36.08 645.281 36.304 646.037 36.752C646.807 37.186 647.395 37.795 647.801 38.579C648.221 39.363 648.431 40.294 648.431 41.372C648.431 41.54 648.424 41.701 648.41 41.855C648.41 41.995 648.396 42.142 648.368 42.296H639.38V40.658H646.835L646.289 41.309C646.289 40.161 646.03 39.286 645.512 38.684C644.994 38.082 644.273 37.781 643.349 37.781C642.355 37.781 641.564 38.124 640.976 38.81C640.402 39.482 640.115 40.42 640.115 41.624C640.115 42.842 640.402 43.794 640.976 44.48C641.564 45.166 642.376 45.509 643.412 45.509C644.042 45.509 644.588 45.383 645.05 45.131C645.512 44.865 645.855 44.48 646.079 43.976H648.137C647.787 44.984 647.192 45.775 646.352 46.349C645.526 46.923 644.532 47.21 643.37 47.21ZM655.178 47.21C654.156 47.21 653.246 46.972 652.448 46.496C651.65 46.006 651.02 45.341 650.558 44.501C650.11 43.661 649.886 42.702 649.886 41.624C649.886 40.546 650.11 39.594 650.558 38.768C651.02 37.928 651.65 37.27 652.448 36.794C653.246 36.318 654.149 36.08 655.157 36.08C656.011 36.08 656.774 36.241 657.446 36.563C658.118 36.885 658.671 37.333 659.105 37.907C659.539 38.481 659.819 39.16 659.945 39.944H657.887C657.747 39.314 657.439 38.81 656.963 38.432C656.501 38.054 655.913 37.865 655.199 37.865C654.583 37.865 654.044 38.019 653.582 38.327C653.12 38.635 652.763 39.069 652.511 39.629C652.259 40.189 652.133 40.854 652.133 41.624C652.133 42.38 652.259 43.045 652.511 43.619C652.763 44.193 653.12 44.641 653.582 44.963C654.044 45.271 654.59 45.425 655.22 45.425C655.906 45.425 656.487 45.243 656.963 44.879C657.453 44.501 657.768 43.997 657.908 43.367H659.966C659.826 44.137 659.532 44.809 659.084 45.383C658.65 45.957 658.097 46.405 657.425 46.727C656.753 47.049 656.004 47.21 655.178 47.21ZM662.006 47V36.29H664.19V47H662.006ZM661.901 34.19V31.733H664.316V34.19H661.901ZM671.099 47.21C669.699 47.21 668.586 46.902 667.76 46.286C666.934 45.67 666.465 44.802 666.353 43.682H668.369C668.467 44.298 668.747 44.774 669.209 45.11C669.685 45.432 670.329 45.593 671.141 45.593C671.855 45.593 672.401 45.467 672.779 45.215C673.157 44.963 673.346 44.606 673.346 44.144C673.346 43.808 673.234 43.528 673.01 43.304C672.8 43.066 672.38 42.87 671.75 42.716L670.028 42.317C668.95 42.051 668.145 41.659 667.613 41.141C667.095 40.609 666.836 39.958 666.836 39.188C666.836 38.222 667.193 37.466 667.907 36.92C668.635 36.36 669.629 36.08 670.889 36.08C672.135 36.08 673.136 36.36 673.892 36.92C674.662 37.48 675.096 38.264 675.194 39.272H673.178C673.094 38.768 672.849 38.383 672.443 38.117C672.051 37.837 671.512 37.697 670.826 37.697C670.182 37.697 669.685 37.816 669.335 38.054C668.999 38.278 668.831 38.593 668.831 38.999C668.831 39.335 668.957 39.615 669.209 39.839C669.475 40.063 669.909 40.252 670.511 40.406L672.275 40.847C673.297 41.099 674.067 41.512 674.585 42.086C675.103 42.646 675.362 43.325 675.362 44.123C675.362 45.089 674.984 45.845 674.228 46.391C673.486 46.937 672.443 47.21 671.099 47.21ZM677.489 47V36.29H679.673V47H677.489ZM677.384 34.19V31.733H679.799V34.19H677.384ZM687.36 47.21C686.268 47.21 685.309 46.972 684.483 46.496C683.657 46.006 683.013 45.341 682.551 44.501C682.089 43.647 681.858 42.681 681.858 41.603C681.858 40.511 682.089 39.552 682.551 38.726C683.027 37.9 683.671 37.256 684.483 36.794C685.309 36.318 686.268 36.08 687.36 36.08C688.466 36.08 689.432 36.318 690.258 36.794C691.084 37.256 691.721 37.9 692.169 38.726C692.631 39.552 692.862 40.511 692.862 41.603C692.862 42.681 692.631 43.647 692.169 44.501C691.721 45.341 691.084 46.006 690.258 46.496C689.432 46.972 688.466 47.21 687.36 47.21ZM687.36 45.425C688.018 45.425 688.585 45.264 689.061 44.942C689.551 44.62 689.936 44.172 690.216 43.598C690.496 43.024 690.636 42.352 690.636 41.582C690.636 40.434 690.328 39.531 689.712 38.873C689.11 38.201 688.326 37.865 687.36 37.865C686.408 37.865 685.624 38.201 685.008 38.873C684.406 39.545 684.105 40.448 684.105 41.582C684.105 42.352 684.238 43.024 684.504 43.598C684.784 44.172 685.169 44.62 685.659 44.942C686.163 45.264 686.73 45.425 687.36 45.425ZM695.105 47V36.29H697.184V38.81H697.289V47H695.105ZM702.707 47V40.112C702.707 39.37 702.518 38.817 702.14 38.453C701.776 38.089 701.23 37.907 700.502 37.907C699.872 37.907 699.312 38.047 698.822 38.327C698.346 38.607 697.968 38.992 697.688 39.482C697.422 39.972 697.289 40.553 697.289 41.225L697.016 38.663C697.366 37.865 697.905 37.235 698.633 36.773C699.361 36.311 700.208 36.08 701.174 36.08C702.322 36.08 703.225 36.402 703.883 37.046C704.541 37.69 704.87 38.544 704.87 39.608V47H702.707ZM711.664 47.21C710.264 47.21 709.151 46.902 708.325 46.286C707.499 45.67 707.03 44.802 706.918 43.682H708.934C709.032 44.298 709.312 44.774 709.774 45.11C710.25 45.432 710.894 45.593 711.706 45.593C712.42 45.593 712.966 45.467 713.344 45.215C713.722 44.963 713.911 44.606 713.911 44.144C713.911 43.808 713.799 43.528 713.575 43.304C713.365 43.066 712.945 42.87 712.315 42.716L710.593 42.317C709.515 42.051 708.71 41.659 708.178 41.141C707.66 40.609 707.401 39.958 707.401 39.188C707.401 38.222 707.758 37.466 708.472 36.92C709.2 36.36 710.194 36.08 711.454 36.08C712.7 36.08 713.701 36.36 714.457 36.92C715.227 37.48 715.661 38.264 715.759 39.272H713.743C713.659 38.768 713.414 38.383 713.008 38.117C712.616 37.837 712.077 37.697 711.391 37.697C710.747 37.697 710.25 37.816 709.9 38.054C709.564 38.278 709.396 38.593 709.396 38.999C709.396 39.335 709.522 39.615 709.774 39.839C710.04 40.063 710.474 40.252 711.076 40.406L712.84 40.847C713.862 41.099 714.632 41.512 715.15 42.086C715.668 42.646 715.927 43.325 715.927 44.123C715.927 45.089 715.549 45.845 714.793 46.391C714.051 46.937 713.008 47.21 711.664 47.21ZM717.437 47V44.396H720.02V47H717.437Z" fill="black"/>
</svg>
