<svg width="505" height="78" viewBox="0 0 505 78" fill="none" xmlns="http://www.w3.org/2000/svg">
<path d="M23 24.0436L383.052 23" stroke="#737373" stroke-opacity="0.5" stroke-width="45" stroke-linecap="round"/>
<path d="M46.8821 35L40.5327 13.1818H46.3601L49.652 27.4787H49.8331L53.5938 13.1818H58.3452L62.1058 27.5107H62.2869L65.5895 13.1818H71.4062L65.0675 35H59.9858L56.0547 21.7685H55.8842L51.9531 35H46.8821ZM79.4176 35.3089C77.706 35.3089 76.2287 34.9716 74.9858 34.2969C73.75 33.6151 72.7983 32.6456 72.1307 31.3885C71.4702 30.1243 71.1399 28.6222 71.1399 26.8821C71.1399 25.1918 71.4737 23.7145 72.1413 22.4503C72.8089 21.179 73.75 20.1918 74.9645 19.4886C76.179 18.7784 77.6101 18.4233 79.2578 18.4233C80.4226 18.4233 81.4879 18.6044 82.4538 18.9666C83.4197 19.3288 84.2543 19.8651 84.9574 20.5753C85.6605 21.2855 86.2074 22.1626 86.598 23.2067C86.9886 24.2436 87.1839 25.4332 87.1839 26.7756V28.0753H72.9616V25.0497H82.3366C82.3295 24.4957 82.1982 24.0021 81.9425 23.5689C81.6868 23.1357 81.3352 22.7983 80.8878 22.5568C80.4474 22.3082 79.9396 22.1839 79.3643 22.1839C78.782 22.1839 78.2599 22.3153 77.7983 22.5781C77.3366 22.8338 76.9709 23.1854 76.701 23.6328C76.4311 24.0732 76.2891 24.5739 76.2749 25.1349V28.2138C76.2749 28.8814 76.4063 29.4673 76.669 29.9716C76.9318 30.4687 77.3047 30.8558 77.7876 31.1328C78.2706 31.4098 78.8459 31.5483 79.5135 31.5483C79.9751 31.5483 80.3942 31.4844 80.7706 31.3565C81.147 31.2287 81.4702 31.0405 81.7401 30.7919C82.0099 30.5433 82.2124 30.2379 82.3473 29.8757L87.1307 30.0142C86.9318 31.0866 86.495 32.0206 85.8203 32.8161C85.1527 33.6044 84.2756 34.2187 83.1889 34.6591C82.1023 35.0923 80.8452 35.3089 79.4176 35.3089ZM95.0542 13.1818V35H89.8446V13.1818H95.0542ZM106.009 35.3089C104.283 35.3089 102.802 34.9538 101.566 34.2436C100.337 33.5334 99.3928 32.5462 98.7322 31.282C98.0717 30.0107 97.7415 28.5405 97.7415 26.8714C97.7415 25.1953 98.0717 23.7251 98.7322 22.4609C99.3999 21.1896 100.348 20.1989 101.577 19.4886C102.813 18.7784 104.286 18.4233 105.998 18.4233C107.511 18.4233 108.828 18.6967 109.95 19.2436C111.08 19.7905 111.96 20.5646 112.592 21.5661C113.232 22.5604 113.569 23.7287 113.604 25.071H108.736C108.636 24.233 108.352 23.576 107.884 23.1001C107.422 22.6243 106.818 22.3864 106.072 22.3864C105.469 22.3864 104.94 22.5568 104.485 22.8977C104.031 23.2315 103.675 23.7287 103.42 24.3892C103.171 25.0426 103.047 25.8523 103.047 26.8182C103.047 27.7841 103.171 28.6009 103.42 29.2685C103.675 29.929 104.031 30.4297 104.485 30.7706C104.94 31.1044 105.469 31.2713 106.072 31.2713C106.555 31.2713 106.982 31.1683 107.351 30.9624C107.727 30.7564 108.036 30.4545 108.278 30.0568C108.519 29.652 108.672 29.1619 108.736 28.5866H113.604C113.555 29.9361 113.217 31.1151 112.592 32.1236C111.974 33.1321 111.104 33.9169 109.982 34.478C108.867 35.032 107.543 35.3089 106.009 35.3089ZM123.909 35.3089C122.19 35.3089 120.713 34.9574 119.477 34.2543C118.248 33.544 117.3 32.5568 116.633 31.2926C115.972 30.0213 115.642 28.5476 115.642 26.8714C115.642 25.1882 115.972 23.7145 116.633 22.4503C117.3 21.179 118.248 20.1918 119.477 19.4886C120.713 18.7784 122.19 18.4233 123.909 18.4233C125.628 18.4233 127.101 18.7784 128.33 19.4886C129.566 20.1918 130.514 21.179 131.175 22.4503C131.842 23.7145 132.176 25.1882 132.176 26.8714C132.176 28.5476 131.842 30.0213 131.175 31.2926C130.514 32.5568 129.566 33.544 128.33 34.2543C127.101 34.9574 125.628 35.3089 123.909 35.3089ZM123.941 31.3778C124.566 31.3778 125.095 31.1861 125.528 30.8026C125.961 30.419 126.292 29.8864 126.519 29.2045C126.753 28.5227 126.871 27.7344 126.871 26.8395C126.871 25.9304 126.753 25.1349 126.519 24.4531C126.292 23.7713 125.961 23.2386 125.528 22.8551C125.095 22.4716 124.566 22.2798 123.941 22.2798C123.295 22.2798 122.748 22.4716 122.3 22.8551C121.86 23.2386 121.523 23.7713 121.288 24.4531C121.061 25.1349 120.947 25.9304 120.947 26.8395C120.947 27.7344 121.061 28.5227 121.288 29.2045C121.523 29.8864 121.86 30.419 122.3 30.8026C122.748 31.1861 123.295 31.3778 123.941 31.3778ZM134.845 35V18.6364H139.798V21.6406H139.98C140.32 20.6463 140.896 19.8615 141.705 19.2862C142.515 18.7109 143.481 18.4233 144.603 18.4233C145.74 18.4233 146.713 18.7145 147.522 19.2969C148.332 19.8793 148.847 20.6605 149.067 21.6406H149.237C149.543 20.6676 150.139 19.8899 151.027 19.3075C151.915 18.718 152.963 18.4233 154.17 18.4233C155.718 18.4233 156.975 18.9205 157.941 19.9148C158.907 20.902 159.39 22.2585 159.39 23.9844V35H154.181V25.1776C154.181 24.3608 153.971 23.7393 153.552 23.3132C153.133 22.88 152.59 22.6634 151.922 22.6634C151.205 22.6634 150.64 22.8977 150.228 23.3665C149.823 23.8281 149.621 24.4496 149.621 25.2308V35H144.614V25.1243C144.614 24.3643 144.408 23.7642 143.996 23.3239C143.584 22.8835 143.041 22.6634 142.366 22.6634C141.911 22.6634 141.51 22.7734 141.162 22.9936C140.814 23.2067 140.541 23.5121 140.342 23.9098C140.15 24.3075 140.054 24.7763 140.054 25.3161V35H134.845ZM170.267 35.3089C168.556 35.3089 167.078 34.9716 165.835 34.2969C164.6 33.6151 163.648 32.6456 162.98 31.3885C162.32 30.1243 161.99 28.6222 161.99 26.8821C161.99 25.1918 162.323 23.7145 162.991 22.4503C163.659 21.179 164.6 20.1918 165.814 19.4886C167.029 18.7784 168.46 18.4233 170.107 18.4233C171.272 18.4233 172.338 18.6044 173.303 18.9666C174.269 19.3288 175.104 19.8651 175.807 20.5753C176.51 21.2855 177.057 22.1626 177.448 23.2067C177.838 24.2436 178.034 25.4332 178.034 26.7756V28.0753H163.811V25.0497H173.186C173.179 24.4957 173.048 24.0021 172.792 23.5689C172.536 23.1357 172.185 22.7983 171.737 22.5568C171.297 22.3082 170.789 22.1839 170.214 22.1839C169.632 22.1839 169.11 22.3153 168.648 22.5781C168.186 22.8338 167.82 23.1854 167.551 23.6328C167.281 24.0732 167.139 24.5739 167.124 25.1349V28.2138C167.124 28.8814 167.256 29.4673 167.519 29.9716C167.781 30.4687 168.154 30.8558 168.637 31.1328C169.12 31.4098 169.695 31.5483 170.363 31.5483C170.825 31.5483 171.244 31.4844 171.62 31.3565C171.997 31.2287 172.32 31.0405 172.59 30.7919C172.86 30.5433 173.062 30.2379 173.197 29.8757L177.98 30.0142C177.781 31.0866 177.345 32.0206 176.67 32.8161C176.002 33.6044 175.125 34.2187 174.039 34.6591C172.952 35.0923 171.695 35.3089 170.267 35.3089ZM196.376 18.6364V22.4716H186.053V18.6364H196.376ZM188.216 14.7159H193.425V29.8544C193.425 30.174 193.475 30.4332 193.574 30.6321C193.681 30.8239 193.833 30.9624 194.032 31.0476C194.231 31.1257 194.469 31.1648 194.746 31.1648C194.945 31.1648 195.154 31.147 195.375 31.1115C195.602 31.0689 195.772 31.0334 195.886 31.005L196.674 34.7656C196.426 34.8366 196.074 34.9254 195.62 35.032C195.172 35.1385 194.636 35.206 194.011 35.2344C192.789 35.2912 191.742 35.1491 190.868 34.8082C190.002 34.4602 189.338 33.9205 188.876 33.1889C188.422 32.4574 188.201 31.5376 188.216 30.4297V14.7159ZM206.497 35.3089C204.778 35.3089 203.301 34.9574 202.065 34.2543C200.836 33.544 199.888 32.5568 199.221 31.2926C198.56 30.0213 198.23 28.5476 198.23 26.8714C198.23 25.1882 198.56 23.7145 199.221 22.4503C199.888 21.179 200.836 20.1918 202.065 19.4886C203.301 18.7784 204.778 18.4233 206.497 18.4233C208.216 18.4233 209.689 18.7784 210.918 19.4886C212.154 20.1918 213.102 21.179 213.762 22.4503C214.43 23.7145 214.764 25.1882 214.764 26.8714C214.764 28.5476 214.43 30.0213 213.762 31.2926C213.102 32.5568 212.154 33.544 210.918 34.2543C209.689 34.9574 208.216 35.3089 206.497 35.3089ZM206.529 31.3778C207.154 31.3778 207.683 31.1861 208.116 30.8026C208.549 30.419 208.88 29.8864 209.107 29.2045C209.341 28.5227 209.458 27.7344 209.458 26.8395C209.458 25.9304 209.341 25.1349 209.107 24.4531C208.88 23.7713 208.549 23.2386 208.116 22.8551C207.683 22.4716 207.154 22.2798 206.529 22.2798C205.882 22.2798 205.336 22.4716 204.888 22.8551C204.448 23.2386 204.11 23.7713 203.876 24.4531C203.649 25.1349 203.535 25.9304 203.535 26.8395C203.535 27.7344 203.649 28.5227 203.876 29.2045C204.11 29.8864 204.448 30.419 204.888 30.8026C205.336 31.1861 205.882 31.3778 206.529 31.3778Z" fill="black"/>
<path d="M223.878 35V13.1818H238.771V17.4645H229.151V21.9389H237.823V26.2322H229.151V35H223.878ZM246.636 13.1818V35H241.427V13.1818H246.636ZM257.591 35.3089C255.872 35.3089 254.395 34.9574 253.159 34.2543C251.93 33.544 250.982 32.5568 250.314 31.2926C249.654 30.0213 249.324 28.5476 249.324 26.8714C249.324 25.1882 249.654 23.7145 250.314 22.4503C250.982 21.179 251.93 20.1918 253.159 19.4886C254.395 18.7784 255.872 18.4233 257.591 18.4233C259.309 18.4233 260.783 18.7784 262.012 19.4886C263.248 20.1918 264.196 21.179 264.856 22.4503C265.524 23.7145 265.858 25.1882 265.858 26.8714C265.858 28.5476 265.524 30.0213 264.856 31.2926C264.196 32.5568 263.248 33.544 262.012 34.2543C260.783 34.9574 259.309 35.3089 257.591 35.3089ZM257.623 31.3778C258.248 31.3778 258.777 31.1861 259.21 30.8026C259.643 30.419 259.973 29.8864 260.201 29.2045C260.435 28.5227 260.552 27.7344 260.552 26.8395C260.552 25.9304 260.435 25.1349 260.201 24.4531C259.973 23.7713 259.643 23.2386 259.21 22.8551C258.777 22.4716 258.248 22.2798 257.623 22.2798C256.976 22.2798 256.429 22.4716 255.982 22.8551C255.542 23.2386 255.204 23.7713 254.97 24.4531C254.743 25.1349 254.629 25.9304 254.629 26.8395C254.629 27.7344 254.743 28.5227 254.97 29.2045C255.204 29.8864 255.542 30.419 255.982 30.8026C256.429 31.1861 256.976 31.3778 257.623 31.3778ZM271.232 35L266.971 18.6364H272.202L274.407 29.1193H274.545L276.911 18.6364H282.013L284.442 29.0447H284.581L286.722 18.6364H291.953L287.681 35H282.109L279.553 25.4652H279.371L276.815 35H271.232Z" fill="#0084FF"/>
<path d="M305.837 19.723C305.766 18.9418 305.45 18.3345 304.889 17.9013C304.335 17.4609 303.543 17.2408 302.513 17.2408C301.831 17.2408 301.263 17.3295 300.809 17.5071C300.354 17.6847 300.013 17.9297 299.786 18.2422C299.559 18.5476 299.442 18.8991 299.434 19.2969C299.42 19.6236 299.484 19.9112 299.626 20.1598C299.775 20.4084 299.988 20.6286 300.265 20.8203C300.55 21.005 300.89 21.1683 301.288 21.3104C301.686 21.4524 302.133 21.5767 302.631 21.6832L304.506 22.1094C305.585 22.3438 306.537 22.6562 307.361 23.0469C308.192 23.4375 308.888 23.9027 309.449 24.4425C310.017 24.9822 310.447 25.6037 310.738 26.3068C311.029 27.0099 311.178 27.7983 311.185 28.6719C311.178 30.0497 310.83 31.2322 310.141 32.2195C309.452 33.2067 308.461 33.9631 307.169 34.4886C305.883 35.0142 304.331 35.277 302.513 35.277C300.688 35.277 299.097 35.0036 297.741 34.4567C296.384 33.9098 295.329 33.0788 294.577 31.9638C293.824 30.8487 293.437 29.4389 293.415 27.7344H298.465C298.508 28.4375 298.696 29.0234 299.03 29.4922C299.363 29.9609 299.822 30.3161 300.404 30.5575C300.993 30.799 301.675 30.9197 302.449 30.9197C303.16 30.9197 303.763 30.8239 304.26 30.6321C304.765 30.4403 305.152 30.174 305.422 29.8331C305.692 29.4922 305.83 29.1016 305.837 28.6612C305.83 28.2493 305.702 27.8977 305.454 27.6065C305.205 27.3082 304.822 27.0526 304.303 26.8395C303.792 26.6193 303.138 26.4169 302.343 26.2322L300.063 25.6996C298.174 25.2663 296.686 24.5668 295.599 23.6009C294.513 22.6278 293.973 21.3139 293.98 19.6591C293.973 18.3097 294.335 17.1271 295.067 16.1115C295.798 15.0959 296.81 14.304 298.103 13.7358C299.395 13.1676 300.869 12.8835 302.524 12.8835C304.214 12.8835 305.681 13.1712 306.924 13.7464C308.174 14.3146 309.143 15.1136 309.832 16.1435C310.521 17.1733 310.873 18.3665 310.887 19.723H305.837ZM317.034 41.1364C316.409 41.1364 315.819 41.0866 315.265 40.9872C314.711 40.8949 314.236 40.7706 313.838 40.6143L314.988 36.8324C315.5 37.0028 315.961 37.1023 316.373 37.1307C316.792 37.1591 317.151 37.0916 317.449 36.9283C317.755 36.772 317.989 36.4915 318.153 36.0866L318.355 35.5966L312.538 18.6364H317.993L321.008 30.3125H321.178L324.236 18.6364H329.722L323.554 36.5661C323.256 37.4609 322.833 38.2493 322.286 38.9311C321.746 39.62 321.047 40.1598 320.187 40.5504C319.335 40.9411 318.284 41.1364 317.034 41.1364ZM336.929 25.6676V35H331.72V18.6364H336.673V21.6406H336.855C337.217 20.6392 337.835 19.8544 338.708 19.2862C339.582 18.7109 340.622 18.4233 341.83 18.4233C342.98 18.4233 343.978 18.6825 344.823 19.201C345.676 19.7124 346.336 20.4297 346.805 21.353C347.281 22.2692 347.515 23.3416 347.508 24.5703V35H342.298V25.593C342.306 24.6839 342.075 23.9737 341.606 23.4624C341.144 22.951 340.502 22.6953 339.678 22.6953C339.131 22.6953 338.648 22.8161 338.229 23.0575C337.817 23.2919 337.497 23.6293 337.27 24.0696C337.05 24.5099 336.936 25.0426 336.929 25.6676ZM358.372 35.3089C356.646 35.3089 355.165 34.9538 353.929 34.2436C352.701 33.5334 351.756 32.5462 351.096 31.282C350.435 30.0107 350.105 28.5405 350.105 26.8714C350.105 25.1953 350.435 23.7251 351.096 22.4609C351.763 21.1896 352.711 20.1989 353.94 19.4886C355.176 18.7784 356.65 18.4233 358.361 18.4233C359.874 18.4233 361.191 18.6967 362.314 19.2436C363.443 19.7905 364.324 20.5646 364.956 21.5661C365.595 22.5604 365.932 23.7287 365.968 25.071H361.099C361 24.233 360.716 23.576 360.247 23.1001C359.785 22.6243 359.181 22.3864 358.436 22.3864C357.832 22.3864 357.303 22.5568 356.848 22.8977C356.394 23.2315 356.039 23.7287 355.783 24.3892C355.534 25.0426 355.41 25.8523 355.41 26.8182C355.41 27.7841 355.534 28.6009 355.783 29.2685C356.039 29.929 356.394 30.4297 356.848 30.7706C357.303 31.1044 357.832 31.2713 358.436 31.2713C358.919 31.2713 359.345 31.1683 359.714 30.9624C360.091 30.7564 360.4 30.4545 360.641 30.0568C360.882 29.652 361.035 29.1619 361.099 28.5866H365.968C365.918 29.9361 365.581 31.1151 364.956 32.1236C364.338 33.1321 363.468 33.9169 362.346 34.478C361.23 35.032 359.906 35.3089 358.372 35.3089Z" fill="white"/>
<path d="M10.1009 56.1797V53.8182H24.1722V56.1797H18.4993V72H15.7649V56.1797H10.1009ZM29.7231 63.9034V72H27.0686V53.8182H29.6876V60.5831H29.8563C30.1759 59.8492 30.6642 59.2662 31.3211 58.8342C31.9781 58.4021 32.8363 58.1861 33.8957 58.1861C34.8308 58.1861 35.6476 58.3784 36.346 58.7631C37.0503 59.1478 37.5948 59.7219 37.9795 60.4854C38.3701 61.243 38.5654 62.19 38.5654 63.3263V72H35.911V63.646C35.911 62.6457 35.6535 61.8704 35.1386 61.32C34.6237 60.7636 33.9075 60.4854 32.9901 60.4854C32.3628 60.4854 31.8005 60.6186 31.3034 60.8849C30.8121 61.1513 30.4244 61.5419 30.1404 62.0568C29.8622 62.5658 29.7231 63.1813 29.7231 63.9034ZM47.9848 72.2752C46.6413 72.2752 45.4842 71.9882 44.5136 71.4141C43.5489 70.834 42.8031 70.0202 42.2764 68.9727C41.7555 67.9192 41.4951 66.6851 41.4951 65.2706C41.4951 63.8738 41.7555 62.6428 42.2764 61.5774C42.8031 60.5121 43.537 59.6805 44.4781 59.0827C45.425 58.485 46.5318 58.1861 47.7984 58.1861C48.5678 58.1861 49.3135 58.3133 50.0356 58.5678C50.7577 58.8223 51.4057 59.2218 51.9798 59.7663C52.5539 60.3108 53.0067 61.0181 53.3382 61.8881C53.6696 62.7522 53.8353 63.8028 53.8353 65.0398V65.9808H42.9955V63.9922H51.2341C51.2341 63.2938 51.0921 62.6753 50.808 62.1367C50.5239 61.5922 50.1244 61.1631 49.6095 60.8494C49.1005 60.5357 48.5027 60.3789 47.8161 60.3789C47.0704 60.3789 46.4194 60.5624 45.863 60.9293C45.3126 61.2904 44.8865 61.7638 44.5846 62.3498C44.2887 62.9298 44.1407 63.5601 44.1407 64.2408V65.7944C44.1407 66.7058 44.3005 67.4812 44.6201 68.1204C44.9456 68.7596 45.3984 69.2479 45.9784 69.5852C46.5584 69.9167 47.2361 70.0824 48.0115 70.0824C48.5145 70.0824 48.9732 70.0114 49.3875 69.8693C49.8018 69.7214 50.1599 69.5024 50.4617 69.2124C50.7636 68.9223 50.9944 68.5643 51.1542 68.1381L53.6666 68.5909C53.4654 69.3307 53.1044 69.9788 52.5835 70.5352C52.0686 71.0856 51.4205 71.5147 50.6393 71.8224C49.864 72.1243 48.9791 72.2752 47.9848 72.2752ZM63.6098 72V53.8182H74.8847V56.1797H66.3531V61.7195H74.0768V64.0721H66.3531V72H63.6098ZM85.8288 66.3448V58.3636H88.4922V72H85.8821V69.6385H85.7401C85.4264 70.3665 84.9233 70.9731 84.2308 71.4585C83.5443 71.9379 82.689 72.1776 81.6651 72.1776C80.7892 72.1776 80.0138 71.9852 79.3391 71.6005C78.6703 71.2099 78.1436 70.6328 77.7589 69.8693C77.3801 69.1058 77.1907 68.1618 77.1907 67.0373V58.3636H79.8452V66.7177C79.8452 67.6469 80.1026 68.3867 80.6175 68.9371C81.1325 69.4876 81.8013 69.7628 82.6239 69.7628C83.1211 69.7628 83.6153 69.6385 84.1065 69.3899C84.6037 69.1413 85.015 68.7655 85.3406 68.2624C85.672 67.7594 85.8348 67.1201 85.8288 66.3448ZM98.4243 58.3636V60.4943H90.9758V58.3636H98.4243ZM92.9733 55.0966H95.6278V67.9961C95.6278 68.511 95.7047 68.8987 95.8586 69.1591C96.0125 69.4136 96.2107 69.5882 96.4534 69.6829C96.702 69.7717 96.9713 69.8161 97.2613 69.8161C97.4743 69.8161 97.6608 69.8013 97.8206 69.7717C97.9804 69.7421 98.1047 69.7184 98.1934 69.7006L98.6729 71.8935C98.519 71.9527 98.3 72.0118 98.0159 72.071C97.7318 72.1361 97.3767 72.1716 96.9506 72.1776C96.2522 72.1894 95.6011 72.0651 94.9974 71.8047C94.3937 71.5443 93.9055 71.1418 93.5326 70.5973C93.1597 70.0528 92.9733 69.3692 92.9733 68.5465V55.0966ZM109.999 66.3448V58.3636H112.662V72H110.052V69.6385H109.91C109.596 70.3665 109.093 70.9731 108.401 71.4585C107.714 71.9379 106.859 72.1776 105.835 72.1776C104.959 72.1776 104.184 71.9852 103.509 71.6005C102.84 71.2099 102.314 70.6328 101.929 69.8693C101.55 69.1058 101.361 68.1618 101.361 67.0373V58.3636H104.015V66.7177C104.015 67.6469 104.273 68.3867 104.787 68.9371C105.302 69.4876 105.971 69.7628 106.794 69.7628C107.291 69.7628 107.785 69.6385 108.276 69.3899C108.774 69.1413 109.185 68.7655 109.51 68.2624C109.842 67.7594 110.005 67.1201 109.999 66.3448ZM116.229 72V58.3636H118.794V60.5298H118.937C119.185 59.7959 119.623 59.2189 120.25 58.7987C120.884 58.3725 121.6 58.1594 122.399 58.1594C122.565 58.1594 122.76 58.1654 122.985 58.1772C123.216 58.189 123.396 58.2038 123.526 58.2216V60.7607C123.42 60.7311 123.23 60.6985 122.958 60.663C122.686 60.6216 122.414 60.6009 122.141 60.6009C121.514 60.6009 120.955 60.734 120.464 61.0004C119.978 61.2608 119.593 61.6248 119.309 62.0923C119.025 62.554 118.883 63.0807 118.883 63.6726V72H116.229ZM131.212 72.2752C129.869 72.2752 128.712 71.9882 127.741 71.4141C126.776 70.834 126.031 70.0202 125.504 68.9727C124.983 67.9192 124.723 66.6851 124.723 65.2706C124.723 63.8738 124.983 62.6428 125.504 61.5774C126.031 60.5121 126.765 59.6805 127.706 59.0827C128.653 58.485 129.759 58.1861 131.026 58.1861C131.795 58.1861 132.541 58.3133 133.263 58.5678C133.985 58.8223 134.633 59.2218 135.207 59.7663C135.781 60.3108 136.234 61.0181 136.566 61.8881C136.897 62.7522 137.063 63.8028 137.063 65.0398V65.9808H126.223V63.9922H134.462C134.462 63.2938 134.32 62.6753 134.036 62.1367C133.751 61.5922 133.352 61.1631 132.837 60.8494C132.328 60.5357 131.73 60.3789 131.044 60.3789C130.298 60.3789 129.647 60.5624 129.091 60.9293C128.54 61.2904 128.114 61.7638 127.812 62.3498C127.516 62.9298 127.368 63.5601 127.368 64.2408V65.7944C127.368 66.7058 127.528 67.4812 127.848 68.1204C128.173 68.7596 128.626 69.2479 129.206 69.5852C129.786 69.9167 130.464 70.0824 131.239 70.0824C131.742 70.0824 132.201 70.0114 132.615 69.8693C133.029 69.7214 133.387 69.5024 133.689 69.2124C133.991 68.9223 134.222 68.5643 134.382 68.1381L136.894 68.5909C136.693 69.3307 136.332 69.9788 135.811 70.5352C135.296 71.0856 134.648 71.5147 133.867 71.8224C133.092 72.1243 132.207 72.2752 131.212 72.2752ZM152.368 72.2752C151.09 72.2752 149.974 71.9822 149.021 71.3963C148.068 70.8104 147.329 69.9906 146.802 68.9371C146.275 67.8836 146.012 66.6526 146.012 65.244C146.012 63.8294 146.275 62.5924 146.802 61.533C147.329 60.4736 148.068 59.6509 149.021 59.065C149.974 58.479 151.09 58.1861 152.368 58.1861C153.647 58.1861 154.762 58.479 155.715 59.065C156.668 59.6509 157.408 60.4736 157.935 61.533C158.461 62.5924 158.725 63.8294 158.725 65.244C158.725 66.6526 158.461 67.8836 157.935 68.9371C157.408 69.9906 156.668 70.8104 155.715 71.3963C154.762 71.9822 153.647 72.2752 152.368 72.2752ZM152.377 70.0469C153.206 70.0469 153.892 69.8279 154.437 69.3899C154.981 68.9519 155.384 68.369 155.644 67.641C155.911 66.913 156.044 66.111 156.044 65.2351C156.044 64.3651 155.911 63.5661 155.644 62.8381C155.384 62.1042 154.981 61.5153 154.437 61.0714C153.892 60.6275 153.206 60.4055 152.377 60.4055C151.543 60.4055 150.85 60.6275 150.3 61.0714C149.755 61.5153 149.35 62.1042 149.083 62.8381C148.823 63.5661 148.693 64.3651 148.693 65.2351C148.693 66.111 148.823 66.913 149.083 67.641C149.35 68.369 149.755 68.9519 150.3 69.3899C150.85 69.8279 151.543 70.0469 152.377 70.0469ZM168.177 58.3636V60.4943H160.472V58.3636H168.177ZM162.584 72V56.7834C162.584 55.9311 162.771 55.2238 163.144 54.6616C163.517 54.0934 164.011 53.6702 164.626 53.392C165.242 53.108 165.911 52.9659 166.633 52.9659C167.165 52.9659 167.621 53.0103 168 53.0991C168.379 53.1819 168.66 53.2589 168.843 53.3299L168.222 55.4783C168.098 55.4428 167.938 55.4014 167.742 55.354C167.547 55.3008 167.31 55.2741 167.032 55.2741C166.387 55.2741 165.925 55.4339 165.647 55.7536C165.375 56.0732 165.239 56.5348 165.239 57.1385V72H162.584ZM187.662 58.5945C187.567 57.754 187.177 57.103 186.49 56.6413C185.804 56.1738 184.94 55.94 183.898 55.94C183.152 55.94 182.507 56.0584 181.963 56.2951C181.418 56.5259 180.995 56.8455 180.693 57.2539C180.397 57.6564 180.249 58.1151 180.249 58.63C180.249 59.062 180.35 59.4349 180.551 59.7486C180.758 60.0623 181.027 60.3256 181.359 60.5387C181.696 60.7459 182.057 60.9205 182.442 61.0625C182.827 61.1986 183.197 61.3111 183.552 61.3999L185.327 61.8615C185.907 62.0036 186.502 62.1959 187.112 62.4386C187.721 62.6812 188.287 63.0008 188.807 63.3974C189.328 63.7939 189.748 64.2852 190.068 64.8711C190.394 65.457 190.556 66.1584 190.556 66.9751C190.556 68.005 190.29 68.9194 189.757 69.7184C189.231 70.5174 188.464 71.1477 187.458 71.6094C186.458 72.071 185.247 72.3018 183.827 72.3018C182.466 72.3018 181.288 72.0858 180.294 71.6538C179.299 71.2217 178.521 70.6091 177.959 69.8161C177.396 69.017 177.086 68.0701 177.026 66.9751H179.779C179.832 67.6321 180.045 68.1796 180.418 68.6175C180.797 69.0496 181.279 69.3722 181.865 69.5852C182.457 69.7924 183.105 69.896 183.809 69.896C184.584 69.896 185.274 69.7746 185.878 69.532C186.487 69.2834 186.967 68.9401 187.316 68.5021C187.665 68.0582 187.84 67.5404 187.84 66.9485C187.84 66.4099 187.686 65.969 187.378 65.6257C187.076 65.2824 186.665 64.9983 186.144 64.7734C185.629 64.5485 185.046 64.3503 184.395 64.1786L182.247 63.5927C180.791 63.1961 179.637 62.6132 178.784 61.8438C177.938 61.0743 177.515 60.0563 177.515 58.7898C177.515 57.7422 177.799 56.8278 178.367 56.0465C178.935 55.2653 179.705 54.6586 180.675 54.2266C181.646 53.7886 182.741 53.5696 183.96 53.5696C185.191 53.5696 186.277 53.7856 187.218 54.2177C188.165 54.6497 188.911 55.2446 189.455 56.0021C190 56.7538 190.284 57.6179 190.308 58.5945H187.662ZM202.259 66.3448V58.3636H204.923V72H202.313V69.6385H202.171C201.857 70.3665 201.354 70.9731 200.661 71.4585C199.975 71.9379 199.12 72.1776 198.096 72.1776C197.22 72.1776 196.445 71.9852 195.77 71.6005C195.101 71.2099 194.574 70.6328 194.19 69.8693C193.811 69.1058 193.621 68.1618 193.621 67.0373V58.3636H196.276V66.7177C196.276 67.6469 196.533 68.3867 197.048 68.9371C197.563 69.4876 198.232 69.7628 199.055 69.7628C199.552 69.7628 200.046 69.6385 200.537 69.3899C201.034 69.1413 201.446 68.7655 201.771 68.2624C202.103 67.7594 202.265 67.1201 202.259 66.3448ZM208.49 77.1136V58.3636H211.082V60.5742H211.304C211.458 60.2901 211.68 59.9616 211.97 59.5888C212.26 59.2159 212.662 58.8904 213.177 58.6122C213.692 58.3281 214.373 58.1861 215.219 58.1861C216.32 58.1861 217.302 58.4643 218.166 59.0206C219.03 59.5769 219.708 60.3789 220.199 61.4265C220.697 62.4741 220.945 63.7347 220.945 65.2085C220.945 66.6822 220.7 67.9458 220.208 68.9993C219.717 70.0469 219.042 70.8548 218.184 71.4229C217.326 71.9852 216.346 72.2663 215.246 72.2663C214.417 72.2663 213.739 72.1272 213.213 71.8491C212.692 71.5709 212.283 71.2454 211.987 70.8725C211.691 70.4996 211.464 70.1682 211.304 69.8782H211.144V77.1136H208.49ZM211.091 65.1818C211.091 66.1406 211.23 66.9811 211.508 67.7031C211.786 68.4252 212.189 68.9904 212.715 69.3988C213.242 69.8013 213.887 70.0025 214.651 70.0025C215.444 70.0025 216.107 69.7924 216.639 69.3722C217.172 68.946 217.575 68.369 217.847 67.641C218.125 66.913 218.264 66.0933 218.264 65.1818C218.264 64.2822 218.128 63.4743 217.856 62.7582C217.589 62.042 217.187 61.4768 216.648 61.0625C216.116 60.6482 215.45 60.4411 214.651 60.4411C213.881 60.4411 213.23 60.6393 212.698 61.0359C212.171 61.4324 211.771 61.9858 211.499 62.696C211.227 63.4062 211.091 64.2348 211.091 65.1818ZM223.919 77.1136V58.3636H226.512V60.5742H226.733C226.887 60.2901 227.109 59.9616 227.399 59.5888C227.689 59.2159 228.092 58.8904 228.607 58.6122C229.122 58.3281 229.802 58.1861 230.649 58.1861C231.749 58.1861 232.732 58.4643 233.596 59.0206C234.46 59.5769 235.138 60.3789 235.629 61.4265C236.126 62.4741 236.375 63.7347 236.375 65.2085C236.375 66.6822 236.129 67.9458 235.638 68.9993C235.147 70.0469 234.472 70.8548 233.614 71.4229C232.756 71.9852 231.776 72.2663 230.675 72.2663C229.847 72.2663 229.169 72.1272 228.642 71.8491C228.121 71.5709 227.713 71.2454 227.417 70.8725C227.121 70.4996 226.893 70.1682 226.733 69.8782H226.574V77.1136H223.919ZM226.52 65.1818C226.52 66.1406 226.66 66.9811 226.938 67.7031C227.216 68.4252 227.618 68.9904 228.145 69.3988C228.672 69.8013 229.317 70.0025 230.08 70.0025C230.874 70.0025 231.536 69.7924 232.069 69.3722C232.602 68.946 233.004 68.369 233.276 67.641C233.555 66.913 233.694 66.0933 233.694 65.1818C233.694 64.2822 233.558 63.4743 233.285 62.7582C233.019 62.042 232.617 61.4768 232.078 61.0625C231.545 60.6482 230.879 60.4411 230.08 60.4411C229.311 60.4411 228.66 60.6393 228.127 61.0359C227.601 61.4324 227.201 61.9858 226.929 62.696C226.657 63.4062 226.52 64.2348 226.52 65.1818ZM242.003 53.8182V72H239.349V53.8182H242.003ZM247.252 77.1136C246.856 77.1136 246.495 77.0811 246.169 77.016C245.844 76.9568 245.601 76.8917 245.441 76.8207L246.081 74.6456C246.566 74.7758 246.998 74.832 247.377 74.8143C247.755 74.7965 248.09 74.6545 248.38 74.3881C248.676 74.1218 248.936 73.6868 249.161 73.0831L249.49 72.1776L244.5 58.3636H247.341L250.795 68.946H250.937L254.39 58.3636H257.24L251.62 73.82C251.36 74.5302 251.028 75.1309 250.626 75.6222C250.224 76.1193 249.744 76.4922 249.188 76.7408C248.631 76.9893 247.986 77.1136 247.252 77.1136ZM281.665 59.7308H278.895C278.789 59.139 278.59 58.6181 278.3 58.1683C278.01 57.7185 277.655 57.3368 277.235 57.0231C276.815 56.7094 276.344 56.4727 275.824 56.3129C275.309 56.1531 274.761 56.0732 274.181 56.0732C273.134 56.0732 272.195 56.3365 271.367 56.8633C270.544 57.39 269.893 58.1624 269.414 59.1804C268.94 60.1984 268.703 61.4413 268.703 62.9091C268.703 64.3887 268.94 65.6375 269.414 66.6555C269.893 67.6735 270.547 68.4429 271.376 68.9638C272.204 69.4846 273.136 69.745 274.172 69.745C274.746 69.745 275.291 69.6681 275.806 69.5142C276.327 69.3544 276.797 69.1206 277.217 68.8129C277.638 68.5051 277.993 68.1293 278.283 67.6854C278.579 67.2356 278.783 66.7206 278.895 66.1406L281.665 66.1495C281.517 67.0432 281.23 67.8659 280.804 68.6175C280.384 69.3633 279.842 70.0084 279.179 70.5529C278.522 71.0915 277.771 71.5088 276.924 71.8047C276.078 72.1006 275.155 72.2486 274.154 72.2486C272.58 72.2486 271.177 71.8757 269.946 71.13C268.715 70.3783 267.745 69.3041 267.034 67.9073C266.33 66.5105 265.978 64.8445 265.978 62.9091C265.978 60.9678 266.333 59.3017 267.043 57.9109C267.754 56.5141 268.724 55.4428 269.955 54.6971C271.186 53.9454 272.586 53.5696 274.154 53.5696C275.119 53.5696 276.019 53.7087 276.853 53.9869C277.694 54.2591 278.448 54.6616 279.117 55.1942C279.786 55.721 280.339 56.3661 280.777 57.1296C281.215 57.8872 281.511 58.7543 281.665 59.7308ZM287.389 63.9034V72H284.735V53.8182H287.354V60.5831H287.522C287.842 59.8492 288.33 59.2662 288.987 58.8342C289.644 58.4021 290.502 58.1861 291.562 58.1861C292.497 58.1861 293.314 58.3784 294.012 58.7631C294.716 59.1478 295.261 59.7219 295.646 60.4854C296.036 61.243 296.231 62.19 296.231 63.3263V72H293.577V63.646C293.577 62.6457 293.32 61.8704 292.805 61.32C292.29 60.7636 291.574 60.4854 290.656 60.4854C290.029 60.4854 289.467 60.6186 288.969 60.8849C288.478 61.1513 288.09 61.5419 287.806 62.0568C287.528 62.5658 287.389 63.1813 287.389 63.9034ZM303.742 72.3018C302.878 72.3018 302.097 72.142 301.398 71.8224C300.7 71.4969 300.147 71.0264 299.738 70.4109C299.336 69.7953 299.134 69.0407 299.134 68.147C299.134 67.3776 299.282 66.7443 299.578 66.2472C299.874 65.75 300.274 65.3564 300.777 65.0664C301.28 64.7764 301.842 64.5574 302.464 64.4094C303.085 64.2615 303.718 64.149 304.364 64.0721C305.18 63.9774 305.843 63.9004 306.352 63.8413C306.861 63.7762 307.231 63.6726 307.462 63.5305C307.693 63.3885 307.808 63.1577 307.808 62.8381V62.7759C307.808 62.0006 307.589 61.3999 307.151 60.9737C306.719 60.5476 306.074 60.3345 305.216 60.3345C304.322 60.3345 303.618 60.5328 303.103 60.9293C302.594 61.32 302.242 61.755 302.046 62.2344L299.552 61.6662C299.848 60.8376 300.28 60.1688 300.848 59.6598C301.422 59.1449 302.082 58.772 302.828 58.5412C303.573 58.3045 304.358 58.1861 305.18 58.1861C305.725 58.1861 306.302 58.2512 306.911 58.3814C307.527 58.5057 308.101 58.7365 308.634 59.0739C309.172 59.4112 309.613 59.8936 309.957 60.521C310.3 61.1424 310.472 61.9503 310.472 62.9446V72H307.879V70.1357H307.773C307.601 70.4789 307.344 70.8163 307 71.1477C306.657 71.4792 306.216 71.7544 305.677 71.9734C305.139 72.1924 304.494 72.3018 303.742 72.3018ZM304.319 70.1712C305.053 70.1712 305.68 70.0262 306.201 69.7362C306.728 69.4461 307.128 69.0674 307.4 68.5998C307.678 68.1263 307.817 67.6203 307.817 67.0817V65.3239C307.722 65.4186 307.539 65.5073 307.267 65.5902C307 65.6671 306.695 65.7352 306.352 65.7944C306.009 65.8477 305.675 65.898 305.349 65.9453C305.023 65.9867 304.751 66.0223 304.532 66.0518C304.017 66.117 303.547 66.2264 303.121 66.3803C302.7 66.5342 302.363 66.7562 302.109 67.0462C301.86 67.3303 301.736 67.709 301.736 68.1825C301.736 68.8395 301.978 69.3366 302.464 69.674C302.949 70.0054 303.568 70.1712 304.319 70.1712ZM314.007 72V58.3636H316.662V72H314.007ZM315.348 56.2596C314.886 56.2596 314.489 56.1057 314.158 55.7979C313.833 55.4843 313.67 55.1114 313.67 54.6793C313.67 54.2414 313.833 53.8685 314.158 53.5607C314.489 53.247 314.886 53.0902 315.348 53.0902C315.809 53.0902 316.203 53.247 316.528 53.5607C316.86 53.8685 317.026 54.2414 317.026 54.6793C317.026 55.1114 316.86 55.4843 316.528 55.7979C316.203 56.1057 315.809 56.2596 315.348 56.2596ZM322.887 63.9034V72H320.233V58.3636H322.781V60.5831H322.949C323.263 59.861 323.754 59.281 324.423 58.843C325.098 58.4051 325.947 58.1861 326.971 58.1861C327.9 58.1861 328.714 58.3814 329.412 58.772C330.111 59.1567 330.652 59.7308 331.037 60.4943C331.422 61.2578 331.614 62.2018 331.614 63.3263V72H328.96V63.646C328.96 62.6576 328.702 61.8852 328.187 61.3288C327.672 60.7666 326.965 60.4854 326.065 60.4854C325.45 60.4854 324.902 60.6186 324.423 60.8849C323.95 61.1513 323.574 61.5419 323.296 62.0568C323.023 62.5658 322.887 63.1813 322.887 63.9034ZM342.003 53.8182H345.333L351.121 67.9517H351.334L357.122 53.8182H360.452V72H357.841V58.843H357.673L352.311 71.9734H350.144L344.782 58.8342H344.613V72H342.003V53.8182ZM368.195 72.3018C367.331 72.3018 366.55 72.142 365.851 71.8224C365.153 71.4969 364.6 71.0264 364.191 70.4109C363.789 69.7953 363.588 69.0407 363.588 68.147C363.588 67.3776 363.736 66.7443 364.032 66.2472C364.327 65.75 364.727 65.3564 365.23 65.0664C365.733 64.7764 366.295 64.5574 366.917 64.4094C367.538 64.2615 368.172 64.149 368.817 64.0721C369.633 63.9774 370.296 63.9004 370.805 63.8413C371.314 63.7762 371.684 63.6726 371.915 63.5305C372.146 63.3885 372.261 63.1577 372.261 62.8381V62.7759C372.261 62.0006 372.042 61.3999 371.604 60.9737C371.172 60.5476 370.527 60.3345 369.669 60.3345C368.775 60.3345 368.071 60.5328 367.556 60.9293C367.047 61.32 366.695 61.755 366.5 62.2344L364.005 61.6662C364.301 60.8376 364.733 60.1688 365.301 59.6598C365.875 59.1449 366.535 58.772 367.281 58.5412C368.027 58.3045 368.811 58.1861 369.633 58.1861C370.178 58.1861 370.755 58.2512 371.365 58.3814C371.98 58.5057 372.554 58.7365 373.087 59.0739C373.626 59.4112 374.066 59.8936 374.41 60.521C374.753 61.1424 374.925 61.9503 374.925 62.9446V72H372.332V70.1357H372.226C372.054 70.4789 371.797 70.8163 371.453 71.1477C371.11 71.4792 370.669 71.7544 370.131 71.9734C369.592 72.1924 368.947 72.3018 368.195 72.3018ZM368.772 70.1712C369.506 70.1712 370.134 70.0262 370.654 69.7362C371.181 69.4461 371.581 69.0674 371.853 68.5998C372.131 68.1263 372.27 67.6203 372.27 67.0817V65.3239C372.175 65.4186 371.992 65.5073 371.72 65.5902C371.453 65.6671 371.149 65.7352 370.805 65.7944C370.462 65.8477 370.128 65.898 369.802 65.9453C369.477 65.9867 369.204 66.0223 368.985 66.0518C368.47 66.117 368 66.2264 367.574 66.3803C367.154 66.5342 366.816 66.7562 366.562 67.0462C366.313 67.3303 366.189 67.709 366.189 68.1825C366.189 68.8395 366.431 69.3366 366.917 69.674C367.402 70.0054 368.021 70.1712 368.772 70.1712ZM381.115 63.9034V72H378.46V58.3636H381.008V60.5831H381.177C381.491 59.861 381.982 59.281 382.651 58.843C383.325 58.4051 384.175 58.1861 385.199 58.1861C386.128 58.1861 386.942 58.3814 387.64 58.772C388.338 59.1567 388.88 59.7308 389.265 60.4943C389.649 61.2578 389.842 62.2018 389.842 63.3263V72H387.187V63.646C387.187 62.6576 386.93 61.8852 386.415 61.3288C385.9 60.7666 385.193 60.4854 384.293 60.4854C383.677 60.4854 383.13 60.6186 382.651 60.8849C382.177 61.1513 381.801 61.5419 381.523 62.0568C381.251 62.5658 381.115 63.1813 381.115 63.9034ZM397.37 72.3018C396.506 72.3018 395.725 72.142 395.026 71.8224C394.328 71.4969 393.775 71.0264 393.366 70.4109C392.964 69.7953 392.762 69.0407 392.762 68.147C392.762 67.3776 392.91 66.7443 393.206 66.2472C393.502 65.75 393.902 65.3564 394.405 65.0664C394.908 64.7764 395.47 64.5574 396.092 64.4094C396.713 64.2615 397.346 64.149 397.991 64.0721C398.808 63.9774 399.471 63.9004 399.98 63.8413C400.489 63.7762 400.859 63.6726 401.09 63.5305C401.321 63.3885 401.436 63.1577 401.436 62.8381V62.7759C401.436 62.0006 401.217 61.3999 400.779 60.9737C400.347 60.5476 399.702 60.3345 398.844 60.3345C397.95 60.3345 397.246 60.5328 396.731 60.9293C396.222 61.32 395.87 61.755 395.674 62.2344L393.18 61.6662C393.476 60.8376 393.908 60.1688 394.476 59.6598C395.05 59.1449 395.71 58.772 396.456 58.5412C397.201 58.3045 397.986 58.1861 398.808 58.1861C399.353 58.1861 399.93 58.2512 400.539 58.3814C401.155 58.5057 401.729 58.7365 402.262 59.0739C402.8 59.4112 403.241 59.8936 403.585 60.521C403.928 61.1424 404.099 61.9503 404.099 62.9446V72H401.507V70.1357H401.401C401.229 70.4789 400.971 70.8163 400.628 71.1477C400.285 71.4792 399.844 71.7544 399.305 71.9734C398.767 72.1924 398.122 72.3018 397.37 72.3018ZM397.947 70.1712C398.681 70.1712 399.308 70.0262 399.829 69.7362C400.356 69.4461 400.755 69.0674 401.028 68.5998C401.306 68.1263 401.445 67.6203 401.445 67.0817V65.3239C401.35 65.4186 401.167 65.5073 400.895 65.5902C400.628 65.6671 400.323 65.7352 399.98 65.7944C399.637 65.8477 399.302 65.898 398.977 65.9453C398.651 65.9867 398.379 66.0223 398.16 66.0518C397.645 66.117 397.175 66.2264 396.749 66.3803C396.328 66.5342 395.991 66.7562 395.737 67.0462C395.488 67.3303 395.364 67.709 395.364 68.1825C395.364 68.8395 395.606 69.3366 396.092 69.674C396.577 70.0054 397.195 70.1712 397.947 70.1712ZM413.352 77.3977C412.269 77.3977 411.337 77.2557 410.556 76.9716C409.781 76.6875 409.147 76.3117 408.656 75.8441C408.165 75.3765 407.798 74.8646 407.555 74.3082L409.837 73.3672C409.997 73.6276 410.21 73.9028 410.476 74.1928C410.748 74.4888 411.115 74.7403 411.577 74.9474C412.044 75.1546 412.645 75.2582 413.379 75.2582C414.385 75.2582 415.217 75.0125 415.874 74.5213C416.531 74.036 416.859 73.2607 416.859 72.1953V69.5142H416.69C416.531 69.8042 416.3 70.1268 415.998 70.4819C415.702 70.837 415.294 71.1448 414.773 71.4052C414.252 71.6656 413.574 71.7958 412.74 71.7958C411.663 71.7958 410.692 71.5443 409.828 71.0412C408.97 70.5322 408.289 69.7835 407.786 68.7951C407.289 67.8008 407.04 66.5786 407.04 65.1286C407.04 63.6785 407.286 62.4356 407.777 61.3999C408.274 60.3641 408.955 59.571 409.819 59.0206C410.683 58.4643 411.663 58.1861 412.758 58.1861C413.604 58.1861 414.287 58.3281 414.808 58.6122C415.329 58.8904 415.735 59.2159 416.025 59.5888C416.321 59.9616 416.548 60.2901 416.708 60.5742H416.903V58.3636H419.505V72.3018C419.505 73.4737 419.232 74.4355 418.688 75.1871C418.143 75.9388 417.407 76.4951 416.477 76.8562C415.554 77.2172 414.512 77.3977 413.352 77.3977ZM413.326 69.5941C414.089 69.5941 414.734 69.4165 415.261 69.0614C415.794 68.7004 416.196 68.1855 416.468 67.5167C416.747 66.842 416.886 66.0341 416.886 65.093C416.886 64.1757 416.75 63.3678 416.477 62.6694C416.205 61.971 415.806 61.4265 415.279 61.0359C414.752 60.6393 414.101 60.4411 413.326 60.4411C412.527 60.4411 411.861 60.6482 411.328 61.0625C410.796 61.4709 410.393 62.0272 410.121 62.7315C409.854 63.4358 409.721 64.223 409.721 65.093C409.721 65.9867 409.857 66.771 410.13 67.4457C410.402 68.1204 410.804 68.6471 411.337 69.0259C411.876 69.4047 412.539 69.5941 413.326 69.5941ZM428.942 72.2752C427.598 72.2752 426.441 71.9882 425.471 71.4141C424.506 70.834 423.76 70.0202 423.233 68.9727C422.713 67.9192 422.452 66.6851 422.452 65.2706C422.452 63.8738 422.713 62.6428 423.233 61.5774C423.76 60.5121 424.494 59.6805 425.435 59.0827C426.382 58.485 427.489 58.1861 428.755 58.1861C429.525 58.1861 430.271 58.3133 430.993 58.5678C431.715 58.8223 432.363 59.2218 432.937 59.7663C433.511 60.3108 433.964 61.0181 434.295 61.8881C434.627 62.7522 434.792 63.8028 434.792 65.0398V65.9808H423.953V63.9922H432.191C432.191 63.2938 432.049 62.6753 431.765 62.1367C431.481 61.5922 431.081 61.1631 430.566 60.8494C430.057 60.5357 429.46 60.3789 428.773 60.3789C428.027 60.3789 427.376 60.5624 426.82 60.9293C426.27 61.2904 425.843 61.7638 425.542 62.3498C425.246 62.9298 425.098 63.5601 425.098 64.2408V65.7944C425.098 66.7058 425.258 67.4812 425.577 68.1204C425.903 68.7596 426.355 69.2479 426.935 69.5852C427.515 69.9167 428.193 70.0824 428.968 70.0824C429.472 70.0824 429.93 70.0114 430.345 69.8693C430.759 69.7214 431.117 69.5024 431.419 69.2124C431.721 68.9223 431.951 68.5643 432.111 68.1381L434.624 68.5909C434.422 69.3307 434.061 69.9788 433.541 70.5352C433.026 71.0856 432.378 71.5147 431.596 71.8224C430.821 72.1243 429.936 72.2752 428.942 72.2752ZM437.738 72V58.3636H440.286V60.5831H440.454C440.738 59.8314 441.203 59.2455 441.848 58.8253C442.493 58.3991 443.266 58.1861 444.165 58.1861C445.077 58.1861 445.84 58.3991 446.456 58.8253C447.077 59.2514 447.536 59.8374 447.832 60.5831H447.974C448.299 59.8551 448.817 59.2751 449.527 58.843C450.238 58.4051 451.084 58.1861 452.066 58.1861C453.303 58.1861 454.312 58.5737 455.094 59.3491C455.881 60.1244 456.275 61.2933 456.275 62.8558V72H453.62V63.1044C453.62 62.1811 453.368 61.5123 452.865 61.098C452.362 60.6837 451.762 60.4766 451.063 60.4766C450.199 60.4766 449.527 60.7429 449.048 61.2756C448.569 61.8023 448.329 62.48 448.329 63.3086V72H445.683V62.9357C445.683 62.1959 445.452 61.6011 444.991 61.1513C444.529 60.7015 443.928 60.4766 443.189 60.4766C442.685 60.4766 442.221 60.6097 441.795 60.8761C441.375 61.1365 441.034 61.5005 440.774 61.968C440.519 62.4356 440.392 62.9772 440.392 63.5927V72H437.738ZM465.709 72.2752C464.366 72.2752 463.209 71.9882 462.238 71.4141C461.273 70.834 460.528 70.0202 460.001 68.9727C459.48 67.9192 459.22 66.6851 459.22 65.2706C459.22 63.8738 459.48 62.6428 460.001 61.5774C460.528 60.5121 461.262 59.6805 462.203 59.0827C463.15 58.485 464.256 58.1861 465.523 58.1861C466.292 58.1861 467.038 58.3133 467.76 58.5678C468.482 58.8223 469.13 59.2218 469.704 59.7663C470.279 60.3108 470.731 61.0181 471.063 61.8881C471.394 62.7522 471.56 63.8028 471.56 65.0398V65.9808H460.72V63.9922H468.959C468.959 63.2938 468.817 62.6753 468.533 62.1367C468.248 61.5922 467.849 61.1631 467.334 60.8494C466.825 60.5357 466.227 60.3789 465.541 60.3789C464.795 60.3789 464.144 60.5624 463.588 60.9293C463.037 61.2904 462.611 61.7638 462.309 62.3498C462.013 62.9298 461.865 63.5601 461.865 64.2408V65.7944C461.865 66.7058 462.025 67.4812 462.345 68.1204C462.67 68.7596 463.123 69.2479 463.703 69.5852C464.283 69.9167 464.961 70.0824 465.736 70.0824C466.239 70.0824 466.698 70.0114 467.112 69.8693C467.526 69.7214 467.884 69.5024 468.186 69.2124C468.488 68.9223 468.719 68.5643 468.879 68.1381L471.391 68.5909C471.19 69.3307 470.829 69.9788 470.308 70.5352C469.793 71.0856 469.145 71.5147 468.364 71.8224C467.589 72.1243 466.704 72.2752 465.709 72.2752ZM477.16 63.9034V72H474.505V58.3636H477.053V60.5831H477.222C477.535 59.861 478.027 59.281 478.695 58.843C479.37 58.4051 480.22 58.1861 481.243 58.1861C482.173 58.1861 482.986 58.3814 483.685 58.772C484.383 59.1567 484.925 59.7308 485.309 60.4943C485.694 61.2578 485.887 62.2018 485.887 63.3263V72H483.232V63.646C483.232 62.6576 482.975 61.8852 482.46 61.3288C481.945 60.7666 481.238 60.4854 480.338 60.4854C479.722 60.4854 479.175 60.6186 478.695 60.8849C478.222 61.1513 477.846 61.5419 477.568 62.0568C477.296 62.5658 477.16 63.1813 477.16 63.9034ZM495.812 58.3636V60.4943H488.363V58.3636H495.812ZM490.361 55.0966H493.015V67.9961C493.015 68.511 493.092 68.8987 493.246 69.1591C493.4 69.4136 493.598 69.5882 493.841 69.6829C494.09 69.7717 494.359 69.8161 494.649 69.8161C494.862 69.8161 495.048 69.8013 495.208 69.7717C495.368 69.7421 495.492 69.7184 495.581 69.7006L496.061 71.8935C495.907 71.9527 495.688 72.0118 495.404 72.071C495.119 72.1361 494.764 72.1716 494.338 72.1776C493.64 72.1894 492.989 72.0651 492.385 71.8047C491.781 71.5443 491.293 71.1418 490.92 70.5973C490.547 70.0528 490.361 69.3692 490.361 68.5465V55.0966ZM500.497 72.1687C500.012 72.1687 499.595 71.997 499.245 71.6538C498.896 71.3046 498.722 70.8844 498.722 70.3931C498.722 69.9078 498.896 69.4935 499.245 69.1502C499.595 68.801 500.012 68.6264 500.497 68.6264C500.983 68.6264 501.4 68.801 501.749 69.1502C502.098 69.4935 502.273 69.9078 502.273 70.3931C502.273 70.7186 502.19 71.0175 502.024 71.2898C501.864 71.5561 501.651 71.7692 501.385 71.929C501.119 72.0888 500.823 72.1687 500.497 72.1687Z" fill="black"/>
</svg>
